<svg width="51" height="39" viewBox="0 0 51 39" fill="none" xmlns="http://www.w3.org/2000/svg">
<path d="M33.2367 38.2783L33.2566 38.2812L33.2767 38.2826C33.612 38.3051 33.9487 38.2801 34.2769 38.2085C34.324 38.2038 34.3633 38.1956 34.3892 38.1898C34.4012 38.187 34.4128 38.1842 34.423 38.1816C34.8211 38.3219 35.1999 38.3117 35.5226 38.277C35.6374 38.2646 35.7603 38.2471 35.8719 38.2311C35.9235 38.2237 35.9726 38.2167 36.0175 38.2107C36.1686 38.1904 36.3017 38.1768 36.4282 38.1763C37.4092 38.2087 38.3913 38.1896 39.3703 38.1189C39.8901 38.0865 40.4119 38.0738 40.9436 38.0623C40.9796 38.0616 41.0156 38.0608 41.0517 38.06C41.5466 38.0494 42.0506 38.0386 42.5554 38.0119L42.5728 38.011L42.5901 38.0088C43.5713 37.888 44.5611 37.8514 45.5486 37.8994L45.566 37.9003L45.5833 37.8999C45.9577 37.8921 46.3299 37.8412 46.6926 37.7483C47.3458 37.6591 47.9869 37.4968 48.6039 37.2642L48.6039 37.2642L48.6088 37.2624C48.7611 37.2031 48.9654 37.1118 49.129 36.9445C49.3026 36.7671 49.3969 36.5406 49.4074 36.2783C49.4564 36.0102 49.5285 35.7469 49.623 35.4912L49.6276 35.4787L49.6316 35.4659C49.8355 34.808 49.8355 34.1037 49.6316 33.4458L49.6256 33.4267L49.6182 33.4082C49.428 32.9326 49.2903 32.4376 49.2074 31.9322L49.204 31.9114L49.1989 31.891C49.0723 31.3879 48.8861 30.9016 48.6443 30.4427C48.5572 30.2422 48.4179 30.0685 48.2409 29.9397C48.0563 29.8054 47.8378 29.7254 47.6101 29.7085L47.606 29.7082C46.8797 29.4402 46.105 29.3278 45.3321 29.3786C44.9138 29.3492 44.4999 29.2746 44.0976 29.1561C44.0887 29.1532 44.0835 29.1514 44.0762 29.1489C44.0682 29.1461 44.0577 29.1424 44.0367 29.1354C44.0069 29.1255 43.9607 29.1108 43.9073 29.1C43.7918 29.0766 43.6266 29.0682 43.4506 29.1516L43.4506 29.1515L43.4427 29.1554C43.2807 29.2357 43.0958 29.2528 42.8233 29.2426C42.7781 29.2409 42.7277 29.2381 42.6734 29.235C42.4433 29.2222 42.1418 29.2053 41.8601 29.2532C41.4255 29.3206 40.9827 29.3527 40.5194 29.3827C40.4773 29.3854 40.4349 29.3881 40.3924 29.3908C39.9726 29.4177 39.5348 29.4458 39.0994 29.5014L39.0886 29.5028L39.078 29.5046C39.0057 29.5171 38.932 29.5179 38.8595 29.5072C38.1858 29.3398 37.4835 29.3237 36.8029 29.46C36.7772 29.4612 36.7513 29.4607 36.7256 29.4584L36.6923 29.4555L36.6588 29.457C35.796 29.4962 34.9277 29.6076 34.0888 29.7152C33.7049 29.7645 33.3272 29.813 32.959 29.8534L32.9517 29.8542L32.9445 29.8552C32.7654 29.8801 32.5848 29.8939 32.4039 29.8965C31.7323 29.903 31.0866 30.1545 30.5877 30.6033C30.3711 30.7671 30.1975 30.9812 30.0819 31.2272C29.9621 31.482 29.9084 31.7629 29.9258 32.0439L29.9258 32.0439L29.9263 32.0508C30.0002 33.0252 29.9607 34.0048 29.8088 34.97C29.747 35.3264 29.7282 35.8234 29.768 36.3013C29.8064 36.7632 29.9065 37.3028 30.1466 37.6792L30.1673 37.7116L30.1927 37.7405C30.2715 37.8301 30.3597 37.911 30.4558 37.9817L30.5854 38.0771L30.7462 38.079C31.5799 38.0891 32.412 38.1557 33.2367 38.2783Z" fill="white" stroke="black"/>
<path d="M50.9941 11.5138C50.9635 11.1548 50.9122 10.7978 50.8406 10.4446C50.7192 9.6073 50.7313 8.75603 50.8764 7.9225C51.076 6.14219 51.0146 1.96254 48.7124 1.53792C47.6176 1.34352 46.3591 1.64535 45.2285 1.64535C43.7552 1.64535 42.0772 1.43049 40.6243 1.6914C40.5031 1.68942 40.3852 1.7305 40.2915 1.80732C40.1979 1.88414 40.1345 1.99172 40.1127 2.1109C39.949 2.94478 39.4374 3.64565 39.4323 4.49488C39.4323 4.85811 39.509 5.21622 39.4885 5.57433C39.4681 5.93244 39.2993 6.41844 39.2993 6.85329C39.2993 7.28814 39.2635 7.87646 39.2635 8.38804V12.317C39.2635 12.7979 39.2635 13.289 39.2635 13.7699C39.2635 14.1485 39.4169 14.4401 39.4579 14.7931C39.5499 15.7088 39.1202 16.6041 39.1202 17.5198C39.0653 18.0662 38.9817 18.6092 38.8695 19.1467C38.7416 20.3182 39.0128 21.4693 38.9718 22.6357C38.9216 23.2875 38.9096 23.9418 38.936 24.5951C39.0128 25.4392 38.9105 26.4163 39.9285 26.6823C40.6345 26.8614 41.3661 26.5033 42.0669 26.6823C42.7444 26.937 43.4673 27.0484 44.19 27.0097C44.8295 26.9279 45.4741 26.5749 46.134 26.6465C46.794 26.7181 47.4744 27.1581 48.0423 26.8153C48.4019 26.5226 48.6985 26.1599 48.9139 25.7493C49.1293 25.3386 49.2592 24.8885 49.2956 24.4262C49.3775 23.577 49.6231 22.7227 49.7049 21.8683C49.8805 20.8669 50.1127 19.8762 50.4007 18.9011C50.5605 18.2483 50.6599 17.5821 50.6974 16.9111C50.6974 16.2358 50.5746 15.5707 50.6002 14.9005C50.6565 14.0874 50.7675 13.2789 50.9327 12.4807C50.9905 12.1619 51.0111 11.8374 50.9941 11.5138Z" fill="black"/>
<path d="M36.7813 17.9592C36.7813 17.9592 36.7813 17.9592 36.7813 17.9336C36.7813 15.7952 37.1906 11.0732 37.2008 10.9197C37.2494 10.1395 37.2494 9.35695 37.2008 8.57669C37.1287 8.09752 37.115 7.61138 37.1599 7.1289C37.1701 7.00975 37.1701 6.88994 37.1599 6.77079C37.1495 6.21286 37.0314 5.6622 36.812 5.14907C36.6371 4.75783 36.5751 4.32544 36.633 3.9008C36.7507 2.45301 36.679 1.31218 35.3438 0.50899C34.3871 -0.0742174 33.0621 0.00252033 31.9827 0.0332154C31.113 0.0741422 30.2024 -0.0588699 29.3429 0.0332154C27.2966 0.268545 26.1762 1.12289 25.8948 3.17435C25.8414 3.92163 25.9335 4.67219 26.166 5.3844C26.312 6.2288 26.3498 7.08836 26.2785 7.94232C26.2858 8.77635 26.1896 9.60806 25.992 10.4184C25.5469 12.2703 25.8539 14.1939 25.7618 16.0765C25.7311 16.7007 25.5776 17.2941 25.5725 17.9182C25.5674 18.5424 25.5725 19.1051 25.5725 19.6985C25.5725 20.8547 25.1633 22.4048 25.5725 23.515C25.7769 24.2711 25.8393 25.0586 25.7567 25.8376C25.758 26.2093 25.8606 26.5736 26.0534 26.8914C26.2274 27.1626 26.2376 27.403 26.565 27.5463C26.9522 27.6401 27.3546 27.6523 27.7468 27.5821C28.511 27.595 29.2751 27.554 30.0335 27.4593C30.5421 27.3851 31.0546 27.3407 31.5683 27.3263C31.9677 27.3041 32.3647 27.2493 32.7552 27.1626C33.3026 27.0296 33.8755 27.0398 34.4127 26.8556C34.7047 26.7644 34.9673 26.5975 35.1739 26.372C35.3806 26.1465 35.5239 25.8703 35.5894 25.5715C35.7735 24.9883 35.5894 24.4051 35.707 23.8373C35.707 23.735 35.707 23.6173 35.7735 23.5406C36.234 22.7936 36.1368 21.9035 36.4335 21.1105C36.4642 20.962 36.4642 20.8088 36.4335 20.6603C36.4076 20.4122 36.4232 20.1615 36.4795 19.9185C36.5716 19.2586 36.6739 18.6089 36.7813 17.9592Z" fill="black"/>
<path d="M29.5376 26.2873C29.906 26.2873 30.2743 26.2515 30.6529 26.2106C31.0314 26.1697 31.5226 26.2413 31.9523 26.2106C32.382 26.1799 32.822 26.0162 33.2722 25.9957C33.4717 25.9957 33.6201 26.0622 33.8196 25.9957C33.9778 25.9163 34.1178 25.8048 34.2306 25.6683C34.3433 25.5317 34.4264 25.3732 34.4744 25.2028C34.7762 24.4558 34.7507 23.6424 34.986 22.8802C35.1812 22.0424 35.2365 21.1781 35.1497 20.3222C35.1962 19.5641 35.3301 18.814 35.5487 18.0866C35.7278 17.2271 35.7738 16.3216 36.0347 15.4775C36.0756 15.1154 36.0756 14.7499 36.0347 14.3878C36.091 13.7074 36.091 13.0168 36.0808 12.3415C36.0808 11.5741 36.0501 10.8068 36.0501 10.0445C36.0501 9.28223 35.9682 8.37672 35.958 7.55307C35.956 7.0209 35.8943 6.49064 35.7738 5.97227C35.7197 5.72646 35.6855 5.47668 35.6715 5.22536C35.6667 4.86847 35.5773 4.51781 35.4106 4.20219C35.2401 3.81349 35.0453 3.43588 34.8274 3.07159C34.6765 2.87 34.5717 2.63773 34.5204 2.39118C34.5074 2.24551 34.4382 2.11064 34.3274 2.01514C34.2166 1.91965 34.073 1.87103 33.927 1.87959C33.1545 1.82843 32.3923 1.77216 31.5891 1.74658C30.8419 1.72711 30.0968 1.65875 29.3586 1.54195C29.2602 1.5266 29.1601 1.5266 29.0618 1.54195C28.7783 1.58023 28.491 1.58023 28.2075 1.54195C28.0917 1.51246 27.9707 1.50969 27.8537 1.53386C27.7367 1.55803 27.6267 1.6085 27.5321 1.68144C27.4374 1.75439 27.3606 1.8479 27.3075 1.95491C27.2543 2.06192 27.2262 2.17961 27.2252 2.29909C27.1818 2.71405 27.1818 3.13241 27.2252 3.54736C27.0922 3.70595 27.1485 3.90035 27.1383 4.05894C27.1666 4.6218 27.2663 5.17877 27.435 5.71648C27.4948 5.9244 27.5392 6.13642 27.568 6.35085C27.5767 6.82064 27.5022 7.28827 27.348 7.73213C27.0559 8.58784 26.9174 9.48843 26.9388 10.3924C26.9388 11.5025 26.7955 12.6126 27.0053 13.7279C27.033 13.9769 27.0033 14.2289 26.9183 14.4646C26.8339 14.9912 26.7177 15.5123 26.5704 16.0249C26.5166 16.1898 26.4975 16.3639 26.5141 16.5365C26.4996 17.169 26.4415 17.7997 26.3402 18.4243C26.3026 18.6223 26.3167 18.8267 26.3811 19.0177C26.404 19.1136 26.404 19.2134 26.3811 19.3093C26.2606 19.9326 26.3065 20.5767 26.5141 21.1766C26.7239 21.7751 26.4272 22.5527 26.596 23.1922C26.6983 23.5913 26.8876 23.9494 26.9592 24.3638C27.0667 24.9879 26.9234 25.8269 27.5987 26.0366C28.2267 26.2266 28.8819 26.3113 29.5376 26.2873V26.2873Z" fill="white"/>
<path d="M13.0642 25.376C12.6754 25.0282 12.9721 24.5268 12.967 23.9948C12.967 23.5497 12.7265 23.3297 12.5781 22.9256C12.2303 21.9689 12.353 20.9201 12.1945 19.9277C12.0238 18.4413 12.0582 16.9385 12.2968 15.4615C12.4008 14.5001 12.4384 13.5326 12.4093 12.566C12.4033 12.3482 12.4204 12.1304 12.4605 11.9162C12.6672 11.1309 12.8109 10.3303 12.8902 9.52202C12.9136 9.38911 12.9444 9.2576 12.9823 9.1281C13.179 8.52828 13.2842 7.90223 13.2944 7.27105C13.3017 6.30269 13.3684 5.33569 13.4939 4.37547C13.5348 3.8997 13.5757 3.41881 13.5911 2.93792C13.5425 2.56433 13.5425 2.18602 13.5911 1.81243C13.8611 1.41574 14.27 1.13464 14.737 1.02459C15.6188 0.817839 16.518 0.694515 17.4229 0.65625C18.1099 0.724527 18.793 0.828692 19.4692 0.968317C20.1985 1.09619 20.912 1.30201 21.5974 1.58222C22.3424 1.79975 23.0235 2.19473 23.5823 2.73329C24.2628 3.46997 24.0632 4.96891 23.9814 5.88977C23.9267 6.42165 23.9079 6.95662 23.9251 7.49103C23.9657 7.95781 23.9099 8.42794 23.7614 8.87231C23.6831 9.09192 23.65 9.32511 23.6642 9.55783C23.6876 9.95919 23.6567 10.3619 23.5721 10.7549C23.5129 11.0321 23.4939 11.3164 23.5158 11.5991C23.5669 12.2307 23.5669 12.8654 23.5158 13.497C23.5158 14.0086 23.5721 14.4946 23.5823 14.9909C23.5823 15.8043 23.5823 16.6177 23.5261 17.4311C23.5261 17.9427 23.4903 18.4543 23.4442 18.9301C23.3283 19.5869 23.3042 20.2567 23.3726 20.9201C23.3982 21.0174 23.3982 21.1196 23.3726 21.2169C22.9377 22.3679 23.5568 23.7287 23.0349 24.8593C22.7024 25.5653 21.7202 25.4067 21.1063 25.4425C20.344 25.4835 19.6431 25.7955 18.8911 25.8518C18.62 25.8518 18.3488 25.8262 18.0777 25.8518C17.6019 25.8876 17.1517 26.1895 16.6759 26.1895C16.2002 26.1895 15.7602 26.0155 15.2998 26.0002C14.5661 26.0179 13.8407 25.8414 13.1972 25.4886L13.0642 25.376Z" fill="black"/>
<path d="M3.45066 26.1341C2.39168 26.1699 1.51687 26.1341 0.892738 25.1621C0.698157 24.7963 0.592968 24.3895 0.585784 23.9752C0.549973 23.7297 0.544864 23.4943 0.488589 23.2488C0.303741 22.6184 0.248056 21.9572 0.324878 21.3048C0.375272 21.0417 0.400968 20.7745 0.401621 20.5067C0.350462 19.7035 0.360693 18.9105 0.304418 18.1125C0.23119 16.4259 0.366936 14.7368 0.708567 13.0836C0.870682 12.2412 0.92398 11.3816 0.867157 10.5257C0.843645 10.3527 0.864783 10.1766 0.928553 10.0141C1.25915 9.32268 1.47183 8.58089 1.5578 7.81937C1.67546 6.98037 2.12565 6.66319 2.88792 6.47902C3.45643 6.34306 4.0345 6.25071 4.61708 6.20276C6.16712 6.07771 7.72584 6.29066 9.18554 6.82689C9.3699 6.88686 9.53718 6.99016 9.67338 7.12814C9.80957 7.26611 9.91069 7.43473 9.96826 7.61985C10.2521 8.56156 10.4238 9.53347 10.4798 10.5154C10.5008 12.6812 10.321 14.8442 9.94268 16.9767C9.82017 17.6745 9.7331 18.3779 9.68177 19.0845C9.68177 19.6268 9.4004 20.2151 9.50272 20.7522C9.62888 21.2221 9.66875 21.7109 9.62038 22.1949C9.51488 22.7441 9.36255 23.2832 9.16507 23.8064C9.02694 24.2106 8.78649 24.6096 8.68418 25.0291C8.58186 25.4486 8.64837 25.6481 8.20841 25.8016C7.76844 25.9551 7.34894 25.6788 6.90898 25.6328C6.46901 25.5867 6.20299 25.8067 5.80907 25.8937C5.03192 26.0456 4.24249 26.1261 3.45066 26.1341Z" fill="black"/>
<path d="M42.5742 26.027C41.9092 25.98 41.2857 25.6865 40.8259 25.2039C40.366 24.7213 40.1028 24.0844 40.0879 23.4179C40.0879 22.6096 40.0879 21.8218 40.18 21.0237C40.2721 20.1285 40.6046 19.2946 40.6916 18.3942C40.7672 16.6968 40.7296 14.9963 40.579 13.3039C40.4972 11.6924 40.4102 10.0246 40.8297 8.48477C40.936 8.01598 40.9183 7.52759 40.7785 7.06768C40.7142 6.79823 40.6681 6.52477 40.6404 6.24915C40.5176 4.8781 40.6404 3.9112 40.9627 3.38427C41.1494 3.1224 41.402 2.91447 41.6948 2.78152C41.9877 2.64857 42.3104 2.59531 42.6305 2.62712C43.1126 2.64067 43.5923 2.70063 44.0629 2.80618L44.5336 2.88803C44.9088 2.93156 45.2864 2.95207 45.6642 2.94942C46.6311 2.94942 47.7105 2.98012 48.5188 3.88562C48.9625 4.47581 49.2478 5.16969 49.3476 5.90127C49.3885 6.09055 49.4294 6.27473 49.4755 6.44866L49.5164 6.59191C49.6894 7.1092 49.7691 7.65311 49.7517 8.19829C49.7166 8.51746 49.6515 8.83263 49.5573 9.1396C49.2862 10.1218 49.4652 11.1143 49.4652 12.1221C49.4471 12.9631 49.3512 13.8005 49.1788 14.6238C49.015 15.56 48.969 16.5218 48.8206 17.4631C48.6793 18.247 48.5989 19.0406 48.5802 19.8368C48.6179 20.4546 48.5991 21.0745 48.5239 21.6888C48.409 22.1492 48.3185 22.6154 48.2528 23.0854C48.1556 24.4053 47.6082 25.6433 46.1246 25.6433H45.5311H45.1577C44.8405 25.6792 44.5233 25.7354 44.1908 25.7968C43.7833 25.8783 43.3717 25.9381 42.9579 25.9759L42.5742 26.027Z" fill="white"/>
<path d="M14.8439 24.2831C14.9768 24.4455 15.1407 24.5798 15.326 24.6782C15.5113 24.7765 15.7144 24.837 15.9233 24.8561C16.5503 25.0223 17.2097 25.0223 17.8367 24.8561C18.0587 24.7674 18.2906 24.7056 18.5273 24.672C18.929 24.6798 19.3307 24.6593 19.7295 24.6106C20.3383 24.4663 20.9226 24.2337 21.4638 23.9199C21.5308 23.8838 21.584 23.8267 21.6155 23.7574C21.6469 23.6881 21.6547 23.6104 21.6377 23.5362C21.5975 23.2083 21.6415 22.8755 21.7656 22.5693C21.8844 22.1487 21.9345 21.7116 21.914 21.275C21.9697 20.6846 22.0724 20.0995 22.221 19.5254C22.3621 18.853 22.4001 18.1629 22.3335 17.4791C22.3069 17.044 22.3189 16.6075 22.3693 16.1745C22.3949 15.3151 22.2516 14.4505 22.3693 13.5808C22.4409 12.9567 22.4154 12.3223 22.4307 11.693C22.4374 11.4258 22.4804 11.1608 22.5586 10.9052C22.6331 10.6199 22.6539 10.3233 22.62 10.0304C22.6176 9.66465 22.6518 9.2996 22.7223 8.94071C22.7775 8.60261 22.7929 8.25922 22.7683 7.91754C22.7434 7.47081 22.7831 7.02283 22.886 6.58742C22.9637 5.97953 22.9203 5.36228 22.7581 4.77129C22.6763 4.36714 22.62 3.80439 22.2465 3.55883C21.8731 3.31327 21.4229 3.13422 21.0443 2.86819C20.5289 2.50144 19.9167 2.295 19.2845 2.27475C18.602 2.22221 17.9158 2.24451 17.2381 2.34126C16.5034 2.36069 15.7786 2.51502 15.0997 2.79657C14.7365 2.99609 14.7365 3.23142 14.6239 3.63557C14.3784 4.54619 13.8975 5.34426 14.0663 6.34697C14.1352 6.68455 14.1352 7.03257 14.0663 7.37014C14.0057 7.53345 13.9864 7.70917 14.01 7.88173C13.9704 8.22671 13.9071 8.56857 13.8207 8.9049C13.4336 10.0923 13.2048 11.3257 13.1403 12.573C13.1403 12.8697 13.1403 13.1766 13.1403 13.4734C13.1771 13.8903 13.1443 14.3104 13.0431 14.7165C13.0131 14.7931 12.9975 14.8747 12.9971 14.9569C13.0482 15.9443 12.7566 16.901 12.7669 17.8781C12.7901 18.5269 12.8602 19.1732 12.9766 19.8119C13.1199 20.8351 13.345 22.1038 13.9179 22.9428C14.1658 23.2486 14.3964 23.5679 14.6086 23.8995C14.6763 24.0336 14.7551 24.1619 14.8439 24.2831V24.2831Z" fill="white"/>
<path d="M5.02875 24.8459C5.22509 24.8669 5.42254 24.818 5.58637 24.7078C5.72268 24.6124 5.88555 24.5623 6.05192 24.5645C6.1126 24.5777 6.1754 24.5777 6.23609 24.5645C6.7886 24.1348 7.45877 23.8534 7.83223 23.2191C7.88616 23.1202 7.91431 23.0094 7.91409 22.8968C7.96013 22.5796 8.20569 22.334 8.26708 22.0475C8.42064 21.4732 8.50311 20.8821 8.51264 20.2877C8.48285 19.5257 8.56735 18.7635 8.76332 18.0265C8.95417 17.3232 9.0657 16.6008 9.09585 15.8727C9.12654 15.4993 9.19817 15.1258 9.24932 14.7626C9.4321 13.6634 9.52789 12.5515 9.53581 11.4373C9.47196 10.467 9.31955 9.50465 9.0805 8.56216C9.01396 8.3456 8.89216 8.15011 8.72711 7.99492C8.56205 7.83973 8.35943 7.7302 8.13919 7.67712C7.53835 7.39251 6.90413 7.18454 6.25143 7.0581C5.6158 7.0249 4.97886 7.0249 4.34322 7.0581C4.17374 7.03596 4.00143 7.05255 3.83927 7.1066C3.67712 7.16065 3.52933 7.25077 3.40702 7.37017C3.15635 7.58503 2.89543 7.73851 2.61918 7.93803C2.04109 8.39334 2.10759 9.35 2.10759 10.0151C2.17285 10.5976 2.18997 11.1845 2.15875 11.7698C2.08713 12.174 1.80065 12.4911 1.69833 12.8851C1.59601 13.279 1.69832 13.8008 1.61135 14.251C1.51415 14.8188 1.32998 15.3662 1.25325 15.9341C1.17056 16.6729 1.13639 17.4163 1.15093 18.1595C1.13123 18.6507 1.13978 19.1426 1.17651 19.6329C1.20721 19.9193 1.25325 20.2058 1.29929 20.4872C1.35721 21.1061 1.37941 21.7279 1.36579 22.3494C1.39995 22.6898 1.49163 23.0219 1.63693 23.3316C1.7546 23.6437 1.84157 24.1502 2.14852 24.3548C2.41832 24.4632 2.70287 24.5304 2.99264 24.5543C3.30982 24.6157 3.63212 24.6566 3.9493 24.7129C4.26648 24.7692 4.67575 24.7589 5.02875 24.8459Z" fill="white"/>
</svg>
