<svg width="170" height="33" viewBox="0 0 170 33" fill="none" xmlns="http://www.w3.org/2000/svg">
<path fill-rule="evenodd" clip-rule="evenodd" d="M38.1578 19.31C37.9261 19.7526 37.6072 20.1379 37.2018 20.4649C36.7959 20.7922 36.3227 21.0587 35.7816 21.2638C35.2409 21.4695 34.6963 21.6074 34.1492 21.6778C33.6016 21.7484 33.07 21.7423 32.5551 21.6585C32.0398 21.5752 31.6016 21.4052 31.2413 21.1483L31.6472 16.9325C32.0205 16.8043 32.4903 16.6726 33.0574 16.5378C33.6241 16.4033 34.2067 16.3068 34.8057 16.2491C35.4047 16.1913 35.9713 16.1981 36.5064 16.2684C37.0401 16.339 37.4624 16.509 37.7714 16.7786C37.9387 16.9325 38.0809 17.0993 38.1967 17.279C38.3125 17.4588 38.3834 17.6449 38.4093 17.8373C38.4733 18.3763 38.3899 18.8672 38.1578 19.31ZM32.2651 10.3296C32.5357 10.1628 32.8608 10.0151 33.2407 9.88662C33.6206 9.75865 34.0104 9.66849 34.4098 9.61724C34.8087 9.56619 35.1985 9.55936 35.5789 9.59792C35.9583 9.63651 36.2937 9.74227 36.5833 9.91541C36.8733 10.0888 37.089 10.3392 37.2303 10.6662C37.3721 10.9937 37.411 11.4076 37.3466 11.908C37.2951 12.3059 37.1369 12.6429 36.8733 12.9186C36.6092 13.1949 36.2868 13.4257 35.9073 13.6118C35.527 13.7981 35.1246 13.9456 34.6998 14.0543C34.2745 14.1637 33.8652 14.2441 33.4728 14.2951C33.0799 14.3466 32.7385 14.3789 32.4489 14.3913C32.159 14.4043 31.9687 14.4106 31.8788 14.4106L32.2651 10.3296ZM40.2444 16.5859C40.0383 16.137 39.7617 15.7424 39.4137 15.4019C39.0663 15.062 38.6535 14.8151 38.1772 14.661C38.3834 14.4941 38.5861 14.2311 38.7858 13.8716C38.9854 13.5126 39.1562 13.1209 39.2979 12.6974C39.4392 12.2736 39.5361 11.8472 39.5875 11.4172C39.6389 10.9873 39.6195 10.6183 39.53 10.3101C39.3105 9.5403 38.966 8.93705 38.4958 8.50061C38.0255 8.06444 37.4784 7.76282 36.8539 7.59577C36.2289 7.42946 35.54 7.39381 34.7867 7.49001C34.0329 7.58626 33.2632 7.77552 32.4778 8.05787C32.4778 7.99387 32.4842 7.92644 32.4972 7.85587C32.5097 7.78555 32.5163 7.71156 32.5163 7.63437C32.5163 7.44191 32.4197 7.27534 32.2266 7.13397C32.0334 6.99277 31.8111 6.90953 31.5602 6.88364C31.3089 6.85823 31.064 6.91243 30.8258 7.04727C30.5873 7.18207 30.4231 7.42946 30.3331 7.78823C30.2299 8.9434 30.127 10.1435 30.024 11.3881C29.9209 12.6331 29.8115 13.8909 29.6956 15.1616C29.5797 16.432 29.4637 17.693 29.3478 18.9441C29.2319 20.1956 29.1159 21.3986 29 22.5535C29.0387 22.9001 29.1353 23.1697 29.29 23.3622C29.4444 23.5549 29.6248 23.6704 29.8309 23.7087C30.0368 23.7473 30.2528 23.7116 30.478 23.6027C30.7032 23.4941 30.8998 23.3043 31.0675 23.0349C31.5825 23.3172 32.1622 23.5002 32.8063 23.5837C33.4503 23.667 34.1038 23.667 34.7672 23.5837C35.4302 23.5002 36.0841 23.3431 36.7281 23.1118C37.3721 22.8811 37.9581 22.5921 38.4863 22.2458C39.0144 21.8993 39.4587 21.5044 39.8196 21.0618C40.18 20.6188 40.4182 20.1408 40.5344 19.6277C40.6503 19.1015 40.6822 18.5754 40.6308 18.0491C40.5794 17.523 40.4506 17.0356 40.2444 16.5859Z" fill="white"/>
<path fill-rule="evenodd" clip-rule="evenodd" d="M59.0922 26.7497C59.0213 27.1732 58.921 27.6191 58.7927 28.0878C58.6635 28.5559 58.5122 28.9828 58.3384 29.368C58.1647 29.7529 57.9715 30.0638 57.7593 30.3014C57.5462 30.5388 57.3176 30.6385 57.073 30.6001C56.8798 30.574 56.7575 30.4521 56.7061 30.2343C56.6546 30.0157 56.6546 29.7463 56.7061 29.4256C56.7575 29.1047 56.8573 28.742 57.0056 28.3378C57.1534 27.9337 57.334 27.5324 57.5462 27.1348C57.7593 26.7367 58.0005 26.3552 58.271 25.9894C58.5416 25.6238 58.8247 25.3187 59.1212 25.075C59.1856 25.152 59.2145 25.3444 59.208 25.6526C59.2011 25.9606 59.1626 26.3264 59.0922 26.7497ZM65.6417 18.395C65.4679 18.2025 65.2553 18.0936 65.0042 18.0677C64.7531 18.0421 64.4985 18.1832 64.2409 18.4912C64.0732 18.7992 63.861 19.0944 63.6035 19.3767C63.3454 19.6593 63.0783 19.9158 62.8013 20.1468C62.5247 20.3776 62.2606 20.5769 62.0095 20.7434C61.7584 20.9105 61.5618 21.0324 61.42 21.1093C61.3686 20.6987 61.3396 20.256 61.3331 19.7809C61.3262 19.3062 61.3362 18.8251 61.3621 18.3374C61.4006 17.6442 61.4809 16.945 61.6037 16.239C61.726 15.5331 61.9032 14.84 62.1349 14.1596C62.1349 13.8006 62.051 13.5085 61.8837 13.2839C61.7161 13.0594 61.5134 12.918 61.2752 12.8604C61.0366 12.8027 60.7925 12.8347 60.5409 12.9566C60.2898 13.0787 60.0741 13.3002 59.8939 13.6206C59.7392 14.0444 59.562 14.5191 59.3628 15.0452C59.1626 15.5715 58.9375 16.1073 58.6864 16.6527C58.4353 17.1985 58.1548 17.7277 57.8457 18.2409C57.5367 18.7545 57.1987 19.2102 56.8314 19.6078C56.4644 20.0056 56.0651 20.317 55.6338 20.5415C55.202 20.7662 54.7357 20.8656 54.233 20.8399C54.0009 20.7757 53.8337 20.6025 53.7304 20.32C53.6275 20.0379 53.5661 19.6847 53.5471 19.2613C53.5277 18.8378 53.5471 18.3725 53.605 17.8655C53.663 17.3587 53.7403 16.8549 53.8367 16.3545C53.9335 15.8538 54.0398 15.3791 54.1557 14.9299C54.2715 14.4808 54.3808 14.102 54.4841 13.794C54.6389 13.4221 54.6389 13.1104 54.4841 12.8604C54.3294 12.61 54.1172 12.4435 53.8466 12.3597C53.5761 12.2764 53.2926 12.2798 52.9965 12.3695C52.7 12.4593 52.4874 12.6581 52.359 12.9661C52.1399 13.4927 51.9402 14.0827 51.76 14.7372C51.5793 15.3918 51.4346 16.069 51.3252 16.7682C51.2154 17.4679 51.1541 18.161 51.1415 18.8475C51.1407 18.8922 51.1428 18.9347 51.1428 18.9792C50.8619 19.7253 50.5939 20.2892 50.3398 20.6665C50.0113 21.1545 49.641 21.3662 49.2291 21.3017C49.0484 21.2248 48.9296 21.0453 48.8716 20.7628C48.8133 20.4807 48.7938 20.1341 48.8133 19.7231C48.8332 19.3128 48.8812 18.8475 48.9581 18.3276C49.0359 17.8079 49.1323 17.2688 49.2481 16.7106C49.3643 16.152 49.4867 15.5911 49.615 15.0261C49.7438 14.4615 49.8596 13.9288 49.9634 13.4282C49.9504 12.979 49.8182 12.6359 49.567 12.3983C49.3159 12.1612 48.9646 12.0681 48.5142 12.1192C48.2052 12.2476 47.9761 12.4146 47.8279 12.6198C47.6797 12.825 47.5608 13.0882 47.4709 13.4089C47.419 13.576 47.3417 13.9096 47.2388 14.4102C47.1355 14.9104 47.0037 15.485 46.8429 16.133C46.6817 16.7814 46.492 17.4581 46.2729 18.164C46.0537 18.8697 45.8091 19.5087 45.539 20.0794C45.268 20.6504 44.9719 21.1093 44.65 21.4559C44.328 21.8021 43.9801 21.9436 43.6066 21.8793C43.4005 21.8407 43.2687 21.629 43.2108 21.2441C43.1528 20.859 43.1429 20.3845 43.1818 19.8195C43.2203 19.2549 43.2976 18.6355 43.4134 17.962C43.5293 17.2882 43.6481 16.6498 43.7709 16.0463C43.8932 15.4433 44.006 14.9104 44.1093 14.4486C44.2121 13.9865 44.283 13.6785 44.3215 13.5246C44.3215 13.1524 44.2376 12.8543 44.0704 12.6293C43.9027 12.4051 43.7 12.2637 43.4619 12.2058C43.2233 12.1482 42.9787 12.1802 42.7276 12.3021C42.4765 12.4242 42.2608 12.6457 42.0801 12.9661C42.0157 13.3127 41.9319 13.714 41.829 14.1694C41.7257 14.6249 41.6263 15.0933 41.5299 15.5747C41.4331 16.0561 41.3428 16.5276 41.2594 16.9897C41.1755 17.4518 41.1142 17.856 41.0757 18.2025C41.0498 18.4719 41.0208 18.8026 40.9888 19.1938C40.9564 19.5856 40.9404 19.9993 40.9404 20.4355C40.9404 20.8721 40.9724 21.3052 41.0372 21.735C41.1012 22.1651 41.2175 22.5597 41.3847 22.9188C41.552 23.2783 41.7871 23.5733 42.0901 23.8043C42.3926 24.0353 42.776 24.1636 43.2397 24.1895C43.716 24.2149 44.1313 24.1799 44.4857 24.0834C44.8401 23.9872 45.1617 23.8363 45.4517 23.6309C45.7417 23.426 46.0053 23.182 46.2439 22.8994C46.482 22.6174 46.7172 22.3094 46.9492 21.9755C47.1679 22.4635 47.4514 22.8418 47.7994 23.1114C48.1469 23.3808 48.5142 23.5415 48.9006 23.5926C49.2865 23.6436 49.6798 23.5897 50.0792 23.4289C50.4781 23.2687 50.8386 22.9959 51.161 22.6108C51.3732 22.3746 51.5733 22.1062 51.7609 21.8095C51.8404 21.9484 51.9251 22.0825 52.0206 22.2063C52.3366 22.6174 52.7649 22.8994 53.306 23.0536C53.8851 23.2077 54.4517 23.2336 55.0058 23.1308C55.5594 23.0281 56.0876 22.8418 56.5898 22.5724C57.0924 22.3028 57.5592 21.979 57.991 21.6002C58.4223 21.2216 58.7987 20.8272 59.1212 20.4162C59.1078 20.7115 59.1017 20.9908 59.1017 21.2536C59.1017 21.5169 59.0952 21.8021 59.0823 22.1104C58.4383 22.5597 57.8298 23.0987 57.2567 23.7274C56.6831 24.356 56.1809 25.0267 55.7496 25.7391C55.3183 26.4512 54.9799 27.1732 54.7357 27.9046C54.4906 28.6365 54.3713 29.3196 54.3778 29.9551C54.3843 30.5903 54.5356 31.1452 54.8316 31.62C55.1281 32.095 55.6109 32.435 56.2808 32.6403C56.9766 32.8587 57.5882 32.8648 58.1163 32.6597C58.6444 32.4542 59.1047 32.1141 59.4976 31.6393C59.8905 31.1645 60.2124 30.5903 60.464 29.9165C60.7151 29.2427 60.9148 28.5401 61.0626 27.8086C61.2108 27.0772 61.3042 26.3579 61.3426 25.6526C61.3815 24.9465 61.3815 24.3174 61.3426 23.7657C62.4504 23.3039 63.3584 22.72 64.0668 22.0139C64.7751 21.3086 65.3612 20.5639 65.8249 19.7809C65.9667 19.5885 66.0151 19.3575 65.9702 19.0881C65.9248 18.8185 65.8154 18.5874 65.6417 18.395Z" fill="white"/>
<path fill-rule="evenodd" clip-rule="evenodd" d="M90.014 17.1632C90.0524 16.8682 90.1104 16.5568 90.1877 16.2296C90.2647 15.9023 90.3615 15.5846 90.4777 15.2766C90.5931 14.9686 90.7284 14.7025 90.8831 14.4778C91.0379 14.2533 91.2021 14.0929 91.3758 13.9964C91.55 13.9004 91.7268 13.9099 91.9074 14.0252C92.1006 14.141 92.2195 14.3847 92.2649 14.7567C92.3094 15.1294 92.2648 15.527 92.1296 15.9504C91.9939 16.3742 91.7527 16.7718 91.4048 17.144C91.0573 17.5164 90.5871 17.7599 89.9945 17.8754C89.9686 17.6961 89.9751 17.4585 90.014 17.1632ZM96.7083 17.9523C96.4956 17.8886 96.2929 17.882 96.0997 17.9333C95.9065 17.9846 95.7838 18.1194 95.7328 18.3377C95.6291 18.7483 95.4653 19.1686 95.2396 19.5984C95.0145 20.0285 94.7374 20.4359 94.4094 20.821C94.0809 21.2059 93.7101 21.5461 93.2982 21.8411C92.8859 22.1364 92.4546 22.3482 92.0038 22.4763C91.5526 22.6178 91.1792 22.6336 90.8831 22.5245C90.5871 22.4158 90.352 22.2294 90.1782 21.9664C90.0045 21.7034 89.8787 21.3857 89.8013 21.0135C89.724 20.6413 89.6786 20.2564 89.6661 19.8583C90.3999 19.9098 91.0538 19.7784 91.6274 19.4636C92.2 19.1495 92.6862 18.7322 93.0856 18.2124C93.4849 17.6927 93.7875 17.1088 93.9936 16.4606C94.1994 15.8127 94.3156 15.1677 94.3416 14.5259C94.3541 13.9226 94.2642 13.4127 94.071 12.9956C93.8778 12.5787 93.6168 12.2541 93.2883 12.0233C92.9603 11.7923 92.5834 11.6575 92.1581 11.6191C91.7337 11.5805 91.3015 11.6384 90.8637 11.7923C90.3355 11.972 89.8882 12.2639 89.5213 12.6683C89.1539 13.0725 88.8479 13.5411 88.6033 14.0736C88.3587 14.6062 88.1655 15.1804 88.0237 15.7963C87.882 16.4125 87.7791 17.0189 87.7147 17.6158C87.6568 18.1514 87.6257 18.6635 87.6149 19.1578C87.5872 19.2206 87.5604 19.2809 87.531 19.3481C87.3313 19.804 87.0993 20.25 86.8356 20.6862C86.5715 21.1226 86.2785 21.4885 85.9565 21.7835C85.6345 22.0788 85.2996 22.1813 84.9517 22.0915C84.746 22.0404 84.6331 21.8026 84.6137 21.3793C84.5947 20.9556 84.6167 20.4295 84.6811 19.8006C84.746 19.172 84.8199 18.4913 84.9037 17.7599C84.9871 17.0284 85.029 16.3292 85.029 15.6618C85.029 15.0842 84.9197 14.5293 84.7006 13.9964C84.4814 13.4642 84.1819 13.0212 83.8025 12.6683C83.4221 12.3151 82.9813 12.0809 82.4791 11.9657C81.9764 11.8499 81.4358 11.9271 80.8562 12.1965C80.2762 12.4661 79.8159 12.8446 79.4749 13.3324C79.133 13.8203 78.8205 14.3334 78.5375 14.8724C78.4342 14.4616 78.2833 14.0802 78.0837 13.727C77.8836 13.3741 77.6394 13.0662 77.3494 12.8029C77.0594 12.5401 76.7339 12.3347 76.3739 12.1869C76.013 12.0397 75.6327 11.9657 75.2338 11.9657C74.8474 11.9657 74.49 12.0397 74.1615 12.1869C73.833 12.3347 73.5335 12.5237 73.263 12.7548C72.9924 12.986 72.7478 13.2457 72.5287 13.5346C72.31 13.8232 72.1163 14.109 71.9495 14.3911C71.9231 14.0574 71.8942 13.7656 71.8622 13.515C71.8302 13.2649 71.7719 13.0532 71.6885 12.8801C71.6046 12.7067 71.4858 12.5753 71.331 12.4854C71.1763 12.3957 70.9576 12.3506 70.6745 12.3506C70.5323 12.3506 70.3906 12.3794 70.2493 12.437C70.1071 12.4949 69.9813 12.5753 69.8724 12.6778C69.7626 12.7809 69.6792 12.9057 69.6213 13.0532C69.5629 13.2007 69.5474 13.3709 69.5729 13.5634C69.5854 13.7048 69.6213 13.8745 69.6792 14.0736C69.7371 14.2726 69.7916 14.5327 69.8434 14.8531C69.8949 15.1741 69.9368 15.5623 69.9688 16.0178C70.0012 16.4735 70.0107 17.0319 69.9977 17.6927C69.9848 18.3539 69.9368 19.1268 69.8529 20.0124C69.7691 20.8979 69.6368 21.9247 69.457 23.0923C69.4311 23.3619 69.534 23.5803 69.7661 23.747C69.9977 23.9136 70.2618 24.0098 70.5583 24.0357C70.8543 24.0614 71.1348 24.0098 71.3985 23.8818C71.6625 23.7532 71.8142 23.5287 71.8527 23.2081C71.8912 22.6048 71.9655 21.9632 72.0749 21.2828C72.1842 20.6029 72.3195 19.9291 72.4807 19.2616C72.6415 18.5944 72.8247 17.9592 73.0313 17.3557C73.237 16.7525 73.4661 16.2201 73.7172 15.758C73.9683 15.2959 74.2293 14.9272 74.4995 14.6512C74.77 14.3752 75.0531 14.2372 75.3496 14.2372C75.7105 14.2372 75.9901 14.4006 76.1902 14.7279C76.3895 15.0553 76.5312 15.4759 76.6151 15.9888C76.6989 16.5024 76.7374 17.0641 76.7313 17.6735C76.7244 18.283 76.6989 18.8702 76.654 19.4348C76.6086 19.9997 76.5571 20.5033 76.4992 20.946C76.4413 21.3888 76.3994 21.6939 76.3739 21.8604C76.3739 22.1557 76.4863 22.3897 76.7114 22.5631C76.937 22.7362 77.1882 22.839 77.4652 22.871C77.7422 22.9033 78.0028 22.8517 78.2479 22.7169C78.4925 22.5821 78.6338 22.3547 78.6727 22.0336C78.8015 21.1097 78.9787 20.1826 79.2039 19.2521C79.4291 18.3216 79.6871 17.4876 79.9771 16.7495C80.2667 16.0115 80.5887 15.4083 80.9431 14.9399C81.297 14.4717 81.6739 14.2372 82.0733 14.2372C82.279 14.2372 82.4372 14.3786 82.5465 14.6607C82.6559 14.943 82.7107 15.3279 82.7107 15.8156C82.7107 16.1751 82.6818 16.5442 82.6239 16.9227C82.566 17.3012 82.4985 17.6927 82.4207 18.0969C82.3438 18.5014 82.276 18.9151 82.218 19.3386C82.1601 19.7623 82.1312 20.2048 82.1312 20.6669C82.1312 20.9878 82.1632 21.36 82.2276 21.7835C82.2919 22.2067 82.4143 22.6083 82.5945 22.9866C82.7751 23.3653 83.0228 23.686 83.3387 23.949C83.6542 24.212 84.0566 24.3437 84.5458 24.3437C85.2801 24.3437 85.9306 24.1864 86.4976 23.8721C87.0643 23.5578 87.5505 23.1472 87.9563 22.6402C87.977 22.6136 87.9965 22.5853 88.0168 22.5589C88.0479 22.6339 88.0756 22.7132 88.1106 22.7846C88.3876 23.3492 88.7645 23.7854 89.2412 24.0936C89.7171 24.4016 90.2776 24.5715 90.922 24.6038C91.566 24.6356 92.2674 24.5169 93.0281 24.2475C93.5943 24.0421 94.087 23.7854 94.5058 23.4774C94.9241 23.1695 95.301 22.7941 95.636 22.3513C95.9709 21.9085 96.2765 21.3984 96.554 20.821C96.831 20.2432 97.1106 19.5825 97.3941 18.8379C97.4456 18.633 97.3972 18.4501 97.2494 18.2894C97.1011 18.1292 96.9209 18.0168 96.7083 17.9523Z" fill="white"/>
<path fill-rule="evenodd" clip-rule="evenodd" d="M107.209 15.8052C107.144 16.184 107.057 16.6014 106.948 17.0566C106.838 17.5123 106.7 17.9839 106.532 18.4716C106.365 18.9594 106.159 19.399 105.914 19.7902C105.669 20.1819 105.389 20.4928 105.074 20.7239C104.758 20.9549 104.394 21.0511 103.982 21.0126C103.776 20.9871 103.618 20.846 103.509 20.589C103.399 20.3326 103.341 20.0051 103.335 19.6073C103.328 19.2097 103.364 18.7733 103.441 18.2982C103.518 17.8237 103.638 17.3582 103.799 16.9025C103.96 16.4473 104.156 16.0267 104.387 15.6416C104.62 15.2567 104.887 14.9582 105.19 14.7465C105.492 14.5347 105.824 14.4356 106.185 14.448C106.545 14.461 106.931 14.6405 107.344 14.9871C107.318 15.1541 107.273 15.4269 107.209 15.8052ZM114.077 17.2779C113.877 17.1753 113.671 17.153 113.459 17.2107C113.246 17.2684 113.094 17.4642 113.005 17.7978C112.953 18.1573 112.837 18.5805 112.657 19.0683C112.476 19.556 112.254 20.0183 111.991 20.4542C111.726 20.8907 111.424 21.2533 111.082 21.542C110.741 21.831 110.377 21.9626 109.991 21.9365C109.668 21.911 109.443 21.7474 109.315 21.4458C109.185 21.1442 109.118 20.7659 109.112 20.3099C109.105 19.8547 109.15 19.3413 109.247 18.7701C109.343 18.1991 109.459 17.6313 109.595 17.0661C109.73 16.5017 109.868 15.9593 110.01 15.4396C110.152 14.9199 110.268 14.4803 110.358 14.121C110.461 13.8001 110.429 13.5275 110.261 13.3026C110.094 13.0784 109.885 12.9177 109.633 12.8215C109.382 12.7253 109.128 12.6996 108.87 12.7446C108.612 12.7895 108.445 12.9275 108.368 13.1583C107.608 12.5038 106.877 12.1509 106.175 12.0996C105.473 12.0483 104.825 12.2024 104.233 12.5617C103.641 12.9209 103.116 13.4406 102.659 14.121C102.201 14.8014 101.831 15.5424 101.548 16.3445C101.264 17.1465 101.087 17.9649 101.016 18.7989C100.945 19.6332 101 20.3937 101.181 21.0802C101.361 21.7667 101.679 22.3284 102.137 22.7644C102.594 23.2008 103.216 23.4191 104.002 23.4191C104.349 23.4191 104.684 23.3486 105.006 23.2074C105.328 23.066 105.624 22.8992 105.895 22.7067C106.165 22.5143 106.404 22.3121 106.61 22.1003C106.816 21.8886 106.977 21.7122 107.093 21.5709C107.182 22.0329 107.331 22.4247 107.537 22.7453C107.743 23.066 107.978 23.3295 108.242 23.5344C108.506 23.7396 108.783 23.8905 109.073 23.987C109.363 24.0832 109.643 24.1313 109.914 24.1313C110.519 24.1313 111.085 23.9259 111.614 23.5151C112.142 23.1048 112.615 22.6007 113.034 22.0041C113.452 21.4072 113.797 20.7786 114.067 20.1175C114.338 19.4566 114.518 18.8695 114.608 18.3559C114.698 18.1634 114.682 17.9615 114.56 17.7497C114.437 17.538 114.277 17.3809 114.077 17.2779Z" fill="white"/>
<path fill-rule="evenodd" clip-rule="evenodd" d="M148.854 27.9056C148.744 28.3419 148.574 28.7111 148.342 29.0125C148.11 29.3141 147.82 29.4714 147.473 29.4843C147.254 29.497 147.086 29.3815 146.97 29.1378C146.855 28.8938 146.774 28.5795 146.729 28.1946C146.683 27.8094 146.664 27.3794 146.671 26.9046C146.677 26.4298 146.697 25.9614 146.729 25.4993C146.761 25.0375 146.8 24.6072 146.845 24.2096C146.89 23.8115 146.925 23.504 146.951 23.2857C147.389 23.337 147.753 23.526 148.043 23.8535C148.333 24.1808 148.554 24.5688 148.709 25.0182C148.864 25.4673 148.954 25.9519 148.98 26.4716C149.005 26.9913 148.963 27.4693 148.854 27.9056ZM141.86 27.9056C141.751 28.3419 141.58 28.7111 141.348 29.0125C141.116 29.3141 140.827 29.4714 140.479 29.4843C140.26 29.497 140.092 29.3815 139.977 29.1378C139.86 28.8938 139.78 28.5795 139.735 28.1946C139.69 27.8094 139.67 27.3794 139.677 26.9046C139.683 26.4298 139.703 25.9614 139.735 25.4993C139.767 25.0375 139.805 24.6072 139.851 24.2096C139.896 23.8115 139.931 23.504 139.957 23.2857C140.395 23.337 140.759 23.526 141.048 23.8535C141.338 24.1808 141.561 24.5688 141.715 25.0182C141.87 25.4673 141.96 25.9519 141.986 26.4716C142.011 26.9913 141.969 27.4693 141.86 27.9056ZM134.683 16.9715C134.67 17.2792 134.641 17.552 134.596 17.7894C134.55 18.0273 134.489 18.1777 134.412 18.2419C134.27 18.1648 134.096 17.9662 133.89 17.6451C133.684 17.3244 133.523 16.9615 133.407 16.5573C133.292 16.1531 133.256 15.7555 133.301 15.3638C133.346 14.9725 133.549 14.668 133.91 14.4494C134.051 14.3724 134.173 14.4013 134.277 14.5361C134.38 14.6709 134.463 14.8665 134.528 15.1232C134.592 15.3801 134.637 15.6752 134.663 16.0088C134.689 16.3426 134.695 16.6633 134.683 16.9715ZM132.973 20.8119C132.773 21.0234 132.551 21.2064 132.306 21.3604C132.061 21.5146 131.81 21.6301 131.553 21.707C131.295 21.7842 131.063 21.8032 130.857 21.7646C130.278 21.6494 129.833 21.3988 129.524 21.0139C129.215 20.629 129.018 20.1767 128.935 19.657C128.851 19.137 128.86 18.5819 128.964 17.9916C129.067 17.4013 129.24 16.8528 129.485 16.3458C129.73 15.8388 130.027 15.4024 130.374 15.0367C130.722 14.6709 131.101 14.4433 131.514 14.3532C131.359 15.0077 131.308 15.6849 131.359 16.3841C131.411 17.0836 131.579 17.7413 131.862 18.3572C132.042 18.7299 132.258 19.0696 132.509 19.3776C132.76 19.6858 133.066 19.9488 133.427 20.1669C133.324 20.3853 133.172 20.6002 132.973 20.8119ZM154.351 17.1639C154.389 16.8689 154.447 16.5573 154.525 16.23C154.602 15.903 154.698 15.5853 154.814 15.2773C154.93 14.9691 155.065 14.7029 155.22 14.4785C155.375 14.254 155.539 14.0933 155.713 13.9971C155.887 13.9009 156.064 13.9104 156.244 14.0259C156.437 14.1416 156.556 14.3854 156.601 14.7574C156.646 15.1298 156.601 15.5274 156.466 15.9511C156.331 16.3746 156.09 16.7725 155.742 17.1444C155.394 17.5171 154.924 17.7606 154.331 17.8761C154.306 17.6966 154.312 17.4592 154.351 17.1639ZM162.137 17.1639C162.175 16.8689 162.233 16.5573 162.311 16.23C162.388 15.903 162.485 15.5853 162.601 15.2773C162.717 14.9691 162.852 14.7029 163.006 14.4785C163.161 14.254 163.325 14.0933 163.499 13.9971C163.673 13.9009 163.85 13.9104 164.03 14.0259C164.224 14.1416 164.342 14.3854 164.388 14.7574C164.433 15.1298 164.388 15.5274 164.253 15.9511C164.117 16.3746 163.876 16.7725 163.528 17.1444C163.18 17.5171 162.71 17.7606 162.117 17.8761C162.092 17.6966 162.098 17.4592 162.137 17.1639ZM169.372 18.2901C169.224 18.1299 169.044 18.0175 168.832 17.953C168.619 17.889 168.416 17.8827 168.223 17.934C168.029 17.9852 167.907 18.1201 167.856 18.3382C167.752 18.7489 167.588 19.1692 167.363 19.5989C167.137 20.0292 166.861 20.4365 166.532 20.8214C166.204 21.2064 165.833 21.5468 165.422 21.8418C165.009 22.1371 164.578 22.3488 164.127 22.4768C163.676 22.6185 163.303 22.6343 163.006 22.5252C162.71 22.4162 162.475 22.2301 162.301 21.9671C162.127 21.7038 162.002 21.3863 161.924 21.0139C161.847 20.642 161.802 20.257 161.789 19.8589C162.523 19.9105 163.177 19.7791 163.75 19.4643C164.323 19.15 164.81 18.7326 165.209 18.2129C165.608 17.6934 165.911 17.1095 166.117 16.4613C166.323 15.8131 166.439 15.1684 166.465 14.5266C166.477 13.9233 166.387 13.4131 166.194 12.996C166.001 12.5791 165.74 12.2548 165.412 12.024C165.083 11.7927 164.707 11.6581 164.281 11.6196C163.857 11.581 163.425 11.6391 162.987 11.7927C162.459 11.9727 162.012 12.2645 161.645 12.6687C161.277 13.0732 160.971 13.5418 160.727 14.074C160.482 14.6069 160.288 15.1808 160.147 15.797C160.005 16.413 159.902 17.0196 159.838 17.6162C159.775 18.1953 159.741 18.7495 159.733 19.2799C159.685 19.3856 159.633 19.4919 159.577 19.5989C159.351 20.0292 159.074 20.4365 158.746 20.8214C158.418 21.2064 158.047 21.5468 157.635 21.8418C157.223 22.1371 156.792 22.3488 156.341 22.4768C155.89 22.6185 155.516 22.6343 155.22 22.5252C154.924 22.4162 154.689 22.2301 154.515 21.9671C154.341 21.7038 154.216 21.3863 154.138 21.0139C154.061 20.642 154.016 20.257 154.003 19.8589C154.737 19.9105 155.391 19.7791 155.964 19.4643C156.537 19.15 157.023 18.7326 157.423 18.2129C157.822 17.6934 158.124 17.1095 158.331 16.4613C158.536 15.8131 158.653 15.1684 158.679 14.5266C158.691 13.9233 158.601 13.4131 158.408 12.996C158.215 12.5791 157.954 12.2548 157.625 12.024C157.297 11.7927 156.92 11.6581 156.495 11.6196C156.07 11.581 155.638 11.6391 155.201 11.7927C154.672 11.9727 154.225 12.2645 153.858 12.6687C153.491 13.0732 153.185 13.5418 152.94 14.074C152.696 14.6069 152.502 15.1808 152.361 15.797C152.219 16.413 152.116 17.0196 152.052 17.6162C152.015 17.9528 151.991 18.2791 151.973 18.5995C151.848 18.705 151.727 18.8112 151.597 18.9155C151.154 19.275 150.686 19.5989 150.197 19.8878C149.707 20.1767 149.198 20.4141 148.671 20.6002C148.142 20.7863 147.601 20.8986 147.048 20.937L148.246 8.15449C148.323 7.88489 148.284 7.64774 148.13 7.44236C147.975 7.23694 147.775 7.09579 147.53 7.01885C147.286 6.94166 147.025 6.94828 146.748 7.03791C146.471 7.12803 146.243 7.33341 146.062 7.65384C145.972 8.14178 145.879 8.80901 145.782 9.65598C145.685 10.503 145.589 11.4271 145.492 12.4282C145.396 13.4293 145.299 14.4623 145.203 15.5274C145.106 16.5929 145.022 17.5874 144.952 18.5113C144.948 18.5524 144.945 18.5895 144.942 18.63C144.83 18.7253 144.72 18.8212 144.604 18.9155C144.159 19.275 143.692 19.5989 143.203 19.8878C142.713 20.1767 142.205 20.4141 141.677 20.6002C141.148 20.7863 140.607 20.8986 140.053 20.937L141.252 8.15449C141.329 7.88489 141.29 7.64774 141.136 7.44236C140.981 7.23694 140.781 7.09579 140.537 7.01885C140.292 6.94166 140.031 6.94828 139.754 7.03791C139.477 7.12803 139.249 7.33341 139.069 7.65384C138.978 8.14178 138.885 8.80901 138.788 9.65598C138.692 10.503 138.595 11.4271 138.498 12.4282C138.402 13.4293 138.305 14.4623 138.208 15.5274C138.112 16.5929 138.028 17.5874 137.957 18.5113C137.956 18.5299 137.955 18.5468 137.953 18.5653C137.751 18.6588 137.53 18.7409 137.291 18.8098C137.046 18.8806 136.769 18.9224 136.46 18.935C136.512 18.7038 136.553 18.4471 136.586 18.1648C136.618 17.8827 136.644 17.5874 136.663 17.2792C136.682 16.9715 136.688 16.6633 136.682 16.3553C136.675 16.0471 136.659 15.765 136.634 15.5081C136.57 14.9566 136.451 14.4335 136.277 13.9392C136.103 13.4454 135.868 13.0316 135.572 12.6976C135.275 12.3639 134.905 12.1393 134.46 12.024C134.016 11.9085 133.498 11.9468 132.905 12.1393C132.029 12.024 131.24 12.1043 130.538 12.3801C129.836 12.6563 129.228 13.0571 128.713 13.5831C128.198 14.1097 127.776 14.7285 127.447 15.441C127.119 16.1531 126.9 16.8848 126.79 17.6353C126.744 17.9535 126.721 18.2703 126.714 18.5863C126.515 18.9932 126.297 19.3488 126.056 19.6472C125.715 20.0707 125.361 20.4173 124.994 20.6866C124.626 20.9562 124.262 21.1617 123.902 21.3028C123.541 21.4442 123.219 21.5404 122.936 21.5915C122.601 21.6557 122.279 21.6623 121.97 21.6108C121.661 21.5597 121.377 21.412 121.12 21.168C120.914 20.9885 120.756 20.6996 120.647 20.3017C120.537 19.9039 120.473 19.4518 120.453 18.9446C120.434 18.4376 120.453 17.9081 120.511 17.3564C120.569 16.8047 120.669 16.2816 120.811 15.7875C120.952 15.2934 121.132 14.8507 121.352 14.4589C121.57 14.0679 121.828 13.7885 122.124 13.6217C122.292 13.6476 122.395 13.7468 122.434 13.9199C122.472 14.0933 122.482 14.2987 122.463 14.5361C122.443 14.7737 122.414 15.0174 122.376 15.2675C122.337 15.5179 122.317 15.7267 122.317 15.8932C122.382 16.2398 122.508 16.5094 122.694 16.7019C122.881 16.8943 123.091 17.0069 123.322 17.0387C123.554 17.0709 123.783 17.0164 124.008 16.875C124.233 16.7341 124.417 16.5094 124.559 16.2012C124.572 16.2142 124.591 16.2205 124.617 16.2205L124.887 13.7758C124.965 13.442 124.913 13.147 124.733 12.8903C124.552 12.6336 124.314 12.4858 124.018 12.4475C123.644 11.9085 123.139 11.623 122.501 11.5907C121.864 11.5588 121.21 11.7673 120.54 12.2164C120.128 12.512 119.764 12.9191 119.449 13.4388C119.133 13.9587 118.875 14.5361 118.676 15.1713C118.476 15.8066 118.334 16.4774 118.251 17.1832C118.167 17.889 118.151 18.5758 118.202 19.2428C118.254 19.9105 118.373 20.5394 118.56 21.1294C118.746 21.7199 119.007 22.214 119.343 22.6116C119.626 22.9582 119.947 23.2119 120.308 23.3724C120.669 23.5328 121.046 23.632 121.438 23.6706C121.831 23.7089 122.221 23.6928 122.607 23.6225C122.994 23.5521 123.361 23.4527 123.709 23.324C124.159 23.1575 124.623 22.9455 125.1 22.6888C125.576 22.4324 126.033 22.1241 126.472 21.7646C126.702 21.5756 126.924 21.3695 127.138 21.1484C127.236 21.3897 127.345 21.6233 127.476 21.8418C127.824 22.4192 128.294 22.8878 128.886 23.2471C129.479 23.6063 130.207 23.7793 131.07 23.7668C131.997 23.7538 132.854 23.5199 133.639 23.0641C134.425 22.6089 135.069 21.9378 135.572 21.0525C136.324 21.0525 137.064 20.9289 137.792 20.6834C137.786 20.7611 137.78 20.8429 137.774 20.9179C137.723 21.5981 137.696 22.0599 137.696 22.3039C137.684 22.7274 137.655 23.2503 137.61 23.8725C137.564 24.4951 137.536 25.1496 137.523 25.8361C137.51 26.5226 137.536 27.2157 137.6 27.9155C137.665 28.6147 137.8 29.2501 138.006 29.8213C138.211 30.3921 138.504 30.8766 138.885 31.2747C139.265 31.6724 139.764 31.91 140.382 31.9869C141.039 32.0765 141.605 31.961 142.082 31.6403C142.558 31.3194 142.945 30.8801 143.242 30.3218C143.538 29.7632 143.747 29.1185 143.869 28.387C143.992 27.6556 144.027 26.9207 143.976 26.1827C143.924 25.4446 143.789 24.7486 143.57 24.0943C143.351 23.4396 143.048 22.9005 142.662 22.4768C142.894 22.413 143.17 22.2912 143.493 22.1112C143.814 21.9317 144.146 21.7295 144.488 21.5048C144.572 21.4496 144.654 21.3915 144.738 21.3348C144.706 21.7896 144.691 22.1139 144.691 22.3039C144.678 22.7274 144.649 23.2503 144.604 23.8725C144.559 24.4951 144.53 25.1496 144.517 25.8361C144.504 26.5226 144.53 27.2157 144.594 27.9155C144.659 28.6147 144.794 29.2501 145 29.8213C145.206 30.3921 145.499 30.8766 145.879 31.2747C146.259 31.6724 146.758 31.91 147.376 31.9869C148.033 32.0765 148.6 31.961 149.076 31.6403C149.553 31.3194 149.939 30.8801 150.236 30.3218C150.532 29.7632 150.741 29.1185 150.864 28.387C150.986 27.6556 151.021 26.9207 150.97 26.1827C150.918 25.4446 150.783 24.7486 150.564 24.0943C150.345 23.4396 150.042 22.9005 149.656 22.4768C149.888 22.413 150.165 22.2912 150.487 22.1112C150.809 21.9317 151.14 21.7295 151.482 21.5048C151.659 21.3881 151.836 21.2676 152.011 21.1438C152.078 21.7715 152.22 22.322 152.448 22.785C152.725 23.3499 153.101 23.7861 153.578 24.0943C154.054 24.402 154.615 24.5723 155.259 24.6042C155.903 24.636 156.604 24.5175 157.365 24.2479C157.931 24.0428 158.424 23.7861 158.843 23.4781C159.261 23.1699 159.638 22.7945 159.973 22.352C159.992 22.3263 160.011 22.2985 160.03 22.2726C160.089 22.4524 160.155 22.625 160.234 22.785C160.511 23.3499 160.887 23.7861 161.364 24.0943C161.84 24.402 162.401 24.5723 163.045 24.6042C163.689 24.636 164.391 24.5175 165.151 24.2479C165.718 24.0428 166.21 23.7861 166.629 23.4781C167.048 23.1699 167.424 22.7945 167.759 22.352C168.094 21.909 168.399 21.3988 168.677 20.8214C168.954 20.2439 169.234 19.5832 169.518 18.8386C169.569 18.6335 169.52 18.4505 169.372 18.2901Z" fill="white"/>
<path d="M11.2302 13.9817C10.082 14.4575 8.7789 14.9971 7.09009 14.9971C6.38359 14.9957 5.68052 14.9019 5 14.7182L6.16805 26.3275C6.20936 26.8128 6.43772 27.2652 6.80771 27.595C7.1777 27.9248 7.66228 28.1078 8.16522 28.1078C8.16522 28.1078 9.82139 28.191 10.374 28.191C10.9688 28.191 12.7522 28.1078 12.7522 28.1078C13.2551 28.1077 13.7396 27.9247 14.1094 27.5949C14.4794 27.2651 14.7076 26.8127 14.749 26.3275L16 13.4987C15.4409 13.3138 14.8767 13.191 14.2406 13.191C13.1406 13.1906 12.2542 13.5574 11.2302 13.9817Z" fill="#FFDD00"/>
<path d="M20.9063 8.47666L20.7391 7.6163C20.589 6.84436 20.2483 6.11496 19.4713 5.83592C19.2222 5.74669 18.9396 5.70833 18.7486 5.52358C18.5576 5.33884 18.5011 5.05189 18.457 4.78583C18.3752 4.29747 18.2983 3.8087 18.2144 3.32116C18.1421 2.90203 18.0848 2.43119 17.8963 2.04668C17.6509 1.53038 17.1417 1.22844 16.6354 1.02867C16.3759 0.929909 16.1112 0.846366 15.8424 0.778444C14.5774 0.438136 13.2474 0.313023 11.946 0.241708C10.384 0.153817 8.81785 0.180297 7.25954 0.320946C6.0997 0.428544 4.87809 0.558663 3.77588 0.967782C3.37305 1.1175 2.95792 1.29725 2.6516 1.61462C2.27575 2.00455 2.15306 2.6076 2.42748 3.09387C2.62256 3.43919 2.95302 3.68314 3.30351 3.84456C3.76003 4.05253 4.23681 4.21075 4.72595 4.31665C6.08784 4.6236 7.49841 4.74413 8.88974 4.7954C10.4318 4.85886 11.9764 4.80746 13.5112 4.64153C13.8907 4.59898 14.2696 4.54798 14.6477 4.48846C15.0931 4.41882 15.379 3.82497 15.2477 3.41124C15.0907 2.91663 14.6686 2.72479 14.1913 2.79944C14.121 2.8107 14.0511 2.82113 13.9807 2.83155L13.93 2.83906C13.7683 2.85991 13.6066 2.87937 13.4449 2.89744C13.1109 2.93415 12.7761 2.96417 12.4405 2.98753C11.6888 3.04091 10.935 3.06551 10.1817 3.06677C9.44145 3.06677 8.70081 3.04549 7.96218 2.99587C7.62518 2.97335 7.28901 2.94471 6.95364 2.90996C6.8011 2.89369 6.64897 2.87659 6.4968 2.85741L6.35202 2.83864L6.32056 2.83406L6.17045 2.81195C5.86372 2.76483 5.55698 2.71061 5.25351 2.64514C5.22291 2.63821 5.19551 2.62083 5.17586 2.59589C5.15625 2.57094 5.14553 2.53991 5.14553 2.50793C5.14553 2.47594 5.15625 2.44491 5.17586 2.41997C5.19551 2.39502 5.22291 2.37765 5.25351 2.37072H5.25924C5.52222 2.31358 5.78723 2.26479 6.05308 2.22225C6.14168 2.20807 6.23055 2.19417 6.31972 2.18055H6.32219C6.48864 2.16929 6.65589 2.13884 6.82155 2.11882C8.26265 1.96597 9.71232 1.91386 11.1604 1.96285C11.8634 1.9837 12.5661 2.02582 13.2658 2.09839C13.4163 2.11424 13.566 2.13092 13.7157 2.14969C13.773 2.15678 13.8306 2.16511 13.8883 2.1722L14.0044 2.1893C14.3431 2.24074 14.6799 2.30316 15.015 2.37656C15.5115 2.48666 16.1491 2.52252 16.3699 3.07719C16.4403 3.25318 16.4722 3.44878 16.5111 3.63353L16.5605 3.86917C16.5618 3.87338 16.5628 3.8777 16.5634 3.88208C16.6804 4.43814 16.7975 4.9942 16.9147 5.55027C16.9233 5.59135 16.9235 5.6338 16.9153 5.67495C16.9071 5.7161 16.8907 5.75511 16.867 5.78951C16.8434 5.8239 16.8131 5.85297 16.7779 5.87487C16.7428 5.89677 16.7036 5.91106 16.6628 5.91684H16.6595L16.5879 5.92685L16.5172 5.93646C16.2931 5.96621 16.0687 5.99401 15.844 6.01985C15.4015 6.07129 14.9583 6.11577 14.5144 6.15333C13.6324 6.22809 12.7486 6.27716 11.863 6.30052C11.4118 6.31277 10.9607 6.31844 10.5097 6.31763C8.7147 6.31617 6.92124 6.20979 5.13817 5.99901C4.94515 5.97565 4.75212 5.95062 4.55906 5.92519C4.70877 5.94478 4.45028 5.91018 4.39794 5.90268C4.27524 5.88516 4.15254 5.86692 4.02987 5.84805C3.61802 5.78506 3.20863 5.70748 2.7976 5.6395C2.3007 5.55611 1.82546 5.59781 1.376 5.84805C1.00705 6.05391 0.708443 6.36961 0.520007 6.75302C0.32615 7.16173 0.268485 7.60669 0.181781 8.04585C0.0950777 8.48501 -0.0398855 8.95752 0.0112368 9.40833C0.121252 10.3813 0.788297 11.172 1.74776 11.3489C2.65037 11.5157 3.55788 11.6508 4.46786 11.7659C8.04246 12.2123 11.6538 12.2657 15.2395 11.9252C15.5316 11.8974 15.8231 11.8671 16.1144 11.8343C16.2053 11.8241 16.2973 11.8348 16.3837 11.8656C16.4701 11.8963 16.5486 11.9464 16.6135 12.0122C16.6785 12.0779 16.7282 12.1576 16.759 12.2455C16.7898 12.3333 16.8009 12.4271 16.7916 12.5199L16.7008 13.4199C16.5179 15.2385 16.3349 17.0569 16.152 18.8752C15.9611 20.7847 15.769 22.6941 15.5757 24.6033C15.5212 25.141 15.4667 25.6786 15.4121 26.2161C15.3598 26.7453 15.3524 27.2912 15.2539 27.8142C15.0985 28.6366 14.5524 29.1416 13.7558 29.3264C13.0259 29.4957 12.2803 29.5847 11.5317 29.5916C10.7019 29.5962 9.87251 29.5587 9.04271 29.5632C8.15687 29.5683 7.07184 29.4848 6.38802 28.8126C5.78723 28.222 5.70422 27.2975 5.62241 26.498C5.51336 25.4395 5.40525 24.3812 5.2981 23.323L4.69692 17.439L4.30797 13.6318C4.30141 13.5688 4.29488 13.5066 4.28876 13.4432C4.24211 12.9891 3.92678 12.5445 3.42989 12.5674C3.00455 12.5866 2.52114 12.9553 2.57103 13.4432L2.85936 16.2658L3.45566 22.1044C3.62551 23.7628 3.79496 25.4216 3.96401 27.0806C3.99674 27.3984 4.02741 27.717 4.06177 28.0348C4.24867 29.7713 5.54923 30.7072 7.15978 30.9708C8.10043 31.1251 9.06395 31.1568 10.0185 31.1726C11.2422 31.1927 12.4781 31.2406 13.6818 31.0146C15.4653 30.6809 16.8035 29.4665 16.9945 27.5827C17.049 27.0389 17.1035 26.4949 17.1581 25.9508C17.3394 24.1514 17.5204 22.3519 17.7012 20.5522L18.2926 14.6718L18.5637 11.9769C18.5772 11.8433 18.6326 11.7176 18.7215 11.6186C18.8105 11.5195 18.9284 11.4523 19.0578 11.4268C19.5677 11.3255 20.0553 11.1524 20.418 10.7566C20.9955 10.1265 21.1104 9.3049 20.9063 8.47666ZM1.72158 9.05802C1.72935 9.05425 1.71504 9.12226 1.70891 9.15394C1.70768 9.106 1.71013 9.06345 1.72158 9.05802ZM1.77107 9.44839C1.77516 9.44547 1.78743 9.46214 1.80011 9.48214C1.78089 9.46381 1.76862 9.45006 1.77066 9.44839H1.77107ZM1.81974 9.51385C1.83732 9.54431 1.84673 9.56349 1.81974 9.51385V9.51385ZM1.91748 9.59477H1.91994C1.91994 9.59769 1.92444 9.60061 1.92607 9.60353C1.92336 9.6003 1.92035 9.59738 1.91708 9.59477H1.91748ZM19.034 9.47382C18.8508 9.65147 18.5748 9.73405 18.302 9.77533C15.2428 10.2383 12.1391 10.4726 9.04637 10.3692C6.833 10.292 4.64291 10.0414 2.45161 9.72573C2.23689 9.69486 2.00419 9.6548 1.85655 9.49341C1.57844 9.18898 1.71504 8.57591 1.78743 8.20809C1.85368 7.87113 1.98047 7.42195 2.37349 7.37401C2.98696 7.3006 3.69939 7.56459 4.30634 7.65844C5.03705 7.77215 5.77045 7.86318 6.50662 7.9316C9.64839 8.2235 12.8429 8.17807 15.9708 7.751C16.5409 7.67287 17.109 7.58211 17.675 7.47869C18.1793 7.3865 18.7383 7.21344 19.043 7.74601C19.252 8.10884 19.2798 8.59428 19.2475 9.00424C19.2376 9.18284 19.1611 9.35084 19.0336 9.47382H19.034Z" fill="white"/>
</svg>
