<svg width="30" height="31" viewBox="0 0 30 31" fill="none" xmlns="http://www.w3.org/2000/svg">
<path d="M26.7188 15.5C26.7188 15.873 26.5706 16.2306 26.3069 16.4944C26.0431 16.7581 25.6855 16.9062 25.3125 16.9062H16.4062V25.8125C16.4062 26.1855 16.2581 26.5431 15.9944 26.8069C15.7306 27.0706 15.373 27.2188 15 27.2188C14.627 27.2188 14.2694 27.0706 14.0056 26.8069C13.7419 26.5431 13.5938 26.1855 13.5938 25.8125V16.9062H4.6875C4.31454 16.9062 3.95685 16.7581 3.69313 16.4944C3.42941 16.2306 3.28125 15.873 3.28125 15.5C3.28125 15.127 3.42941 14.7694 3.69313 14.5056C3.95685 14.2419 4.31454 14.0938 4.6875 14.0938H13.5938V5.1875C13.5938 4.81454 13.7419 4.45685 14.0056 4.19313C14.2694 3.92941 14.627 3.78125 15 3.78125C15.373 3.78125 15.7306 3.92941 15.9944 4.19313C16.2581 4.45685 16.4062 4.81454 16.4062 5.1875V14.0938H25.3125C25.6855 14.0938 26.0431 14.2419 26.3069 14.5056C26.5706 14.7694 26.7188 15.127 26.7188 15.5Z" fill="black"/>
</svg>
