<svg width="153" height="151" viewBox="0 0 153 151" fill="none" xmlns="http://www.w3.org/2000/svg">
<path d="M100.535 2.06263C88.0112 4.73279 76.3188 9.40989 64.9912 14.0814C52.1138 19.392 40.6172 25.7721 30.1156 33.3167C18.2706 41.8264 -2.20239 57.3377 3.78716 70.584C10.0015 84.3276 34.0457 85.144 51.0722 83.4581C63.8845 82.1894 75.6847 78.861 86.4046 73.5227C93.2957 70.0912 101.807 65.5808 105.985 60.1833C113.064 51.0394 95.6455 51.3934 87.7823 52.7659C70.0095 55.8681 54.1275 67.1146 48.2145 79.2669C39.5543 97.0654 51.6272 113.927 72.2219 123.768C93.9015 134.127 123.797 132.778 148.2 127.578" stroke="black" stroke-width="3" stroke-linecap="round"/>
<path d="M120.483 124.525C129.151 124.334 137.563 125.781 146.121 125.687C146.635 125.681 151.689 125.224 151.307 125.864C150.229 127.671 146.45 129.753 144.723 131.295C139.805 135.689 134.686 139.866 130.223 144.511" stroke="black" stroke-width="3" stroke-linecap="round"/>
</svg>
