<svg width="313" height="42" viewBox="0 0 313 42" fill="none" xmlns="http://www.w3.org/2000/svg">
<path d="M2.26717 10.6311C1.29224 10.6311 3.27534 23.8864 3.59473 25.8665C3.83665 27.3664 4.03642 26.0076 4.16369 25.2976C4.7248 22.1671 5.33157 19.0775 6.46059 16.0889C7.59295 13.0915 9.58347 9.61791 12.1291 13.4548C13.9078 16.1357 15.2892 19.9833 15.9222 23.1482" stroke="black" stroke-width="2.56031" stroke-linecap="round"/>
<path d="M22.7498 13.2855C22.1491 16.5516 21.4759 19.8173 21.359 23.1475C21.3354 23.8215 21.3372 24.499 21.4012 25.1704C21.5402 26.63 21.7893 25.2818 21.8226 24.9175C21.9005 24.0665 22.3518 15.3806 21.0429 15.1188C20.7841 15.0671 21.0132 22.0477 21.064 22.5996C21.1877 23.9428 21.1687 26.1393 22.3705 26.9405" stroke="black" stroke-width="2.56031" stroke-linecap="round"/>
<path d="M18.5771 3.04469C18.8121 3.80187 19.1989 6.16344 20.2419 6.39522C20.6414 6.48399 19.8792 3.11827 19.7994 2.83396C19.0181 0.0526922 18.9565 5.0664 18.9565 5.69982" stroke="black" stroke-width="2.56031" stroke-linecap="round"/>
<path d="M44.3701 17.4581C44.113 16.6868 42.5971 16.4585 41.9679 16.3834C38.7565 15.9999 33.4907 16.2199 31.7477 19.481C29.1215 24.3946 30.0341 30.2006 36.5312 29.7223C40.7135 29.4144 48.4687 21.9739 44.4123 17.6056C40.2729 13.1478 31.1518 16.6072 29.8512 22.0097C28.2254 28.7631 37.3371 29.6775 41.6307 27.5307C44.4495 26.1213 46.3236 23.4438 47.0885 20.4293C47.2657 19.7308 47.9514 16.5569 46.667 16.2359C45.958 16.0586 48.2893 28.3386 48.3739 29.1744C48.782 33.2072 48.1447 38.0595 44.3701 40.2164" stroke="black" stroke-width="2.56031" stroke-linecap="round"/>
<path d="M57.266 15.5615C57.5066 19.4117 58.7521 23.0099 59.4575 26.7721C59.6591 27.8472 59.5497 26.4008 59.5418 26.2664C59.4227 24.2417 58.7314 22.2353 58.1089 20.3239C57.5621 18.6453 55.8465 13.4138 56.971 18.301C57.5196 20.6853 58.3827 23.0204 58.7832 25.4235" stroke="black" stroke-width="2.56031" stroke-linecap="round"/>
<path d="M51.1972 13.2854C50.4132 12.7628 51.9076 12.9084 52.1244 12.9061C54.944 12.8758 57.7842 12.8575 60.5955 13.0958C64.5532 13.4312 61.067 13.2854 59.1626 13.2854C58.679 13.2854 50.0826 13.3954 51.5554 14.7816C53.9846 17.0679 61.2114 15.1485 64.0936 14.8026" stroke="black" stroke-width="2.56031" stroke-linecap="round"/>
<path d="M69.0244 14.0444C69.8434 19.914 71.9951 25.1753 74.0397 30.6917C74.9614 33.1785 75.8309 35.8501 77.1373 38.1725C81.0295 45.0916 68.4454 23.4681 69.5301 15.6038C69.8827 13.0477 72.1112 11.2528 74.6086 11.0943C78.7973 10.8283 82.1584 12.9299 83.7752 16.826C85.2006 20.2611 83.3859 22.8714 80.0875 24.0328C78.3794 24.6342 74.7573 25.7053 73.1967 24.665" stroke="black" stroke-width="2.56031" stroke-linecap="round"/>
<path d="M67.5078 15.9409C69.7444 23.5027 72.9378 30.7928 76.6111 37.772C79.2279 42.7439 71.9789 27.4132 70.9848 21.8834C70.2935 18.0383 69.2807 11.5084 75.1361 12.2111C77.9625 12.5503 79.8618 14.5868 81.0574 17.0578C82.4935 20.0257 81.0994 21.7168 78.887 23.527" stroke="black" stroke-width="2.56031" stroke-linecap="round"/>
<path d="M109.61 11.7685C109.39 15.6861 108.747 20.0108 109.526 23.9063C110.061 26.5798 109.033 18.4742 108.894 15.7512C108.852 14.9287 108.602 10.0855 108.936 13.6229C109.235 16.7887 110.245 19.762 110.706 22.8737C111.244 26.5077 110.19 15.4838 110.748 11.8528C110.814 11.4243 111.354 12.4799 111.591 12.8432C112.476 14.2027 113.475 15.4982 114.309 16.8891C114.441 17.108 116.569 20.9082 116.733 20.4504C117.412 18.5475 117.022 16.0316 117.576 14.0022C117.647 13.7411 118.977 10.2639 119.093 10.5252C120.795 14.3553 119.784 18.9338 121.39 22.7473C121.706 23.4977 122.104 24.9786 122.696 25.571C122.793 25.6676 122.886 22.5361 122.886 22.2205C122.886 19.0236 122.778 15.8851 122.148 12.7378C121.958 11.7858 121.748 12.408 121.748 12.9064" stroke="black" stroke-width="2.56031" stroke-linecap="round"/>
<path d="M138.059 13.6648C133.792 11.3753 128.881 12.4141 127.312 17.4579C126.04 21.546 130.002 24.3898 133.802 23.1896C136.589 22.3095 141.145 16.5688 137.595 14.1284C135.382 12.6071 129.479 12.6027 127.986 15.2663C126.056 18.7095 128.316 23.3397 132.411 22.8103C137.085 22.2063 141.784 17.9931 141.852 13.0748C141.86 12.4911 141.763 11.4312 140.946 11.4312C140.363 11.4312 141.201 14.7189 141.262 14.9292C142.335 18.6402 145.385 21.847 147.921 24.6647" stroke="black" stroke-width="2.56031" stroke-linecap="round"/>
<path d="M150.576 12.5274C151.18 15.9994 152.03 19.2546 153.231 22.5579C154.053 24.8198 152.634 17.7563 151.924 15.4565C151.246 13.2582 149.799 9.33301 150.913 14.171C151.304 15.8686 152.593 22.2366 154.579 23.1058C155.012 23.2952 154.47 22.1578 154.306 21.715C153.67 20.0058 152.846 18.3894 151.84 16.8683C150.156 14.3226 148.837 12.1481 145.666 12.1481C142.749 12.1481 148.748 12.1481 149.185 12.1481C151.672 12.1481 154.158 12.1481 156.645 12.1481" stroke="black" stroke-width="2.56031" stroke-linecap="round"/>
<path d="M164.989 11.7689C164.989 9.32453 164.957 16.658 164.989 19.1022C164.997 19.7459 166.085 23.7577 166.085 22.9163C166.085 19.3841 165.168 15.1018 163.851 11.8111C163.785 11.6452 164.119 16.6061 164.61 17.9432C165.138 19.3814 166.293 22.7213 168.024 23.1059C170.901 23.7454 171.589 18.5316 172.112 16.8264C172.503 15.55 172.907 14.3334 172.955 12.9911C173.018 11.1708 173.195 14.9095 173.207 14.993C173.744 18.6043 174.658 24 178.265 25.8032" stroke="black" stroke-width="2.56031" stroke-linecap="round"/>
<path d="M199.506 10.6309C199.047 11.9504 200.566 22.544 201.55 22.3472C202.363 22.1847 199.439 12.6184 199.548 13.4967C199.728 14.9336 202.176 25.7609 203.489 25.7609C203.9 25.7609 201.459 20.2785 200.876 19.5656C199.41 17.7743 205.661 17.4369 206.334 17.374C207.448 17.2699 209.71 17.5246 210.717 16.9947C211.297 16.6895 209.5 14.8129 209.368 14.6346C208.521 13.4891 205.524 8.39165 207.261 12.991C208.389 15.9786 210.087 20.4537 212.403 22.7686" stroke="black" stroke-width="2.56031" stroke-linecap="round"/>
<path d="M227.575 15.1828C224.989 14.1054 222.099 12.7655 219.251 12.633C217.578 12.5552 216.624 15.1831 216.238 16.4471C214.765 21.259 216.946 26.2004 222.349 26.0141C225.674 25.8994 229.193 22.072 228.165 18.5966C227.298 15.6661 221.724 14.3157 219.061 14.8667C216.623 15.3712 216.684 18.6293 217.228 20.472C218.516 24.8306 224.539 22.8945 226.858 20.6827C227.958 19.6337 228.438 18.2609 228.628 16.7843C228.685 16.341 228.341 15.0092 228.418 15.3514C229.212 18.925 231.944 22.6777 235.161 24.2861" stroke="black" stroke-width="2.56031" stroke-linecap="round"/>
<path d="M241.23 14.0444C243.317 14.5504 242.939 14.0291 241.23 13.7494C238.84 13.3584 236.848 14.844 236.699 17.3107C236.292 24.0247 246.846 27.0497 250.164 21.3355C250.454 20.8361 251.033 19.2113 250.712 19.6918C250.257 20.3739 250.071 21.398 249.659 22.1363C248.846 23.5917 247.635 25.2423 245.929 25.6132C243.57 26.1261 240.954 23.6289 239.396 22.1573C236.669 19.5816 236.595 17.0773 238.954 14.4237" stroke="black" stroke-width="2.56031" stroke-linecap="round"/>
<path d="M273.449 13.0484C273.449 9.47986 273.283 20.6727 275.345 23.5846C275.782 24.2012 275.564 19.3075 275.493 18.759C275.241 16.8024 274.025 11.2643 273.533 13.1748C272.564 16.9426 275.725 28.5286 275.725 24.6383C275.725 23.1059 275.206 21.5884 274.798 20.1288C274.314 18.4004 282.413 17.7194 283.985 17.6211C286.512 17.4632 283.191 14.8674 282.173 13.8491C280.943 12.6187 281.446 15.5753 281.499 16.0828C281.744 18.4437 282.432 21.1097 283.501 23.2475C284.38 25.0056 284.011 21.1489 283.985 20.8452C283.886 19.6562 283.596 14.6685 282.384 13.9756C282.03 13.7733 282.256 14.7993 282.342 15.1978C282.681 16.7753 283.23 18.3305 283.69 19.8759C284.148 21.4146 284.583 23.5055 285.966 24.4275" stroke="black" stroke-width="2.56031" stroke-linecap="round"/>
<path d="M302.276 15.3248C303.043 14.1753 295.253 13.9171 294.1 14.6505C290.297 17.0704 293.003 23.0662 296.25 24.3649C300.778 26.1764 304.984 23.2168 305.248 18.4646C305.456 14.717 298.882 12.4722 296.039 14.1447C293.113 15.8658 292.507 19.5475 293.847 22.5737C295.681 26.7145 301.764 23.4762 303.52 21.2462C304.527 19.9671 305.047 18.8253 304.847 17.1792C304.79 16.708 304.301 15.5868 304.194 16.7156C303.843 20.3993 308.264 23.5905 311 25.1867" stroke="black" stroke-width="2.56031" stroke-linecap="round"/>
<path d="M89.6975 13.7361C89.3169 16.7045 90.1364 19.7702 91.3622 22.4812C91.8293 23.5141 92.4813 24.6149 93.501 25.1784C96.9433 27.0807 98.094 19.7935 98.2108 17.7504C98.2732 16.6586 98.2774 15.5246 98.2213 14.4315C98.2054 14.122 97.8112 12.982 97.705 13.9257C97.2447 18.0173 99.6995 21.2562 102.025 24.3566" stroke="black" stroke-width="2.56031" stroke-linecap="round"/>
<path d="M98.2314 13.1672C98.7386 16.5225 98.7455 22.6194 102.214 24.5464" stroke="black" stroke-width="2.56031" stroke-linecap="round"/>
<path d="M88.3691 13.7363C87.0242 16.2021 87.8156 20.953 89.7283 23.0188C90.6114 23.9725 91.6474 24.9868 92.9208 25.3051" stroke="black" stroke-width="2.56031" stroke-linecap="round"/>
</svg>
