<svg width="165" height="49" viewBox="0 0 165 49" fill="none" xmlns="http://www.w3.org/2000/svg">
<path d="M4.30516 5.24827C3.3677 9.93542 3.5612 15.884 4.78785 20.4839C5.97317 24.9288 5.00738 11.2224 4.18448 6.6964C3.45316 2.67406 2.73633 1.62426 2.73633 6.45503C2.73633 10.7685 3.25959 15.0962 3.76209 19.3676" stroke="black" stroke-width="2.07171" stroke-linecap="round"/>
<path d="M8.6832 6.3338C6.34333 8.86415 0.195218 17.1806 2.51352 14.6304C4.19112 12.7851 5.37976 10.3592 6.78251 8.29483C7.18562 7.70158 8.65235 5.26653 9.22625 4.91583C11.324 3.63393 10.7455 4.06146 9.64863 5.85108C8.66126 7.46205 7.28232 10.1041 5.63607 11.2213C4.95646 11.6825 4.36446 12.3233 3.65996 12.7147C2.79205 13.1969 4.22233 13.2725 4.67063 13.3935C7.56506 14.1745 10.6067 14.7261 13.2991 16.1088C14.0151 16.4764 14.3795 17.1949 15.2753 17.1949C15.8327 17.1949 14.1859 16.9455 13.6612 16.7574C12.2978 16.2686 10.9853 15.7069 9.70897 15.0227C8.25139 14.2413 6.93896 13.4041 5.3042 13.1069C4.7481 13.0058 3.86925 12.924 3.52421 12.5789" stroke="black" stroke-width="2.07171" stroke-linecap="round"/>
<path d="M20.0879 8.77788C20.372 11.8316 24.2978 18.1023 27.9018 17.4969C30.4143 17.0748 31.3675 12.3738 30.1344 10.5428C28.7219 8.4454 24.9421 6.68275 22.3808 7.20905C19.9093 7.7169 20.9412 13.6438 21.6718 15.1286C22.8029 17.4272 26.0914 19.2611 28.3091 17.2404C30.6044 15.1491 30.7989 10.0632 28.7164 7.81244C27.0297 5.98945 22.2197 3.64122 21.2343 7.2543C20.6556 9.37617 20.5064 13.8746 22.8032 15.023" stroke="black" stroke-width="2.07171" stroke-linecap="round"/>
<path d="M33.9345 4.70488C34.1962 8.63041 35.0795 12.4586 35.8653 16.3051C36.0339 17.1299 36.3531 18.2478 35.805 16.8029C34.3242 12.8989 32.9551 8.97916 32.0489 4.90097C31.3862 1.91873 34.4291 10.5632 35.096 13.5446C35.2975 14.4455 35.4621 17.0983 35.7748 16.2297C36.307 14.7514 35.5412 12.3631 35.2921 10.9198C34.8348 8.27008 33.6629 5.23626 33.6629 2.53265C33.6629 0.597907 39.6721 4.52449 40.2098 4.94621C43.1588 7.25921 41.1499 9.88207 38.1733 10.8595C37.2418 11.1653 32.5762 11.5272 35.5636 10.4069" stroke="black" stroke-width="2.07171" stroke-linecap="round"/>
<path d="M47.2404 4.16199C47.1298 7.19308 46.8106 10.9091 47.7382 13.8464C48.3209 15.6918 47.2761 9.9944 46.818 8.1142C46.5649 7.07544 46.4511 6.69903 46.2749 5.70063C46.1941 5.24223 46.4507 4.15503 46.0185 4.32792C45.3178 4.60823 46.3467 9.70804 46.4258 10.2562C46.5753 11.292 46.4483 14.5628 47.2404 15.3549C47.6432 15.7577 47.4816 14.2348 47.4968 13.6654C47.5365 12.1761 47.4992 10.6818 47.3309 9.2003C47.2609 8.58399 46.456 4.943 46.456 5.36877C46.456 8.05828 47.1151 10.7117 47.6326 13.3335C47.8308 14.3377 47.9044 16.3032 48.7187 17.0746C49.8153 18.1134 51.58 15.1227 51.977 14.5705C53.4997 12.4525 55.0128 10.3216 56.4723 8.15946C57.4913 6.64974 56.0508 8.75287 55.8689 9.03439C54.0318 11.8775 49.1123 20.7613 50.9512 17.9193C53.114 14.5769 54.7356 10.6411 57.1058 7.48065C57.6791 6.71635 55.8769 8.95382 55.3862 9.77353C54.2067 11.7438 53.1243 13.7678 51.9318 15.732C50.9582 17.3356 51.4347 16.9061 52.1882 15.6566C53.7192 13.1179 55.0781 10.4869 56.4723 7.87285C56.4894 7.84072 57.4389 5.74558 57.2567 5.79114C56.5923 5.95722 56.5034 9.25298 56.4874 9.75845C56.4363 11.3674 56.3937 13.0255 56.5326 14.6308C56.5749 15.1194 57.0986 16.4015 57.2265 15.9281C57.6758 14.2658 57.5282 12.154 57.5282 10.4523C57.5282 8.74977 57.6867 6.16842 56.8947 4.58437C56.4044 3.60389 56.7606 6.78158 56.8645 7.87284C57.1567 10.9416 57.564 14.0083 57.8903 17.0746C58.0848 18.9032 58.1014 16.5297 58.1014 16.0941C58.1014 12.8646 57.683 9.77602 57.1964 6.59063C56.8071 4.04272 57.1152 8.43055 57.136 8.68742C57.3884 11.7951 57.6468 14.8964 57.8299 18.0098" stroke="black" stroke-width="2.07171" stroke-linecap="round"/>
<path d="M69.2339 4.16201C70.7651 7.76469 68.6419 1.54078 68.4344 3.40776C68.3854 3.84932 69.0555 5.88124 69.1736 5.1576C69.4063 3.7327 68.6077 2.42663 67.1824 2.17082C62.7893 1.38233 62.9696 11.6357 64.1353 13.9671C66.0514 17.7994 71.2805 16.4373 72.9146 13.1224C73.7735 11.3801 72.7666 10.7247 72.2057 12.5944C71.4345 15.1651 69.515 16.3241 66.8053 16.0338C62.8048 15.6051 60.7752 9.65965 62.5061 6.39456C63.1563 5.16815 66.3658 1.41245 67.6048 3.89048" stroke="black" stroke-width="2.07171" stroke-linecap="round"/>
<path d="M78.738 3.34766C78.2732 7.89692 78.4212 12.4735 78.9492 17.0145C79.0917 18.2392 78.9001 14.7205 78.8889 14.6009C78.6484 12.0403 78.2098 9.4993 77.9838 6.93782C77.9045 6.03888 78.3654 3.54437 77.7877 4.23765C77.2138 4.92642 77.7256 7.28001 77.8179 8.03902C78.0662 10.0811 78.3993 12.1599 78.8738 14.1634C79.5556 17.042 79.2092 14.5067 78.7984 13.1829C78.4523 12.0679 78.7739 12.5313 80.3672 12.3684C82.3264 12.168 88.2196 12.2657 86.2654 12.0214C84.1622 11.7585 81.133 11.2057 79.0699 11.7951C78.348 12.0014 80.9964 12.8055 81.1969 12.8209C83.4395 12.9934 85.1828 12.4217 87.1554 11.4934" stroke="black" stroke-width="2.07171" stroke-linecap="round"/>
<path d="M85.2539 3.61877C85.7127 7.20192 86.2765 10.7632 86.8529 14.329C86.9779 15.1021 87.1813 17.383 87.3658 16.6219C88.002 13.9977 87.5876 10.2132 87.3054 7.54085C87.2363 6.88612 86.5682 1.00282 86.6115 3.95066C86.6687 7.83545 87.1546 11.669 87.1546 15.566" stroke="black" stroke-width="2.07171" stroke-linecap="round"/>
<path d="M101.205 5.62136C100.294 3.76417 96.6278 2.38442 94.9597 4.05252C93.3131 5.69908 92.8037 8.32719 92.7875 10.5692C92.7691 13.1035 93.4725 16.1028 95.8949 17.4328C97.7623 18.458 100.514 16.9638 101.325 15.1851C102.701 12.1686 103.364 4.77002 98.7007 4.05254C95.3391 3.53538 92.6942 8.34534 93.1797 11.2329C93.7395 14.5625 98.0696 19.1427 100.813 15.1248C102.52 12.6237 105.044 5.03218 101.808 2.75524C101.244 2.35794 101.483 4.26449 101.491 4.44474C101.587 6.49658 102.223 8.50082 102.834 10.4485C103.392 12.2267 104.06 13.9142 105.248 15.3661C105.671 15.8837 105.933 16.3873 106.092 17.0255" stroke="black" stroke-width="2.07171" stroke-linecap="round"/>
<path d="M38.4278 33.0664C38.2352 35.7396 38.1314 38.4108 38.2167 41.0915C38.2292 41.4855 38.4951 44.3853 38.4128 42.1625C38.3074 39.3165 37.6133 36.5563 37.6133 33.7C37.6133 30.8358 38.007 39.4315 38.5787 42.238C38.674 42.7058 39.2316 45.589 39.514 44.7421" stroke="black" stroke-width="2.07171" stroke-linecap="round"/>
<path d="M36.7988 26.2786C36.6508 28.0552 37.9741 27.8817 37.4928 26.9725C36.6548 25.3897 36.5273 27.5274 36.5273 28.1793" stroke="black" stroke-width="2.07171" stroke-linecap="round"/>
<path d="M45.2149 33.6097C44.9083 33.3414 44.9323 33.6186 44.9434 33.9717C45.0329 36.8047 45.4777 39.6358 45.7882 42.4494C45.9068 43.5241 46.4674 47.915 46.1653 44.2294C45.8946 40.9265 45.758 37.5724 45.758 34.2583C45.758 32.8195 45.2274 33.4518 45.2149 34.5449C45.1837 37.2946 45.3787 39.9923 45.6976 42.7209C45.9288 44.6986 45.669 43.0188 45.2149 42.208C45.1116 42.0235 44.0734 41.0158 44.6417 40.956C46.9158 40.7166 49.3231 40.9409 51.6109 40.9409C52.6697 40.9409 53.4034 41.2685 53.1495 40.1263C52.8154 38.6229 52.9542 36.9478 52.6819 35.4048C52.6527 35.2389 51.5802 32.4901 51.4751 33.2778C51.112 36.0015 51.8797 38.9408 52.335 41.6046C52.4188 42.0952 53.1631 46.6927 53.3004 45.406C53.6392 42.2296 53.0168 38.9188 52.697 35.7668C52.3456 32.3026 52.2746 35.5271 52.2746 37.049C52.2746 40.39 52.7979 43.2381 53.9038 46.3714" stroke="black" stroke-width="2.07171" stroke-linecap="round"/>
<path d="M62.0508 34.4238C62.1663 37.3107 62.5174 40.1669 62.9559 43.0222C63.1032 43.9818 62.8533 46.4541 63.6196 45.8581C63.9987 45.5633 63.6361 43.041 63.6196 42.6903C63.5338 40.8674 63.4473 39.0313 63.2727 37.2145C63.2205 36.6719 62.5263 34.0288 62.6089 36.053C62.7239 38.8713 63.2428 41.6552 63.4084 44.4703" stroke="black" stroke-width="2.07171" stroke-linecap="round"/>
<path d="M64.7645 33.881C62.4705 33.5149 57.6068 33.7868 56.0756 35.9627C55.3414 37.0061 56.0497 38.6539 56.9204 39.3115C59.857 41.5297 65.4607 41.584 67.1479 37.6824C68.5088 34.5352 63.3946 32.9024 61.0235 33.4586C58.9018 33.9563 57.8461 36.129 57.1617 37.9539" stroke="black" stroke-width="2.07171" stroke-linecap="round"/>
<path d="M70.1953 37.4109C70.6959 39.9926 74.1743 46.362 77.602 44.4404C79.714 43.2564 83.1734 39.4858 81.2827 36.8678C79.9457 35.0167 76.305 33.5538 74.057 34.3939C71.5022 35.3488 71.2151 39.7427 71.734 41.9665C73.1457 48.0171 81.5299 43.0659 79.744 37.8634C79.0851 35.944 76.8511 34.3123 74.7509 34.6655C71.9852 35.1305 71.9536 38.203 71.8245 40.3977" stroke="black" stroke-width="2.07171" stroke-linecap="round"/>
<path d="M87.3027 33.6095C87.8425 36.7763 89.9469 46.1381 89.7465 42.9319C89.5412 39.6481 87.953 36.5715 87.8458 33.2474C87.8098 32.132 87.8548 33.9408 87.8609 34.0771C87.93 35.6314 88.2795 37.1312 88.6 38.6478C88.9464 40.2863 89.475 41.9717 89.475 43.656C89.475 45.8464 88.4374 39.3993 87.9665 37.26C87.691 36.0085 87.1468 34.1984 87.3631 32.9005C87.4871 32.1562 90.1809 32.5135 90.6516 32.5234C98.9663 32.6978 91.256 42.4502 88.3888 39.5831" stroke="black" stroke-width="2.07171" stroke-linecap="round"/>
<path d="M101.421 33.8807C101.082 37.4023 100.812 41.6176 101.828 45.0737C102.319 46.7433 101.864 41.5862 101.692 39.8543C101.492 37.8412 101.446 35.8079 101.149 33.8053C100.929 32.3192 100.681 35.8776 100.667 36.1133C100.511 38.6865 100.49 41.3613 100.742 43.9272C100.866 45.1909 100.878 45.8069 100.878 44.0781C100.878 40.7292 100.878 37.3804 100.878 34.0316C100.878 32.7208 103.219 34.4796 103.442 34.7255C104.469 35.8579 105.223 37.1937 106.097 38.4364C106.27 38.6815 107.861 40.897 107.078 39.6733C105.797 37.6723 104.248 35.1333 102.251 33.7601C101.282 33.0941 102.89 35.7941 103.05 36.053C104.129 37.7986 105.743 38.9699 107.394 40.1258" stroke="black" stroke-width="2.07171" stroke-linecap="round"/>
<path d="M106.309 39.0399C107.543 36.7962 109.099 34.8045 110.457 32.644C110.874 31.9807 110.13 33.1866 110.05 33.3379C109.232 34.8852 108.22 36.2919 107.666 37.9538" stroke="black" stroke-width="2.07171" stroke-linecap="round"/>
<path d="M106.037 38.7686C107.955 37.3495 109.598 35.3635 110.864 33.338C111.396 32.4865 111.148 35.3266 111.256 36.3249C111.503 38.5908 111.716 40.7696 111.739 43.0527C111.75 44.1002 111.722 45.5312 112.282 46.3713" stroke="black" stroke-width="2.07171" stroke-linecap="round"/>
<path d="M123.959 35.2386C120.383 34.8228 115.855 38.8664 118.378 42.5094C120.506 45.5833 124.455 42.4791 125.136 39.8545C125.788 37.3385 124.264 33.5445 121.183 33.7301C117.774 33.9355 116.687 39.2839 116.944 41.9061C117.265 45.1674 120.113 46.387 122.435 43.8369C124.863 41.1708 124.696 37.2017 124.366 33.8357C124.084 30.9585 125.165 35.4332 125.467 36.2191C126.591 39.141 127.858 42.0875 130.204 44.1989" stroke="black" stroke-width="2.07171" stroke-linecap="round"/>
<path d="M132.377 34.4241C132.454 36.1672 132.761 37.8727 133.101 39.5831C133.116 39.6601 134.278 45.7231 134.278 43.7163C134.278 40.5083 133.686 37.3788 132.92 34.2732C132.27 31.6368 132.744 36.0586 132.814 36.6415C133.098 38.9767 133.518 41.4188 134.278 43.656C135.46 47.1366 139.246 41.7302 140.764 40.5787C141.577 39.962 140.575 40.4468 140.342 40.5787C139.114 41.2733 137.964 42.1725 136.902 43.0978C136.426 43.5135 134.748 46.1117 136.616 45.0739C138.636 43.9515 140.681 40.9105 141.609 38.8288C142.381 37.0969 142.423 35.3633 142.423 33.5039C142.423 31.5423 141.957 36.1169 141.941 36.4153C141.913 36.9295 141.572 42.4794 142.544 42.4794C143.024 42.4794 142.503 33.8174 142.423 33.0363C142.22 31.0371 142.152 29.1807 142.152 32.2971C142.152 35.6352 141.785 39.1924 142.635 42.4492C143.105 44.2508 142.967 43.72 142.967 42.2983" stroke="black" stroke-width="2.07171" stroke-linecap="round"/>
<path d="M149.481 36.3249C149.481 38.1117 149.119 40.0034 149.36 41.7705C149.57 43.3101 149.512 38.6604 149.42 37.1093C149.389 36.5866 148.938 32.6117 148.938 35.2388C148.938 37.3636 148.462 40.1754 149.224 42.208C149.675 43.41 150.015 42.5406 150.024 41.7856C150.045 39.8552 150.024 37.9235 150.024 35.993C150.024 32.6241 150.024 42.7309 150.024 46.0998" stroke="black" stroke-width="2.07171" stroke-linecap="round"/>
<path d="M149.754 27.636C149.613 28.0063 149.531 29.4151 149.467 29.1294C149.271 28.244 148.795 29.2818 148.668 29.5367" stroke="black" stroke-width="2.07171" stroke-linecap="round"/>
<path d="M160.615 31.437C161.175 35.1563 161.444 39.5263 162.787 43.0523C162.958 43.5013 163.079 43.6149 162.938 42.9618C162.636 41.556 162.286 40.1567 161.913 38.7682C161.367 36.7367 161.228 34.1412 160.283 32.2516C159.636 30.9561 159.988 35.1621 160.193 36.596C160.502 38.7618 161.488 40.8112 162.516 42.7205C163.247 44.0776 162.895 40.8808 162.878 40.7896C162.481 38.6223 161.635 35.3887 159.589 34.1221C158.673 33.5551 156.613 33.7051 155.879 34.4691C153.731 36.7026 154.353 41.0336 158.006 40.6387C158.736 40.5598 160.042 39.8576 160.042 38.9493C160.042 37.7717 158.412 40.666 157.764 41.6494C156.722 43.2325 155.848 44.9044 155.336 46.733C155.097 47.584 155.053 47.8402 155.351 46.7481C156.174 43.7306 158.179 41.2048 160.344 39.0398" stroke="black" stroke-width="2.07171" stroke-linecap="round"/>
</svg>
