<svg width="139" height="65" viewBox="0 0 139 65" fill="none" xmlns="http://www.w3.org/2000/svg">
<path d="M3.15508 17.0037C3.10105 16.6405 2.89216 14.1833 2.85339 15.8506C2.8004 18.1293 3.60694 20.2141 4.85051 22.1091C11.1638 31.7298 23.9255 37.7961 35.0481 39.0668C40.5515 39.6955 47.7382 40.3535 52.2603 36.384C55.5833 33.4671 56.5054 28.4927 56.4986 24.2769C56.4861 16.5557 50.1109 9.86966 42.1518 13.4941C32.8011 17.7522 27.9362 28.6759 31.1125 38.3396C32.9173 43.8305 37.3149 47.823 42.039 50.9132C49.1049 55.5354 57.2994 58.9601 65.5917 60.5584C81.7454 63.672 98.3972 62.5727 111.154 51.2741C117.957 45.2495 123.585 38.1396 127.325 29.8421C130.668 22.4237 131.941 14.9226 133.031 6.93726" stroke="black" stroke-width="1.85645" stroke-linecap="round"/>
<path d="M132.326 6.90625C129.565 9.84262 126.369 11.8757 123.154 14.2729" stroke="black" stroke-width="1.85645" stroke-linecap="round"/>
<path d="M132.97 6.31616C133.923 10.6649 136.291 14.9983 137.692 19.2588" stroke="black" stroke-width="1.85645" stroke-linecap="round"/>
</svg>
