<svg width="247" height="369" viewBox="0 0 247 369" fill="none" xmlns="http://www.w3.org/2000/svg">
<path d="M39.6933 334.147C38.7772 334.027 32.687 332.837 36.6949 334.081C42.1722 335.782 47.7736 335.269 53.2174 333.567C80.854 324.929 104.34 298.235 115.09 272.197C120.409 259.314 126.96 242.378 120.476 228.696C115.71 218.642 104.31 212.978 94.1035 210.086C75.4112 204.788 54.8331 215.601 58.1112 237.361C61.9624 262.926 85.0384 282.236 110.614 281.219C125.147 280.641 137.842 272.754 148.58 263.456C164.641 249.547 178.582 232.082 188.172 213.119C206.854 176.179 215.684 135.126 197.147 96.4595C187.263 75.8419 173.942 57.3174 156.445 42.5415C140.801 29.331 123.529 21.0744 104.958 12.9268" stroke="black" stroke-width="3" stroke-linecap="round"/>
<path d="M104.395 14.6133C109.594 23.3212 112.309 32.4579 115.891 41.891" stroke="black" stroke-width="3" stroke-linecap="round"/>
<path d="M103.412 12.6447C114.592 13.3408 126.713 10.5993 137.989 10.1507" stroke="black" stroke-width="3" stroke-linecap="round"/>
</svg>
