<svg width="176" height="169" viewBox="0 0 176 169" fill="none" xmlns="http://www.w3.org/2000/svg">
<path d="M14.3283 129.247C13.9596 128.967 11.6067 126.935 13.0405 128.473C15 130.574 17.5637 131.743 20.3542 132.356C34.521 135.469 51.3706 129.696 62.5179 121.044C68.0336 116.763 75.0925 111.025 75.6728 103.463C76.0992 97.9055 72.5487 92.6084 68.8287 88.8135C62.0158 81.8632 50.3783 81.4512 46.3953 91.7301C41.716 103.806 46.9526 117.94 58.329 123.855C64.7932 127.216 72.275 126.941 79.2564 125.566C89.6985 123.509 100.103 119.378 108.988 113.514C126.294 102.091 140.339 86.4316 141.887 65.0071C142.713 53.5832 141.524 42.2155 137.587 31.44C134.066 21.8062 128.606 13.922 122.555 5.76245" stroke="black" stroke-width="2.34005" stroke-linecap="round"/>
<path d="M121.891 6.35645C121.988 11.4362 120.897 16.0846 120.111 21.0777" stroke="black" stroke-width="2.34005" stroke-linecap="round"/>
<path d="M121.953 5.25585C126.643 8.3375 132.596 10.1578 137.611 12.7654" stroke="black" stroke-width="2.34005" stroke-linecap="round"/>
</svg>
