<svg width="289" height="30" viewBox="0 0 289 30" fill="none" xmlns="http://www.w3.org/2000/svg">
<path d="M4.60407 10.0534C3.54518 15.3477 3.76374 22.0667 5.14928 27.2625C6.48813 32.2831 5.39724 16.8014 4.46775 11.6891C3.64171 7.14578 2.83203 5.96 2.83203 11.4165C2.83203 16.2886 3.42307 21.1769 3.99066 26.0016" stroke="black" stroke-width="2.34005" stroke-linecap="round"/>
<path d="M9.54885 11.2796C6.9059 14.1377 -0.0385494 23.5314 2.58003 20.6509C4.47493 18.5665 5.81753 15.8265 7.40197 13.4947C7.85729 12.8246 9.51401 10.0741 10.1622 9.67799C12.5317 8.23006 11.8783 8.71296 10.6393 10.7344C9.52407 12.554 7.96652 15.5383 6.10704 16.8002C5.3394 17.3211 4.67072 18.0449 3.87497 18.487C2.89464 19.0317 4.51018 19.1171 5.01655 19.2537C8.28589 20.1359 11.7215 20.759 14.7627 22.3207C15.5713 22.736 15.983 23.5475 16.9948 23.5475C17.6244 23.5475 15.7643 23.2658 15.1716 23.0534C13.6316 22.5013 12.1491 21.8668 10.7075 21.0939C9.06111 20.2113 7.57869 19.2657 5.73218 18.93C5.10405 18.8158 4.11137 18.7234 3.72163 18.3336" stroke="black" stroke-width="2.34005" stroke-linecap="round"/>
<path d="M22.4297 14.0401C22.7506 17.4894 27.1849 24.5723 31.2557 23.8884C34.0937 23.4116 35.1703 18.1017 33.7775 16.0336C32.182 13.6645 27.9126 11.6736 25.0196 12.268C22.228 12.8416 23.3935 19.5362 24.2188 21.2133C25.4963 23.8097 29.2108 25.8811 31.7158 23.5987C34.3084 21.2365 34.5281 15.4919 32.1758 12.9496C30.2707 10.8904 24.8377 8.23805 23.7246 12.3191C23.071 14.7158 22.9024 19.7969 25.4967 21.0941" stroke="black" stroke-width="2.34005" stroke-linecap="round"/>
<path d="M38.0717 9.43951C38.3673 13.8735 39.365 18.1975 40.2527 22.5422C40.443 23.4739 40.8036 24.7366 40.1845 23.1045C38.5119 18.6949 36.9655 14.2674 35.9419 9.661C35.1933 6.29248 38.6304 16.0567 39.3837 19.4242C39.6113 20.4418 39.7972 23.4382 40.1504 22.457C40.7515 20.7873 39.8866 18.0897 39.6052 16.4594C39.0887 13.4665 37.765 10.0397 37.765 6.98591C37.765 4.80058 44.5525 9.23576 45.1598 9.7121C48.4909 12.3247 46.2218 15.2873 42.8596 16.3913C41.8075 16.7367 36.5375 17.1455 39.9119 15.8801" stroke="black" stroke-width="2.34005" stroke-linecap="round"/>
<path d="M53.1001 8.82642C52.9751 12.2501 52.6146 16.4474 53.6623 19.7653C54.3206 21.8497 53.1404 15.4143 52.623 13.2905C52.3371 12.1172 52.2086 11.6921 52.0096 10.5644C51.9182 10.0466 52.2081 8.81856 51.7199 9.01384C50.9284 9.33046 52.0906 15.0908 52.18 15.71C52.3488 16.88 52.2053 20.5744 53.1001 21.4691C53.555 21.9241 53.3726 20.204 53.3897 19.5608C53.4346 17.8785 53.3924 16.1907 53.2023 14.5173C53.1232 13.8212 52.214 9.70859 52.214 10.1895C52.214 13.2274 52.9586 16.2245 53.5431 19.1859C53.7669 20.3201 53.8501 22.5402 54.7698 23.4115C56.0084 24.5849 58.0017 21.2069 58.4502 20.5831C60.1702 18.1908 61.8793 15.7838 63.5277 13.3417C64.6788 11.6364 63.0517 14.0119 62.8462 14.3299C60.7711 17.5413 55.2145 27.5758 57.2916 24.3657C59.7345 20.5903 61.5661 16.1448 64.2434 12.5749C64.8908 11.7116 62.8552 14.2389 62.3009 15.1648C60.9687 17.3903 59.7461 19.6765 58.3991 21.8951C57.2994 23.7063 57.8376 23.2213 58.6888 21.8099C60.418 18.9423 61.953 15.9705 63.5277 13.0179C63.5471 12.9816 64.6196 10.6151 64.4137 10.6666C63.6633 10.8542 63.5629 14.5768 63.5448 15.1478C63.4871 16.9652 63.439 18.838 63.5959 20.6513C63.6437 21.2031 64.2352 22.6513 64.3797 22.1166C64.8871 20.239 64.7205 17.8536 64.7205 15.9315C64.7205 14.0084 64.8994 11.0927 64.0048 9.30351C63.4511 8.19603 63.8533 11.7853 63.9707 13.0179C64.3009 16.4842 64.7609 19.9481 65.1294 23.4115C65.3491 25.477 65.3679 22.7961 65.3679 22.304C65.3679 18.6563 64.8953 15.1676 64.3456 11.5696C63.9059 8.69169 64.2539 13.6479 64.2774 13.938C64.5625 17.4483 64.8544 20.9513 65.0612 24.4679" stroke="black" stroke-width="2.34005" stroke-linecap="round"/>
<path d="M77.9417 8.82651C79.6712 12.8958 77.273 5.86576 77.0387 7.97456C76.9832 8.47332 77.7401 10.7684 77.8736 9.95105C78.1363 8.34159 77.2343 6.86635 75.6245 6.57741C70.6623 5.68679 70.8659 17.2682 72.1826 19.9017C74.347 24.2303 80.2534 22.6918 82.0992 18.9475C83.0693 16.9795 81.9319 16.2392 81.2983 18.3511C80.4273 21.2547 78.2592 22.5639 75.1985 22.236C70.6798 21.7518 68.3874 15.0362 70.3425 11.3482C71.0768 9.96297 74.7021 5.72081 76.1015 8.51981" stroke="black" stroke-width="2.34005" stroke-linecap="round"/>
<path d="M88.6771 7.90662C88.152 13.0451 88.3192 18.2144 88.9157 23.3436C89.0765 24.727 88.8602 20.7526 88.8475 20.6175C88.5759 17.7252 88.0805 14.8551 87.8252 11.9618C87.7356 10.9464 88.2562 8.12881 87.6037 8.91188C86.9554 9.68987 87.5335 12.3483 87.6378 13.2056C87.9183 15.5122 88.2945 17.8603 88.8305 20.1233C89.6005 23.3747 89.2093 20.5111 88.7453 19.0158C88.3544 17.7564 88.7176 18.2798 90.5173 18.0957C92.7303 17.8694 99.3868 17.9798 97.1794 17.7038C94.8038 17.4069 91.3823 16.7824 89.052 17.4483C88.2365 17.6813 91.228 18.5895 91.4544 18.6069C93.9876 18.8018 95.9567 18.156 98.1847 17.1075" stroke="black" stroke-width="2.34005" stroke-linecap="round"/>
<path d="M96.0371 8.21283C96.5554 12.2601 97.1921 16.2827 97.8432 20.3103C97.9844 21.1836 98.2141 23.7599 98.4225 22.9002C99.1411 19.9361 98.6731 15.6614 98.3544 12.6429C98.2763 11.9034 97.5216 5.25804 97.5706 8.5877C97.6351 12.9757 98.184 17.3058 98.184 21.7075" stroke="black" stroke-width="2.34005" stroke-linecap="round"/>
<path d="M114.055 10.4748C113.027 8.3771 108.885 6.81864 107.001 8.70281C105.141 10.5626 104.566 13.5312 104.547 16.0635C104.527 18.9261 105.321 22.3139 108.057 23.8161C110.167 24.9742 113.275 23.2865 114.191 21.2774C115.745 17.8701 116.494 9.51324 111.226 8.70283C107.429 8.11868 104.442 13.5517 104.99 16.8132C105.623 20.5741 110.514 25.7475 113.612 21.2092C115.54 18.3842 118.391 9.80936 114.736 7.2375C114.099 6.78874 114.369 8.94224 114.379 9.14583C114.486 11.4634 115.205 13.7273 115.895 15.9272C116.525 17.9358 117.279 19.8419 118.621 21.4818C119.1 22.0664 119.395 22.6353 119.575 23.3561" stroke="black" stroke-width="2.34005" stroke-linecap="round"/>
<path d="M147.094 8.85291C146.876 11.8723 146.759 14.8895 146.855 17.9175C146.87 18.3624 147.17 21.6379 147.077 19.1272C146.958 15.9126 146.174 12.7948 146.174 9.56852C146.174 6.3334 146.619 16.0424 147.264 19.2124C147.372 19.7409 148.002 22.9975 148.321 22.0409" stroke="black" stroke-width="2.34005" stroke-linecap="round"/>
<path d="M145.254 1.18591C145.087 3.19262 146.581 2.99665 146.038 1.9697C145.091 0.181895 144.947 2.59646 144.947 3.33281" stroke="black" stroke-width="2.34005" stroke-linecap="round"/>
<path d="M154.76 9.4668C154.414 9.16372 154.441 9.4769 154.454 9.87571C154.555 13.0757 155.057 16.2735 155.408 19.4515C155.542 20.6654 156.175 25.6251 155.834 21.462C155.528 17.7313 155.374 13.9427 155.374 10.1994C155.374 8.5743 154.774 9.28848 154.76 10.5232C154.725 13.629 154.945 16.6761 155.306 19.7581C155.567 21.992 155.273 20.0947 154.76 19.1788C154.644 18.9704 153.471 17.8322 154.113 17.7646C156.681 17.4943 159.401 17.7476 161.985 17.7476C163.181 17.7476 164.009 18.1176 163.723 16.8275C163.345 15.1293 163.502 13.2373 163.194 11.4944C163.161 11.307 161.95 8.20215 161.831 9.09192C161.421 12.1684 162.288 15.4884 162.803 18.4973C162.897 19.0514 163.738 24.2444 163.893 22.791C164.276 19.2032 163.573 15.4635 163.211 11.9033C162.815 7.99045 162.734 11.6326 162.734 13.3516C162.734 17.1254 163.325 20.3424 164.575 23.8815" stroke="black" stroke-width="2.34005" stroke-linecap="round"/>
<path d="M173.775 10.3865C173.906 13.6473 174.302 16.8734 174.798 20.0985C174.964 21.1824 174.682 23.975 175.547 23.3018C175.976 22.9688 175.566 20.1197 175.547 19.7237C175.451 17.6647 175.353 15.5907 175.156 13.5386C175.097 12.9257 174.312 9.94029 174.406 12.2267C174.536 15.41 175.122 18.5545 175.309 21.7343" stroke="black" stroke-width="2.34005" stroke-linecap="round"/>
<path d="M176.842 9.77309C174.251 9.35962 168.757 9.66673 167.027 12.1244C166.198 13.303 166.998 15.1642 167.982 15.907C171.299 18.4125 177.628 18.4739 179.534 14.0669C181.071 10.512 175.294 8.66778 172.616 9.29601C170.22 9.85815 169.027 12.3123 168.254 14.3736" stroke="black" stroke-width="2.34005" stroke-linecap="round"/>
<path d="M182.977 13.7603C183.542 16.6764 187.471 23.8708 191.343 21.7003C193.728 20.363 197.636 16.104 195.5 13.1469C193.99 11.0559 189.878 9.40357 187.338 10.3525C184.453 11.431 184.128 16.3942 184.715 18.9059C186.309 25.7403 195.779 20.1477 193.762 14.2714C193.018 12.1034 190.494 10.2604 188.122 10.6592C184.998 11.1845 184.963 14.655 184.817 17.134" stroke="black" stroke-width="2.34005" stroke-linecap="round"/>
<path d="M202.299 9.46649C202.909 13.0435 205.285 23.6179 205.059 19.9964C204.827 16.2873 203.033 12.8122 202.912 9.05755C202.872 7.79762 202.922 9.8407 202.929 9.99467C203.007 11.7503 203.402 13.4444 203.764 15.1574C204.155 17.0081 204.752 18.9118 204.752 20.8142C204.752 23.2884 203.58 16.0062 203.049 13.5898C202.737 12.1762 202.123 10.1317 202.367 8.66566C202.507 7.82497 205.55 8.22854 206.081 8.23969C215.473 8.43672 206.764 19.4523 203.526 16.2138" stroke="black" stroke-width="2.34005" stroke-linecap="round"/>
<path d="M218.246 9.77292C217.863 13.7506 217.558 18.5119 218.706 22.4156C219.261 24.3016 218.748 18.4764 218.553 16.5203C218.327 14.2463 218.275 11.9497 217.94 9.68774C217.691 8.0091 217.411 12.0284 217.394 12.2947C217.218 15.2012 217.196 18.2224 217.48 21.1207C217.62 22.5481 217.633 23.2439 217.633 21.2911C217.633 17.5085 217.633 13.7259 217.633 9.94332C217.633 8.4628 220.278 10.4494 220.53 10.7271C221.689 12.0062 222.541 13.515 223.528 14.9186C223.723 15.1955 225.521 17.698 224.636 16.3158C223.189 14.0557 221.44 11.1877 219.184 9.63663C218.089 8.88443 219.906 11.9341 220.087 12.2265C221.305 14.1983 223.128 15.5213 224.994 16.8269" stroke="black" stroke-width="2.34005" stroke-linecap="round"/>
<path d="M223.768 15.6004C225.161 13.0661 226.919 10.8163 228.453 8.37599C228.924 7.62681 228.083 8.9889 227.993 9.15975C227.07 10.9075 225.927 12.4965 225.301 14.3736" stroke="black" stroke-width="2.34005" stroke-linecap="round"/>
<path d="M223.461 15.2937C225.627 13.6908 227.483 11.4476 228.913 9.15979C229.514 8.19798 229.234 11.4059 229.356 12.5335C229.635 15.0929 229.875 17.554 229.902 20.1327C229.914 21.316 229.882 22.9323 230.515 23.8812" stroke="black" stroke-width="2.34005" stroke-linecap="round"/>
<path d="M243.702 11.3064C239.664 10.8368 234.549 15.4042 237.398 19.519C239.802 22.9911 244.263 19.4848 245.031 16.5202C245.768 13.6783 244.047 9.39292 240.567 9.60253C236.716 9.83452 235.488 15.8757 235.779 18.8375C236.142 22.5212 239.358 23.8989 241.981 21.0184C244.724 18.0071 244.535 13.5238 244.162 9.72179C243.844 6.47192 245.065 11.5263 245.406 12.4139C246.676 15.7144 248.106 19.0424 250.756 21.4274" stroke="black" stroke-width="2.34005" stroke-linecap="round"/>
<path d="M253.211 10.3866C253.298 12.3556 253.645 14.282 254.029 16.2139C254.046 16.3009 255.358 23.1492 255.358 20.8825C255.358 17.2589 254.689 13.724 253.824 10.2162C253.09 7.23835 253.625 12.2329 253.705 12.8913C254.026 15.5289 254.5 18.2873 255.358 20.8143C256.693 24.7458 260.97 18.6391 262.684 17.3384C263.603 16.6418 262.471 17.1895 262.207 17.3384C260.821 18.123 259.521 19.1387 258.323 20.1839C257.784 20.6534 255.889 23.5881 257.999 22.416C260.281 21.1481 262.59 17.7133 263.639 15.3619C264.511 13.4057 264.559 11.4475 264.559 9.34727C264.559 7.13165 264.032 12.2987 264.013 12.6357C263.982 13.2165 263.597 19.4853 264.695 19.4853C265.237 19.4853 264.649 9.70141 264.559 8.81907C264.329 6.56099 264.252 4.46408 264.252 7.98418C264.252 11.7547 263.838 15.7726 264.797 19.4512C265.328 21.4861 265.172 20.8866 265.172 19.2808" stroke="black" stroke-width="2.34005" stroke-linecap="round"/>
<path d="M272.531 12.5336C272.531 14.5519 272.122 16.6886 272.395 18.6845C272.632 20.4236 272.566 15.1717 272.463 13.4196C272.428 12.8292 271.918 8.3395 271.918 11.3068C271.918 13.7069 271.38 16.8828 272.241 19.1787C272.75 20.5364 273.135 19.5544 273.144 18.7016C273.168 16.5212 273.144 14.3393 273.144 12.1587C273.144 8.35341 273.144 19.7693 273.144 23.5746" stroke="black" stroke-width="2.34005" stroke-linecap="round"/>
<path d="M272.84 2.71912C272.681 3.1374 272.588 4.72871 272.516 4.40594C272.294 3.40586 271.757 4.5781 271.613 4.86599" stroke="black" stroke-width="2.34005" stroke-linecap="round"/>
<path d="M285.107 7.01257C285.74 11.2136 286.044 16.1496 287.561 20.1324C287.754 20.6395 287.89 20.7678 287.731 20.0301C287.39 18.4422 286.994 16.8617 286.573 15.2934C285.956 12.9987 285.8 10.067 284.732 7.93269C284.001 6.46932 284.399 11.2202 284.63 12.8398C284.98 15.2861 286.093 17.601 287.254 19.7575C288.08 21.2905 287.682 17.6796 287.663 17.5766C287.215 15.1286 286.26 11.4761 283.949 10.0455C282.914 9.40497 280.587 9.57441 279.757 10.4374C277.331 12.9602 278.034 17.8522 282.16 17.4062C282.985 17.317 284.46 16.5238 284.46 15.4979C284.46 14.1678 282.619 17.4369 281.887 18.5478C280.71 20.3359 279.722 22.2243 279.144 24.2898C278.875 25.2511 278.824 25.5404 279.161 24.3069C280.09 20.8985 282.355 18.0455 284.801 15.6001" stroke="black" stroke-width="2.34005" stroke-linecap="round"/>
</svg>
