<svg width="289" height="30" viewBox="0 0 289 30" fill="none" xmlns="http://www.w3.org/2000/svg">
<path d="M4.60407 10.0516C3.54518 15.3458 3.76374 22.0649 5.14928 27.2607C6.48813 32.2813 5.39724 16.7996 4.46775 11.6873C3.64171 7.14395 2.83203 5.95817 2.83203 11.4147C2.83203 16.2868 3.42307 21.1751 3.99066 25.9998" stroke="black" stroke-width="2.34005" stroke-linecap="round"/>
<path d="M9.54885 11.2778C6.9059 14.1359 -0.0385494 23.5295 2.58003 20.6491C4.47493 18.5647 5.81753 15.8246 7.40197 13.4928C7.85729 12.8227 9.51401 10.0723 10.1622 9.67616C12.5317 8.22823 11.8783 8.71112 10.6393 10.7326C9.52407 12.5522 7.96652 15.5365 6.10704 16.7983C5.3394 17.3192 4.67072 18.0431 3.87497 18.4852C2.89464 19.0298 4.51018 19.1153 5.01655 19.2519C8.28589 20.1341 11.7215 20.7571 14.7627 22.3189C15.5713 22.7341 15.983 23.5456 16.9948 23.5456C17.6244 23.5456 15.7643 23.264 15.1716 23.0515C13.6316 22.4995 12.1491 21.8649 10.7075 21.0921C9.06111 20.2095 7.57869 19.2639 5.73218 18.9282C5.10405 18.814 4.11137 18.7216 3.72163 18.3318" stroke="black" stroke-width="2.34005" stroke-linecap="round"/>
<path d="M22.4297 14.0382C22.7506 17.4875 27.1849 24.5705 31.2557 23.8866C34.0937 23.4098 35.1703 18.0999 33.7775 16.0317C32.182 13.6627 27.9126 11.6717 25.0196 12.2662C22.228 12.8398 23.3935 19.5344 24.2188 21.2115C25.4963 23.8078 29.2108 25.8793 31.7158 23.5969C34.3084 21.2347 34.5281 15.4901 32.1758 12.9477C30.2707 10.8886 24.8377 8.23622 23.7246 12.3173C23.071 14.714 22.9024 19.7951 25.4967 21.0922" stroke="black" stroke-width="2.34005" stroke-linecap="round"/>
<path d="M38.0717 9.43768C38.3673 13.8717 39.365 18.1957 40.2527 22.5404C40.443 23.4721 40.8036 24.7348 40.1845 23.1027C38.5119 18.693 36.9655 14.2656 35.9419 9.65917C35.1933 6.29065 38.6304 16.0549 39.3837 19.4223C39.6113 20.44 39.7972 23.4363 40.1504 22.4552C40.7515 20.7855 39.8866 18.0879 39.6052 16.4576C39.0887 13.4647 37.765 10.0379 37.765 6.98408C37.765 4.79874 44.5525 9.23392 45.1598 9.71027C48.4909 12.3229 46.2218 15.2855 42.8596 16.3894C41.8075 16.7349 36.5375 17.1437 39.9119 15.8783" stroke="black" stroke-width="2.34005" stroke-linecap="round"/>
<path d="M53.1001 8.82458C52.9751 12.2483 52.6146 16.4456 53.6623 19.7634C54.3206 21.8478 53.1404 15.4124 52.623 13.2887C52.3371 12.1154 52.2086 11.6902 52.0096 10.5625C51.9182 10.0447 52.2081 8.81673 51.7199 9.01201C50.9284 9.32863 52.0906 15.089 52.18 15.7082C52.3488 16.8781 52.2053 20.5725 53.1001 21.4673C53.555 21.9222 53.3726 20.2021 53.3897 19.559C53.4346 17.8767 53.3924 16.1889 53.2023 14.5155C53.1232 13.8194 52.214 9.70676 52.214 10.1877C52.214 13.2255 52.9586 16.2226 53.5431 19.1841C53.7669 20.3183 53.8501 22.5384 54.7698 23.4097C56.0084 24.5831 58.0017 21.205 58.4502 20.5813C60.1702 18.189 61.8793 15.782 63.5277 13.3398C64.6788 11.6346 63.0517 14.0101 62.8462 14.3281C60.7711 17.5395 55.2145 27.5739 57.2916 24.3639C59.7345 20.5885 61.5661 16.1429 64.2434 12.5731C64.8908 11.7098 62.8552 14.2371 62.3009 15.163C60.9687 17.3885 59.7461 19.6746 58.3991 21.8933C57.2994 23.7045 57.8376 23.2194 58.6888 21.8081C60.418 18.9405 61.953 15.9687 63.5277 13.0161C63.5471 12.9798 64.6196 10.6133 64.4137 10.6648C63.6633 10.8523 63.5629 14.575 63.5448 15.1459C63.4871 16.9633 63.439 18.8362 63.5959 20.6494C63.6437 21.2013 64.2352 22.6495 64.3797 22.1148C64.8871 20.2372 64.7205 17.8517 64.7205 15.9297C64.7205 14.0066 64.8994 11.0909 64.0048 9.30168C63.4511 8.1942 63.8533 11.7835 63.9707 13.0161C64.3009 16.4824 64.7609 19.9463 65.1294 23.4097C65.3491 25.4752 65.3679 22.7943 65.3679 22.3022C65.3679 18.6544 64.8953 15.1658 64.3456 11.5678C63.9059 8.68986 64.2539 13.646 64.2774 13.9362C64.5625 17.4464 64.8544 20.9494 65.0612 24.4661" stroke="black" stroke-width="2.34005" stroke-linecap="round"/>
<path d="M77.9417 8.82468C79.6712 12.894 77.273 5.86393 77.0387 7.97273C76.9832 8.47149 77.7401 10.7666 77.8736 9.94922C78.1363 8.33976 77.2343 6.86452 75.6245 6.57558C70.6623 5.68496 70.8659 17.2664 72.1826 19.8998C74.347 24.2285 80.2534 22.6899 82.0992 18.9457C83.0693 16.9777 81.9319 16.2374 81.2983 18.3493C80.4273 21.2529 78.2592 22.5621 75.1985 22.2341C70.6798 21.75 68.3874 15.0344 70.3425 11.3464C71.0768 9.96114 74.7021 5.71898 76.1015 8.51798" stroke="black" stroke-width="2.34005" stroke-linecap="round"/>
<path d="M88.6771 7.90479C88.152 13.0433 88.3192 18.2126 88.9157 23.3418C89.0765 24.7252 88.8602 20.7507 88.8475 20.6156C88.5759 17.7234 88.0805 14.8532 87.8252 11.96C87.7356 10.9446 88.2562 8.12698 87.6037 8.91005C86.9554 9.68804 87.5335 12.3465 87.6378 13.2038C87.9183 15.5104 88.2945 17.8584 88.8305 20.1215C89.6005 23.3729 89.2093 20.5092 88.7453 19.014C88.3544 17.7545 88.7176 18.278 90.5173 18.0939C92.7303 17.8676 99.3868 17.9779 97.1794 17.702C94.8038 17.4051 91.3823 16.7806 89.052 17.4464C88.2365 17.6794 91.228 18.5877 91.4544 18.6051C93.9876 18.7999 95.9567 18.1542 98.1847 17.1057" stroke="black" stroke-width="2.34005" stroke-linecap="round"/>
<path d="M96.0371 8.211C96.5554 12.2583 97.1921 16.2808 97.8432 20.3085C97.9844 21.1818 98.2141 23.7581 98.4225 22.8984C99.1411 19.9342 98.6731 15.6596 98.3544 12.6411C98.2763 11.9016 97.5216 5.25621 97.5706 8.58587C97.6351 12.9738 98.184 17.304 98.184 21.7057" stroke="black" stroke-width="2.34005" stroke-linecap="round"/>
<path d="M114.055 10.473C113.027 8.37527 108.885 6.81681 107.001 8.70098C105.141 10.5608 104.566 13.5293 104.547 16.0617C104.527 18.9243 105.321 22.3121 108.057 23.8143C110.167 24.9723 113.275 23.2846 114.191 21.2755C115.745 17.8683 116.494 9.51141 111.226 8.701C107.429 8.11685 104.442 13.5498 104.99 16.8114C105.623 20.5723 110.514 25.7457 113.612 21.2074C115.54 18.3824 118.391 9.80753 114.736 7.23567C114.099 6.78691 114.369 8.94041 114.379 9.144C114.486 11.4616 115.205 13.7255 115.895 15.9254C116.525 17.9339 117.279 19.84 118.621 21.48C119.1 22.0646 119.395 22.6334 119.575 23.3543" stroke="black" stroke-width="2.34005" stroke-linecap="round"/>
<path d="M147.094 8.85107C146.876 11.8705 146.759 14.8877 146.855 17.9157C146.87 18.3606 147.17 21.636 147.077 19.1254C146.958 15.9108 146.174 12.793 146.174 9.56669C146.174 6.33157 146.619 16.0406 147.264 19.2106C147.372 19.7391 148.002 22.9957 148.321 22.039" stroke="black" stroke-width="2.34005" stroke-linecap="round"/>
<path d="M145.254 1.18408C145.087 3.19079 146.581 2.99482 146.038 1.96786C145.091 0.180063 144.947 2.59463 144.947 3.33098" stroke="black" stroke-width="2.34005" stroke-linecap="round"/>
<path d="M154.76 9.46497C154.414 9.16189 154.441 9.47507 154.454 9.87388C154.555 13.0738 155.057 16.2716 155.408 19.4496C155.542 20.6635 156.175 25.6232 155.834 21.4602C155.528 17.7295 155.374 13.9409 155.374 10.1976C155.374 8.57247 154.774 9.28665 154.76 10.5213C154.725 13.6271 154.945 16.6743 155.306 19.7563C155.567 21.9902 155.273 20.0928 154.76 19.177C154.644 18.9686 153.471 17.8304 154.113 17.7628C156.681 17.4924 159.401 17.7458 161.985 17.7458C163.181 17.7458 164.009 18.1158 163.723 16.8257C163.345 15.1275 163.502 13.2354 163.194 11.4926C163.161 11.3052 161.95 8.20032 161.831 9.09009C161.421 12.1666 162.288 15.4866 162.803 18.4955C162.897 19.0496 163.738 24.2426 163.893 22.7892C164.276 19.2014 163.573 15.4617 163.211 11.9015C162.815 7.98862 162.734 11.6307 162.734 13.3498C162.734 17.1236 163.325 20.3405 164.575 23.8797" stroke="black" stroke-width="2.34005" stroke-linecap="round"/>
<path d="M173.775 10.3846C173.906 13.6455 174.302 16.8716 174.798 20.0967C174.964 21.1806 174.682 23.9732 175.547 23.3C175.976 22.9669 175.566 20.1179 175.547 19.7218C175.451 17.6629 175.353 15.5889 175.156 13.5368C175.097 12.9239 174.312 9.93846 174.406 12.2248C174.536 15.4082 175.122 18.5527 175.309 21.7324" stroke="black" stroke-width="2.34005" stroke-linecap="round"/>
<path d="M176.842 9.77126C174.251 9.35779 168.757 9.6649 167.027 12.1226C166.198 13.3012 166.998 15.1624 167.982 15.9052C171.299 18.4107 177.628 18.4721 179.534 14.065C181.071 10.5102 175.294 8.66595 172.616 9.29418C170.22 9.85632 169.027 12.3104 168.254 14.3717" stroke="black" stroke-width="2.34005" stroke-linecap="round"/>
<path d="M182.977 13.7584C183.542 16.6746 187.471 23.8689 191.343 21.6985C193.728 20.3611 197.636 16.1021 195.5 13.1451C193.99 11.0541 189.878 9.40174 187.338 10.3507C184.453 11.4292 184.128 16.3923 184.715 18.9041C186.309 25.7384 195.779 20.1459 193.762 14.2696C193.018 12.1016 190.494 10.2585 188.122 10.6574C184.998 11.1827 184.963 14.6532 184.817 17.1321" stroke="black" stroke-width="2.34005" stroke-linecap="round"/>
<path d="M202.299 9.46466C202.909 13.0416 205.285 23.6161 205.059 19.9946C204.827 16.2855 203.033 12.8104 202.912 9.05572C202.872 7.79579 202.922 9.83887 202.929 9.99283C203.007 11.7484 203.402 13.4426 203.764 15.1556C204.155 17.0063 204.752 18.91 204.752 20.8124C204.752 23.2866 203.58 16.0044 203.049 13.588C202.737 12.1744 202.123 10.1298 202.367 8.66383C202.507 7.82314 205.55 8.22671 206.081 8.23786C215.473 8.43489 206.764 19.4505 203.526 16.212" stroke="black" stroke-width="2.34005" stroke-linecap="round"/>
<path d="M218.246 9.77109C217.863 13.7488 217.558 18.5101 218.706 22.4138C219.261 24.2997 218.748 18.4746 218.553 16.5184C218.327 14.2445 218.275 11.9478 217.94 9.68591C217.691 8.00727 217.411 12.0266 217.394 12.2928C217.218 15.1993 217.196 18.2206 217.48 21.1189C217.62 22.5462 217.633 23.2421 217.633 21.2893C217.633 17.5067 217.633 13.7241 217.633 9.94149C217.633 8.46097 220.278 10.4476 220.53 10.7253C221.689 12.0044 222.541 13.5131 223.528 14.9168C223.723 15.1937 225.521 17.6961 224.636 16.314C223.189 14.0538 221.44 11.1859 219.184 9.6348C218.089 8.8826 219.906 11.9323 220.087 12.2247C221.305 14.1965 223.128 15.5194 224.994 16.8251" stroke="black" stroke-width="2.34005" stroke-linecap="round"/>
<path d="M223.768 15.5986C225.161 13.0643 226.919 10.8145 228.453 8.37416C228.924 7.62498 228.083 8.98707 227.993 9.15792C227.07 10.9056 225.927 12.4946 225.301 14.3718" stroke="black" stroke-width="2.34005" stroke-linecap="round"/>
<path d="M223.461 15.2919C225.627 13.689 227.483 11.4458 228.913 9.15796C229.514 8.19615 229.234 11.4041 229.356 12.5316C229.635 15.0911 229.875 17.5521 229.902 20.1309C229.914 21.3142 229.882 22.9304 230.515 23.8794" stroke="black" stroke-width="2.34005" stroke-linecap="round"/>
<path d="M243.702 11.3046C239.664 10.835 234.549 15.4023 237.398 19.5172C239.802 22.9892 244.263 19.4829 245.031 16.5184C245.768 13.6765 244.047 9.39109 240.567 9.6007C236.716 9.83269 235.488 15.8739 235.779 18.8357C236.142 22.5194 239.358 23.897 241.981 21.0166C244.724 18.0052 244.535 13.522 244.162 9.71996C243.844 6.47009 245.065 11.5244 245.406 12.4121C246.676 15.7125 248.106 19.0406 250.756 21.4256" stroke="black" stroke-width="2.34005" stroke-linecap="round"/>
<path d="M253.211 10.3848C253.298 12.3537 253.645 14.2802 254.029 16.212C254.046 16.2991 255.358 23.1474 255.358 20.8807C255.358 17.2571 254.689 13.7222 253.824 10.2144C253.09 7.23651 253.625 12.231 253.705 12.8895C254.026 15.5271 254.5 18.2855 255.358 20.8125C256.693 24.744 260.97 18.6373 262.684 17.3366C263.603 16.64 262.471 17.1877 262.207 17.3366C260.821 18.1212 259.521 19.1369 258.323 20.182C257.784 20.6515 255.889 23.5863 257.999 22.4141C260.281 21.1463 262.59 17.7114 263.639 15.3601C264.511 13.4039 264.559 11.4457 264.559 9.34544C264.559 7.12982 264.032 12.2969 264.013 12.6339C263.982 13.2147 263.597 19.4835 264.695 19.4835C265.237 19.4835 264.649 9.69958 264.559 8.81724C264.329 6.55916 264.252 4.46225 264.252 7.98235C264.252 11.7529 263.838 15.7708 264.797 19.4494C265.328 21.4843 265.172 20.8848 265.172 19.279" stroke="black" stroke-width="2.34005" stroke-linecap="round"/>
<path d="M272.531 12.5318C272.531 14.5501 272.122 16.6867 272.395 18.6827C272.632 20.4217 272.566 15.1698 272.463 13.4178C272.428 12.8274 271.918 8.33767 271.918 11.305C271.918 13.705 271.38 16.881 272.241 19.1768C272.75 20.5346 273.135 19.5525 273.144 18.6997C273.168 16.5193 273.144 14.3375 273.144 12.1569C273.144 8.35158 273.144 19.7675 273.144 23.5728" stroke="black" stroke-width="2.34005" stroke-linecap="round"/>
<path d="M272.84 2.71729C272.681 3.13557 272.588 4.72688 272.516 4.40411C272.294 3.40402 271.757 4.57627 271.613 4.86416" stroke="black" stroke-width="2.34005" stroke-linecap="round"/>
<path d="M285.107 7.01074C285.74 11.2117 286.044 16.1478 287.561 20.1306C287.754 20.6377 287.89 20.766 287.731 20.0283C287.39 18.4404 286.994 16.8599 286.573 15.2916C285.956 12.9969 285.8 10.0652 284.732 7.93086C284.001 6.46749 284.399 11.2184 284.63 12.838C284.98 15.2842 286.093 17.5991 287.254 19.7557C288.08 21.2886 287.682 17.6778 287.663 17.5747C287.215 15.1267 286.26 11.4742 283.949 10.0436C282.914 9.40314 280.587 9.57258 279.757 10.4355C277.331 12.9584 278.034 17.8503 282.16 17.4044C282.985 17.3151 284.46 16.522 284.46 15.496C284.46 14.166 282.619 17.4351 281.887 18.546C280.71 20.334 279.722 22.2225 279.144 24.288C278.875 25.2492 278.824 25.5386 279.161 24.305C280.09 20.8967 282.355 18.0437 284.801 15.5983" stroke="black" stroke-width="2.34005" stroke-linecap="round"/>
</svg>
