<svg width="1090" height="497" viewBox="0 0 1090 497" fill="none" xmlns="http://www.w3.org/2000/svg">
<g filter="url(#filter0_dd_1_2495)">
<path d="M17.9308 293.021C18.9871 309.456 24.3602 325.325 33.5156 339.052C42.671 352.779 55.2897 363.884 70.117 371.264C84.9443 378.644 101.464 382.041 118.032 381.117C134.601 380.193 164.559 365.999 164.559 365.999C172.319 388.546 200.507 436.214 244.771 440.428C289.036 444.643 327.466 446.558 359.466 407.167C366.058 422.95 365.6 446.558 417.986 445.338C449.831 444.596 459.138 421.497 460.342 414.167C468.186 432.076 491.712 461.572 544.062 461.572C583.851 461.572 598.402 430.658 605.819 414.9L605.986 414.547C607.8 421.085 615.498 434.994 631.78 438.322C648.062 441.65 665.505 433.517 672.192 429.035C679.075 454.113 704.076 491.287 759.632 484.179C790.403 480.242 821.055 466.932 831.327 430.99C835.496 439.212 847.795 457.448 863.635 464.613C883.434 473.569 919.232 482.122 952.041 458.944C961.636 465.739 972.799 470.032 984.507 471.428C1016.49 481.415 1043.93 453.519 1053.65 438.322C1084.55 368.865 1016.66 334.319 978.306 333.728C983.214 317.423 982.564 299.971 976.457 284.081C970.351 268.19 959.128 254.75 944.531 245.845C929.934 236.94 912.78 233.068 895.729 234.831C878.678 236.593 862.685 243.891 850.23 255.593C841.778 239.259 828.703 225.734 812.609 216.678C796.515 207.623 778.103 203.43 759.632 204.615L758.414 204.693C763.337 182.627 760.657 159.567 750.805 139.205C740.953 118.844 724.498 102.36 704.076 92.3924C683.654 82.425 660.445 79.551 638.167 84.2308C615.889 88.9106 595.831 100.873 581.204 118.203C577.346 110.951 572.077 104.53 565.702 99.3128C559.327 94.0953 551.972 90.1842 544.062 87.8054C536.153 85.4266 527.845 84.6273 519.62 85.4536C511.394 86.2799 503.413 88.7155 496.138 92.6197C489.128 75.7975 477.36 61.3529 462.255 51.0288C447.15 40.7046 429.354 34.9421 411.013 34.4364C392.672 33.9308 374.57 38.7036 358.892 48.179C343.214 57.6545 330.629 71.4276 322.655 87.8367C313.713 85.5904 304.379 85.3349 295.321 87.0885C286.264 88.8421 277.707 92.5616 270.264 97.9804C262.821 103.399 256.676 110.383 252.269 118.433C247.861 126.482 245.301 135.397 244.771 144.54C237.826 145.621 231.116 147.867 224.927 151.18C213.55 132.158 195.793 117.718 174.762 110.386C153.731 103.054 130.765 103.296 109.881 111.069C88.9965 118.843 71.5238 133.654 60.5186 152.912C49.5134 172.169 45.6764 194.647 49.6786 216.414C45.415 220.176 41.4984 224.309 37.9759 228.763C23.5359 247.001 16.3964 269.888 17.9308 293.021Z" fill="white"/>
<path d="M164.344 365.547L164.849 365.308L165.031 365.836C168.892 377.052 177.847 394.547 191.35 409.757C204.853 424.966 222.859 437.84 244.819 439.931C266.958 442.039 287.56 443.561 306.617 439.66C325.647 435.764 343.152 426.455 359.078 406.851L359.605 406.202L359.927 406.974C360.759 408.966 361.478 411.077 362.199 413.23L362.396 413.821C363.054 415.789 363.721 417.787 364.49 419.781C366.181 424.165 368.351 428.491 371.918 432.286C379.035 439.859 391.844 445.446 417.974 444.838C433.763 444.47 443.926 438.566 450.293 431.878C456.674 425.174 459.261 417.662 459.849 414.086L460.122 412.419L460.8 413.966C468.578 431.725 491.944 461.072 544.062 461.072C583.511 461.072 597.942 430.461 605.367 414.687L605.533 414.334L606.107 413.114L606.467 414.413C608.252 420.846 615.848 434.555 631.88 437.832C639.913 439.474 648.255 438.292 655.44 436.129C662.624 433.966 668.611 430.834 671.914 428.62L672.491 428.233L672.674 428.903C676.094 441.364 684.018 456.829 697.977 468.29C711.922 479.739 731.922 487.22 759.569 483.683C790.258 479.757 820.655 466.511 830.846 430.853L831.197 429.627L831.773 430.764C833.84 434.84 837.935 441.421 843.484 447.872C849.035 454.326 856.014 460.617 863.841 464.158C883.57 473.082 919.155 481.565 951.752 458.535L952.041 458.331L952.33 458.536C961.856 465.283 972.941 469.545 984.566 470.931L984.612 470.936L984.656 470.95C1000.46 475.886 1015.16 471.471 1027.16 463.896C1039.14 456.328 1048.37 445.631 1053.21 438.085C1060.89 420.813 1062.41 405.748 1059.82 392.859C1057.22 379.959 1050.49 369.198 1041.6 360.559C1023.8 343.265 997.362 334.522 978.298 334.228L977.636 334.218L977.827 333.584C982.703 317.385 982.058 300.047 975.991 284.26C969.924 268.473 958.774 255.12 944.271 246.272C929.768 237.424 912.722 233.577 895.78 235.328C878.838 237.079 862.947 244.331 850.573 255.957L850.09 256.41L849.786 255.823C841.379 239.576 828.373 226.122 812.364 217.114C796.355 208.106 778.039 203.935 759.664 205.114L758.446 205.192L757.781 205.235L757.926 204.584C762.824 182.628 760.158 159.683 750.355 139.423C740.552 119.163 724.179 102.76 703.857 92.8418C683.534 82.9232 660.439 80.0632 638.27 84.7201C616.101 89.3771 596.141 101.281 581.587 118.526L581.11 119.09L580.763 118.438C576.936 111.244 571.709 104.875 565.385 99.6998C559.061 94.5241 551.765 90.6441 543.918 88.2842C536.072 85.9244 527.83 85.1314 519.67 85.9511C511.509 86.7709 503.592 89.1872 496.375 93.0602L495.889 93.321L495.677 92.812C488.703 76.0795 476.998 61.7113 461.973 51.4415C446.948 41.1717 429.244 35.4393 410.999 34.9362C392.754 34.4332 374.747 39.1812 359.151 48.607C343.555 58.0327 331.036 71.7333 323.105 88.0553L322.928 88.4206L322.534 88.3217C313.662 86.0931 304.402 85.8396 295.416 87.5794C286.431 89.3191 277.942 93.009 270.558 98.3846C263.175 103.76 257.079 110.688 252.707 118.673C248.336 126.657 245.796 135.5 245.27 144.569L245.247 144.972L244.848 145.034C237.959 146.107 231.302 148.334 225.163 151.621L224.742 151.846L224.498 151.437C213.181 132.516 195.518 118.152 174.597 110.858C153.676 103.564 130.83 103.805 110.055 111.538C89.2801 119.271 71.8996 134.004 60.9528 153.16C50.006 172.315 46.1895 194.673 50.1704 216.323L50.2216 216.602L50.0095 216.789C45.7681 220.531 41.8721 224.643 38.3681 229.073L37.9759 228.763L38.3679 229.073C24.0046 247.215 16.9035 269.979 18.4297 292.988C19.4804 309.336 24.8247 325.121 33.9315 338.775C43.0384 352.429 55.5903 363.475 70.3398 370.816C85.0893 378.157 101.522 381.537 118.004 380.618C126.202 380.161 137.767 376.41 147.33 372.745C152.101 370.916 156.356 369.116 159.418 367.774C160.949 367.102 162.181 366.545 163.031 366.156C163.455 365.962 163.784 365.809 164.007 365.706C164.118 365.654 164.203 365.614 164.259 365.587L164.323 365.557L164.339 365.55L164.343 365.548L164.344 365.548C164.344 365.547 164.344 365.547 164.559 365.999L164.344 365.547Z" stroke="#E5E5E5"/>
</g>
<defs>
<filter id="filter0_dd_1_2495" x="0.653807" y="0.254544" width="1089.29" height="496.194" filterUnits="userSpaceOnUse" color-interpolation-filters="sRGB">
<feFlood flood-opacity="0" result="BackgroundImageFix"/>
<feColorMatrix in="SourceAlpha" type="matrix" values="0 0 0 0 0 0 0 0 0 0 0 0 0 0 0 0 0 0 127 0" result="hardAlpha"/>
<feOffset dx="5.69092" dy="-11.3818"/>
<feGaussianBlur stdDeviation="11.3818"/>
<feColorMatrix type="matrix" values="0 0 0 0 0.580392 0 0 0 0 0.580392 0 0 0 0 0.580392 0 0 0 0.1 0"/>
<feBlend mode="normal" in2="BackgroundImageFix" result="effect1_dropShadow_1_2495"/>
<feColorMatrix in="SourceAlpha" type="matrix" values="0 0 0 0 0 0 0 0 0 0 0 0 0 0 0 0 0 0 127 0" result="hardAlpha"/>
<feOffset dy="1"/>
<feGaussianBlur stdDeviation="3.5"/>
<feComposite in2="hardAlpha" operator="out"/>
<feColorMatrix type="matrix" values="0 0 0 0 0.580392 0 0 0 0 0.580392 0 0 0 0 0.580392 0 0 0 0.25 0"/>
<feBlend mode="normal" in2="effect1_dropShadow_1_2495" result="effect2_dropShadow_1_2495"/>
<feBlend mode="normal" in="SourceGraphic" in2="effect2_dropShadow_1_2495" result="shape"/>
</filter>
</defs>
</svg>
