<svg width="1393" height="586" viewBox="0 0 1393 586" fill="none" xmlns="http://www.w3.org/2000/svg">
<g filter="url(#filter0_dd_1_2491)">
<path d="M1363.44 344.188C1362.18 363.866 1355.75 382.868 1344.78 399.304C1333.82 415.74 1318.71 429.037 1300.96 437.873C1283.21 446.709 1263.43 450.776 1243.59 449.67C1223.75 448.564 1187.88 431.569 1187.88 431.569C1178.59 458.565 1144.84 515.641 1091.84 520.687C1038.84 525.733 992.822 528.026 954.506 480.861C946.613 499.759 947.161 528.026 884.437 526.565C846.307 525.677 835.163 498.019 833.722 489.243C824.33 510.686 796.161 546.004 733.479 546.004C685.479 546.004 668.155 508.429 659.335 489.697C657.163 497.526 647.945 514.18 628.45 518.165C608.955 522.149 588.069 512.412 580.062 507.045C571.822 537.072 541.886 581.582 475.366 573.072C438.522 568.358 401.822 552.421 389.522 509.386C384.53 519.231 369.804 541.065 350.838 549.644C327.131 560.368 284.269 570.609 244.985 542.856C233.497 550.993 220.13 556.132 206.112 557.804C192.095 559.475 177.875 557.624 164.759 552.421C151.643 547.218 140.051 538.83 131.047 528.026C122.016 537.056 110.544 543.3 98.0131 546.004C85.4823 548.707 72.4275 547.756 60.4221 543.264C48.4167 538.772 37.9729 530.931 30.3494 520.687C22.7259 510.442 18.248 498.231 17.4554 485.525C16.6628 472.819 19.5893 460.16 25.8821 449.074C32.175 437.988 41.5657 428.947 52.9226 423.042C64.2794 417.137 77.1178 414.619 89.8904 415.793C102.663 416.966 114.825 421.78 124.91 429.654C134.148 415.299 147.584 404.091 163.422 397.528C179.26 390.965 196.745 389.36 213.537 392.929C207.66 373.406 208.438 352.51 215.75 333.484C223.062 314.457 236.499 298.364 253.977 287.702C271.454 277.039 291.995 272.404 312.41 274.514C332.826 276.624 351.976 285.363 366.888 299.374C377.008 279.816 392.664 263.622 411.934 252.779C431.204 241.936 453.25 236.916 475.366 238.335L476.824 238.429C470.93 212.008 474.138 184.396 485.935 160.017C497.731 135.637 517.433 115.9 541.886 103.965C566.339 92.0307 594.128 88.5896 620.802 94.1929C647.477 99.7962 671.494 114.12 689.007 134.87C693.627 126.186 699.936 118.499 707.569 112.251C715.202 106.004 724.008 101.321 733.479 98.473C742.949 95.6248 752.897 94.6677 762.746 95.6571C772.595 96.6465 782.15 99.5627 790.861 104.237C799.255 84.0952 813.345 66.8 831.431 54.4384C849.517 42.0768 870.826 35.177 892.786 34.5715C914.747 33.9661 936.421 39.6808 955.193 51.0263C973.966 62.3717 989.034 78.863 998.581 98.5105C1009.29 95.8208 1020.46 95.5149 1031.31 97.6146C1042.15 99.7143 1052.4 104.168 1061.31 110.656C1070.22 117.144 1077.58 125.507 1082.86 135.144C1088.14 144.782 1091.2 155.457 1091.84 166.404C1100.15 167.699 1108.19 170.387 1115.6 174.355C1129.22 151.579 1150.48 134.289 1175.66 125.51C1200.84 116.731 1228.34 117.02 1253.35 126.328C1278.35 135.636 1299.27 153.37 1312.45 176.428C1325.63 199.486 1330.22 226.4 1325.43 252.463C1330.54 256.967 1335.23 261.916 1339.44 267.249C1356.73 289.086 1365.28 316.49 1363.44 344.188Z" fill="white"/>
<path d="M1188.09 431.117L1187.59 430.878L1187.41 431.406C1182.78 444.847 1172.05 465.806 1155.87 484.027C1139.7 502.249 1118.12 517.683 1091.79 520.189C1065.28 522.713 1040.6 524.538 1017.76 519.863C994.957 515.194 973.977 504.036 954.894 480.546L954.367 479.896L954.044 480.668C953.05 483.049 952.19 485.574 951.328 488.152L951.089 488.866C950.303 491.22 949.503 493.613 948.582 496C946.555 501.255 943.952 506.448 939.669 511.005C931.12 520.102 915.748 526.794 884.449 526.065C865.517 525.624 853.325 518.544 845.683 510.517C838.027 502.475 834.921 493.461 834.215 489.162L833.941 487.495L833.264 489.042C823.938 510.335 795.929 545.504 733.479 545.504C686.156 545.504 668.86 508.758 659.975 489.882L659.788 489.484L659.214 488.265L658.853 489.564C656.711 497.287 647.595 513.741 628.35 517.675C618.711 519.645 608.704 518.226 600.092 515.633C591.481 513.04 584.303 509.286 580.341 506.63L579.764 506.243L579.58 506.913C575.481 521.848 565.985 540.385 549.252 554.123C532.533 567.85 508.558 576.814 475.43 572.576C438.668 567.873 402.221 552 390.003 509.249L389.653 508.023L389.076 509.16C386.598 514.047 381.69 521.933 375.041 529.664C368.389 537.398 360.022 544.941 350.632 549.189C326.996 559.881 284.346 570.051 245.274 542.448L244.985 542.244L244.696 542.448C233.276 550.536 219.988 555.646 206.053 557.307C192.118 558.969 177.982 557.129 164.943 551.956C151.905 546.784 140.381 538.445 131.431 527.706L131.08 527.285L130.693 527.672C121.731 536.635 110.345 542.831 97.9076 545.515C85.4704 548.198 72.5131 547.254 60.5973 542.796C48.6816 538.337 38.3164 530.556 30.7506 520.388C23.1847 510.221 18.741 498.103 17.9544 485.494C17.1679 472.885 20.072 460.322 26.317 449.321C32.562 438.319 41.8816 429.346 53.1532 423.486C64.4249 417.625 77.1673 415.126 89.8447 416.291C102.522 417.455 114.593 422.233 124.603 430.048L125.034 430.385L125.331 429.925C134.513 415.656 147.869 404.514 163.614 397.99C179.358 391.466 196.74 389.871 213.433 393.418L214.259 393.594L214.015 392.785C208.171 373.368 208.944 352.586 216.217 333.663C223.489 314.74 236.853 298.734 254.237 288.129C271.621 277.523 292.052 272.912 312.359 275.011C332.666 277.11 351.714 285.803 366.546 299.738L367.028 300.191L367.332 299.603C377.407 280.133 392.993 264.01 412.179 253.215C431.365 242.42 453.314 237.421 475.334 238.834L476.792 238.928L477.457 238.97L477.312 238.32C471.443 212.009 474.638 184.513 486.385 160.235C498.132 135.956 517.753 116.3 542.106 104.415C566.458 92.5289 594.134 89.1017 620.699 94.6822C647.265 100.263 671.184 114.528 688.625 135.192L689.101 135.757L689.448 135.105C694.037 126.48 700.304 118.844 707.886 112.638C715.468 106.433 724.215 101.781 733.623 98.9518C743.031 96.1225 752.912 95.1717 762.696 96.1546C772.479 97.1374 781.972 100.034 790.625 104.678L791.11 104.939L791.323 104.43C799.68 84.3772 813.707 67.1584 831.713 54.8512C849.72 42.5439 870.935 35.6742 892.8 35.0713C914.665 34.4685 936.244 40.1584 954.934 51.4542C973.625 62.75 988.627 79.1687 998.132 98.729L998.309 99.0944L998.703 98.9954C1009.34 96.3236 1020.44 96.0196 1031.21 98.1055C1041.99 100.191 1052.17 104.615 1061.02 111.06C1069.87 117.505 1077.18 125.812 1082.42 135.385C1087.66 144.958 1090.71 155.56 1091.34 166.433L1091.36 166.836L1091.76 166.898C1100.02 168.184 1108 170.855 1115.36 174.795L1115.78 175.02L1116.03 174.611C1129.59 151.937 1150.76 134.723 1175.83 125.982C1200.9 117.241 1228.28 117.529 1253.17 126.797C1278.07 136.064 1298.9 153.72 1312.02 176.676C1325.14 199.632 1329.71 226.426 1324.94 252.372L1324.89 252.65L1325.1 252.837C1330.18 257.323 1334.85 262.249 1339.05 267.559L1339.44 267.249L1339.05 267.559C1356.26 289.3 1364.77 316.581 1362.95 344.155C1361.69 363.747 1355.28 382.664 1344.37 399.026C1333.45 415.389 1318.41 428.628 1300.74 437.425C1283.06 446.223 1263.37 450.272 1243.62 449.171C1233.78 448.623 1219.92 444.126 1208.47 439.738C1202.76 437.548 1197.66 435.392 1193.99 433.784C1192.16 432.98 1190.68 432.313 1189.67 431.847C1189.16 431.614 1188.76 431.431 1188.5 431.307C1188.36 431.245 1188.26 431.197 1188.2 431.165L1188.12 431.129L1188.1 431.12L1188.09 431.118L1188.09 431.117C1188.09 431.117 1188.09 431.117 1187.88 431.569L1188.09 431.117Z" stroke="#E5E5E5"/>
</g>
<defs>
<filter id="filter0_dd_1_2491" x="0.25537" y="0.382443" width="1391.89" height="585.134" filterUnits="userSpaceOnUse" color-interpolation-filters="sRGB">
<feFlood flood-opacity="0" result="BackgroundImageFix"/>
<feColorMatrix in="SourceAlpha" type="matrix" values="0 0 0 0 0 0 0 0 0 0 0 0 0 0 0 0 0 0 127 0" result="hardAlpha"/>
<feOffset dx="5.69092" dy="-11.3818"/>
<feGaussianBlur stdDeviation="11.3818"/>
<feColorMatrix type="matrix" values="0 0 0 0 0.580392 0 0 0 0 0.580392 0 0 0 0 0.580392 0 0 0 0.1 0"/>
<feBlend mode="normal" in2="BackgroundImageFix" result="effect1_dropShadow_1_2491"/>
<feColorMatrix in="SourceAlpha" type="matrix" values="0 0 0 0 0 0 0 0 0 0 0 0 0 0 0 0 0 0 127 0" result="hardAlpha"/>
<feOffset dy="1"/>
<feGaussianBlur stdDeviation="3.5"/>
<feComposite in2="hardAlpha" operator="out"/>
<feColorMatrix type="matrix" values="0 0 0 0 0.580392 0 0 0 0 0.580392 0 0 0 0 0.580392 0 0 0 0.25 0"/>
<feBlend mode="normal" in2="effect1_dropShadow_1_2491" result="effect2_dropShadow_1_2491"/>
<feBlend mode="normal" in="SourceGraphic" in2="effect2_dropShadow_1_2491" result="shape"/>
</filter>
</defs>
</svg>
