<svg width="1118" height="425" viewBox="0 0 1118 425" fill="none" xmlns="http://www.w3.org/2000/svg">
<g filter="url(#filter0_dd_1_2493)">
<path d="M1051.9 288.386C1062.37 301.626 1067.27 318.083 1065.64 334.557C1064.02 351.031 1055.99 366.343 1043.11 377.515C1030.24 388.688 1013.44 394.922 995.987 395.005C978.533 395.088 961.669 389.014 948.678 377.964C933.274 386.066 915.399 388.898 898.054 385.983C880.708 383.069 864.948 374.587 853.421 361.96C845.206 375.949 833.539 387.844 819.418 396.629C805.298 405.414 789.143 410.827 772.335 412.406C755.527 413.985 738.566 411.683 722.901 405.697C707.236 399.71 693.333 390.217 682.381 378.029C669.6 387.146 653.725 391.482 637.785 390.211C621.846 388.94 606.959 382.15 595.965 371.137C584.023 385.274 568.224 396.042 550.283 402.271C532.341 408.499 512.943 409.952 494.193 406.47C475.443 402.988 458.056 394.705 443.921 382.52C429.785 370.335 419.441 354.713 414.009 337.349C398.809 354.347 377.611 365.532 354.361 368.821C331.11 372.11 307.391 367.28 287.617 355.23C278.352 368.828 265.459 379.864 250.245 387.218C235.031 394.573 218.037 397.985 200.984 397.11C183.931 396.234 167.426 391.102 153.139 382.233C138.852 373.364 127.292 361.074 119.63 346.606C109.553 353.055 97.7735 356.702 85.6239 357.136C73.4743 357.571 61.4389 354.775 50.878 349.064C40.3172 343.354 31.6523 334.957 25.8627 324.823C20.0732 314.689 17.39 303.221 18.1164 291.717C18.8429 280.213 22.9499 269.131 29.9734 259.723C36.9968 250.316 46.6566 242.959 57.8606 238.483C69.0645 234.008 81.366 232.593 93.3742 234.397C105.382 236.202 116.618 241.156 125.812 248.697C131.867 228.629 144.949 211.113 162.904 199.031C180.859 186.948 202.618 181.019 224.602 182.218C221.588 167.592 224.071 152.426 231.621 139.354C239.17 126.282 251.31 116.127 265.933 110.653C280.556 105.178 296.74 104.729 311.675 109.383C326.611 114.038 339.357 123.502 347.7 136.133C359.309 121.972 375.753 112.079 394.213 108.149C412.673 104.219 432 106.498 448.882 114.594C454.857 95.6866 466.446 78.8088 482.266 65.9757C498.086 53.1425 517.468 44.8964 538.099 42.2216C558.729 39.5469 579.735 42.5567 598.609 50.8917C617.484 59.2266 633.429 72.5345 644.541 89.2264C647.901 89.1519 651.262 89.2714 654.607 89.5841C663.95 90.457 673.057 92.8896 681.506 96.7692C688.478 77.7022 701.88 61.3422 719.642 50.2174C737.403 39.0926 758.536 33.8223 779.774 35.2209C801.011 36.6196 821.172 44.6092 837.14 57.9553C853.108 71.3014 863.995 89.261 868.118 109.059C869.499 109.107 870.879 109.181 872.268 109.311C881.722 110.197 890.856 113.035 899.029 117.625C907.201 122.215 914.215 128.447 919.575 135.881C935.169 123.925 954.073 116.49 974.017 114.47C993.96 112.451 1014.09 115.932 1032 124.495C1049.91 133.059 1064.83 146.34 1074.96 162.745C1085.1 179.15 1090.03 197.98 1089.15 216.974C1089.07 218.794 1088.94 220.62 1088.74 222.452C1086.06 248.161 1072.83 271.843 1051.9 288.386Z" fill="white"/>
<path d="M1051.59 287.994L1051.2 288.304L1051.51 288.696C1061.9 301.837 1066.76 318.166 1065.15 334.508C1063.53 350.85 1055.57 366.046 1042.79 377.138C1030.01 388.23 1013.32 394.423 995.985 394.505C978.647 394.587 961.9 388.553 949.002 377.583L948.744 377.364L948.445 377.522C933.139 385.572 915.375 388.387 898.136 385.49C880.898 382.594 865.24 374.165 853.79 361.623L853.333 361.122L852.99 361.707C844.817 375.624 833.208 387.461 819.154 396.204C805.101 404.948 789.021 410.337 772.289 411.908C755.557 413.48 738.672 411.189 723.08 405.23C707.487 399.271 693.651 389.822 682.753 377.695L682.454 377.363L682.09 377.622C669.407 386.669 653.649 390.975 637.825 389.713C622.001 388.451 607.226 381.71 596.319 370.783L595.934 370.398L595.583 370.814C583.7 384.881 567.977 395.598 550.119 401.798C532.26 407.999 512.95 409.444 494.284 405.978C475.619 402.512 458.314 394.267 444.247 382.141C430.181 370.015 419.889 354.472 414.486 337.199L414.223 336.359L413.636 337.015C398.517 353.923 377.428 365.052 354.291 368.326C331.153 371.599 307.551 366.792 287.878 354.803L287.472 354.556L287.204 354.949C277.989 368.473 265.164 379.451 250.027 386.768C234.89 394.086 217.98 397.482 201.01 396.611C184.04 395.739 167.616 390.632 153.402 381.809C139.189 372.985 127.691 360.759 120.072 346.372L119.817 345.893L119.36 346.185C109.36 352.584 97.6678 356.205 85.6061 356.637C73.5443 357.068 61.5973 354.292 51.1159 348.624C40.6346 342.957 32.0388 334.626 26.2969 324.575C20.5552 314.524 17.8953 303.154 18.6154 291.748C19.3356 280.343 23.4075 269.354 30.374 260.023C37.3408 250.691 46.9251 243.39 58.046 238.948C69.1671 234.505 81.3788 233.1 93.2998 234.892C105.221 236.684 116.373 241.601 125.495 249.084L126.074 249.559L126.291 248.841C132.311 228.888 145.32 211.466 163.183 199.445C181.046 187.425 202.698 181.524 224.574 182.718L225.222 182.753L225.091 182.118C222.102 167.612 224.564 152.572 232.054 139.604C239.543 126.636 251.59 116.556 266.108 111.121C280.627 105.685 296.697 105.239 311.527 109.861C326.356 114.482 339.005 123.877 347.283 136.409L347.657 136.974L348.087 136.45C359.622 122.379 375.964 112.545 394.317 108.638C412.67 104.731 431.884 106.997 448.666 115.045L449.185 115.294L449.359 114.744C455.304 95.9333 466.835 79.1372 482.581 66.364C498.328 53.5905 517.623 45.3806 538.163 42.7175C558.703 40.0544 579.617 43.0513 598.407 51.3491C617.197 59.6467 633.067 72.8933 644.124 89.5035L644.277 89.7324L644.552 89.7263C647.893 89.6522 651.235 89.771 654.561 90.0819C663.848 90.9497 672.9 93.3677 681.298 97.2236L681.79 97.4496L681.976 96.9409C688.908 77.9818 702.236 61.709 719.907 50.6411C737.578 39.573 758.606 34.328 779.741 35.7199C800.875 37.1117 820.935 45.0625 836.82 58.339C852.704 71.6151 863.529 89.4766 867.629 109.161L867.708 109.545L868.1 109.558C869.475 109.607 870.845 109.68 872.222 109.808C881.606 110.688 890.673 113.506 898.784 118.061C906.895 122.617 913.852 128.799 919.169 136.173L919.471 136.591L919.879 136.278C935.398 124.379 954.214 116.979 974.067 114.968C993.92 112.957 1013.96 116.423 1031.79 124.946C1049.61 133.47 1064.45 146.687 1074.54 163.008C1084.62 179.328 1089.52 198.059 1088.65 216.951L1088.65 216.953C1088.58 218.762 1088.44 220.577 1088.24 222.398L1088.24 222.4C1085.58 247.97 1072.42 271.531 1051.59 287.994Z" stroke="#E5E5E5"/>
</g>
<defs>
<filter id="filter0_dd_1_2493" x="0.927245" y="0.854489" width="1116.78" height="423.417" filterUnits="userSpaceOnUse" color-interpolation-filters="sRGB">
<feFlood flood-opacity="0" result="BackgroundImageFix"/>
<feColorMatrix in="SourceAlpha" type="matrix" values="0 0 0 0 0 0 0 0 0 0 0 0 0 0 0 0 0 0 127 0" result="hardAlpha"/>
<feOffset dx="5.69092" dy="-11.3818"/>
<feGaussianBlur stdDeviation="11.3818"/>
<feColorMatrix type="matrix" values="0 0 0 0 0.580392 0 0 0 0 0.580392 0 0 0 0 0.580392 0 0 0 0.1 0"/>
<feBlend mode="normal" in2="BackgroundImageFix" result="effect1_dropShadow_1_2493"/>
<feColorMatrix in="SourceAlpha" type="matrix" values="0 0 0 0 0 0 0 0 0 0 0 0 0 0 0 0 0 0 127 0" result="hardAlpha"/>
<feOffset dy="1"/>
<feGaussianBlur stdDeviation="3.5"/>
<feComposite in2="hardAlpha" operator="out"/>
<feColorMatrix type="matrix" values="0 0 0 0 0.580392 0 0 0 0 0.580392 0 0 0 0 0.580392 0 0 0 0.25 0"/>
<feBlend mode="normal" in2="effect1_dropShadow_1_2493" result="effect2_dropShadow_1_2493"/>
<feBlend mode="normal" in="SourceGraphic" in2="effect2_dropShadow_1_2493" result="shape"/>
</filter>
</defs>
</svg>
