<svg width="335" height="282" viewBox="0 0 335 282" fill="none" xmlns="http://www.w3.org/2000/svg">
<path d="M232.888 250.862L206.101 225.58C205.201 224.731 204.634 223.587 204.504 222.356C204.373 221.125 204.687 219.888 205.388 218.869L209.662 208.967C210.351 207.95 211.379 207.211 212.562 206.884C213.745 206.556 215.006 206.661 216.119 207.179L256.825 225.41C257.596 225.772 258.265 226.318 258.775 227C259.285 227.682 259.619 228.479 259.749 229.321C259.879 230.163 259.799 231.024 259.518 231.828C259.237 232.632 258.763 233.354 258.137 233.932L239.909 250.907C238.95 251.789 237.692 252.274 236.39 252.266C235.087 252.257 233.836 251.756 232.888 250.862Z" fill="#FFB675"/>
<path d="M186.134 197.265L185.863 197.978L178.92 216.549L209.778 228.081H209.947C212.039 228.865 214.356 228.786 216.39 227.861C218.423 226.936 220.007 225.24 220.791 223.146L222.08 219.661C222.864 217.566 222.786 215.245 221.861 213.208C220.937 211.171 219.242 209.584 217.15 208.797L203.4 203.704L190.329 198.815L186.134 197.265Z" fill="#FFB675"/>
<path d="M185.863 197.979L178.92 216.55L209.778 228.082C211.422 223.873 211.7 219.252 210.571 214.876C209.443 210.5 206.965 206.591 203.491 203.705L190.419 198.816H190.193L185.863 197.979Z" fill="#F28552"/>
<path d="M307.065 277.673L290.885 243.031C290.343 241.871 290.233 240.554 290.575 239.32C290.917 238.085 291.689 237.014 292.75 236.298L302.723 229.587C303.779 228.877 305.052 228.566 306.315 228.709C307.579 228.852 308.751 229.44 309.621 230.368L329.51 249.335C332.122 252.108 336.905 256.736 333.208 261.67L315.942 280.185C315.208 280.658 314.383 280.969 313.52 281.098C312.657 281.227 311.777 281.171 310.937 280.933C310.098 280.695 309.318 280.282 308.651 279.72C307.983 279.158 307.443 278.46 307.065 277.673Z" fill="#FFCC96"/>
<path d="M282.119 208.469L269.025 224.312L294.433 245.294C295.672 246.316 297.266 246.805 298.864 246.652C300.463 246.499 301.935 245.718 302.959 244.479L308.364 237.927C308.867 237.313 309.245 236.606 309.476 235.846C309.707 235.086 309.785 234.288 309.708 233.498C309.63 232.708 309.397 231.94 309.023 231.24C308.649 230.54 308.141 229.92 307.527 229.416L282.119 208.469Z" fill="#FFB675"/>
<path d="M282.119 208.469L269.025 224.312L289.616 241.288C293.503 234.941 295.9 227.794 296.627 220.385L282.119 208.469Z" fill="#F28552"/>
<path d="M172.959 171.723C203.24 192.807 245.111 226.905 268.268 250.421C281.645 243.631 292.014 232.393 295.135 218.417C267.545 189.683 219.002 152.009 198.355 140.907L172.959 171.723Z" fill="#F7F7F7"/>
<path d="M268.346 225.207C268.346 225.207 230.229 191.256 181.449 174.847C216.129 179.226 268.968 210.993 268.968 210.993L268.346 225.207Z" fill="#DAD6D3"/>
<path d="M268.665 236.841C268.665 236.841 227.959 192.003 183.114 175.729C181.92 176.559 180.614 177.215 179.235 177.676C179.235 177.676 227.167 204.237 267.772 248.056L268.665 236.841Z" fill="#DAD6D3"/>
<path d="M176.406 200.558L169.181 193.259L172.053 171.756C172.053 171.756 144.689 156.705 125.467 166.494C115.358 171.021 131.901 224.21 138.267 225.41C149.913 219.446 176.406 200.558 176.406 200.558Z" fill="#DAD6D3"/>
<path d="M146.488 231.997L179.28 238.708C183.98 239.75 188.894 239.182 193.233 237.094C197.572 235.006 201.085 231.52 203.208 227.195C205.331 222.87 205.941 217.957 204.94 213.244C203.939 208.531 201.385 204.291 197.688 201.204C195.986 199.793 194.079 198.648 192.034 197.809H191.955C189.538 196.85 186.967 196.337 184.368 196.292C175.605 194.538 162.364 191.856 161.9 191.709C161.176 191.494 146.488 231.997 146.488 231.997Z" fill="#DAD6D3"/>
<path d="M176.737 220.476C176.239 221.076 183.668 204.293 169.184 193.259L177.336 194.911C177.336 194.911 189.22 205.277 176.737 220.476Z" fill="#CCC3BE"/>
<path d="M174.898 220.273C178.523 209.36 172.623 197.573 161.719 193.944C150.815 190.316 139.038 196.222 135.412 207.135C131.787 218.048 137.688 229.836 148.592 233.464C159.495 237.092 171.273 231.186 174.898 220.273Z" fill="#F7F7F7"/>
<path d="M123.694 181.727C116.22 157.803 132.424 157.565 132.424 157.565L192.104 129.726L215.408 145.162C215.408 145.162 206.882 189.694 123.694 181.727Z" fill="#CCC3BE"/>
<path d="M122.077 183.334C118.391 161.572 122.077 152.779 122.077 152.779L180.875 124.486L206.882 140.33C206.882 140.33 202.54 189.989 122.077 183.334Z" fill="#F7F7F7"/>
<path d="M269.736 149.655L236.561 120.231L223.094 136.562L250.785 160.837L269.736 149.655Z" fill="#FFB675"/>
<path d="M248.526 159.965C247.468 161.247 246.814 162.815 246.646 164.47C246.479 166.124 246.805 167.791 247.584 169.26C248.363 170.729 249.56 171.934 251.023 172.722C252.487 173.51 254.15 173.846 255.804 173.688C257.459 173.53 259.029 172.884 260.316 171.833C261.604 170.781 262.551 169.372 263.037 167.782C263.524 166.192 263.529 164.493 263.052 162.9C262.574 161.307 261.635 159.892 260.353 158.833C259.502 158.13 258.522 157.602 257.467 157.278C256.412 156.955 255.304 156.842 254.205 156.947C253.107 157.052 252.04 157.373 251.066 157.891C250.091 158.408 249.228 159.113 248.526 159.965Z" fill="#FFB675"/>
<path d="M186.12 155.879C184.877 155.698 149.937 154.136 124.45 163.224C143.426 156.796 163.036 152.426 182.943 150.187L186.12 155.879Z" fill="#CCC3BE"/>
<path d="M189.592 135.803C189.592 135.803 154.246 163.427 121.251 152.778C154.562 151.646 161.663 144.698 182.435 131.479L189.592 135.803Z" fill="#CCC3BE"/>
<path d="M253.625 135.238L234.9 146.917L228.07 141.281L242.815 126.309L253.625 135.238Z" fill="#F28552"/>
<path d="M142.815 73.4127C144.149 77.9394 146.92 83.3602 151.861 89.8561C153.399 91.8819 155.106 93.9642 156.938 96.1597C166.714 107.305 177.044 117.953 187.886 128.062C206.238 145.456 223.278 159.908 223.278 159.908L248.222 129.646C192.149 78.3808 148.356 54.4229 148.356 54.4229C148.356 54.4229 138.62 59.3344 142.815 73.4127Z" fill="#E9E3E3"/>
<path d="M196.704 136.256C211.404 149.768 223.322 159.908 223.322 159.908L241.798 137.501C190.915 83.0775 150.209 56.2451 150.209 56.2451C150.209 56.2451 140.699 60.0929 142.87 73.4129C144.204 77.9396 146.975 83.3605 151.916 89.8564C153.454 91.8821 155.161 93.9644 156.993 96.1599C166.769 107.305 177.098 117.953 187.941 128.062L190.553 130.529L196.704 136.256Z" fill="#E9E3E3"/>
<path d="M196.705 136.255C196.546 128.265 192.023 105.699 178.873 90.4102C191.311 112.195 190.757 127.756 190.542 130.529L196.705 136.255Z" fill="#CCC3BE"/>
<path d="M156.97 96.1936C166.747 107.339 177.076 117.987 187.918 128.096C184.17 106.111 174.036 85.7187 158.779 69.463C142.938 52.5442 148.874 74.2275 156.97 96.1936Z" fill="#CCC3BE"/>
<path d="M172.688 74.4766C202.087 104.251 219.534 131.899 229.665 152.201L239.073 140.794C224.792 124.373 196.071 88.6906 172.688 74.4766Z" fill="#D9D2CE"/>
<path d="M177.697 111.72C177.697 111.72 180.162 114.878 171.93 122.777C163.699 130.676 137.138 152.054 117.655 143.238C98.1727 134.422 101.124 99.5887 22.4927 30.8384C14.4871 15.3229 24.2001 5.47715 24.2001 5.47715C24.2001 5.47715 44.5533 -4.13093 113.63 33.0904C158.26 63.0464 177.697 111.72 177.697 111.72Z" fill="#F7F7F7"/>
<path d="M155.129 97.835L143.075 138.949L157.764 108.269L155.129 97.835Z" fill="#CCC3BE"/>
<path d="M153.737 87.1403C153.737 88.487 144.25 130.428 144.25 130.428L140.055 85.4541L153.737 87.1403Z" fill="#CCC3BE"/>
<path d="M54.1094 63.5669C54.1094 63.5669 92.3055 103.821 114.298 140.68C114.502 141.009 114.671 141.326 114.875 141.654C118.181 142.712 121.594 143.399 125.052 143.702C135.228 144.528 142.205 141.133 147.734 138.96L147.53 138.791C143.957 135.814 93.6624 93.7717 80.1841 81.1873C66.2082 68.1163 63.9128 54.9434 63.9128 54.9434L54.1094 63.5669Z" fill="#CCC3BE"/>
<path d="M96.3519 28.5979C96.6572 29.4466 77.5478 47.2482 84.3096 67.3244C76.1118 51.0506 83.0998 31.8232 87.5096 26.8438L96.3519 28.5979Z" fill="#CCC3BE"/>
<path d="M66.0836 52.2735L51.1807 12.0078L61.7077 16.1272L66.0836 52.2735Z" fill="#CCC3BE"/>
<path d="M61.198 43.1737C59.7959 43.004 52.8646 20.3701 40.664 7.25381C28.9383 6.92562 21.7129 9.07582 21.7129 9.07582L61.198 43.1737Z" fill="#CCC3BE"/>
<path d="M121.309 149.27C119.861 150.028 63.9805 143.532 63.9805 143.532L76.4185 132.974L122.485 147.901L121.309 149.27Z" fill="black"/>
<path d="M123.116 146.984C123.116 146.984 66.0141 121.487 56.6516 117.244C56.1767 117.04 56.5498 115.591 56.335 115.501L68.1738 108.179L124.948 144.766L123.116 146.984Z" fill="black"/>
<path d="M116.241 142.967L121.25 152.745C121.25 152.745 144.295 155.812 168.651 136.573C173.077 133.071 177.169 129.165 180.874 124.905L177.244 116.293C177.244 116.293 165.654 130.914 147.438 138.791L147.201 138.893C140.199 141.972 132.651 143.615 125.004 143.725C122.067 143.718 119.136 143.465 116.241 142.967Z" fill="black"/>
<path d="M144.499 133.359L138.472 57.0711C138.472 57.0711 99.3146 37.4475 97.9351 37.4815C96.5556 37.5154 76.5756 52.0464 84.3663 67.3242C100.491 88.1134 129.686 122.2 140.711 134.977C141.019 135.304 141.419 135.529 141.859 135.621C142.299 135.713 142.756 135.668 143.169 135.491C143.582 135.315 143.931 135.016 144.169 134.634C144.407 134.253 144.522 133.807 144.499 133.359Z" fill="white"/>
<path d="M2.53751 32.7058L22.0878 62.5146L52.1088 28.5073L32.1626 9.26849C29.7622 6.9592 26.6076 5.59758 23.282 5.43532C19.9564 5.27306 16.6845 6.32112 14.0709 8.38577L5.87311 14.9043C0.253373 19.3066 -1.0243 27.2737 2.53751 32.7058Z" fill="#F0F2F1"/>
<path d="M19.4863 63.0428L24.7372 67.3781C26.6401 68.9491 29.4551 68.6788 31.0248 66.7744L55.7985 36.7173C57.3682 34.8128 57.0981 31.9954 55.1953 30.4244L49.9444 26.0891C48.0415 24.5181 45.2265 24.7883 43.6568 26.6928L18.8831 56.7499C17.3134 58.6543 17.5835 61.4718 19.4863 63.0428Z" fill="#F0F2F1"/>
<path d="M21.2508 62.4716L25.6295 66.0867C27.3685 67.5225 29.9413 67.2755 31.3759 65.535L55.135 36.7089C56.5696 34.9683 56.3228 32.3934 54.5837 30.9576L50.2051 27.3425C48.466 25.9067 45.8932 26.1537 44.4586 27.8942L20.6995 56.7203C19.2649 58.4609 19.5118 61.0358 21.2508 62.4716Z" fill="#CCC3BE"/>
<path d="M128.86 67.9014L137.001 119.835L97.0186 71.2399L128.86 67.9014Z" fill="#D96A36"/>
<path d="M49.0253 57.5222L32.0949 43.5441L44.9099 27.9962C45.3622 27.4475 46.0137 27.101 46.7212 27.0331C47.4287 26.9651 48.1342 27.1813 48.6824 27.634L63.5107 39.8765C64.0589 40.3292 64.4051 40.9813 64.473 41.6893C64.5408 42.3974 64.3249 43.1035 63.8726 43.6522L52.7557 57.1399C52.3074 57.6793 51.6658 58.0214 50.9684 58.0929C50.2711 58.1644 49.5735 57.9595 49.0253 57.5222Z" fill="#FFCC96"/>
<path d="M44.0553 62.3442L56.4934 76.2414C56.9657 76.82 57.5538 77.2933 58.2199 77.6308C58.8859 77.9683 59.6152 78.1624 60.3608 78.2008C61.1063 78.2392 61.8517 78.1209 62.5488 77.8536C63.2459 77.5863 63.8794 77.1759 64.4085 76.6488L79.108 60.2619C79.5487 59.7149 79.8748 59.0845 80.0666 58.4086C80.2584 57.7326 80.3121 57.0249 80.2245 56.3277C80.1369 55.6305 79.9098 54.9582 79.5567 54.3508C79.2036 53.7434 78.7318 53.2135 78.1695 52.7927L64.9739 41.8719C64.004 41.0119 62.7531 40.5371 61.4573 40.5371C60.1616 40.5371 58.9107 41.0119 57.9408 41.8719L43.9875 55.3051C43.0912 56.2615 42.598 57.527 42.6106 58.8383C42.6232 60.1495 43.1407 61.4053 44.0553 62.3442Z" fill="#FFB675"/>
<path d="M250.56 161.832L261.675 177.97C262.155 178.435 262.728 178.792 263.355 179.019C263.983 179.246 264.652 179.337 265.317 179.287C265.983 179.237 266.63 179.046 267.216 178.727C267.803 178.409 268.315 177.969 268.72 177.438L279.53 164.322C280.364 163.378 280.79 162.142 280.716 160.885C280.642 159.627 280.073 158.45 279.134 157.611L265.407 146.294C264.473 145.576 263.306 145.233 262.132 145.331C260.959 145.429 259.865 145.962 259.064 146.826L250.854 155.144C249.955 156.006 249.422 157.183 249.367 158.429C249.312 159.675 249.74 160.894 250.56 161.832Z" fill="#FFB675"/>
<path d="M44.2259 59.1195L54.6399 71.0588C55.074 71.5523 55.608 71.9475 56.2066 72.2183C56.8051 72.4891 57.4544 72.6291 58.1113 72.6291C58.7682 72.6291 59.4175 72.4891 60.016 72.2183C60.6146 71.9475 61.1486 71.5523 61.5827 71.0588L75.2306 55.7357C75.6471 55.2705 75.9652 54.7258 76.1657 54.1344C76.3663 53.5429 76.4452 52.917 76.3976 52.2942C76.3501 51.6714 76.1772 51.0647 75.8891 50.5106C75.6011 49.9565 75.204 49.4665 74.7218 49.07L63.5162 39.8241C62.6333 39.093 61.5106 38.716 60.3658 38.7662C59.221 38.8163 58.1354 39.2901 57.3198 40.0957L44.4747 52.7254C43.6211 53.5555 43.1192 54.6824 43.0728 55.8726C43.0265 57.0629 43.4394 58.2254 44.2259 59.1195Z" fill="#FFCC96"/>
<path d="M99.994 56.811C101.033 65.9747 103.84 74.8493 108.26 82.9417C108.26 82.9417 108.26 82.9417 108.316 83.0096C110.138 87.2376 112.94 90.9699 116.491 93.8965C117.805 94.9782 119.213 95.9403 120.698 96.771C127.09 100.184 134.467 101.273 141.572 99.8535C148.677 98.4338 155.07 94.5929 159.663 88.985C163.888 83.9084 166.422 77.6368 166.911 71.0476C168.222 66.8717 172.304 52.6803 172.666 41.4312C172.699 40.9036 172.699 40.3745 172.666 39.8469C172.235 36.7375 171.157 33.7533 169.5 31.0876C162.343 18.7069 144.364 5.34157 126.532 11.034C103.183 18.4466 98.5015 42.0311 99.994 56.811Z" fill="#FFCC96"/>
<path d="M134.095 42.6194L120.696 96.7709C126.272 99.8471 132.666 101.111 138.991 100.387C145.316 99.6629 151.26 96.9873 155.998 92.7308C161.437 74.1484 168.436 50.9713 172.574 39.8468C172.778 39.2922 172.97 38.7716 173.174 38.285C175.107 33.3508 173.174 31.3591 169.408 31.0875C158.994 30.3519 134.095 42.6194 134.095 42.6194Z" fill="#FFA96B"/>
<path d="M132.049 78.0185C129.788 79.6708 128.94 82.3416 130.138 83.9825C131.337 85.6235 134.141 85.6008 136.402 83.9825C138.664 82.3642 139.512 79.6595 138.313 78.0185C137.115 76.3776 134.311 76.3549 132.049 78.0185Z" fill="#544848"/>
<path d="M157.934 77.5999C156 79.6256 155.458 82.2625 156.735 83.4734C158.013 84.6843 160.614 84.0505 162.547 82.0248C164.481 79.9991 165.012 77.3622 163.735 76.1513C162.457 74.9404 159.856 75.5742 157.934 77.5999Z" fill="#544848"/>
<path d="M132.819 71.7501C132.887 71.7982 132.958 71.8398 133.034 71.8746L139.547 75.3828C139.846 75.5952 140.186 75.7416 140.546 75.8123C140.906 75.883 141.277 75.8765 141.634 75.7931C141.991 75.7097 142.326 75.5514 142.617 75.3286C142.909 75.1058 143.15 74.8236 143.324 74.5007C143.498 74.1778 143.602 73.8216 143.628 73.4555C143.654 73.0895 143.603 72.7221 143.477 72.3776C143.35 72.033 143.153 71.7192 142.896 71.4569C142.64 71.1946 142.331 70.9898 141.989 70.856L135.476 67.3591C134.89 67.0064 134.188 66.9013 133.524 67.0668C132.86 67.2324 132.289 67.655 131.937 68.2418C131.585 68.8286 131.48 69.5315 131.645 70.1958C131.81 70.86 132.233 71.4313 132.819 71.784V71.7501Z" fill="#544848"/>
<path d="M156.768 74.3858C157.133 74.6298 157.554 74.7766 157.992 74.8122C158.429 74.8478 158.868 74.7712 159.267 74.5895L167.748 70.7757C168.08 70.6522 168.383 70.4617 168.639 70.2161C168.895 69.9705 169.097 69.675 169.234 69.3478C169.371 69.0207 169.439 68.6689 169.435 68.3143C169.431 67.9596 169.354 67.6097 169.209 67.286C169.064 66.9624 168.854 66.672 168.592 66.4328C168.33 66.1937 168.022 66.0108 167.687 65.8955C167.352 65.7803 166.997 65.7351 166.644 65.7628C166.29 65.7905 165.947 65.8905 165.633 66.0566L157.13 69.8704C156.71 70.0625 156.348 70.3633 156.082 70.7419C155.816 71.1205 155.656 71.5632 155.618 72.0243C155.58 72.4854 155.666 72.9484 155.866 73.3655C156.066 73.7825 156.374 74.1386 156.757 74.3971L156.768 74.3858Z" fill="#544848"/>
<path d="M129.651 98.1863C136.074 99.9517 149.688 95.6286 151.542 92.5278C150.282 92.1603 148.997 91.8805 147.698 91.6903C140.212 90.5586 135.373 92.822 132.614 94.9835C131.447 95.8699 130.445 96.9539 129.651 98.1863Z" fill="#C11A1A"/>
<path d="M132.818 95.1523C137.843 95.1595 142.814 94.1068 147.405 92.0628C140.168 90.8972 135.464 93.07 132.818 95.1523Z" fill="white"/>
<path d="M174.305 47.2705C174.305 47.2705 153.07 63.4198 125.684 47.4063L123.931 61.1111L113.935 52.8724L112.454 69.4291L95.4931 54.3436C95.4931 54.3436 94.0345 38.1038 100.683 24.4329C107.332 10.7621 129.336 -1.10935 150.797 8.11395C168.799 15.8434 179.8 38.5904 174.305 47.2705Z" fill="#544848"/>
<path d="M91.3875 65.2419C93.9769 71.0588 99.4722 74.2954 103.667 72.4055C107.862 70.5156 109.163 64.3139 106.573 58.4857C103.984 52.6574 98.4998 49.4321 94.3048 51.3107C90.1098 53.1893 88.7981 59.4137 91.3875 65.2419Z" fill="#FFB675"/>
<path d="M94.8028 64.3824C95.73 67.3814 99.5066 69.6901 101.712 69.0111C102.19 68.832 102.604 68.5148 102.902 68.0998C103.2 67.6848 103.368 67.1905 103.385 66.6798L103.215 66.7363C102.862 66.849 102.49 66.8905 102.121 66.8585C101.752 66.8265 101.393 66.7215 101.064 66.5497C100.736 66.3778 100.445 66.1426 100.208 65.8575C99.9708 65.5723 99.7926 65.243 99.6835 64.8886C99.5745 64.5341 99.5366 64.1615 99.5723 63.7923C99.608 63.4231 99.7164 63.0647 99.8913 62.7377C100.066 62.4107 100.304 62.1217 100.591 61.8873C100.879 61.6529 101.209 61.4778 101.565 61.3721C101.878 61.2704 102.208 61.2281 102.537 61.2476C101.474 58.656 99.1448 57.1056 97.1208 57.7281C95.0968 58.3505 93.8869 61.3834 94.8028 64.3824Z" fill="#FF8861"/>
<path d="M255.503 162.738C254.745 163.659 254.277 164.783 254.158 165.97C254.039 167.156 254.274 168.352 254.833 169.405C255.393 170.458 256.252 171.321 257.301 171.886C258.351 172.45 259.544 172.691 260.73 172.577C261.916 172.463 263.042 172 263.965 171.246C264.888 170.492 265.567 169.481 265.917 168.341C266.266 167.201 266.27 165.983 265.928 164.841C265.586 163.698 264.913 162.683 263.994 161.923C263.384 161.417 262.68 161.036 261.922 160.802C261.165 160.569 260.368 160.488 259.579 160.564C258.79 160.639 258.024 160.87 257.324 161.244C256.624 161.617 256.005 162.125 255.503 162.738Z" fill="#F28552"/>
<path d="M258.767 173.77L264.044 178.127L273.276 166.926L267.998 162.57L258.767 173.77Z" fill="#FFB675"/>
<path d="M248.473 170.595L256.846 177.509C257.747 178.253 259.08 178.125 259.823 177.223L262.96 173.417C263.703 172.515 263.576 171.181 262.675 170.438L254.301 163.524C253.4 162.78 252.068 162.908 251.324 163.81L248.187 167.616C247.444 168.518 247.572 169.852 248.473 170.595Z" fill="#FFCC96"/>
<path d="M97.4482 40.5937C97.4482 40.5937 126.746 32.3777 154.188 54.1062C149.654 54.21 145.118 53.9716 140.62 53.3932C140.62 53.3932 127.119 42.8345 97.4482 40.5937Z" fill="#B07156"/>
<path d="M157.967 49.5118C157.967 49.5118 132.209 19.8501 104.404 26.7648L107.061 34.1434C107.061 34.1434 138.688 37.7988 157.967 49.5118Z" fill="#7D6464"/>
<path d="M164.568 50.2819C164.568 50.2819 160.588 19.398 128.6 14.5996L118.027 15.6295C118.027 15.6295 145.821 25.3394 164.568 50.2819Z" fill="#7D6464"/>
<path d="M167.656 47.0784C167.656 47.0784 167.826 25.4518 136.618 11.4527C132.468 2.39918 133.339 0 133.339 0C133.339 0 173.683 8.87248 167.656 47.0784Z" fill="#7D6464"/>
<path d="M22.9804 44.6226C23.7154 45.03 18.2427 56.6638 18.2427 56.6638L0.45627 30.1709C0.45627 30.1709 -2.93594 19.5216 8.77844 12.5391C2.97779 23.9578 6.38129 35.3993 22.9804 44.6226Z" fill="#CCC3BE"/>
<path d="M137.218 139.594L89.6934 105.304L98.2191 119.393L137.218 139.594Z" fill="#E9E3E3"/>
<path d="M169.862 48.9797C170.302 48.5949 169.262 15.1986 133.339 0C148.389 9.24593 165.271 20.3705 167.329 50.9941C170.257 49.5455 170.303 48.5949 170.303 48.5949L169.862 48.9797Z" fill="#CF7659"/>
<path d="M157.875 53.8236C157.875 53.8236 142.169 32.2196 111.312 25.7576C123.817 24.9994 148.422 34.3358 161.912 52.9182L157.875 53.8236Z" fill="#CF7659"/>
</svg>
