<svg width="300" height="346" viewBox="0 0 300 346" fill="none" xmlns="http://www.w3.org/2000/svg">
<path d="M132.391 285.136L137.683 304.834C137.683 304.834 123.371 311.4 96.7355 309.857C89.4315 312.516 86.6324 317.397 97.5665 321.643L160.481 345.97C160.481 345.97 175.515 345.707 170.945 333.833C166.374 321.96 152.794 280.463 152.794 280.463L132.391 285.136Z" fill="#FFCC96"/>
<path d="M47.7395 38.6909C46.6461 45.0708 51.304 86.3162 51.304 86.3162L52.7472 37.7607L47.7395 38.6909Z" fill="#C4BBB7"/>
<path d="M206.544 104.154L213.969 79.9034C213.969 79.9034 182.807 79.6845 170.232 111.431C180.653 108.422 206.544 104.154 206.544 104.154Z" fill="#C4BBB7"/>
<path d="M152.268 131.95L139.989 123.196C139.458 122.821 139.009 122.341 138.671 121.785C138.333 121.23 138.113 120.61 138.023 119.966C137.934 119.322 137.978 118.666 138.153 118.039C138.327 117.413 138.628 116.829 139.038 116.323L150.365 102.272C150.794 101.741 151.331 101.309 151.941 101.004C152.55 100.699 153.219 100.529 153.9 100.505C154.581 100.481 155.26 100.604 155.889 100.865C156.519 101.127 157.085 101.521 157.549 102.02L168.483 113.839C169.297 114.719 169.749 115.874 169.749 117.073C169.749 118.272 169.297 119.427 168.483 120.307L158.435 131.25C157.662 132.088 156.614 132.62 155.482 132.749C154.349 132.878 153.209 132.594 152.268 131.95Z" fill="#F28552"/>
<path d="M229.596 82.399C229.596 82.399 209.193 78.547 186.844 92.9374C169.032 108.685 158.962 131.972 158.962 131.972L215.819 177.256L252.153 88.9869L229.585 82.4209L229.596 82.399Z" fill="#EAE4DE"/>
<path d="M61.931 76.1062L34.1148 69.7372C34.1148 69.7372 18.4682 76.7738 13.7557 72.6481C9.04312 68.5225 9.91783 45.1585 9.91783 45.1585C9.91783 45.1585 -4.6245 18.1832 1.50949 4.35086C7.64348 -9.48149 12.203 14.0904 12.203 14.0904L42.3809 49.3936L57.0325 55.3248L61.931 76.1062Z" fill="#FFB675"/>
<path d="M134.41 292.632L162.238 309.069L152.736 280.463L132.388 285.136L134.41 292.632Z" fill="#F28552"/>
<path d="M63.2653 56.3205L51.9814 53.2783L41.2441 71.3676L61.9314 76.1061L63.2653 56.3205Z" fill="#F28552"/>
<path d="M127.066 198.3C127.066 198.3 103.011 229.751 132.391 285.135C177.647 299.481 183.639 302.48 183.639 302.48L174.695 259.144L158.764 198.573L200.073 196.275L202.259 173.294C202.259 173.294 163.52 134.752 136.295 93.3532C126.815 78.9408 89.2782 45.498 52.7366 37.7939C50.8888 86.5355 51.2934 86.3494 51.2934 86.3494C51.2934 86.3494 126.52 144.349 153.166 175.636C147.36 179.948 127.066 198.3 127.066 198.3Z" fill="#EAE4DE"/>
<path d="M132.258 225.997C133.198 226.511 165.607 247.227 165.607 247.227L127.064 198.299C127.064 198.299 143.793 180.166 153.175 175.603C162.611 184.193 186.83 196.154 193.97 194.677C171.293 214.375 168.22 225.318 168.22 225.318L174.78 255.117L124.232 254.022C124.232 254.022 139.135 246.45 154.946 247.325C138.042 234.292 132.258 225.997 132.258 225.997Z" fill="#C4BBB7"/>
<path d="M138.721 159.341C138.721 159.341 105 94.3161 91.2344 80.834C98.1556 101.987 122.068 151.09 138.721 159.341Z" fill="#C4BBB7"/>
<path d="M116.077 140.508C116.077 140.508 93.2797 89.0742 68.6562 79.9365C83.122 98.387 116.077 140.508 116.077 140.508Z" fill="#C4BBB7"/>
<path d="M180.959 139.588C179.329 140.901 168.45 154.733 168.45 154.733C168.45 154.733 186.513 190.376 215.204 182.902C188.383 150.881 180.959 139.588 180.959 139.588Z" fill="#C4BBB7"/>
<path d="M138.012 95.8811C136.131 97.4131 125.919 178.448 193.972 194.677C144.966 187.652 122.824 137.28 132.151 89.5449C130.828 96.2969 138.012 95.8811 138.012 95.8811Z" fill="#C4BBB7"/>
<path d="M194.464 210.754L168.103 147.917L204.983 209.298L194.464 210.754Z" fill="black"/>
<path d="M164.689 201.922L167.445 142.347L174.618 203.049L164.689 201.922Z" fill="black"/>
<path d="M160.032 124.924C160.032 124.924 169.982 177.211 206.852 182.103C185.935 167.603 169.283 124.869 169.283 124.869L160.032 124.924Z" fill="black"/>
<path d="M189.902 92.5968C189.902 92.5968 226.094 97.6307 240.461 104.886C241.259 102.864 242.259 100.929 243.446 99.1081C243.446 99.1081 219.337 91.3274 219.031 91.2836C218.724 91.2399 251.023 94.5666 252.543 94.49C254.063 94.4134 254.949 96.7881 253.035 98.9659C250.823 101.934 248.775 105.021 246.901 108.213L241.784 129.979C241.784 129.979 236.842 111.179 233.507 106.998C230.172 102.818 196.124 94.4353 189.902 92.5968Z" fill="#C4BBB7"/>
<path d="M202.894 126.424L180.73 140.825C180.73 140.825 220.826 155.631 220.683 154.351C220.683 153.881 212.002 128.229 212.002 128.229L211.051 138.844L202.894 126.424Z" fill="#C4BBB7"/>
<path d="M240.571 129.193C238.384 138.177 229.758 143.802 221.218 141.756C212.679 139.709 207.518 130.812 209.672 121.784C211.826 112.756 220.486 107.175 229.014 109.221C237.543 111.268 242.714 120.208 240.571 129.193Z" fill="#C4BBB7"/>
<path d="M187.749 143.549L174.213 125.11L189.455 112.558L201.504 132.223L187.749 143.549Z" fill="#FFB675"/>
<path d="M173.602 128.678L163.269 118.698C162.824 118.266 162.471 117.748 162.234 117.175C161.996 116.602 161.878 115.986 161.887 115.366C161.896 114.746 162.033 114.134 162.287 113.568C162.542 113.002 162.91 112.495 163.368 112.077L176.084 100.455C176.564 100.015 177.132 99.6842 177.751 99.4837C178.369 99.2831 179.024 99.218 179.67 99.2927C180.316 99.3674 180.938 99.5803 181.495 99.9168C182.051 100.253 182.529 100.706 182.896 101.243L191.567 113.992C192.212 114.935 192.476 116.087 192.308 117.218C192.14 118.348 191.551 119.373 190.659 120.087L179.594 128.951C178.733 129.643 177.649 129.997 176.546 129.947C175.443 129.896 174.397 129.445 173.602 128.678Z" fill="#FFB675"/>
<path d="M201.689 129.926L181.429 148.365C181.429 148.365 193.533 182.289 218.134 184.084C231.386 186.021 237.247 158.663 238.57 151.013C239.893 143.364 242.134 127.934 242.134 127.934L213.837 125.844V147.052L201.744 129.969L201.689 129.926Z" fill="#EAE4DE"/>
<path d="M211.192 143.626C209.978 142.532 230.611 166.607 230.611 166.607L230.862 154.066C230.862 154.066 218.43 150.433 211.192 143.626Z" fill="#C4BBB7"/>
<path d="M241.786 129.981C239.763 138.44 231.814 143.781 224.029 141.909C216.244 140.038 211.575 131.677 213.598 123.229C215.621 114.781 223.581 109.43 231.366 111.301C239.151 113.172 243.808 121.533 241.786 129.981Z" fill="#EAE4DE"/>
<path d="M197.285 116.827C196.105 120.646 193.382 124.487 189.916 122.452C186.45 120.416 183.301 113.785 185.291 110.316C187.281 106.846 190.309 102.951 193.775 104.942C197.242 106.934 198.751 112.242 197.285 116.827Z" fill="#FFB675"/>
<path d="M190.394 99.1268L197.161 108.463C197.524 108.963 197.673 109.587 197.576 110.198C197.479 110.808 197.144 111.355 196.644 111.718L193.104 114.289C192.606 114.65 191.985 114.799 191.378 114.702C190.771 114.605 190.227 114.271 189.866 113.773L183.099 104.437C182.738 103.939 182.589 103.318 182.686 102.71C182.782 102.103 183.116 101.558 183.614 101.197L187.154 98.6266C187.652 98.2653 188.272 98.1166 188.879 98.2133C189.487 98.31 190.03 98.6441 190.391 99.1421L190.394 99.1268Z" fill="#FFB675"/>
<path d="M210.075 80.9766L205.526 89.7312C220.647 90.3766 235.624 92.9509 250.093 97.3915C250.95 93.3143 252.511 89.4182 254.708 85.8791L210.075 80.9766Z" fill="#F7A468"/>
<path d="M224.923 22.429C225.776 20.897 236.863 8.88121 263.488 8.76084C233.649 4.76653 222.671 15.9506 220.561 25.6464L224.923 22.429Z" fill="#4C4141"/>
<path d="M206.502 84.9156C206.502 84.9156 220.355 95.4212 249.593 90.2997C253.759 82.7926 254.655 81.2715 254.655 81.2715L206.502 84.9156Z" fill="#D16634"/>
<path d="M232.481 19.8683C231.978 20.0105 217.49 23.7641 210.777 41.6017C209.683 44.3594 212.296 46.3401 212.296 46.3401L211.203 49.0322C211.203 49.0322 201.122 52.0198 200.695 53.0813C200.269 54.1428 199.143 56.977 203.374 58.7936C200.192 65.7098 196.027 87.0055 217.588 88.9097C239.15 90.8138 259.214 82.4969 259.214 82.4969L282.941 32.8252C282.941 32.8252 268.727 9.55966 232.481 19.8683Z" fill="#FFCC96"/>
<path d="M239.905 21.9465C239.905 21.9465 226.336 39.5324 217.217 43.5814C213.532 48.4293 215.544 53.2005 223.777 53.8571C223.777 53.8571 203.177 60.6639 206.48 77.1117C208.404 86.709 221.252 89.6965 228.195 89.0946C235.138 88.4928 260.559 83.623 260.559 83.623L285.347 48.67C285.347 48.67 269.077 20.8631 269.11 20.5238C269.142 20.1846 239.905 21.9465 239.905 21.9465Z" fill="#FFA96B"/>
<path d="M252.741 25.2859L244.059 40.6066C247.94 41.9526 259.574 44.3273 259.574 44.3273L245.972 62.931L261.663 69.2124C261.663 69.2124 246.246 83.1652 249.635 90.3002C274.445 86.1636 298.707 82.1365 299.024 48.7156C299.976 26.1286 276.883 14.6162 257.628 12.0883C238.373 9.5604 224.411 18.6543 220.605 25.6142C231.303 24.9018 242.031 24.7922 252.741 25.2859Z" fill="#4C4141"/>
<path d="M227.658 47.8401C226.624 47.84 225.592 47.9352 224.575 48.1246C223.588 48.2758 222.617 48.5214 221.677 48.8579C220.795 49.299 219.877 49.6651 218.933 49.9522C217.852 50.1636 216.746 50.2079 215.652 50.0835C215.61 50.0755 215.572 50.0521 215.546 50.0178C215.52 49.9834 215.507 49.9405 215.51 49.8974C215.51 49.8974 215.51 49.8974 215.51 49.8427C216.038 48.7788 216.893 47.912 217.949 47.3695C218.98 46.9108 220.101 46.6902 221.229 46.7239C223.425 46.4942 225.643 46.7906 227.702 47.5884C227.735 47.6049 227.761 47.6329 227.775 47.6671C227.789 47.7013 227.79 47.7394 227.778 47.7744C227.765 47.794 227.747 47.8101 227.726 47.8215C227.705 47.8329 227.682 47.8392 227.658 47.8401Z" fill="#4C4141"/>
<path d="M217.796 44.2824C218.434 43.3122 219.292 42.5062 220.3 41.9296C221.146 41.4117 222.074 41.0417 223.044 40.8353C224.021 40.6708 225.019 40.6708 225.996 40.8353C227.142 40.9945 228.235 41.4178 229.189 42.0719H229.277C229.288 42.0821 229.297 42.0948 229.304 42.1089C229.31 42.1231 229.314 42.1384 229.314 42.154C229.314 42.1695 229.31 42.1848 229.304 42.199C229.297 42.2131 229.288 42.2257 229.277 42.236C229.256 42.2445 229.232 42.2445 229.211 42.236L223.536 43.4835L217.807 44.4466C217.778 44.4502 217.749 44.4434 217.725 44.4273C217.701 44.4112 217.683 44.387 217.676 44.359C217.669 44.3301 217.669 44.3003 217.676 44.2715L217.796 44.2824Z" fill="#4C4141"/>
<path d="M286.145 51.8885C286.145 51.8885 272.28 31.2385 249.57 35.8128C265.895 39.446 286.145 51.8885 286.145 51.8885Z" fill="#665757"/>
<path d="M286.045 46.8762C286.045 46.8762 274.98 26.5216 255.2 24.8145C276.128 37.1257 286.045 46.8762 286.045 46.8762Z" fill="#665757"/>
<path d="M260.305 78.3059C254.838 82.6832 247.84 82.9896 244.713 79.0391C241.586 75.0885 244.232 69.9561 249.71 65.6007C255.188 61.2453 261.42 59.3083 264.547 63.2588C267.674 67.2094 265.794 73.9504 260.305 78.3059Z" fill="#F7A468"/>
<path d="M257.42 75.7349C254.993 78.1862 250.138 78.5036 248.334 76.7198C247.956 76.302 247.713 75.7803 247.635 75.2222C247.557 74.6642 247.648 74.0955 247.897 73.59L248.028 73.7433C248.608 74.3237 249.394 74.6498 250.215 74.6498C251.035 74.6498 251.821 74.3237 252.401 73.7433C252.981 73.1628 253.307 72.3755 253.307 71.5546C253.307 70.7337 252.981 69.9464 252.401 69.3659C252.146 69.1098 251.846 68.9022 251.516 68.7531C253.878 66.7614 256.917 66.4331 258.579 68.0855C260.241 69.738 259.837 73.3165 257.42 75.7349Z" fill="#F7845E"/>
<path d="M200.215 54.3398C200.215 54.3398 207.443 58.4655 208.766 59.8115C210.089 61.1575 199.756 60.1836 200.215 54.3398Z" fill="#F7A468"/>
<path d="M207.943 64.6699C207.943 64.6699 219.872 68.2265 217.533 76.6529C215.313 73.6216 207.943 64.6699 207.943 64.6699Z" fill="#C73931"/>
</svg>
