<svg xmlns="http://www.w3.org/2000/svg" width="512" height="524" viewBox="0 0 512 524" version="1.1"><path d="M 281.668 81.503 C 267.822 83.758, 258.392 86.699, 246.500 92.472 C 233.778 98.648, 225.053 104.966, 216.271 114.363 C 200.338 131.412, 188.992 154.589, 182.616 183.117 C 179.861 195.440, 177.008 216.397, 176.986 224.470 C 176.959 234.676, 179.364 233.803, 150.153 234.210 C 126.382 234.541, 124.154 234.726, 119.780 236.735 C 96.741 247.318, 92.504 281.782, 112.079 299.381 C 121.134 307.523, 124.558 308.281, 154.522 308.778 L 180.544 309.209 182.305 321.653 C 186.037 348.025, 194.849 386.922, 203.905 417 C 213.602 449.207, 217.601 457.171, 227.376 463.741 C 244.436 475.207, 271.780 470.455, 282.065 454.237 C 289.178 443.020, 288.878 437.715, 279.552 409.797 C 268.868 377.813, 261.603 348.405, 257.114 318.963 C 255.795 310.315, 255.585 306.738, 256.382 306.494 C 256.997 306.307, 262.450 305.864, 268.500 305.510 C 289.182 304.301, 320.494 300.977, 326 299.406 C 337.149 296.226, 345.410 288.868, 350.675 277.430 C 354.260 269.643, 355.133 255.759, 352.537 247.822 C 348.937 236.816, 340.806 229.139, 330.477 226.995 C 326.204 226.108, 321.190 226.285, 305.320 227.881 C 279.731 230.456, 251.110 232.444, 250.365 231.698 C 249.133 230.466, 251.995 199.373, 254.003 192.179 C 262.497 161.747, 280.043 150.497, 313.680 153.916 C 336.847 156.271, 343.298 156.394, 348.749 154.583 C 355.348 152.392, 361.301 147.130, 364.430 140.724 C 376.040 116.957, 361.845 87.421, 336.161 81.905 C 327.999 80.152, 291.610 79.883, 281.668 81.503" stroke="none" fill="#fbfbfb" fill-rule="evenodd"/><path d="M 182 0.597 C 180.075 0.815, 173.325 1.476, 167 2.065 C 123.619 6.106, 86.316 17.646, 60.387 35.047 C 34.780 52.233, 18.961 77.359, 12.884 110.500 C 11.775 116.550, 9.986 124.425, 8.909 128 C 7.567 132.454, 6.654 139.851, 6.008 151.500 C 5.489 160.850, 4.797 171.541, 4.471 175.258 C 4.145 178.974, 3.480 195.399, 2.994 211.758 C 2.509 228.116, 1.591 247.350, 0.956 254.500 C -0.599 271.992, 0.294 326.818, 2.446 346 C 7.270 388.999, 13.813 419.298, 23.089 441.598 C 40.937 484.503, 70.064 505.163, 121.500 511.401 C 140.988 513.764, 196.237 515.475, 253.500 515.488 C 309.806 515.501, 320.151 514.776, 348.416 508.837 C 356.162 507.209, 367.225 505.453, 373 504.935 C 421.127 500.619, 452.402 489.147, 474.862 467.572 C 491.256 451.824, 500.161 432.361, 504.447 402.909 C 506.349 389.847, 507.450 368.579, 510.006 295.528 C 512.390 227.415, 512.461 217.491, 510.609 211.785 C 509.753 209.150, 508.991 200.568, 508.629 189.500 C 507.098 142.710, 498.130 102.456, 482.938 74.176 C 467.906 46.195, 440.603 27.496, 398.760 16.526 C 360.661 6.537, 302.233 1.058, 228 0.512 C 204.625 0.340, 183.925 0.378, 182 0.597 M 281.668 81.503 C 267.822 83.758, 258.392 86.699, 246.500 92.472 C 233.778 98.648, 225.053 104.966, 216.271 114.363 C 200.338 131.412, 188.992 154.589, 182.616 183.117 C 179.861 195.440, 177.008 216.397, 176.986 224.470 C 176.959 234.676, 179.364 233.803, 150.153 234.210 C 126.382 234.541, 124.154 234.726, 119.780 236.735 C 96.741 247.318, 92.504 281.782, 112.079 299.381 C 121.134 307.523, 124.558 308.281, 154.522 308.778 L 180.544 309.209 182.305 321.653 C 186.037 348.025, 194.849 386.922, 203.905 417 C 213.602 449.207, 217.601 457.171, 227.376 463.741 C 244.436 475.207, 271.780 470.455, 282.065 454.237 C 289.178 443.020, 288.878 437.715, 279.552 409.797 C 268.868 377.813, 261.603 348.405, 257.114 318.963 C 255.795 310.315, 255.585 306.738, 256.382 306.494 C 256.997 306.307, 262.450 305.864, 268.500 305.510 C 289.182 304.301, 320.494 300.977, 326 299.406 C 337.149 296.226, 345.410 288.868, 350.675 277.430 C 354.260 269.643, 355.133 255.759, 352.537 247.822 C 348.937 236.816, 340.806 229.139, 330.477 226.995 C 326.204 226.108, 321.190 226.285, 305.320 227.881 C 279.731 230.456, 251.110 232.444, 250.365 231.698 C 249.133 230.466, 251.995 199.373, 254.003 192.179 C 262.497 161.747, 280.043 150.497, 313.680 153.916 C 336.847 156.271, 343.298 156.394, 348.749 154.583 C 370.108 147.489, 375.406 115.022, 358.438 95.199 C 354.213 90.262, 348.045 85.836, 342.750 83.941 C 340.688 83.202, 339 82.271, 339 81.870 C 339 81.470, 337.538 81.140, 335.750 81.138 C 333.962 81.136, 323.050 80.893, 311.500 80.599 C 295.818 80.200, 288.264 80.429, 281.668 81.503 M 104.044 99.616 C 100.292 102.773, 92.550 113.439, 90.570 118.178 C 89.772 120.089, 89.492 122.179, 89.939 122.901 C 90.494 123.799, 91.717 122.490, 93.917 118.645 C 95.664 115.591, 99.042 110.446, 101.424 107.211 C 105.912 101.114, 108.405 97, 107.612 97 C 107.360 97, 105.754 98.177, 104.044 99.616 M 94.250 405.696 C 93.013 405.940, 92 406.364, 92 406.639 C 92 408.222, 98.710 416.435, 104.195 421.566 C 110.314 427.290, 124.491 435.842, 125.759 434.574 C 126.450 433.883, 99.050 405.574, 97.500 405.379 C 96.950 405.309, 95.487 405.452, 94.250 405.696" stroke="none" fill="#040404" fill-rule="evenodd"/></svg>