<svg width="70" height="71" viewBox="0 0 70 71" fill="none" xmlns="http://www.w3.org/2000/svg">
<g clip-path="url(#clip0_1_36691)">
<path d="M11.348 35.34C10.7849 26.8563 8.38408 14.4873 19.0137 11.4975C25.0415 9.80283 32.3386 10.4952 38.5696 10.5692C45.2708 10.6484 54.4262 9.53589 57.9584 16.4145C60.8363 22.0169 59.3242 31.9748 59.412 38.2868C59.4964 44.2819 61.7542 54.5877 55.1702 57.8117C49.9794 60.3554 39.41 58.4093 33.942 58.3611C28.5617 58.3146 18.8036 60.6 15.1697 55.5435C11.0897 49.8412 10.7556 37.9079 11.7769 31.5701C12.824 25.0635 2.86778 22.2701 1.81206 28.8145C0.21555 38.7966 0.913053 51.839 6.25541 60.7653C11.4031 69.3592 19.9454 68.5791 28.8166 68.6566C38.5558 68.7427 52.0839 71.2158 61.1756 66.5124C70.7477 61.561 69.9176 50.5921 69.7867 41.3489C69.642 31.0638 71.6812 17.6579 65.5827 8.6455C60.144 0.599241 50.3582 0.52863 41.5732 0.294406C30.9436 0.0119608 16.792 -1.25216 7.50574 5.01504C-1.98546 11.42 0.367106 25.5888 1.01466 35.34C1.45211 41.9396 11.7889 41.9896 11.348 35.34Z" fill="#E1251B"/>
<path d="M2.24191 25.9073C1.57368 34.2567 -0.05899 44.8088 3.68858 52.6776C7.02109 59.6802 14.1942 62.1878 21.493 62.5253C28.1408 62.8319 28.1253 52.4985 21.493 52.192C14.5455 51.8699 12.3514 48.5908 11.9656 42.0153C11.7967 36.6383 12.0004 31.2561 12.5753 25.9073C13.104 19.2767 2.76719 19.3112 2.24191 25.9073Z" fill="#E1251B"/>
<path d="M0.539035 26.9941C-0.217023 38.7346 -1.56897 54.1502 7.7724 63.0903C17.732 72.6229 33.3509 69.7726 45.7682 69.0492C52.3764 68.6635 52.4212 58.3266 45.7682 58.7159C36.7076 59.2446 22.6128 62.41 15.3278 55.7088C8.26668 49.2092 10.311 35.7172 10.8724 26.9941C11.3012 20.3549 0.966148 20.3808 0.539035 26.9941Z" fill="#E1251B"/>
<path d="M17.5081 36.6356C15.8324 32.2611 17.7441 28.6376 19.8848 24.7987C21.8017 21.3629 23.8924 16.5906 27.2904 14.4429L19.7074 8.61148C17.2503 15.1039 15.9025 21.9633 15.7205 28.9028C15.6102 34.0695 15.4552 40.4124 19.239 44.3701C21.688 46.9311 27.3128 46.02 27.8742 42.0899C28.4064 38.3664 28.93 34.6378 29.6412 30.9436C30.2234 27.9228 30.4679 22.6907 32.8601 20.5379L24.0405 16.8782L26.0556 37.1368C26.7083 43.6916 37.0485 43.7587 36.3889 37.1368L34.3739 16.8782C34.3402 15.8716 34.0174 14.8961 33.4439 14.0682C32.8704 13.2403 32.0706 12.5952 31.1401 12.2099C30.2096 11.8246 29.1879 11.7154 28.197 11.8955C27.2061 12.0756 26.2881 12.5373 25.5527 13.2253C19.2045 18.9449 19.0323 31.4982 17.9094 39.3429L26.5464 37.0627C25.3512 35.8141 26.0297 28.083 26.2295 25.6736C26.7191 20.766 27.878 15.9484 29.674 11.355C31.2619 7.09592 25.7232 3.22435 22.0841 5.52008C16.3732 9.12815 12.9701 15.633 9.9286 21.4765C6.96465 27.1702 5.16492 33.1567 7.54504 39.3825C9.89933 45.5292 19.8934 42.8614 17.5081 36.627V36.6356Z" fill="#E1251B"/>
<path d="M34.7365 15.7923C41.9468 24.8874 48.3982 34.5592 54.0255 44.7102C57.265 50.5193 66.193 45.3147 62.9484 39.4953C56.8432 28.6067 49.8532 18.2384 42.0491 8.49519C37.9158 3.29578 30.6376 10.6497 34.7417 15.8009L34.7365 15.7923Z" fill="#E1251B"/>
<path d="M47.0009 10.8782C48.247 18.5217 48.9874 26.2391 49.2174 33.9802C49.4309 40.6125 59.766 40.6417 59.5508 33.9802C59.2571 25.3165 58.3941 16.6816 56.9674 8.13123C55.8876 1.58676 45.9279 4.36299 47.0009 10.8782Z" fill="#E1251B"/>
<path d="M51.0991 16.9334C52.9687 22.4161 53.3986 28.287 52.3477 33.9835C51.1094 40.4832 61.0674 43.2663 62.3108 36.7391C63.8277 29.2413 63.3984 21.4799 61.0639 14.1951C59.0179 7.89691 49.0376 10.5905 51.0991 16.9507V16.9334Z" fill="#E1251B"/>
<path d="M44.8465 12.4154C51.496 12.4154 51.5063 2.08203 44.8465 2.08203C38.1866 2.08203 38.1866 12.4154 44.8465 12.4154Z" fill="#E1251B"/>
<path d="M23.6424 22.1531L32.7703 38.3093C36.1372 44.2648 44.2214 39.0309 41.6931 33.0944C39.4439 27.8175 35.3829 19.8711 35.9047 14.0155L34.3926 17.6684L34.4202 17.6167L30.4384 17.1C29.4774 16.3629 32.0418 21.9619 32.4551 23.2639C33.2043 25.6234 33.8122 28.0276 34.489 30.4077C35.7682 35.2533 37.6134 39.9315 39.9864 44.3457C43.0106 49.7552 50.3818 45.8613 49.4294 40.3639L46.598 24.0217L40.243 30.3767L41.3142 30.5489L38.2366 28.1774C41.3263 32.8584 42.0255 40.7342 42.4922 46.1024C42.5305 47.3301 43.0027 48.5046 43.825 49.417C44.6474 50.3295 45.7666 50.9209 46.9837 51.0861C48.2009 51.2513 49.4373 50.9797 50.4731 50.3195C51.5089 49.6593 52.2772 48.6533 52.6413 47.4802L56.4457 35.6243C58.4814 29.2762 48.508 26.5585 46.4809 32.8774L42.6765 44.7332L52.8256 46.111C52.2642 39.5992 51.5839 21.8586 43.0003 20.4171C42.1228 20.2013 41.2045 20.2156 40.3342 20.4585C39.4638 20.7014 38.6708 21.1647 38.0319 21.8036C37.3929 22.4426 36.9296 23.2356 36.6867 24.1059C36.4438 24.9763 36.4295 25.8946 36.6453 26.7721L39.4766 43.1143L48.9144 39.1256C45.2978 32.6587 44.199 25.4201 41.7689 18.5019C40.3033 14.2945 38.4088 7.80861 33.0527 7.46761C17.8626 6.498 30.3936 32.7224 32.7771 38.3093L41.7 33.0944L32.5722 16.9382C29.3 11.1497 20.3702 16.3509 23.6493 22.1531H23.6424Z" fill="#E1251B"/>
<path d="M47.991 24.098C54.6405 24.098 54.6508 13.7646 47.991 13.7646C41.3311 13.7646 41.3311 24.098 47.991 24.098Z" fill="#E1251B"/>
<path d="M42.1511 21.6263C48.8007 21.6263 48.811 11.293 42.1511 11.293C35.4913 11.293 35.4913 21.6263 42.1511 21.6263Z" fill="#E1251B"/>
<path d="M42.6004 21.183C49.2499 21.183 49.2602 10.8496 42.6004 10.8496C35.9405 10.8496 35.9405 21.183 42.6004 21.183Z" fill="#E1251B"/>
<path d="M47.8535 30.62C46.4637 35.6781 45.2495 40.7811 44.2799 45.9357C43.6495 49.301 41.7275 54.5813 43.8941 57.6831C44.5052 58.6301 45.393 59.3661 46.4369 59.791C47.4808 60.2159 48.6302 60.3091 49.729 60.058C54.937 59.3175 55.8688 51.4004 59.8764 48.7826L52.2865 42.9477C51.5542 46.5667 49.6376 49.8389 46.8391 52.2477C41.8946 56.7152 49.2209 64.0036 54.1465 59.5551C58.2314 55.8996 61.0657 51.0539 62.2496 45.7015C63.1899 41.5578 58.6329 37.2712 54.6597 39.8666C52.4651 41.2929 50.5581 43.1192 49.0384 45.2503C48.2513 46.3387 47.5779 47.4892 46.8787 48.6379L46.1898 49.797C45.0153 51.2643 45.2816 51.3654 46.9889 50.1001L52.8238 52.475C53.3118 54.4269 53.5839 54.3121 53.6402 52.1306L53.9381 50.4084C54.2952 48.4025 54.6867 46.4013 55.1127 44.4047C55.9015 40.6984 56.8211 37.0284 57.8235 33.3738C59.5853 26.9516 49.6205 24.2115 47.8604 30.6268L47.8535 30.62Z" fill="#E1251B"/>
<path d="M18.7879 38.8549C23.0833 46.3476 28.2019 53.3372 34.0486 59.6939C38.1337 64.1493 44.8349 58.4745 42.1637 53.4318C39.7466 48.5909 36.9302 43.9599 33.7438 39.5868C30.952 35.9409 27.4335 31.8058 22.2823 33.2594C9.96495 36.7366 23.8323 54.076 27.8417 59.0343L35.1474 51.7268C31.1311 47.1354 26.5156 32.1055 18.5416 34.0568C7.81733 36.6797 18.3556 52.3003 21.7415 56.9486C25.5735 62.2049 34.2587 57.4911 30.6644 51.732C27.3061 46.3518 24.14 40.863 21.1663 35.2658C18.1851 29.6547 10.9656 33.888 11.7233 39.2458C12.6031 45.0858 15.2284 50.5233 19.2546 54.8441C23.7049 59.8041 30.9934 52.4777 26.5621 47.5366C23.8462 44.4475 22.1448 40.5987 21.6882 36.5109L12.2435 40.4893C15.2195 46.09 18.3855 51.5793 21.7415 56.9572L30.661 51.7406C27.8589 47.8966 24.7658 43.3654 23.9236 38.6086L23.4069 42.5904L22.5234 43.5084L18.5416 44.025C16.9515 42.9538 16.8056 43.0795 18.1042 44.4022C18.6289 45.1393 19.1289 45.8925 19.6043 46.6618C20.4516 48.0051 21.2232 49.3949 22.0154 50.7676C23.6872 53.702 25.6352 56.4701 27.8331 59.0343C32.2695 64.1079 39.2428 56.8074 35.1388 51.7268C33.5588 49.7691 32.1096 47.7095 30.8005 45.5613C29.7671 43.8786 27.5093 41.1024 27.7108 39.0547L26.2056 42.711C23.047 42.0967 22.2226 42.3935 23.7324 43.6014C24.4282 44.3626 25.0878 45.1542 25.7113 45.9763C26.6 47.1457 27.4042 48.3874 28.1844 49.6326C30.0151 52.5604 31.6289 55.6053 33.2409 58.6502L41.3543 52.3899C36.12 46.6676 31.5436 40.3766 27.7108 33.6348C24.4127 27.8602 15.483 33.0613 18.7879 38.8497V38.8549Z" fill="#E1251B"/>
<path d="M25.334 51.8604C27.5557 51.0219 29.5118 49.6029 30.9985 47.7511C31.8244 46.7987 32.6981 45.8887 33.6162 45.0249L34.7512 44.0242C36.6594 42.8325 36.5509 42.6378 34.4257 43.4404L29.9651 40.8812L30.2958 41.4323L29.7791 37.4505C28.8026 44.2171 21.6709 53.3536 26.5878 59.6259C28.1017 61.5565 30.9123 61.281 32.8481 60.4336C37.9373 58.2068 39.2032 51.4436 44.1167 48.8947L37.0555 41.8336C34.4946 47.5565 28.9611 54.895 31.7648 61.1587C32.2224 61.9355 32.8742 62.5799 33.6564 63.0283C34.4385 63.4768 35.3239 63.7138 36.2254 63.7162C41.6332 64.2329 44.7522 59.5829 49.552 58.6425L45.572 58.1259L46.0783 58.4565C51.6566 62.1128 56.8405 53.1693 51.2932 49.5354C45.4015 45.6741 41.6108 53.8995 36.2254 53.3863L40.6877 55.9455L40.2778 55.0327L40.7945 59.0145C42.2122 54.8951 43.9464 50.8916 45.9818 47.0399C48.0485 42.4071 43.7653 37.4522 38.9121 39.9701C36.4684 41.2926 34.3356 43.1223 32.657 45.3366C31.324 46.9916 29.6482 50.6342 27.6436 51.5108L33.9039 52.3185L33.4871 51.7863L35.0009 55.4392C35.602 49.897 44.4146 38.1187 37.0469 33.8131C34.4446 32.2907 31.8561 33.3774 29.681 34.9601C28.0986 36.1075 26.6125 37.3822 25.2376 38.7714C24.6607 39.3536 22.6095 41.8904 22.594 41.8956C16.4422 44.2412 19.1116 54.2336 25.3495 51.8604H25.334Z" fill="#E1251B"/>
<path d="M17.4363 59.8138C24.0858 59.8138 24.0962 49.4805 17.4363 49.4805C10.7764 49.4805 10.7764 59.8138 17.4363 59.8138Z" fill="#E1251B"/>
<path d="M0.625973 24.3098C0.574306 26.3764 0.625973 28.4431 0.777529 30.5098C0.809895 31.8699 1.36463 33.1653 2.32665 34.1274C3.28866 35.0894 4.58411 35.6441 5.94422 35.6765C7.31075 35.6643 8.61788 35.1161 9.5842 34.1498C10.5505 33.1835 11.0988 31.8763 11.1109 30.5098L10.6803 23.6725C10.6501 22.3118 10.096 21.0151 9.13356 20.0526C8.1711 19.0902 6.87445 18.5361 5.51366 18.5059C4.15219 18.534 2.85432 19.0874 1.89142 20.0503C0.928509 21.0132 0.375125 22.3111 0.346972 23.6725C0.0273518 27.0269 0.0411974 30.4046 0.388305 33.7562C0.425664 35.1147 0.982003 36.4073 1.94297 37.3682C2.90393 38.3292 4.1965 38.8855 5.55499 38.9229C6.92236 38.9134 8.23103 38.366 9.19792 37.3991C10.1648 36.4322 10.7122 35.1236 10.7217 33.7562C10.377 30.405 10.3654 27.0278 10.6872 23.6743H0.346972L0.777529 30.5064H11.1109C10.9576 28.4397 10.9077 26.373 10.9593 24.3063C11.123 17.6551 0.798196 17.6585 0.625973 24.3063V24.3098Z" fill="#E1251B"/>
<path d="M17.7808 49.0178C16.1878 38.7171 13.0447 16.8397 27.787 15.7891C32.3199 15.5343 36.8645 15.5717 41.3926 15.9011C43.6619 15.8839 45.9276 16.0875 48.1575 16.509C52.9797 17.8145 54.8019 21.9771 55.5321 26.615C55.9482 31.046 56.1006 35.4978 55.9885 39.9468C56.0608 42.0634 56.8392 46.1262 56.2726 48.2807C55.5837 50.9036 54.516 51.5874 51.7311 52.6483C45.8187 54.8975 20.3211 57.6961 18.6368 48.2239C18.0547 44.9516 13.074 46.3414 13.6544 49.6016C16.0655 63.1401 42.2623 60.3518 51.695 58.0164C57.1768 56.6628 60.8848 55.7379 61.4927 49.9461C62.0559 44.5848 61.1087 38.6844 60.9227 33.2801C60.7694 28.7937 61.2361 23.8268 60.1666 19.4368C58.8026 13.8378 54.5366 12.2172 49.2649 11.4301C41.1515 10.2246 31.3141 9.45131 23.2093 11.1184C7.06166 14.4406 10.9815 38.5949 12.7984 50.3852C13.303 53.6575 18.282 52.2694 17.7808 49.0075V49.0178Z" fill="white"/>
<path d="M34.0427 26.7307C32.5477 26.939 31.1214 27.4914 29.876 28.3444C28.6306 29.1974 27.6002 30.3277 26.8657 31.6465C26.1312 32.9652 25.7127 34.4364 25.6432 35.9442C25.5736 37.4521 25.8549 38.9556 26.4649 40.3363C27.8646 42.946 30.1683 44.9555 32.9439 45.9878C35.7195 47.0202 38.7764 47.0046 41.5413 45.9439C47.4365 43.4002 48.5525 35.8809 45.5489 30.7022C42.4489 25.3633 35.2396 23.3913 30.693 28.1378C28.3938 30.5385 32.0415 34.1966 34.3475 31.7906C39.6158 26.2898 46.4996 40.1486 38.3087 41.5453C36.9771 41.7503 35.6147 41.5754 34.3781 41.0407C33.1415 40.506 32.0809 39.6333 31.3181 38.5228C29.4702 35.1576 32.1172 32.1936 35.4067 31.7114C38.6962 31.2292 37.2908 26.2536 34.0289 26.729L34.0427 26.7307Z" fill="white"/>
<path d="M43.4929 23.8759C43.6789 24.5028 44.0232 25.0714 44.4925 25.5268C44.9619 25.9822 45.5405 26.3092 46.1728 26.4763C46.8051 26.6434 47.4697 26.645 48.1028 26.481C48.7359 26.3169 49.3161 25.9927 49.7876 25.5395C50.1884 25.1338 50.4449 24.6077 50.5177 24.0421C50.5905 23.4764 50.4756 22.9025 50.1906 22.4085C49.8615 21.8996 49.4178 21.4749 48.895 21.1683C48.3723 20.8618 47.7849 20.6819 47.1802 20.6432C46.6519 20.6207 46.1248 20.709 45.6327 20.9023C45.1407 21.0957 44.6945 21.39 44.323 21.7661C44.0762 22.0044 43.8794 22.2895 43.744 22.6047C43.6087 22.9198 43.5374 23.2588 43.5344 23.6018C43.5314 23.9449 43.5968 24.285 43.7267 24.6025C43.8566 24.92 44.0484 25.2084 44.291 25.451C44.5335 25.6935 44.8219 25.8854 45.1394 26.0153C45.4569 26.1452 45.7971 26.2105 46.1401 26.2075C46.4831 26.2046 46.8221 26.1333 47.1373 25.9979C47.4525 25.8625 47.7375 25.6657 47.9758 25.419C47.8111 25.5621 47.6164 25.6664 47.4061 25.7244C47.1958 25.7824 46.9751 25.7925 46.7604 25.754C46.5456 25.7155 46.3422 25.6294 46.1651 25.502C45.988 25.3746 45.8417 25.2091 45.7369 25.0177L46.1399 21.8867C46.3149 21.7173 46.5306 21.596 46.7662 21.5344C47.0018 21.4728 47.2493 21.473 47.4848 21.535C47.7203 21.597 47.9358 21.7186 48.1105 21.8883C48.2852 22.0579 48.4132 22.2697 48.4822 22.5032C48.2995 21.8425 47.8618 21.2815 47.2654 20.9435C46.669 20.6055 45.9628 20.5182 45.3021 20.7009C44.6414 20.8836 44.0803 21.3213 43.7423 21.9177C43.4043 22.5141 43.317 23.2203 43.4998 23.881L43.4929 23.8759Z" fill="white"/>
<path d="M19.1574 17.7944C16.8478 21.3784 12.0962 34.2245 18.9404 36.0294C21.6408 36.7407 22.8343 34.5311 23.816 32.3731C25.8155 27.978 27.5481 23.4588 29.1549 18.9087C30.2847 15.7088 25.4159 14.5515 24.1725 17.5309C22.4244 21.7211 19.7429 36.131 26.8282 37.2832C29.3753 37.6982 30.8806 35.8692 31.7365 33.7096C33.8032 28.4929 34.9864 22.7217 36.5691 17.338L31.4954 16.6492C32.2807 25.4136 33.29 34.1143 37.6954 41.9039C37.8666 42.1969 38.0939 42.4533 38.3642 42.6585C38.6345 42.8637 38.9425 43.0136 39.2708 43.0997C39.599 43.1858 39.941 43.2065 40.2772 43.1604C40.6135 43.1144 40.9373 43.0025 41.2303 42.8313C41.5233 42.6601 41.7797 42.4329 41.9849 42.1626C42.1901 41.8923 42.34 41.5842 42.4261 41.256C42.5122 40.9277 42.5329 40.5857 42.4868 40.2495C42.4408 39.9133 42.3289 39.5895 42.1577 39.2965C38.2087 32.3214 37.3699 24.5042 36.6638 16.6543C36.6441 16.0407 36.4076 15.4539 35.9964 14.9981C35.5851 14.5422 35.0257 14.2468 34.4173 14.1642C33.809 14.0817 33.191 14.2173 32.6732 14.547C32.1553 14.8767 31.771 15.3793 31.5884 15.9654C31.1906 17.3243 27.2518 32.1682 26.8299 32.1182L29.0688 33.3978C26.2202 29.187 27.3466 23.2539 29.1635 18.907L24.1811 17.5292C23.32 19.9731 22.4244 22.4048 21.4548 24.8074C20.9381 26.0887 19.8462 30.6216 18.639 31.4328H21.2464C18.682 30.2272 22.8326 21.6281 23.6248 20.3967C25.4314 17.5947 20.9605 15.001 19.1642 17.7893L19.1574 17.7944Z" fill="white"/>
<path d="M32.8509 19.4358C30.2118 18.9945 27.5164 19.0091 24.8822 19.4789L26.8731 24.2012L34.3286 19.2774C36.2851 17.9857 35.7632 14.2192 33.0249 14.4638C28.5957 14.816 24.2495 15.8633 20.1461 17.5672C17.1787 18.8038 18.224 23.5106 21.5238 22.5496C28.5296 20.3809 35.6614 18.6427 42.8795 17.345L40.8851 12.6244C33.1351 16.7957 25.6296 21.1029 19.216 27.1996C17.4422 28.8874 19.2677 32.4783 21.7305 31.5173C28.988 28.6859 34.8883 23.2936 42.2836 20.8394L39.7691 16.5218C33.6 22.4565 28.1601 29.1052 23.5647 36.3275C23.279 36.869 23.1941 37.4942 23.325 38.0924C23.456 38.6905 23.7944 39.2231 24.2802 39.5957C24.7661 39.9684 25.3681 40.1571 25.9798 40.1285C26.5914 40.0999 27.1733 39.8559 27.6222 39.4395L46.286 22.107L41.9684 20.9669C42.9225 23.707 35.4239 32.6884 33.8739 35.2304C31.3083 39.3618 29.1362 43.725 27.3863 48.2625C26.3461 51.0646 30.6516 52.7007 32.1138 50.2534L42.1424 33.5478L37.42 31.55C35.6873 37.0063 33.449 42.2889 30.7343 47.3291C29.1585 50.2568 33.6173 52.8695 35.1949 49.9365C38.1209 44.5015 40.5338 38.8055 42.4024 32.9226C42.5487 32.3233 42.4768 31.6915 42.1995 31.1405C41.9222 30.5895 41.4577 30.1552 40.8893 29.9156C40.3209 29.6759 39.6857 29.6466 39.0976 29.8328C38.5095 30.019 38.007 30.4086 37.6801 30.9317L27.6532 47.6373L32.3739 49.6368C34.9159 42.8874 38.9356 37.0267 42.6728 30.9093C44.5845 27.78 48.3028 23.4813 46.9491 19.5943C46.8205 19.165 46.5838 18.7759 46.2618 18.4642C45.9397 18.1526 45.543 17.9288 45.1097 17.8144C44.6764 17.7 44.221 17.6987 43.7871 17.8107C43.3532 17.9228 42.9553 18.1443 42.6315 18.4542L23.9694 35.7901L28.027 38.9229C32.3953 32.0813 37.5641 25.7851 43.4237 20.1678C43.8139 19.7599 44.0609 19.2363 44.1275 18.6758C44.1941 18.1153 44.0766 17.5483 43.7928 17.0604C43.509 16.5725 43.0742 16.1901 42.5541 15.9709C42.034 15.7516 41.4567 15.7074 40.9092 15.845C33.4537 18.3284 27.6257 23.6966 20.3562 26.5314L22.8706 30.849C28.9621 25.0606 36.1438 21.0323 43.4926 17.0815C46.2482 15.5987 44.2176 11.9149 41.5034 12.3592C34.2849 13.6586 27.1525 15.3978 20.1461 17.5672L21.5238 22.5496C25.1832 20.9728 29.0689 19.9846 33.0369 19.6218L31.7212 14.8116L24.2656 19.7338C23.745 20.0621 23.3579 20.5645 23.1733 21.1517C22.9887 21.7388 23.0187 22.3724 23.2578 22.9395C23.4968 23.5066 23.9296 23.9704 24.4788 24.2482C25.028 24.526 25.658 24.5996 26.2565 24.4561L31.4783 24.4113C34.7299 24.9142 36.1283 19.9336 32.8561 19.4307L32.8509 19.4358Z" fill="white"/>
<path d="M18.3564 35.1528C17.7006 36.9726 17.4786 38.9203 17.7079 40.8409C17.9372 42.7616 18.6116 44.6022 19.6774 46.2164C19.9429 46.6427 20.3254 46.9836 20.7794 47.1983C21.2334 47.413 21.7396 47.4925 22.2375 47.4273C22.7355 47.3621 23.2041 47.155 23.5875 46.8306C23.9709 46.5063 24.2529 46.0784 24.3997 45.5982C25.6053 41.2495 26.0186 34.5294 22.705 30.9127C22.3844 30.5861 21.9816 30.3519 21.5391 30.2349C21.0966 30.118 20.6307 30.1224 20.1906 30.2479C16.4998 31.4897 16.815 36.1293 17.0906 39.2914C17.3713 42.5498 17.8328 47.9766 20.9036 49.8796C21.2997 50.1093 21.7494 50.2303 22.2073 50.2303C22.6652 50.2303 23.1149 50.1093 23.511 49.8796C26.3389 48.3003 26.0462 44.4047 25.669 41.5854C25.1454 37.9542 23.6446 34.5336 21.3272 31.6894C21.0474 31.4116 20.7078 31.2012 20.3344 31.0744C19.961 30.9475 19.5636 30.9074 19.1723 30.9572C18.7811 31.007 18.4064 31.1454 18.0767 31.3618C17.747 31.5782 17.471 31.867 17.2697 32.2061C14.5933 37.9652 15.8419 47.41 20.6642 51.8585C21.1523 52.3357 21.8079 52.6029 22.4906 52.6029C23.1733 52.6029 23.8289 52.3357 24.317 51.8585L24.7235 51.3831C26.8711 48.8687 23.2338 45.1969 21.0689 47.7303L20.6642 48.2039H24.317C21.3548 45.4793 20.0821 38.3545 21.7251 34.8273L17.6675 35.344C19.9271 38.2718 21.6183 42.9545 20.3129 46.6177L21.4995 45.0677L20.8932 45.4122H23.5007C22.9084 43.7934 22.5281 42.1048 22.3692 40.3884C22.2326 39.4262 22.1561 38.4565 22.1401 37.4847C22.1212 36.6805 22.6913 34.8428 21.558 35.2235L19.0453 34.5587C20.9776 36.6701 20.0786 41.8368 19.4104 44.2187L24.1328 43.6021C23.4237 42.5801 22.9793 41.3982 22.8396 40.1622C22.6998 38.9262 22.869 37.6748 23.3319 36.5203C24.4324 33.3755 19.4431 32.0236 18.3495 35.1425L18.3564 35.1528Z" fill="white"/>
<path d="M14.2866 49.4798C14.2628 50.3357 14.4287 51.1863 14.7723 51.9706C15.1159 52.7548 15.6287 53.4534 16.274 54.0162C18.4096 55.8245 21.9333 53.5443 20.3316 50.8869C19.7307 49.8964 19.0388 48.9641 18.2649 48.102C17.8993 47.7524 17.4399 47.5167 16.9427 47.4236C16.4454 47.3305 15.9318 47.3841 15.4645 47.5778C14.9972 47.7715 14.5963 48.0969 14.3107 48.5144C14.0251 48.932 13.8671 49.4236 13.856 49.9293C13.8526 50.8264 14.0818 51.7091 14.5213 52.4912C14.9608 53.2733 15.5955 53.928 16.3636 54.3916C16.8584 54.6741 17.4319 54.7874 17.997 54.7144C18.562 54.6413 19.0879 54.3859 19.4946 53.9869C19.8827 53.5738 20.1307 53.049 20.2033 52.4869C20.276 51.9248 20.1696 51.3541 19.8993 50.8559C19.4725 49.9454 18.8669 49.1301 18.1185 48.4585C17.7093 48.0707 17.1854 47.826 16.6254 47.7611C16.0654 47.6961 15.4994 47.8144 15.0123 48.0982C14.5252 48.382 14.1432 48.8161 13.9235 49.3353C13.7039 49.8545 13.6584 50.4309 13.794 50.9782C13.9368 51.7426 14.2363 52.4692 14.6738 53.1121C15.1113 53.755 15.6773 54.3004 16.336 54.7137C16.7807 54.9591 17.2873 55.0693 17.7937 55.0307C18.3001 54.9922 18.7843 54.8066 19.1867 54.4967C19.5891 54.1869 19.8922 53.7663 20.0589 53.2865C20.2256 52.8068 20.2485 52.2888 20.1249 51.7962C19.6545 50.4033 18.761 49.1919 17.5691 48.3311C15.7574 46.9361 13.1275 49.2439 13.7802 51.2486C14.2721 52.8288 15.2979 54.1889 16.6822 55.096C17.1269 55.3406 17.6333 55.4501 18.1394 55.4112C18.6454 55.3723 19.1291 55.1867 19.5312 54.877C19.9334 54.5674 20.2365 54.1472 20.4034 53.6679C20.5703 53.1886 20.5939 52.671 20.4711 52.1786C19.854 50.3198 18.6554 48.7089 17.0525 47.5837C15.1236 46.1542 12.7813 48.5068 13.2636 50.5011C13.4852 51.4056 13.8836 52.2572 14.4357 53.0071C14.9878 53.757 15.6828 54.3902 16.4807 54.8704C18.2839 56.0019 21.0859 54.0937 20.2696 51.953C19.6949 50.3063 18.709 48.8337 17.4055 47.6749C16.9958 47.2927 16.4739 47.0527 15.917 46.9904C15.3602 46.9281 14.7981 47.0468 14.314 47.3289C13.8299 47.6111 13.4496 48.0416 13.2294 48.5568C13.0092 49.0721 12.9608 49.6445 13.0913 50.1894C13.5734 52.1936 14.8253 53.9273 16.5763 55.0152C18.3272 56.1031 20.4361 56.4576 22.4465 56.0019C25.6929 55.2906 24.3186 50.3082 21.0687 51.0195C20.3802 51.1138 19.6821 50.9364 19.1221 50.5249C18.5622 50.1135 18.1843 49.5002 18.0686 48.815L13.7578 51.3226C14.4329 51.8456 14.962 52.5336 15.2941 53.3204L19.083 50.4029C18.8562 50.2656 18.663 50.0792 18.5176 49.8575C18.3721 49.6358 18.2782 49.3843 18.2425 49.1216L14.4536 52.0373C14.9427 52.4235 15.303 52.9489 15.487 53.5443L19.2759 50.6268C19.0168 50.4438 18.8303 50.1756 18.7489 49.8691L14.96 52.7865C15.0439 52.8998 15.1101 53.0253 15.1563 53.1585L18.9469 50.2479C18.8401 50.1739 18.8005 49.7451 18.7747 49.5987L14.4571 52.1131C14.8793 52.4842 15.2115 52.9465 15.4284 53.4651L18.9624 49.9293C18.9263 49.9069 19.0175 49.9001 19.0175 49.9293L14.6069 51.7549C15.0815 52.2937 15.5042 52.8761 15.8693 53.4943L19.9269 50.3633C19.56 50.0533 19.4446 49.9397 19.4515 49.4798C19.4515 48.7947 19.1794 48.1376 18.6949 47.6531C18.2104 47.1687 17.5533 46.8965 16.8682 46.8965C16.183 46.8965 15.526 47.1687 15.0415 47.6531C14.557 48.1376 14.2866 48.7947 14.2866 49.4798Z" fill="white"/>
<path d="M24.0174 38.2115C22.123 41.2581 17.1285 53.7856 24.2981 54.161C27.25 54.3143 30.2674 50.9215 31.9414 48.8979C34.2052 46.1412 35.9193 42.976 36.991 39.5738C37.1036 39.1345 37.0999 38.6734 36.9801 38.236C36.8604 37.7985 36.6287 37.3999 36.308 37.0792C35.9874 36.7585 35.5887 36.5269 35.1513 36.4071C34.7138 36.2874 34.2528 36.2836 33.8135 36.3963C29.036 37.3624 20.7986 50.3549 27.3913 53.1725C30.7582 54.6105 34.4111 51.5157 36.5036 49.1717C38.386 47.0655 41.5273 42.8942 40.4905 39.8717C40.373 39.4397 40.1446 39.0459 39.828 38.7293C39.5115 38.4127 39.1177 38.1843 38.6856 38.0668C33.6912 37.3142 30.431 44.9919 29.6629 49.0202C29.3237 50.0699 29.3885 51.2084 29.8447 52.2128C30.3008 53.2172 31.1155 54.0151 32.1291 54.4504C34.7417 55.4217 36.5794 53.467 38.5944 52.2408C41.4292 50.5185 38.8372 46.0407 35.9869 47.7785C35.3513 48.0975 34.7701 48.5148 34.2647 49.015C33.2417 49.5891 33.4369 49.7487 34.8502 49.4938C34.9639 49.0454 35.1013 48.6033 35.2618 48.1694C35.9025 46.0637 37.1103 44.175 38.7528 42.7099L36.7619 42.97L37.3182 43.0544L35.5133 41.2495C35.6201 40.5606 35.5914 40.5107 35.4272 41.0997C35.2809 41.5745 35.093 42.0356 34.8657 42.4774C34.4879 43.2547 34.0412 43.9965 33.531 44.6939C33.0564 45.322 32.5286 45.908 31.9534 46.4455C31.3593 47.0086 30.1227 47.527 29.6801 48.135C28.8316 48.3944 28.9935 48.8991 30.1658 49.6488L30.4 48.6947C30.8943 47.7767 31.0889 46.6022 31.5694 45.6532C32.2755 44.2754 33.5 41.7197 35.1861 41.3787L32.0086 38.1994C30.8581 41.7524 27.7478 48.2452 23.611 49.0856L25.6019 49.3474L25.8602 49.7435C25.8478 49.2517 25.8622 48.7596 25.9033 48.2693C25.9731 47.3568 26.1247 46.4525 26.3562 45.5671C26.8171 43.884 27.5332 42.2816 28.4797 40.8155C30.2364 37.9807 25.7672 35.3836 24.0174 38.208V38.2115Z" fill="white"/>
<path d="M40.9879 21.1346C44.2976 23.2885 46.9685 26.2913 48.7216 29.8297C50.4747 33.3681 51.2458 37.3121 50.9545 41.2502C50.7564 44.5724 55.9231 44.5604 56.1212 41.2502C56.4043 36.4097 55.3924 31.5811 53.1896 27.2616C50.9868 22.942 47.6728 19.2874 43.5885 16.674C40.7968 14.8502 38.2065 19.3211 40.981 21.1346H40.9879Z" fill="white"/>
<path d="M39.9741 20.0187C41.1797 19.943 42.9157 21.5808 43.7079 22.4299C44.2609 22.9681 44.6817 23.6272 44.9372 24.3554C45.1926 25.0836 45.2759 25.8612 45.1804 26.6269C45.1854 27.3106 45.4591 27.9648 45.9425 28.4482C46.4259 28.9316 47.0801 29.2053 47.7638 29.2103C48.4442 29.1954 49.0927 28.9184 49.5739 28.4371C50.0552 27.9559 50.3322 27.3074 50.3471 26.6269C50.4525 25.179 50.2399 23.7256 49.724 22.3686C49.2081 21.0116 48.4015 19.784 47.3608 18.7719C45.5679 16.8981 42.6832 14.6747 39.9741 14.8452C36.6709 15.0518 36.6485 20.2202 39.9741 20.0119V20.0187Z" fill="white"/>
<path d="M43.5823 19.4614C54.4065 17.7857 52.4138 32.2214 52.4965 38.5557C52.4965 39.2409 52.7687 39.898 53.2532 40.3824C53.7376 40.8669 54.3947 41.1391 55.0799 41.1391C55.765 41.1391 56.4221 40.8669 56.9066 40.3824C57.391 39.898 57.6632 39.2409 57.6632 38.5557C57.5891 32.9206 58.743 25.3118 55.7395 20.2002C53.1441 15.781 47.0181 13.7315 42.2079 14.4669C38.9357 14.9733 40.3238 19.9522 43.5857 19.4493L43.5823 19.4614Z" fill="white"/>
<path d="M37.6058 28.5621C43.0825 34.8758 43.6336 41.7492 46.2049 49.2925C46.3874 49.8787 46.7717 50.3812 47.2896 50.711C47.8075 51.0407 48.4254 51.1763 49.0338 51.0937C49.6421 51.0112 50.2016 50.7157 50.6128 50.2599C51.0241 49.8041 51.2605 49.2173 51.2803 48.6037L51.3268 47.9836C51.5782 44.6666 46.4098 44.6821 46.1601 47.9836L46.1136 48.6037L51.1873 47.9148C49.7389 43.6574 49.267 39.1538 47.5706 34.9722C46.0416 31.2885 43.9096 27.8853 41.2621 24.9023C39.0783 22.3862 35.4375 26.0545 37.6075 28.5569L37.6058 28.5621Z" fill="white"/>
<path d="M42.9338 29.5081C45.6219 34.6431 47.0794 40.3327 47.1911 46.1276L52.2666 45.4387L52.2338 44.6137C52.3682 41.2898 47.2015 41.295 47.0671 44.6137C47.0402 45.3533 47.1132 46.093 47.2841 46.813C47.88 49.6771 52.425 49.0175 52.3578 46.1241C52.212 39.4189 50.5136 32.8388 47.3961 26.9006C45.8599 23.9504 41.3993 26.5562 42.9338 29.5081Z" fill="white"/>
<path d="M48.5815 31.7965C49.8943 35.7483 50.2878 39.9475 49.732 44.0743L51.5351 42.2694L51.3974 42.297C48.1372 42.9273 49.5167 47.908 52.7751 47.2776L52.9129 47.2518C53.3485 47.1415 53.7461 46.9155 54.0638 46.5978C54.3815 46.2801 54.6075 45.8825 54.7178 45.4469C55.4902 40.4171 55.096 35.2771 53.5656 30.4239C52.5581 27.2671 47.5688 28.6173 48.585 31.8017L48.5815 31.7965Z" fill="white"/>
<path d="M52.0335 39.6499C51.9086 40.3857 51.6387 41.0893 51.2396 41.72C50.8405 42.3506 50.32 42.8956 49.7085 43.3234C49.1288 43.6803 48.7089 44.2469 48.536 44.9053C48.3631 45.5638 48.4506 46.2635 48.7802 46.8591C49.1313 47.4452 49.6981 47.8705 50.3591 48.0437C51.02 48.2169 51.7225 48.1243 52.3159 47.7857C54.7115 46.2384 56.4003 43.8088 57.0159 41.0242C57.1812 40.3639 57.0859 39.6653 56.7498 39.0733C56.4138 38.4813 55.8627 38.0415 55.211 37.845C54.5505 37.6698 53.8477 37.7608 53.2535 38.0983C52.6593 38.4358 52.2213 38.9929 52.0335 39.6499Z" fill="white"/>
<path d="M25.1354 30.7009L26.7078 34.9686C26.9053 35.6192 27.3451 36.1692 27.9364 36.505C28.5276 36.8409 29.2252 36.937 29.8853 36.7735C30.5432 36.5864 31.1013 36.1483 31.4393 35.5536C31.7772 34.9589 31.868 34.2552 31.6919 33.5942L30.1195 29.3266C29.9215 28.6754 29.4811 28.1251 28.8892 27.7893C28.2973 27.4534 27.599 27.3576 26.9385 27.5217C26.281 27.709 25.7234 28.1474 25.3861 28.7421C25.0487 29.3369 24.9587 30.0404 25.1354 30.7009Z" fill="white"/>
<path d="M32.054 32.1891C30.504 33.5943 29.1248 35.177 27.9447 36.9045C26.9389 38.3701 25.3975 40.411 26.1777 42.2658C27.2713 44.8595 29.989 43.988 31.6888 42.7084L37.6254 38.222C38.2004 37.8614 38.6164 37.2951 38.7885 36.6385C38.9607 35.9819 38.8761 35.2844 38.5519 34.688C38.2033 34.0997 37.6369 33.6724 36.9754 33.4986C36.314 33.3249 35.6107 33.4187 35.0179 33.7597L31.3082 36.5652L29.5757 37.8724C29.2054 38.1531 28.4511 38.8971 28.0687 38.9505L30.5832 39.6136L30.3662 39.4414L31.1222 41.2686C31.0143 41.8427 31.0832 41.8335 31.3289 41.2411C31.5011 40.9449 31.6733 40.6521 31.8456 40.3645C32.1998 39.7837 32.5844 39.2221 32.9977 38.6819C33.8163 37.6587 34.7216 36.708 35.7034 35.8402C38.1748 33.6013 34.5133 29.9605 32.0505 32.1873L32.054 32.1891Z" fill="white"/>
<path d="M41.3316 33.1937C39.8287 35.8345 38.1977 38.3914 36.4388 40.8645C36.0989 41.4574 36.0056 42.1601 36.1789 42.8211C36.3523 43.4822 36.7783 44.0487 37.3653 44.3986C37.96 44.7304 38.6601 44.8193 39.3188 44.6465C39.9776 44.4738 40.5439 44.0529 40.8993 43.472C42.6583 40.9954 44.2893 38.4385 45.7922 35.8012C46.138 35.2097 46.2346 34.505 46.0608 33.8423C45.8871 33.1795 45.4571 32.6129 44.8656 32.2672C44.2741 31.9214 43.5695 31.8248 42.9067 31.9985C42.244 32.1723 41.6774 32.6022 41.3316 33.1937Z" fill="white"/>
<path d="M50.2318 17.5007L49.9718 17.3474C49.5754 17.1185 49.1257 16.998 48.668 16.998C48.2103 16.998 47.7607 17.1185 47.3643 17.3474C43.367 19.6741 47.8362 25.6537 49.7496 27.9563C51.4718 30.023 54.67 27.7841 54.0672 25.4419C53.6763 23.9315 53.3491 22.4142 53.0838 20.8745L48.1014 22.2523C48.5953 24.7479 48.4962 27.3247 47.8121 29.775C47.6294 30.4357 47.7166 31.1419 48.0546 31.7383C48.3926 32.3347 48.9537 32.7724 49.6144 32.9551C50.2751 33.1378 50.9813 33.0505 51.5777 32.7125C52.1741 32.3745 52.6118 31.8135 52.7945 31.1528C53.6939 27.7989 53.793 24.2806 53.0838 20.8814C52.4277 17.6005 47.5417 19.0179 48.1014 22.2592C48.3684 23.7971 48.6939 25.3144 49.0848 26.8265L53.4024 24.3138C52.764 23.5481 52.2086 22.7168 51.7457 21.8338C51.504 21.3899 51.2939 20.9295 51.117 20.456C50.8943 19.5375 50.8099 19.5375 50.8639 20.456L49.6773 22.006L49.9718 21.8338H47.3626L47.6226 21.9853C48.2142 22.3311 48.9188 22.4277 49.5815 22.254C50.2443 22.0802 50.8109 21.6503 51.1567 21.0588C51.5024 20.4673 51.5991 19.7626 51.4253 19.0999C51.2515 18.4371 50.8216 17.8705 50.2301 17.5248L50.2318 17.5007Z" fill="white"/>
<path d="M24.9309 46.5955C27.4988 52.6543 34.4273 53.5412 40.0314 51.59C40.4617 51.4626 40.8519 51.2266 41.1644 50.9046C41.477 50.5827 41.7013 50.1857 41.8159 49.7518C41.9305 49.318 41.9313 48.862 41.8185 48.4277C41.7056 47.9934 41.4828 47.5955 41.1716 47.2723C38.8569 45.0196 34.5082 45.4382 31.5684 45.8291C29.2158 46.1425 24.4212 46.6713 23.7788 49.6645C23.2121 52.3081 25.947 53.7427 28.0447 54.4075C31.6791 55.3904 35.5365 55.1427 39.0153 53.7031C39.6015 53.5206 40.104 53.1362 40.4337 52.6184C40.7635 52.1005 40.8991 51.4826 40.8165 50.8742C40.7339 50.2658 40.4385 49.7064 39.9827 49.2952C39.5268 48.8839 38.94 48.6474 38.3264 48.6277C34.3211 48.6058 30.3251 49.0181 26.4086 49.8574C25.8745 50.0199 25.4068 50.3498 25.0745 50.7983C24.7421 51.2469 24.5627 51.7903 24.5627 52.3486C24.5627 52.9068 24.7421 53.4503 25.0745 53.8989C25.4068 54.3474 25.8745 54.6773 26.4086 54.8398C30.5769 55.8289 34.9592 55.342 38.8087 53.462C42.0809 52.005 46.2315 49.9039 46.6586 45.898C46.7079 45.0524 46.5713 44.2062 46.2585 43.419C45.9457 42.6319 45.4642 41.9228 44.848 41.3416C44.2317 40.7605 43.4956 40.3214 42.6915 40.0553C41.8873 39.7892 41.0346 39.7025 40.1933 39.8013C36.3441 40.1457 33.7315 43.6522 32.7636 47.1345C31.8595 50.3844 33.1718 53.9718 36.8832 54.3145C40.3965 54.64 44.0287 51.7071 45.7837 48.8998C47.2062 46.6248 48.4704 42.4759 44.8743 41.5321C41.1578 40.5556 38.1215 45.6655 36.9073 48.4434C36.69 48.8386 36.5782 49.283 36.5826 49.7339C36.587 50.1849 36.7075 50.627 36.9325 51.0178C37.1575 51.4086 37.4794 51.7349 37.8671 51.9651C38.2549 52.1953 38.6954 52.3218 39.1462 52.3322L39.7266 52.3529C43.0522 52.4803 43.0471 47.3119 39.7266 47.1862L39.1462 47.1655L41.3851 51.0526C42.0652 49.0527 43.3931 47.3369 45.1585 46.177L43.1676 46.437L43.8565 46.5903L42.0551 44.7768C42.5028 45.9307 38.9757 49.2253 38.2283 48.378C37.7839 47.8751 38.2661 46.5404 38.9172 46.1735C39.1996 45.4215 39.5039 45.4318 39.8299 46.2045C40.598 46.7235 40.4718 47.0984 39.451 47.3292C36.8677 49.9693 31.1017 50.703 27.7898 49.8539V54.8346C31.2565 54.1043 34.7924 53.7537 38.335 53.7892L37.6461 48.7156C36.1601 49.3192 34.5933 49.701 32.9961 49.8488C32.2435 49.8918 28.9248 49.9693 28.5183 49.0428V51.6502C28.9885 50.7478 36.8246 50.2294 37.5359 50.92L38.676 46.6024C35.0852 47.8562 31.1068 47.9922 29.4104 43.9863C28.1171 40.9362 23.6651 43.5661 24.9482 46.5955H24.9309Z" fill="white"/>
<path d="M49.2594 43.278C49.3231 44.2803 49.6572 46.6225 48.3983 47.0496L51.5775 50.2272C51.6546 49.5982 51.8583 48.9914 52.1761 48.4432C52.494 47.895 52.9196 47.4169 53.4272 47.0376L50.9145 46.3728C50.9369 46.4765 50.9379 46.5837 50.9176 46.6878C50.8973 46.7919 50.856 46.8908 50.7962 46.9785C50.7364 47.0661 50.6594 47.1407 50.5699 47.1976C50.4804 47.2546 50.3802 47.2927 50.2755 47.3097H52.8761C51.8358 47.4738 50.8199 47.7665 49.8519 48.1812L51.6705 49.986C51.7828 49.4216 51.9519 48.87 52.1751 48.3396L50.3616 46.5364C51.6723 50.1669 46.2283 49.4522 44.6559 48.7581C43.4899 48.2414 42.3705 47.6938 41.1787 47.2339L39.8009 52.2163C42.3385 53.0191 45.0704 52.9585 47.5699 52.0441C50.1739 51.1365 49.9586 46.8154 46.881 46.9704C42.9433 47.1288 39.1096 48.2805 35.7365 50.3184C35.3094 50.5831 34.9677 50.9652 34.7522 51.4191C34.5368 51.8731 34.4569 52.3794 34.5219 52.8776C34.587 53.3758 34.7943 53.8447 35.1191 54.2281C35.4439 54.6114 35.8723 54.893 36.353 55.0391C39.1518 55.7024 42.095 55.3534 44.6611 54.054C45.3218 53.8712 45.8828 53.4336 46.2208 52.8372C46.5588 52.2408 46.6461 51.5346 46.4634 50.8739C46.2807 50.2131 45.843 49.6521 45.2466 49.3141C44.6502 48.9761 43.944 48.8888 43.2833 49.0715L34.1245 50.6319C30.9728 51.1692 32.2162 55.3611 34.8133 55.7073C37.9482 56.1221 41.1327 55.9539 44.2064 55.2113C44.7934 55.0297 45.2969 54.6458 45.6273 54.1278C45.9578 53.6099 46.0938 52.9915 46.0111 52.3826C45.9285 51.7738 45.6325 51.2141 45.1759 50.803C44.7193 50.3919 44.1316 50.1561 43.5175 50.1376C41.6592 50.1755 39.8268 50.2961 37.9788 50.4993C37.3661 50.5201 36.7805 50.7571 36.3257 51.1682C35.8709 51.5793 35.5762 52.138 35.4937 52.7455C35.4112 53.353 35.5463 53.97 35.875 54.4875C36.2038 55.005 36.705 55.3895 37.2899 55.573C45.0158 58.7711 56.8682 50.7766 54.4054 42.112L49.6986 44.1064C50.4434 45.3794 50.7615 46.8574 50.6062 48.3241C50.5959 51.1365 55.2459 51.9649 55.6816 49.013C55.9952 46.8822 56.4287 44.7709 56.9802 42.689H51.9978C52.4886 44.2775 52.548 45.9679 52.17 47.587H57.1472C56.977 46.8659 56.974 46.1155 57.1385 45.3931C57.303 44.6707 57.6306 43.9955 58.0962 43.4192L53.2739 42.1155C53.383 42.7922 53.3554 43.4839 53.1927 44.1497C53.03 44.8156 52.7355 45.442 52.3267 45.9922C50.4167 48.7237 54.8945 51.3087 56.7873 48.5997C58.1602 46.7353 58.7532 44.4096 58.4406 42.1155C58.4254 41.5548 58.2298 41.014 57.8828 40.5733C57.5359 40.1326 57.0561 39.8155 56.5146 39.6692C55.9732 39.5228 55.399 39.5549 54.8772 39.7607C54.3555 39.9665 53.914 40.3351 53.6184 40.8117C52.0881 43.2341 51.5611 46.1571 52.1493 48.9613C52.5661 51.4964 56.6064 51.3535 57.1317 48.9613C57.7341 46.4402 57.6747 43.8061 56.9595 41.3146C56.797 40.7806 56.4671 40.3129 56.0186 39.9805C55.57 39.6482 55.0265 39.4688 54.4683 39.4688C53.91 39.4688 53.3666 39.6482 52.918 39.9805C52.4695 40.3129 52.1396 40.7806 51.9771 41.3146C51.4258 43.3966 50.9923 45.5079 50.6785 47.6386L55.7522 48.3275C55.776 45.9552 55.2222 43.6128 54.1385 41.5023C52.8434 38.8432 48.6273 40.717 49.4179 43.4932C50.7956 48.3585 42.5186 52.1974 38.6574 50.5974L37.9685 55.6728C39.8164 55.4696 41.6489 55.3491 43.5072 55.3112L42.8183 50.2358C40.1875 50.8336 37.4688 50.9393 34.7996 50.5475L35.4885 55.6212L44.6473 54.0608L43.2695 49.0784C41.5886 50.0487 39.6205 50.3979 37.7084 50.0653L38.325 54.7859C40.8992 53.1925 43.8378 52.2831 46.8621 52.144L46.1732 47.0703C44.572 47.719 42.793 47.78 41.1512 47.2425C37.8961 46.2936 36.7371 51.0521 39.7734 52.2249C44.8281 54.1728 49.9793 56.9611 53.9973 51.462C55.7281 49.0939 56.8734 43.1212 52.3715 43.1505C48.9373 43.1746 44.7282 48.8339 46.9086 51.9856C49.5677 55.8175 55.1753 51.6411 56.5858 48.6995C57.0225 47.9687 57.2075 47.1149 57.1125 46.2688C57.0176 45.4228 56.6478 44.6312 56.06 44.0154C55.4721 43.3996 54.6985 42.9935 53.8578 42.8594C53.0171 42.7253 52.1556 42.8705 51.4053 43.2728C48.2037 44.8572 46.3023 52.082 51.5465 52.1319C55.3871 52.1698 57.4882 46.0663 55.2717 43.3365C51.612 38.8346 47.3891 45.8251 46.5624 48.8614C46.4466 49.3041 46.4494 49.7695 46.5707 50.2108C46.692 50.652 46.9274 51.0535 47.2532 51.3748C47.5791 51.6961 47.9838 51.9259 48.4267 52.041C48.8696 52.156 49.335 52.1524 49.7761 52.0303C53.7596 50.6767 54.6672 47.1788 54.4261 43.278C54.2211 39.9747 49.0527 39.9523 49.2594 43.278Z" fill="white"/>
<path d="M34.1089 24.5413C29.421 26.0001 24.9811 29.5479 25.4048 34.9643C25.8198 40.3032 31.0261 44.5106 35.9793 45.4819C38.6186 45.955 41.3387 45.6418 43.8015 44.5815C46.2642 43.5211 48.361 41.7602 49.8311 39.5178C52.7228 34.9643 50.7904 29.3705 47.0497 25.9277C38.9966 18.5221 23.1452 25.2578 24.8089 36.6865C26.5397 48.5664 42.4359 51.6664 49.1784 41.8497C52.7383 36.6658 49.4402 30.0163 44.8057 26.7785C42.3772 24.9368 39.3432 24.0794 36.31 24.3776C33.2768 24.6758 30.4678 26.1077 28.4445 28.3871C26.2934 30.8998 29.9308 34.5716 32.0974 32.0399C38.5643 24.4828 51.3863 36.4884 41.7418 41.433C38.0959 43.3016 33.5526 43.0553 31.1553 39.3577C30.6365 38.6887 30.2549 37.9237 30.0325 37.1068C29.8102 36.2899 29.7514 35.4372 29.8596 34.5975C29.9678 33.7578 30.2408 32.9478 30.6629 32.2139C31.0851 31.48 31.6481 30.8368 32.3195 30.3211C35.187 28.1752 39.2377 26.7957 42.4807 28.8813C46.3471 31.3682 47.3391 36.082 43.4193 38.9288C41.9044 40.0278 40.0672 40.5921 38.1966 40.5329C36.326 40.4736 34.5282 39.7943 33.0859 38.6016C29.08 35.2243 30.8694 30.967 35.4798 29.5324C38.6435 28.5472 37.2933 23.5579 34.102 24.5499L34.1089 24.5413Z" fill="#E1251B"/>
<path d="M36.3748 29.9899C37.5821 31.5315 38.3471 33.3726 38.5877 35.3159C38.8283 37.2591 38.5354 39.2312 37.7406 41.0208C36.4747 44.0915 41.4726 45.4314 42.723 42.3985C43.7189 39.9433 44.0676 37.2735 43.7359 34.6448C43.4042 32.0162 42.4031 29.5167 40.8285 27.3859C38.8669 24.7491 34.3805 27.3221 36.3679 29.9933L36.3748 29.9899Z" fill="#E1251B"/>
<path d="M33.2049 27.0628C32.1871 28.4447 31.4945 30.0386 31.1787 31.7255C30.8629 33.4125 30.9321 35.149 31.3811 36.8054C31.9529 39.8366 34.426 43.0158 37.8705 41.6518C44.098 39.1873 39.7443 25.4732 33.9093 28.9641C30.9385 30.7432 30.6939 35.7445 30.9454 38.7808C30.9008 39.5929 31.1023 40.3995 31.5236 41.0952C31.9449 41.7908 32.5663 42.3432 33.3066 42.68C34.0768 42.9261 34.9101 42.8857 35.6528 42.566C36.3956 42.2464 36.9979 41.6691 37.3486 40.9405C38.0515 39.4945 38.3588 37.8882 38.2393 36.2849C38.1198 34.6816 37.5778 33.1385 36.6683 31.8127C36.2055 31.2177 35.5678 30.7828 34.8448 30.5693C34.1218 30.3558 33.3501 30.3745 32.6383 30.6226C31.9169 30.9363 31.2757 31.4091 30.7627 32.0056C30.2497 32.6021 29.8783 33.3068 29.6761 34.0671C28.4516 37.1671 33.4461 38.5018 34.6585 35.4449C32.8134 34.3312 32.1745 34.3622 32.7417 35.5379C32.8412 35.8633 32.9228 36.1939 32.9862 36.5282C33.1085 37.2446 33.2652 37.9972 32.6211 38.5053L35.1356 37.8405L34.6809 37.7148L36.2309 38.9014C35.3801 37.6045 36.6718 35.5982 36.4169 34.303C36.9198 33.28 36.3187 32.9201 34.6137 33.2232L35.0391 33.6916C35.3622 34.348 35.6018 35.0423 35.7521 35.7583C35.7866 36.4024 35.034 37.7062 36.0966 37.0224C36.9456 36.4748 36.4582 36.0907 36.3187 35.0953C35.9354 33.6243 36.1308 32.0623 36.8647 30.7311C38.9124 28.1478 35.2785 24.4726 33.2118 27.0783L33.2049 27.0628Z" fill="#E1251B"/>
<path d="M50.762 16.8567L50.1386 16.898C49.5755 16.9067 49.0299 17.0952 48.5815 17.4361C48.1332 17.7769 47.8055 18.2522 47.6465 18.7925C47.3362 19.8936 47.4391 21.0703 47.9359 22.1009C48.4049 22.9047 49.1693 23.4937 50.0663 23.7422C51.0081 24.0033 52.015 23.8806 52.8665 23.401C53.718 22.9213 54.3448 22.1237 54.6095 21.1829C54.8365 20.2325 54.6989 19.2315 54.2238 18.3776C53.7487 17.5237 52.9707 16.879 52.0434 16.5708C51.1488 16.3179 50.1949 16.3762 49.3379 16.7364C48.4808 17.0965 47.7715 17.7371 47.3262 18.5531C47.1549 18.846 47.0429 19.1697 46.9967 19.5059C46.9505 19.842 46.971 20.184 47.0569 20.5122C47.1429 20.8405 47.2927 21.1486 47.4977 21.4189C47.7027 21.6893 47.959 21.9166 48.2519 22.088C48.5448 22.2593 48.8685 22.3712 49.2047 22.4174C49.5408 22.4636 49.8828 22.4432 50.211 22.3572C50.5393 22.2712 50.8474 22.1215 51.1178 21.9164C51.3881 21.7114 51.6154 21.4551 51.7868 21.1623C52.0164 20.7891 51.8964 20.8838 51.4268 21.4464C51.2753 21.5219 51.1087 21.562 50.9394 21.5635C50.6456 21.5629 50.3593 21.4707 50.1203 21.2997C49.8814 21.1287 49.7017 20.8874 49.6064 20.6094C49.5726 20.3822 49.5862 20.1504 49.6463 19.9286C49.7064 19.7068 49.8118 19.4999 49.9558 19.3209C50.0997 19.1418 50.2792 18.9945 50.4828 18.8881C50.6865 18.7818 50.91 18.7187 51.1392 18.7029C51.9119 18.7649 52.4068 19.2913 52.6238 20.2822C52.5549 20.5118 52.5549 20.4711 52.6238 20.1599L50.1334 22.0544L50.7569 22.013C51.442 22.013 52.0991 21.7409 52.5836 21.2564C53.068 20.7719 53.3402 20.1148 53.3402 19.4297C53.3402 18.7445 53.068 18.0875 52.5836 17.603C52.0991 17.1185 51.442 16.8464 50.7569 16.8464L50.762 16.8567Z" fill="#E1251B"/>
</g>
<defs>
<clipPath id="clip0_1_36691">
<rect width="70" height="70.0121" fill="white"/>
</clipPath>
</defs>
</svg>
