<svg xmlns="http://www.w3.org/2000/svg" width="512" height="512" viewBox="0 0 512 512" version="1.1"><path d="M 174 1.103 C 124.856 4.960, 83.941 16.928, 55.680 35.712 C 24.677 56.318, 7.227 90.439, 3.114 138.500 C 0.407 170.124, -0.533 315.034, 1.842 334.500 C 8.279 387.256, 22.668 423.894, 48.537 453.393 C 57.198 463.269, 73.582 477.612, 82.483 483.109 C 92.681 489.407, 118.311 499.476, 134.572 503.572 C 162.279 510.551, 171.708 511.455, 217 511.474 C 247.293 511.488, 262.918 511.043, 279 509.708 C 292.073 508.624, 313.630 507.792, 334 507.587 C 378.716 507.137, 399.440 504.503, 425.105 496.007 C 468.717 481.571, 493.745 455.118, 504.495 412.099 C 510.024 389.973, 510.289 386.116, 510.916 318.500 C 511.443 261.670, 511.555 258.438, 512.060 285.500 C 512.367 302, 512.496 284.675, 512.345 247 C 512.022 166.442, 510.952 149.718, 504.318 121.500 C 492.344 70.574, 467.128 37.080, 427.831 19.903 C 411.856 12.920, 393.748 8.356, 370.693 5.502 C 337.350 1.374, 207.530 -1.530, 174 1.103 M 218 75.131 C 190.559 76.841, 164.336 81.577, 150.016 87.409 C 125.270 97.487, 105.778 118.640, 94.634 147.509 C 85.118 172.164, 80.997 199.801, 81.004 238.924 C 81.010 271.588, 83.277 298.274, 89.981 344.591 C 93.787 370.891, 94.448 373.595, 98.133 377.950 C 99.786 379.903, 103.094 384.263, 105.485 387.639 C 111.589 396.259, 130.497 411.208, 143.712 417.862 C 166.956 429.567, 194.589 435.741, 234 438.035 C 280.701 440.753, 345.718 433.589, 393.452 420.466 C 416.552 414.115, 427.250 408.785, 436.286 399.125 C 444.239 390.623, 448.217 379.877, 450.112 361.771 C 451.628 347.292, 450.756 313.599, 447.996 280 C 446.540 262.276, 445.761 242.607, 445.443 215.500 C 444.941 172.658, 444.117 160.927, 440.466 144.563 C 435.383 121.784, 424.028 106.286, 405.500 96.841 C 390.090 88.984, 378.013 85.891, 346 81.600 C 296.782 75.004, 254.404 72.862, 218 75.131 M 365 120.935 C 357.101 123.347, 349.213 129.819, 345.557 136.891 C 343.599 140.676, 343.543 149.215, 345.451 152.905 C 346.249 154.448, 348.727 158.459, 350.958 161.817 C 359.784 175.106, 375.710 178.423, 388.711 169.681 C 398.453 163.130, 402.392 150.718, 398.473 138.919 C 395.987 131.434, 388.212 123.734, 380.966 121.583 C 375.345 119.913, 369.168 119.663, 365 120.935 M 264.500 168.589 C 260.100 169.364, 252.470 171.389, 247.546 173.088 C 230.492 178.972, 219.173 185.724, 207.643 196.891 C 194.072 210.034, 186.973 221.818, 182.883 237.992 C 179.897 249.797, 180.566 268.448, 184.440 281.451 C 193.972 313.438, 218.768 336.833, 252.500 345.663 C 261.213 347.944, 264.494 348.280, 278 348.280 C 291.573 348.280, 294.743 347.952, 303.500 345.635 C 336.288 336.963, 363.784 310.775, 369.431 282.842 C 370.283 278.631, 371.407 274.061, 371.929 272.687 C 372.451 271.313, 373.388 266.469, 374.011 261.923 C 376.413 244.373, 371.055 224.963, 358.712 206.500 C 352.616 197.383, 338.637 184.204, 329.670 179.121 C 310.645 168.338, 287.321 164.568, 264.500 168.589 M 0.355 208.500 C 0.352 213.450, 0.521 215.601, 0.731 213.280 C 0.940 210.959, 0.943 206.909, 0.736 204.280 C 0.530 201.651, 0.358 203.550, 0.355 208.500 M 317.513 240.475 C 319.974 251.943, 320.395 256.091, 320.400 268.916 L 320.405 283.332 325.242 277.931 C 327.903 274.960, 330.343 271.481, 330.665 270.199 C 332.179 264.168, 326.305 248.110, 319.985 241 L 316.874 237.500 317.513 240.475 M 0.450 282.500 C 0.451 301.750, 0.585 309.483, 0.749 299.685 C 0.913 289.888, 0.912 274.138, 0.748 264.685 C 0.584 255.233, 0.450 263.250, 0.450 282.500" stroke="none" fill="#040404" fill-rule="evenodd"/><path d="M 218 75.131 C 190.559 76.841, 164.336 81.577, 150.016 87.409 C 125.270 97.487, 105.778 118.640, 94.634 147.509 C 85.118 172.164, 80.997 199.801, 81.004 238.924 C 81.010 271.588, 83.277 298.274, 89.981 344.591 C 93.787 370.891, 94.448 373.595, 98.133 377.950 C 99.786 379.903, 103.094 384.263, 105.485 387.639 C 111.589 396.259, 130.497 411.208, 143.712 417.862 C 166.956 429.567, 194.589 435.741, 234 438.035 C 280.701 440.753, 345.718 433.589, 393.452 420.466 C 416.552 414.115, 427.250 408.785, 436.286 399.125 C 444.239 390.623, 448.217 379.877, 450.112 361.771 C 451.628 347.292, 450.756 313.599, 447.996 280 C 446.540 262.276, 445.761 242.607, 445.443 215.500 C 444.941 172.658, 444.117 160.927, 440.466 144.563 C 435.383 121.784, 424.028 106.286, 405.500 96.841 C 390.090 88.984, 378.013 85.891, 346 81.600 C 296.782 75.004, 254.404 72.862, 218 75.131 M 365 120.935 C 357.101 123.347, 349.213 129.819, 345.557 136.891 C 343.599 140.676, 343.543 149.215, 345.451 152.905 C 346.249 154.448, 348.727 158.459, 350.958 161.817 C 359.784 175.106, 375.710 178.423, 388.711 169.681 C 398.453 163.130, 402.392 150.718, 398.473 138.919 C 395.987 131.434, 388.212 123.734, 380.966 121.583 C 375.345 119.913, 369.168 119.663, 365 120.935 M 264.500 168.589 C 260.100 169.364, 252.470 171.389, 247.546 173.088 C 230.492 178.972, 219.173 185.724, 207.643 196.891 C 194.072 210.034, 186.973 221.818, 182.883 237.992 C 179.897 249.797, 180.566 268.448, 184.440 281.451 C 193.972 313.438, 218.768 336.833, 252.500 345.663 C 261.213 347.944, 264.494 348.280, 278 348.280 C 291.573 348.280, 294.743 347.952, 303.500 345.635 C 336.288 336.963, 363.784 310.775, 369.431 282.842 C 370.283 278.631, 371.407 274.061, 371.929 272.687 C 372.451 271.313, 373.388 266.469, 374.011 261.923 C 376.413 244.373, 371.055 224.963, 358.712 206.500 C 352.616 197.383, 338.637 184.204, 329.670 179.121 C 310.645 168.338, 287.321 164.568, 264.500 168.589 M 317.513 240.475 C 319.974 251.943, 320.395 256.091, 320.400 268.916 L 320.405 283.332 325.242 277.931 C 327.903 274.960, 330.343 271.481, 330.665 270.199 C 332.179 264.168, 326.305 248.110, 319.985 241 L 316.874 237.500 317.513 240.475" stroke="none" fill="#fbfbfb" fill-rule="evenodd"/></svg>