<svg xmlns="http://www.w3.org/2000/svg" id="Layer_1" data-name="Layer 1" viewBox="0 0 40.645 40.652"><defs><style>.cls-1{fill:#fff;}</style></defs><title>socials icons</title><path d="M6.588 20.52C6.261 15.594 4.867 8.412 11.039 6.676c3.5-.984 7.737-.582 11.355-.539 3.891.046 9.207-.6 11.258 3.394 1.671 3.253.793 9.035.844 12.7.049 3.481 1.36 9.465-2.463 11.337-3.014 1.477-9.151.347-12.326.319-3.124-.027-8.79 1.3-10.9-1.636-2.369-3.311-2.563-10.24-1.97-13.92.608-3.778-5.173-5.4-5.786-1.6C.124 22.527.529 30.1 3.631 35.283c2.989 4.99 7.949 4.537 13.1 4.582 5.655.05 13.51 1.486 18.789-1.245 5.558-2.875 5.076-9.244 5-14.611-.084-5.972 1.1-13.756-2.441-18.989C34.921.348 29.239.307 24.138.171 17.966.007 9.749-.727 4.357 2.912-1.154 6.631.212 14.858.588 20.52c.254 3.832 6.256 3.861 6 0z"/><path d="M1.3 15.043c-.388 4.848-1.336 10.975.84 15.544 1.935 4.066 6.1 5.522 10.338 5.718 3.86.178 3.851-5.822.0-6-4.034-.187-5.308-2.091-5.532-5.909A67.648 67.648.0 017.3 15.043c.307-3.85-5.695-3.83-6 0z"/><path d="M.313 15.674c-.439 6.817-1.224 15.768 4.2 20.959 5.783 5.535 14.852 3.88 22.062 3.46 3.837-.224 3.863-6.226.0-6C21.314 34.4 13.13 36.238 8.9 32.347 4.8 28.573 5.987 20.739 6.313 15.674c.249-3.855-5.752-3.84-6 0z"/><path d="M10.167 21.272c-.973-2.54.137-4.644 1.38-6.873 1.113-1.995 2.327-4.766 4.3-6.013L11.444 5A35.949 35.949.0 009.129 16.782c-.064 3-.154 6.683 2.043 8.981 1.422 1.487 4.688.958 5.014-1.324.309-2.162.613-4.327 1.026-6.472.338-1.754.48-4.792 1.869-6.042L13.96 9.8l1.17 11.763c.379 3.806 6.383 3.845 6 0L19.96 9.8a3.044 3.044.0 00-5.122-2.121C11.152 11 11.052 18.289 10.4 22.844l5.015-1.324c-.694-.725-.3-5.214-.184-6.613a31.39 31.39.0 012-8.314c.922-2.473-2.294-4.721-4.407-3.388C9.508 5.3 7.532 9.077 5.766 12.47 4.045 15.776 3 19.252 4.382 22.867c1.367 3.569 7.17 2.02 5.785-1.6z"/><path d="M20.172 9.17a123.111 123.111.0 0111.2 16.791c1.881 3.373 7.065.351 5.181-3.028a132.265 132.265.0 00-12.135-18c-2.4-3.019-6.626 1.251-4.243 4.242z"/><path d="M27.29 6.316A102.23 102.23.0 0128.577 19.73c.124 3.851 6.125 3.868 6 0a114.826 114.826.0 00-1.5-15.009c-.627-3.8-6.409-2.188-5.786 1.595z"/><path d="M29.672 9.832a19.636 19.636.0 01.725 9.9c-.719 3.774 5.063 5.39 5.785 1.6a26 26 0 00-.724-13.09c-1.188-3.657-6.983-2.093-5.786 1.6z"/><path d="M26.039 7.209c3.861.0 3.867-6 0-6s-3.867 6 0 6z"/><path d="M13.726 12.863l5.3 9.381c1.955 3.458 6.649.419 5.181-3.028-1.306-3.064-3.664-7.678-3.361-11.078l-.878 2.121.016-.03-2.312-.3c-.558-.428.931 2.823 1.171 3.579.435 1.37.788 2.766 1.181 4.148a37.078 37.078.0 003.192 8.093c1.756 3.141 6.036.88 5.483-2.312l-1.644-9.489-3.69 3.69.622.1L22.2 16.361c1.794 2.718 2.2 7.291 2.471 10.408a3.015 3.015.0 005.893.8l2.209-6.884c1.182-3.686-4.609-5.264-5.786-1.595l-2.209 6.884 5.893.8c-.326-3.781-.721-14.082-5.705-14.919a3.05 3.05.0 00-3.69 3.69l1.644 9.489 5.48-2.316c-2.1-3.755-2.738-7.958-4.149-11.975C23.4 8.3 22.3 4.534 19.19 4.336 10.37 3.773 17.646 19 19.03 22.244l5.181-3.028-5.3-9.381c-1.9-3.361-7.085-.341-5.181 3.028z"/><path d="M27.865 13.992c3.861.0 3.867-6 0-6s-3.867 6 0 6z"/><path d="M24.474 12.557c3.861.0 3.867-6 0-6s-3.867 6 0 6z"/><path d="M24.735 12.3c3.861.0 3.867-6 0-6s-3.867 6 0 6z"/><path d="M27.787 17.779c-.807 2.937-1.512 5.9-2.075 8.893-.366 1.954-1.482 5.02-.224 6.821a3.187 3.187.0 003.388 1.379c3.024-.43 3.565-5.027 5.892-6.547l-4.407-3.388a9.65 9.65.0 01-3.163 5.4c-2.871 2.594 1.383 6.826 4.243 4.243a15.2 15.2.0 004.705-8.044c.546-2.406-2.1-4.895-4.407-3.388a12.123 12.123.0 00-3.264 3.126c-.457.632-.848 1.3-1.254 1.967l-.4.673q-1.023 1.278.464.176l3.388 1.379q.425 1.7.474-.2l.173-1q.311-1.747.682-3.486c.458-2.152.992-4.283 1.574-6.405 1.023-3.729-4.763-5.32-5.785-1.595z"/><path d="M10.906 22.561a67.363 67.363.0 008.861 12.1c2.372 2.587 6.263-.708 4.712-3.636a56.546 56.546.0 00-4.889-8.039c-1.621-2.117-3.664-4.518-6.655-3.674-7.152 2.019.9 12.087 3.228 14.966l4.242-4.243c-2.332-2.666-5.012-11.393-9.642-10.26-6.227 1.523-.108 10.593 1.858 13.292 2.225 3.052 7.268.315 5.181-3.029q-2.925-4.686-5.515-9.561c-1.731-3.258-5.923-.8-5.483 2.311a17 17 0 004.373 9.057c2.584 2.88 6.816-1.374 4.243-4.243A11.656 11.656.0 0112.59 21.2L7.106 23.51q2.592 4.878 5.515 9.562L17.8 30.043c-1.627-2.232-3.423-4.863-3.912-7.625l-.3 2.312-.513.533-2.312.3q-1.385-.933-.254.219.457.642.871 1.312c.492.78.94 1.587 1.4 2.384a30.814 30.814.0 003.378 4.8c2.576 2.946 6.625-1.293 4.242-4.243a33.255 33.255.0 01-2.519-3.58c-.6-.977-1.911-2.589-1.794-3.778L15.213 24.8q-2.751-.535-1.436.517.606.663 1.149 1.379c.516.679.983 1.4 1.436 2.123 1.063 1.7 2 3.468 2.936 5.236l4.711-3.635a60.261 60.261.0 01-7.922-10.89c-1.915-3.353-7.1-.333-5.181 3.028z"/><path d="M14.711 30.113A7.708 7.708.0 0018 27.727a21.629 21.629.0 011.52-1.583l.659-.581q1.662-1.038-.189-.339L17.4 23.738l.192.32-.3-2.312c-.567 3.929-4.708 9.234-1.853 12.876.879 1.121 2.511.961 3.635.469 2.955-1.293 3.69-5.22 6.543-6.7l-4.1-4.1c-1.487 3.323-4.7 7.584-3.072 11.221a3.015 3.015.0 002.59 1.485c3.14.3 4.951-2.4 7.738-2.946l-2.311-.3.294.192c3.239 2.123 6.249-3.07 3.028-5.18-3.421-2.242-5.622 2.534-8.749 2.236l2.591 1.486-.238-.53.3 2.312A49.034 49.034.0 0126.7 27.314c1.2-2.69-1.287-5.567-4.105-4.105a11.317 11.317.0 00-3.632 3.116c-.774.961-1.747 3.076-2.911 3.585l3.635.469-.242-.309.879 2.121c.349-3.218 5.466-10.057 1.188-12.557-1.511-.884-3.014-.253-4.277.666a20.848 20.848.0 00-2.58 2.213c-.335.338-1.526 1.811-1.535 1.814-3.572 1.362-2.022 7.164 1.6 5.786z"/><path d="M10.126 34.731c3.861.0 3.867-6 0-6s-3.867 6 0 6z"/><path d="M.362 14.115c-.03 1.2.0 2.4.088 3.6a3.074 3.074.0 003 3 3.027 3.027.0 003-3l-.25-3.97a3.069 3.069.0 00-3-3 3.064 3.064.0 00-3 3A29.59 29.59.0 00.224 19.6a3.086 3.086.0 003 3 3.021 3.021.0 003-3 29.59 29.59.0 01-.02-5.854H.2l.25 3.967h6c-.089-1.2-.118-2.4-.088-3.6.095-3.862-5.9-3.86-6 0z"/><path class="cls-1" d="M10.325 28.461C9.4 22.48 7.575 9.777 16.135 9.167a61.4 61.4.0 017.9.065 20.32 20.32.0 013.928.353c2.8.758 3.858 3.175 4.282 5.868a65.214 65.214.0 01.265 7.741c.042 1.229.494 3.588.165 4.839-.4 1.523-1.02 1.92-2.637 2.536C26.605 31.875 11.8 33.5 10.822 28c-.338-1.9-3.23-1.093-2.893.8 1.4 7.861 16.611 6.242 22.088 4.886C33.2 32.9 35.353 32.363 35.706 29c.327-3.113-.223-6.539-.331-9.677-.089-2.605.182-5.489-.439-8.038-.792-3.251-3.269-4.192-6.33-4.649-4.711-.7-10.423-1.149-15.129-.181-9.376 1.929-7.1 15.954-6.045 22.8.293 1.9 3.184 1.094 2.893-.8z"/><path class="cls-1" d="M19.767 15.521a5.665 5.665.0 00-4.4 7.9 7.063 7.063.0 008.754 3.256c3.423-1.477 4.071-5.843 2.327-8.85-1.8-3.1-5.986-4.245-8.626-1.489-1.335 1.394.783 3.518 2.122 2.121 3.059-3.194 7.056 4.853 2.3 5.664a4.157 4.157.0 01-4.059-1.755c-1.073-1.954.464-3.675 2.374-3.955s1.094-3.169-.8-2.893z"/><path class="cls-1" d="M25.252 13.863a2.213 2.213.0 003.655.966 1.512 1.512.0 00.234-1.818 2.253 2.253.0 00-1.748-1.025 2.2 2.2.0 00-1.659.652 1.5 1.5.0 102.121 2.121.848.848.0 01-1.3-.233l.234-1.818a.822.822.0 011.36.358 1.5 1.5.0 10-2.893.8z"/><path class="cls-1" d="M11.125 10.332c-1.341 2.081-4.1 9.54-.126 10.588 1.568.413 2.261-.87 2.831-2.123 1.161-2.552 2.167-5.176 3.1-7.818.656-1.858-2.171-2.53-2.893-.8-1.015 2.433-2.572 10.8 1.542 11.469 1.479.241 2.353-.821 2.85-2.075 1.2-3.029 1.887-6.38 2.806-9.506l-2.946-.4c.456 5.089 1.042 10.141 3.6 14.664a1.5 1.5.0 002.591-1.514c-2.293-4.05-2.78-8.589-3.19-13.147a1.508 1.508.0 00-2.947-.4c-.231.789-2.518 9.408-2.763 9.379l1.3.743c-1.654-2.445-1-5.89.055-8.414l-2.893-.8c-.5 1.419-1.02 2.831-1.583 4.226-.3.744-.934 3.376-1.635 3.847h1.514c-1.489-.7.921-5.693 1.381-6.408 1.049-1.627-1.547-3.133-2.59-1.514z"/><path class="cls-1" d="M19.077 11.285a13.589 13.589.0 00-4.627.025l1.156 2.742 4.329-2.859c1.136-.75.833-2.937-.757-2.795A24.581 24.581.0 0011.7 10.2c-1.723.718-1.116 3.451.8 2.893a104.4 104.4.0 0112.4-3.022L23.742 7.33c-4.5 2.422-8.858 4.923-12.582 8.463-1.03.98.03 3.065 1.46 2.507 4.214-1.644 7.64-4.775 11.934-6.2l-1.46-2.507a62.554 62.554.0 00-9.409 11.5A1.506 1.506.0 0016.041 22.9L26.878 12.836l-2.507-.662c.554 1.591-3.8 6.806-4.7 8.282a45.116 45.116.0 00-3.767 7.567C15.3 29.65 17.8 30.6 18.649 29.179l5.823-9.7-2.742-1.16a53.413 53.413.0 01-3.882 9.162c-.915 1.7 1.674 3.217 2.59 1.514a57.67 57.67.0 004.185-9.879 1.507 1.507.0 00-2.742-1.156l-5.822 9.7L18.8 28.821c1.476-3.919 3.81-7.322 5.98-10.874 1.11-1.817 3.269-4.313 2.483-6.57a1.52 1.52.0 00-2.507-.662L13.92 20.781 16.276 22.6a59.275 59.275.0 018.94-10.89A1.511 1.511.0 0023.756 9.2c-4.329 1.442-7.713 4.559-11.934 6.205l1.46 2.507c3.537-3.361 7.707-5.7 11.974-7.994 1.6-.861.421-3-1.155-2.742A104.547 104.547.0 0011.7 10.2l.8 2.893a21.941 21.941.0 016.685-1.7L18.421 8.6l-4.329 2.858A1.508 1.508.0 0015.248 14.2l3.032-.026c1.888.292 2.7-2.6.8-2.892z"/><path class="cls-1" d="M10.66 20.411a7.218 7.218.0 00.767 6.424 1.519 1.519.0 002.742-.359c.7-2.525.94-6.427-.984-8.527a1.478 1.478.0 00-1.46-.386c-2.143.721-1.96 3.415-1.8 5.251.163 1.892.431 5.043 2.214 6.148a1.509 1.509.0 001.514.0c1.642-.917 1.472-3.179 1.253-4.816A11.752 11.752.0 0012.385 18.4a1.506 1.506.0 00-2.356.3C8.475 22.044 9.2 27.528 12 30.111a1.517 1.517.0 002.121.0l.236-.276c1.247-1.46-.865-3.592-2.122-2.121L12 27.989h2.121c-1.72-1.582-2.459-5.719-1.505-7.767l-2.356.3c1.312 1.7 2.294 4.419 1.536 6.546l.689-.9-.352.2h1.514a11.6 11.6.0 01-.657-2.917 13.584 13.584.0 01-.133-1.686c-.011-.467.32-1.534-.338-1.313l-1.459-.386c1.122 1.226.6 4.226.212 5.609l2.742-.358a4.364 4.364.0 01-.465-4.112c.639-1.826-2.258-2.611-2.893-.8z"/><path class="cls-1" d="M8.294 28.73a3.371 3.371.0 001.154 2.634c1.24 1.05 3.286-.274 2.356-1.817a10.831 10.831.0 00-1.2-1.617 1.514 1.514.0 00-2.56 1.061A3.013 3.013.0 009.5 31.582a1.52 1.52.0 001.818-.235 1.565 1.565.0 00.235-1.818 4.352 4.352.0 00-1.034-1.392A1.514 1.514.0 008.008 29.6a3.269 3.269.0 001.476 2.169 1.514 1.514.0 002.2-1.694A4.1 4.1.0 0010.2 28.063c-1.052-.81-2.579.53-2.2 1.694a4.143 4.143.0 001.685 2.234 1.515 1.515.0 002.2-1.694A5.3 5.3.0 009.9 27.629c-1.12-.83-2.48.536-2.2 1.694A4.1 4.1.0 009.568 31.86c1.047.657 2.674-.451 2.2-1.694a5.945 5.945.0 00-1.663-2.484A1.514 1.514.0 007.6 29.142a4.552 4.552.0 005.432 3.375c1.885-.413 1.087-3.306-.8-2.893a1.553 1.553.0 01-1.742-1.28L7.987 29.8a2.888 2.888.0 01.892 1.16l2.2-1.694a1.032 1.032.0 01-.488-.744l-2.2 1.693a1.787 1.787.0 01.6.875l2.2-1.694a.786.786.0 01-.306-.44l-2.2 1.694a.806.806.0 01.114.216L11 29.176c-.062-.043-.085-.292-.1-.377l-2.507 1.46a2.149 2.149.0 01.564.785l2.052-2.053c-.021-.013.032-.017.032.0l-2.561 1.06a6.62 6.62.0 01.733 1.01l2.356-1.818c-.213-.18-.28-.246-.276-.513a1.5 1.5.0 00-3 0z"/><path class="cls-1" d="M13.944 22.188c-1.1 1.769-4 9.043.163 9.261 1.714.089 3.466-1.881 4.438-3.056a16.2 16.2.0 002.932-5.414 1.516 1.516.0 00-1.845-1.845c-2.774.561-7.557 8.105-3.729 9.741 1.955.835 4.076-.962 5.291-2.323 1.093-1.223 2.917-3.645 2.315-5.4a1.492 1.492.0 00-1.048-1.048c-2.9-.437-4.793 4.021-5.239 6.36a2.571 2.571.0 001.432 3.153c1.517.564 2.584-.571 3.754-1.283 1.646-1 .141-3.6-1.514-2.591a3.924 3.924.0 00-1 .718q-.891.5.34.278a7.6 7.6.0 01.239-.769A6.964 6.964.0 0122.5 24.8l-1.156.151.323.049-1.048-1.048q.093-.6-.05-.087a4.906 4.906.0 01-.326.8 8.4 8.4.0 01-.775 1.287 7.963 7.963.0 01-.916 1.017c-.345.327-1.063.628-1.32.981q-.739.226.282.879l.136-.554c.287-.533.4-1.215.679-1.766.41-.8 1.121-2.284 2.1-2.482l-1.845-1.846c-.668 2.063-2.474 5.833-4.876 6.321l1.156.152.15.23a7.887 7.887.0 01.025-.856 8.881 8.881.0 01.263-1.569A9.915 9.915.0 0116.535 23.7c1.02-1.646-1.575-3.154-2.591-1.514z"/><path class="cls-1" d="M23.8 12.272a12.808 12.808.0 015.787 11.68c-.115 1.929 2.885 1.922 3 0A15.843 15.843.0 0025.31 9.682c-1.621-1.059-3.125 1.537-1.514 2.59z"/><path class="cls-1" d="M23.211 11.624c.7-.044 1.708.907 2.168 1.4a2.9 2.9.0 01.855 2.437 1.511 1.511.0 001.5 1.5 1.534 1.534.0 001.5-1.5A5.777 5.777.0 0027.5 10.9c-1.041-1.088-2.716-2.379-4.289-2.28-1.918.12-1.931 3.121.0 3z"/><path class="cls-1" d="M25.305 11.3c6.285-.973 5.128 7.409 5.176 11.087a1.5 1.5.0 003 0c-.043-3.272.627-7.69-1.117-10.658C30.857 9.163 27.3 7.973 24.507 8.4c-1.9.294-1.094 3.185.8 2.893z"/><path class="cls-1" d="M21.833 16.584c3.18 3.666 3.5 7.657 4.993 12.037a1.508 1.508.0 002.947-.4l.027-.36c.146-1.926-2.855-1.917-3 0l-.027.36 2.946-.4c-.841-2.472-1.115-5.087-2.1-7.515a20.849 20.849.0 00-3.663-5.847c-1.268-1.461-3.382.669-2.122 2.122z"/><path class="cls-1" d="M24.93 17.134a21.71 21.71.0 012.472 9.65l2.947-.4-.019-.479c.078-1.93-2.922-1.927-3 0a4.777 4.777.0 00.126 1.277c.346 1.663 2.985 1.28 2.946-.4A25.191 25.191.0 0027.521 15.62c-.892-1.713-3.482-.2-2.591 1.514z"/><path class="cls-1" d="M28.207 18.462a15.887 15.887.0 01.668 7.129l1.047-1.048-.08.016c-1.893.366-1.092 3.258.8 2.892l.08-.015a1.448 1.448.0 001.048-1.048 19.277 19.277.0 00-.669-8.723c-.585-1.833-3.482-1.049-2.892.8z"/><path class="cls-1" d="M30.213 23.022a3.271 3.271.0 01-1.35 2.133 1.537 1.537.0 00-.539 2.053 1.517 1.517.0 002.053.538 6.29 6.29.0 002.729-3.926 1.538 1.538.0 00-1.048-1.846 1.515 1.515.0 00-1.845 1.048z"/><path class="cls-1" d="M14.593 17.826l.913 2.478a1.541 1.541.0 001.845 1.048A1.514 1.514.0 0018.4 19.506l-.913-2.478A1.542 1.542.0 0015.64 15.98a1.513 1.513.0 00-1.047 1.846z"/><path class="cls-1" d="M18.611 18.691a15.488 15.488.0 00-2.386 2.738c-.584.851-1.479 2.036-1.026 3.113.635 1.506 2.213 1 3.2.257l3.447-2.605a1.549 1.549.0 00.538-2.052 1.51 1.51.0 00-2.052-.539l-2.154 1.629-1.006.759c-.215.163-.653.595-.875.626l1.46.385-.126-.1.439 1.061q-.094.5.12-.016c.1-.172.2-.342.3-.509a11.239 11.239.0 01.669-.977 13.249 13.249.0 011.571-1.65c1.435-1.3-.691-3.414-2.121-2.121z"/><path class="cls-1" d="M24 19.274q-1.309 2.3-2.841 4.454a1.513 1.513.0 00.538 2.052 1.531 1.531.0 002.052-.538q1.532-2.157 2.841-4.454A1.5 1.5.0 0024 19.274z"/><path class="cls-1" d="M29.166 10.162l-.151-.089a1.514 1.514.0 00-1.514.0c-2.321 1.351.274 4.823 1.385 6.16 1 1.2 2.857-.1 2.507-1.46-.227-.877-.417-1.758-.571-2.652l-2.893.8a9.433 9.433.0 01-.168 4.368 1.5 1.5.0 002.893.8 12.874 12.874.0 00.168-5.964c-.381-1.905-3.218-1.082-2.893.8.155.893.344 1.774.571 2.652l2.507-1.459a8.178 8.178.0 01-.962-1.44 6.238 6.238.0 01-.365-.8q-.194-.8-.147.0l-.689.9.171-.1H27.5l.151.088a1.5 1.5.0 001.514-2.59z"/><path class="cls-1" d="M14.476 27.056c1.491 3.518 5.514 4.033 8.768 2.9a1.517 1.517.0 00.662-2.507c-1.344-1.308-3.869-1.065-5.576-.838-1.366.182-4.15.489-4.523 2.227-.329 1.535 1.259 2.368 2.477 2.754a9.9 9.9.0 006.37-.409 1.508 1.508.0 00-.4-2.947 32.185 32.185.0 00-6.92.714 1.512 1.512.0 000 2.893 10.751 10.751.0 007.2-.8c1.9-.846 4.31-2.066 4.558-4.392a3.367 3.367.0 00-3.754-3.54c-2.235.2-3.752 2.236-4.314 4.258-.525 1.887.237 3.97 2.392 4.169 2.04.189 4.149-1.514 5.168-3.144.826-1.321 1.56-3.73-.528-4.278-2.158-.567-3.921 2.4-4.626 4.013a1.524 1.524.0 001.3 2.258l.337.012c1.931.074 1.928-2.927.0-3l-.337-.012 1.3 2.257a5.51 5.51.0 012.191-2.831l-1.156.151.4.089L24.419 26c.26.67-1.788 2.583-2.222 2.091-.258-.292.022-1.067.4-1.28q.246-.655.53.018.669.452-.22.653c-1.5 1.533-4.848 1.959-6.771 1.466V31.84a28.324 28.324.0 016.123-.607l-.4-2.946a9.5 9.5.0 01-2.7.658c-.437.025-2.364.07-2.6-.468v1.514c.273-.524 4.823-.825 5.236-.424l.662-2.507c-2.085.728-4.395.807-5.38-1.519-.751-1.771-3.336-.244-2.591 1.515z"/><path class="cls-1" d="M28.6 25.129c.037.582.231 1.942-.5 2.19l1.846 1.845a2.726 2.726.0 011.074-1.852l-1.459-.386a.454.454.0 01-.371.544H30.7a7.382 7.382.0 00-1.756.506L30 29.024a4.956 4.956.0 01.293-.956L29.24 27.021c.761 2.108-2.4 1.693-3.313 1.29-.677-.3-1.327-.618-2.019-.885l-.8 2.893a6.992 6.992.0 004.511-.1c1.512-.527 1.387-3.036-.4-2.946a13.568 13.568.0 00-6.471 1.944 1.517 1.517.0 00.358 2.741 7.069 7.069.0 004.824-.572 1.5 1.5.0 00-.8-2.893l-5.318.906c-1.83.312-1.108 2.746.4 2.947a14.9 14.9.0 005.454-.288 1.507 1.507.0 00-.4-2.946c-1.079.022-2.143.092-3.216.21a1.508 1.508.0 00-.4 2.946c4.486 1.857 11.368-2.785 9.938-7.816L28.855 25.61a4.013 4.013.0 01.527 2.449c-.006 1.633 2.694 2.114 2.947.4a33.244 33.244.0 01.754-3.672H30.19a5.442 5.442.0 01.1 2.844h2.89a2.82 2.82.0 01.551-2.42l-2.8-.757a2.979 2.979.0 01-.55 2.251c-1.109 1.586 1.491 3.087 2.59 1.514a5.172 5.172.0 00.96-3.765 1.514 1.514.0 00-2.8-.757 6.4 6.4.0 00-.853 4.732c.242 1.472 2.588 1.389 2.893.0a8.735 8.735.0 00-.1-4.44 1.512 1.512.0 00-2.893.0 33.291 33.291.0 00-.754 3.672l2.946.4a8.489 8.489.0 00-.937-3.963c-.752-1.544-3.2-.456-2.741 1.156.8 2.825-4.006 5.054-6.248 4.125l-.4 2.947c1.073-.118 2.137-.188 3.216-.21l-.4-2.947a12.693 12.693.0 01-4.656.181l.4 2.946 5.318-.906-.8-2.893a4.81 4.81.0 01-3.229.573l.358 2.741a10.319 10.319.0 014.957-1.534l-.4-2.946a4.247 4.247.0 01-2.916.1c-1.89-.551-2.563 2.212-.8 2.893 2.935 1.131 5.926 2.75 8.259-.443 1.005-1.375 1.67-4.843-.944-4.826-1.994.014-4.438 3.3-3.172 5.13 1.544 2.225 4.8-.2 5.619-1.908a2.26 2.26.0 00-3.008-3.151c-1.859.92-2.963 5.115.082 5.144 2.23.022 3.45-3.522 2.163-5.107-2.125-2.614-4.577 1.445-5.057 3.208A1.512 1.512.0 0028.9 30.211c2.313-.786 2.84-2.817 2.7-5.082-.119-1.918-3.12-1.931-3 0z"/><path d="M19.805 14.25c-2.722.847-5.3 2.907-5.054 6.052.241 3.1 3.264 5.543 6.14 6.107a7.942 7.942.0 008.043-3.463c1.679-2.644.557-5.892-1.615-7.891-4.676-4.3-13.88-.389-12.914 6.247C15.41 28.2 24.64 30 28.555 24.3c2.067-3.01.152-6.871-2.539-8.751a7.026 7.026.0 00-9.5.934c-1.249 1.459.863 3.591 2.121 2.121 3.755-4.388 11.2 2.583 5.6 5.454-2.117 1.085-4.755.942-6.147-1.205a3.732 3.732.0 01.676-5.247c1.665-1.246 4.017-2.047 5.9-.836 2.245 1.444 2.821 4.181.545 5.834a4.9 4.9.0 01-6-.19c-2.326-1.961-1.287-4.433 1.39-5.266 1.837-.572 1.053-3.469-.8-2.893z"/><path d="M21.12 17.413a6.264 6.264.0 01.793 6.405c-.735 1.783 2.167 2.561 2.893.8a8.985 8.985.0 00-1.1-8.717c-1.139-1.531-3.744-.037-2.59 1.514z"/><path d="M19.282 15.713a6.619 6.619.0 00-1.059 5.657c.332 1.76 1.768 3.606 3.768 2.814 3.616-1.431 1.088-9.394-2.3-7.367-1.725 1.033-1.867 3.937-1.721 5.7a2.346 2.346.0 001.371 2.264 1.947 1.947.0 002.347-1.01 5.285 5.285.0 00-.395-5.3 2.092 2.092.0 00-2.34-.691 3.03 3.03.0 00-1.72 2c-.711 1.8 2.189 2.575 2.893.8q-1.607-.97-1.113.054a5.421 5.421.0 01.142.575c.071.416.162.853-.212 1.148l1.46-.386-.264-.073.9.689c-.494-.753.256-1.918.108-2.67q.438-.891-1.047-.627l.247.272a5.081 5.081.0 01.414 1.2c.02.374-.417 1.131.2.734.493-.318.21-.541.129-1.119a3.448 3.448.0 01.317-2.534c1.189-1.5-.921-3.634-2.121-2.121z"/><path d="M29.474 9.788l-.362.024a1.533 1.533.0 00-1.447 1.1 2.723 2.723.0 00.168 1.921 2.073 2.073.0 001.237.953A2.145 2.145.0 0031.708 12.3a2.267 2.267.0 00-1.49-2.678 2.382 2.382.0 00-2.739 1.151 1.5 1.5.0 102.59 1.515q.2-.325-.209.165a.648.648.0 01-.283.068.82.82.0 01-.774-.554.967.967.0 01.89-1.107q.673.054.862.917-.06.2.0-.071l-1.446 1.1.362-.024a1.5 1.5.0 000-3z"/></svg>