<svg xmlns="http://www.w3.org/2000/svg" width="512" height="477" viewBox="0 0 512 477" version="1.1"><path d="M 172 0.613 C 122.401 4.871, 85.472 14.433, 65 28.318 C 58.327 32.844, 46.307 44.721, 41.969 51.076 C 39.875 54.143, 34.592 61.424, 30.229 67.255 C 12.795 90.559, 7.904 105.817, 2.426 154 C -0.112 176.326, -0.693 239.930, 1.418 264.500 C 5.269 309.340, 15.390 361.395, 25.540 388.565 C 33.562 410.037, 42.080 424.286, 53.913 436.028 C 75.673 457.620, 101.326 465.682, 165 470.940 C 232.224 476.492, 231.040 476.436, 281.500 476.468 C 334.172 476.502, 341.160 476.036, 371.553 470.457 C 437.451 458.362, 479.160 427.369, 494.381 379.189 C 501.647 356.185, 502.415 341.317, 501.026 250.500 C 499.733 166.008, 498.790 142.721, 496.041 127.500 C 486.726 75.919, 452.467 40.544, 392.763 20.858 C 367.355 12.481, 341.475 8.291, 282 2.928 C 263.765 1.284, 249.315 0.744, 217.500 0.518 C 194.950 0.357, 174.475 0.400, 172 0.613 M 154.806 82.999 C 146.406 85.189, 141.369 88.137, 129.180 97.996 C 120.206 105.254, 107.212 117.716, 109.500 116.870 C 112.646 115.706, 136.646 100.820, 143 96.091 C 147.125 93.021, 154.059 88.370, 158.410 85.755 C 167.052 80.559, 166.317 79.997, 154.806 82.999 M 424.500 99.683 C 417.127 101.325, 377.383 112.420, 356.500 118.666 C 274.281 143.257, 190.625 174.267, 112 209.299 C 65.876 229.849, 66.574 229.426, 63.567 238.683 C 61.386 245.398, 62.151 249.269, 67.227 257.211 C 71.828 264.410, 107.780 300.561, 121.217 311.500 L 129.815 318.500 149.059 368.500 C 170.002 422.913, 170.639 424.412, 174.273 427.802 C 180.136 433.273, 197.690 435.702, 205.500 432.123 C 209.722 430.189, 233.953 411.338, 250.063 397.455 L 259.625 389.214 272.063 397.229 C 294.101 411.432, 306.960 416.247, 317.061 414.080 C 329.076 411.504, 335.367 405.817, 343.233 390.425 C 349.557 378.051, 359.131 356.611, 363.940 344.057 C 365.718 339.414, 369.179 331.622, 371.629 326.743 C 377.959 314.139, 401.127 265.083, 415.137 234.617 C 439.717 181.169, 446.948 158.381, 448.666 128.962 C 449.476 115.095, 447.901 111.132, 438.972 104.558 C 435.566 102.051, 431.966 100, 430.972 100 C 429.977 100, 428.564 99.828, 427.832 99.619 C 427.099 99.409, 425.600 99.438, 424.500 99.683 M 346.500 183.641 C 307.038 200.469, 251.380 226.262, 213.561 245.247 C 187.745 258.207, 187.582 258.309, 178.975 266.884 C 170.032 275.795, 166.222 281.928, 165.284 288.921 C 164.862 292.065, 165.724 295.075, 169.788 304.654 C 176.371 320.171, 183.001 338.640, 187.277 353.378 L 190.722 365.251 191.416 355.875 C 193.082 333.330, 197.320 316.409, 203.655 307 C 205.692 303.975, 210.090 298.786, 213.429 295.470 C 223.120 285.843, 268.168 251.033, 302.197 226.875 C 325.214 210.534, 329.603 206.860, 342.250 193.345 C 351.732 183.214, 353.722 180.881, 352.750 181.041 C 352.613 181.064, 349.800 182.233, 346.500 183.641" stroke="none" fill="#040404" fill-rule="evenodd"/><path d="M 154.806 82.999 C 146.406 85.189, 141.369 88.137, 129.180 97.996 C 120.206 105.254, 107.212 117.716, 109.500 116.870 C 112.646 115.706, 136.646 100.820, 143 96.091 C 147.125 93.021, 154.059 88.370, 158.410 85.755 C 167.052 80.559, 166.317 79.997, 154.806 82.999 M 424.500 99.683 C 417.127 101.325, 377.383 112.420, 356.500 118.666 C 274.281 143.257, 190.625 174.267, 112 209.299 C 65.876 229.849, 66.574 229.426, 63.567 238.683 C 61.386 245.398, 62.151 249.269, 67.227 257.211 C 71.828 264.410, 107.780 300.561, 121.217 311.500 L 129.815 318.500 149.059 368.500 C 170.002 422.913, 170.639 424.412, 174.273 427.802 C 180.136 433.273, 197.690 435.702, 205.500 432.123 C 209.722 430.189, 233.953 411.338, 250.063 397.455 L 259.625 389.214 272.063 397.229 C 294.101 411.432, 306.960 416.247, 317.061 414.080 C 329.076 411.504, 335.367 405.817, 343.233 390.425 C 349.557 378.051, 359.131 356.611, 363.940 344.057 C 365.718 339.414, 369.179 331.622, 371.629 326.743 C 377.959 314.139, 401.127 265.083, 415.137 234.617 C 439.717 181.169, 446.948 158.381, 448.666 128.962 C 449.476 115.095, 447.901 111.132, 438.972 104.558 C 435.566 102.051, 431.966 100, 430.972 100 C 429.977 100, 428.564 99.828, 427.832 99.619 C 427.099 99.409, 425.600 99.438, 424.500 99.683 M 346.500 183.641 C 307.038 200.469, 251.380 226.262, 213.561 245.247 C 187.745 258.207, 187.582 258.309, 178.975 266.884 C 170.032 275.795, 166.222 281.928, 165.284 288.921 C 164.862 292.065, 165.724 295.075, 169.788 304.654 C 176.371 320.171, 183.001 338.640, 187.277 353.378 L 190.722 365.251 191.416 355.875 C 193.082 333.330, 197.320 316.409, 203.655 307 C 205.692 303.975, 210.090 298.786, 213.429 295.470 C 223.120 285.843, 268.168 251.033, 302.197 226.875 C 325.214 210.534, 329.603 206.860, 342.250 193.345 C 351.732 183.214, 353.722 180.881, 352.750 181.041 C 352.613 181.064, 349.800 182.233, 346.500 183.641" stroke="none" fill="#fbfbfb" fill-rule="evenodd"/></svg>