<svg xmlns="http://www.w3.org/2000/svg" width="512" height="536" viewBox="0 0 512 536" version="1.1"><path d="M 155.500 1.125 C 115.162 4.556, 83.952 13.676, 61.335 28.641 C 35.116 45.990, 16.162 78.683, 7.500 121.500 C 1.844 149.462, -0.547 184.280, 0.875 218 C 1.351 229.275, 1.374 243.225, 0.926 249 C -0.254 264.231, -0.175 313.766, 1.054 328.696 C 5.245 379.627, 17.450 420.982, 37.162 451.047 C 45.048 463.075, 61.460 479.607, 73.252 487.402 C 100.695 505.542, 135.845 516.689, 182.500 522.046 C 188 522.678, 208.250 523.585, 227.500 524.062 C 246.750 524.540, 263.926 525.217, 265.668 525.567 C 269.251 526.286, 305.824 524.487, 319.500 522.919 C 333.711 521.289, 364.544 516.096, 375.500 513.488 C 391.738 509.622, 401.245 505.936, 429.783 492.443 C 470.801 473.050, 496.230 439.449, 506.422 391.179 C 510.922 369.865, 512.014 353.609, 512.410 302.065 C 512.611 275.904, 512.488 259.225, 512.137 265 C 511.716 271.949, 511.273 260.111, 510.829 230 C 510.172 185.407, 509.486 172.661, 506.444 148.500 C 503.131 122.189, 495.873 95.193, 487.048 76.361 C 463.624 26.376, 420.430 5.253, 333 1.027 C 308.451 -0.160, 169.705 -0.083, 155.500 1.125 M 156.500 62.649 C 140.714 65.943, 117.073 73.406, 118.357 74.690 C 118.580 74.914, 127.029 73.526, 137.132 71.605 C 147.234 69.685, 157.443 67.819, 159.819 67.458 C 163.075 66.963, 163.998 66.436, 163.569 65.319 C 163.256 64.503, 163 63.423, 163 62.918 C 163 61.993, 160.199 61.877, 156.500 62.649 M 247.500 113.048 C 239.250 113.430, 224.803 113.800, 215.395 113.871 C 183.750 114.110, 165.397 116.293, 142.553 122.536 C 117.897 129.274, 107.125 134.107, 95.783 143.521 C 80.525 156.186, 71.073 173.681, 65.829 198.964 C 63.277 211.269, 62.233 248.677, 63.899 268.122 C 66.156 294.464, 70.239 328.556, 71.503 331.621 C 72.974 335.188, 81.286 347.017, 87.736 354.722 C 90.140 357.594, 95.795 362.355, 100.303 365.303 C 119.202 377.657, 135.940 381.928, 173.500 383.979 C 220.573 386.549, 280.353 384.285, 331 378.014 C 339.525 376.959, 353.475 375.607, 362 375.010 C 426.591 370.489, 451.828 356.510, 462.213 319.500 C 464.312 312.019, 464.452 309.650, 464.367 283 C 464.147 214.519, 461.710 192.787, 451.222 165.778 C 446.891 154.626, 443.526 149.340, 436.088 141.999 C 420.250 126.370, 391.612 118.020, 343.435 114.986 C 334.671 114.434, 323.900 113.561, 319.500 113.045 C 310.513 111.992, 270.295 111.994, 247.500 113.048 M 222.344 179.989 C 214.469 181.646, 210.320 184.578, 205.500 191.895 C 202.384 196.626, 200.634 200.588, 199.876 204.631 C 198.470 212.129, 199.348 278.799, 200.974 287.994 C 203.247 300.846, 208.230 307.997, 218.351 312.927 C 225.457 316.389, 228.627 316.743, 238.529 315.180 C 254.135 312.716, 317.857 280.902, 331.446 268.791 C 347.322 254.640, 346.850 235.169, 330.300 221.518 C 323.292 215.737, 309.532 208.520, 293.155 202.036 C 287.466 199.784, 276.216 194.847, 268.155 191.065 C 260.095 187.284, 250.522 183.281, 246.883 182.169 C 238.970 179.751, 228.074 178.783, 222.344 179.989 M 0.448 288.500 C 0.447 306.650, 0.582 314.216, 0.748 305.314 C 0.913 296.411, 0.914 281.561, 0.749 272.314 C 0.583 263.066, 0.448 270.350, 0.448 288.500 M 407 454.008 C 386.762 460.707, 357.517 467.978, 330.500 473.025 C 316.845 475.576, 316.051 475.835, 321.644 475.914 C 334.630 476.096, 361.754 472.341, 379.500 467.904 C 401.339 462.444, 417 455.772, 417 451.927 C 417 450.710, 416.895 450.732, 407 454.008" stroke="none" fill="#040404" fill-rule="evenodd"/><path d="M 156.500 62.649 C 140.714 65.943, 117.073 73.406, 118.357 74.690 C 118.580 74.914, 127.029 73.526, 137.132 71.605 C 147.234 69.685, 157.443 67.819, 159.819 67.458 C 163.075 66.963, 163.998 66.436, 163.569 65.319 C 163.256 64.503, 163 63.423, 163 62.918 C 163 61.993, 160.199 61.877, 156.500 62.649 M 247.500 113.048 C 239.250 113.430, 224.803 113.800, 215.395 113.871 C 183.750 114.110, 165.397 116.293, 142.553 122.536 C 117.897 129.274, 107.125 134.107, 95.783 143.521 C 80.525 156.186, 71.073 173.681, 65.829 198.964 C 63.277 211.269, 62.233 248.677, 63.899 268.122 C 66.156 294.464, 70.239 328.556, 71.503 331.621 C 72.974 335.188, 81.286 347.017, 87.736 354.722 C 90.140 357.594, 95.795 362.355, 100.303 365.303 C 119.202 377.657, 135.940 381.928, 173.500 383.979 C 220.573 386.549, 280.353 384.285, 331 378.014 C 339.525 376.959, 353.475 375.607, 362 375.010 C 426.591 370.489, 451.828 356.510, 462.213 319.500 C 464.312 312.019, 464.452 309.650, 464.367 283 C 464.147 214.519, 461.710 192.787, 451.222 165.778 C 446.891 154.626, 443.526 149.340, 436.088 141.999 C 420.250 126.370, 391.612 118.020, 343.435 114.986 C 334.671 114.434, 323.900 113.561, 319.500 113.045 C 310.513 111.992, 270.295 111.994, 247.500 113.048 M 222.344 179.989 C 214.469 181.646, 210.320 184.578, 205.500 191.895 C 202.384 196.626, 200.634 200.588, 199.876 204.631 C 198.470 212.129, 199.348 278.799, 200.974 287.994 C 203.247 300.846, 208.230 307.997, 218.351 312.927 C 225.457 316.389, 228.627 316.743, 238.529 315.180 C 254.135 312.716, 317.857 280.902, 331.446 268.791 C 347.322 254.640, 346.850 235.169, 330.300 221.518 C 323.292 215.737, 309.532 208.520, 293.155 202.036 C 287.466 199.784, 276.216 194.847, 268.155 191.065 C 260.095 187.284, 250.522 183.281, 246.883 182.169 C 238.970 179.751, 228.074 178.783, 222.344 179.989 M 407 454.008 C 386.762 460.707, 357.517 467.978, 330.500 473.025 C 316.845 475.576, 316.051 475.835, 321.644 475.914 C 334.630 476.096, 361.754 472.341, 379.500 467.904 C 401.339 462.444, 417 455.772, 417 451.927 C 417 450.710, 416.895 450.732, 407 454.008" stroke="none" fill="#fbfbfb" fill-rule="evenodd"/></svg>