<svg width="128" height="126" viewBox="0 0 128 126" fill="none" xmlns="http://www.w3.org/2000/svg">
<path d="M41.4622 119.711L40.0983 119.052L40.6802 109.667L40.5696 109.614L33.5738 115.896L32.2099 115.236L36.7744 105.8L37.8433 106.317L34.3754 113.486L34.4676 113.531L40.8844 107.788L41.9166 108.287L41.3976 116.883L41.4897 116.927L44.9576 109.758L46.0266 110.275L41.4622 119.711Z" fill="#E1251B"/>
<path d="M24.7428 109.495L31.4641 101.451L32.4382 102.265L25.7169 110.309L24.7428 109.495Z" fill="#E1251B"/>
<path d="M16.4288 96.5916C16.0562 96.9576 15.8902 97.4011 15.9309 97.9219C15.9716 98.4427 16.1861 98.9541 16.5746 99.456C16.8586 99.823 17.1665 100.098 17.4983 100.282C17.828 100.462 18.1562 100.549 18.483 100.542C18.8078 100.532 19.1024 100.425 19.3668 100.22C19.5881 100.049 19.7376 99.8493 19.8154 99.6208C19.8883 99.3918 19.9127 99.1528 19.8884 98.9041C19.8615 98.6574 19.8107 98.4162 19.7362 98.1805C19.6589 97.9469 19.581 97.7375 19.5024 97.5524L19.0775 96.535C18.9671 96.2753 18.8595 95.9746 18.7546 95.6328C18.6477 95.2884 18.5866 94.9279 18.5713 94.5514C18.5513 94.1743 18.6132 93.8027 18.7571 93.4368C18.9011 93.0708 19.1673 92.7374 19.5559 92.4367C20.0038 92.09 20.4995 91.8941 21.0428 91.849C21.584 91.8012 22.1345 91.9188 22.6944 92.2017C23.2522 92.482 23.7775 92.9405 24.2704 93.5773C24.7299 94.171 25.0319 94.7592 25.1766 95.3419C25.3192 95.922 25.3152 96.4687 25.1646 96.9822C25.012 97.493 24.7215 97.9401 24.2932 98.3233L23.4912 97.2871C23.7834 97.0179 23.961 96.7121 24.024 96.3699C24.0823 96.0271 24.0517 95.6754 23.9323 95.3147C23.808 94.9535 23.6185 94.6083 23.3637 94.2791C23.0671 93.8959 22.7388 93.5999 22.3787 93.391C22.0158 93.1843 21.6535 93.0785 21.2917 93.0738C20.9272 93.0711 20.5938 93.1867 20.2916 93.4206C20.0163 93.6337 19.8519 93.8839 19.7982 94.1714C19.7446 94.4589 19.7609 94.7699 19.8472 95.1044C19.9335 95.4389 20.0489 95.7832 20.1935 96.1373L20.6916 97.3828C21.0066 98.1746 21.1377 98.893 21.0846 99.5381C21.0316 100.183 20.7258 100.722 20.1673 101.154C19.7031 101.514 19.2012 101.701 18.6616 101.718C18.1172 101.733 17.5842 101.602 17.0626 101.324C16.5362 101.046 16.0684 100.642 15.659 100.113C15.2455 99.5786 14.9737 99.0295 14.8437 98.4656C14.7109 97.9039 14.7152 97.3742 14.8564 96.8765C14.9956 96.3761 15.2691 95.9574 15.6769 95.6201L16.4288 96.5916Z" fill="#E1251B"/>
<path d="M18.9387 85.4241L19.4489 86.6532L8.29175 87.1174L7.78936 85.9072L15.995 78.3332L16.5052 79.5623L9.55649 85.8387L9.58788 85.9143L18.9387 85.4241ZM14.9685 86.5403L12.9118 81.5861L13.9518 81.1544L16.0085 86.1085L14.9685 86.5403Z" fill="#E1251B"/>
<path d="M14.783 72.8559L4.38669 74.1972L4.22427 72.9383L9.38182 72.2729L9.36611 72.151L3.606 68.1462L3.39379 66.5015L8.64758 70.262L13.7901 65.1602L13.9866 66.6831L9.62027 70.9209L11.2499 72.0318L14.6206 71.597L14.783 72.8559Z" fill="#E1251B"/>
<path d="M16.3805 48.4833L15.3825 51.5603L5.41135 48.3261L6.45363 45.1127C6.76737 44.1455 7.23545 43.3826 7.85788 42.8239C8.47707 42.2643 9.21779 41.9216 10.08 41.7959C10.9391 41.6692 11.8846 41.7732 12.9168 42.108C13.9555 42.4449 14.7897 42.92 15.4194 43.5332C16.0459 44.1454 16.4457 44.8705 16.6186 45.7086C16.7884 46.5457 16.709 47.4706 16.3805 48.4833ZM14.703 50.0054L15.2841 48.2138C15.5515 47.3893 15.6141 46.6545 15.4718 46.0093C15.3296 45.3641 15.0079 44.8131 14.5067 44.3564C14.0055 43.8997 13.3492 43.5397 12.5378 43.2765C11.7328 43.0154 10.9972 42.9221 10.3309 42.9965C9.66142 43.0699 9.08611 43.3174 8.60501 43.7389C8.12066 44.1593 7.75216 44.7591 7.49948 45.5381L6.87411 47.4661L14.703 50.0054Z" fill="#E1251B"/>
<path d="M21.0849 28.6507C21.9983 29.2735 22.6752 29.9767 23.1156 30.7603C23.556 31.5438 23.7606 32.3462 23.7293 33.1674C23.698 33.9885 23.4305 34.7685 22.9268 35.5071C22.4231 36.2457 21.7948 36.7796 21.0417 37.1086C20.2887 37.4377 19.4671 37.5403 18.5768 37.4164C17.6865 37.2926 16.7847 36.9192 15.8713 36.2964C14.9579 35.6735 14.2809 34.9703 13.8405 34.1868C13.4001 33.4032 13.1956 32.6009 13.2269 31.7797C13.2582 30.9585 13.5257 30.1786 14.0294 29.4399C14.533 28.7013 15.1614 28.1675 15.9144 27.8384C16.6675 27.5094 17.4891 27.4068 18.3794 27.5306C19.2696 27.6544 20.1715 28.0278 21.0849 28.6507ZM20.3928 29.6656C19.6429 29.1542 18.9244 28.8481 18.2374 28.7472C17.5523 28.6435 16.9321 28.7141 16.3769 28.9591C15.8235 29.2013 15.368 29.5846 15.0105 30.1089C14.6529 30.6333 14.4615 31.1987 14.4362 31.8051C14.4128 32.4087 14.5736 33.0118 14.9184 33.6146C15.2651 34.2144 15.8134 34.7701 16.5633 35.2814C17.3133 35.7928 18.0308 36.1003 18.7158 36.2041C19.4029 36.3049 20.023 36.2343 20.5764 35.9921C21.1317 35.7471 21.5881 35.3625 21.9457 34.8381C22.3033 34.3137 22.4937 33.7497 22.5171 33.1461C22.5424 32.5397 22.3816 31.9366 22.0349 31.3367C21.6901 30.734 21.1427 30.1769 20.3928 29.6656Z" fill="#E1251B"/>
<path d="M25.8487 16.8611L26.8137 16.0364L31.6818 21.733C32.1163 22.2415 32.3921 22.7532 32.509 23.2682C32.6259 23.7832 32.5932 24.278 32.4107 24.7526C32.2283 25.2271 31.9062 25.6617 31.4445 26.0563C31.0087 26.4288 30.5532 26.6811 30.0782 26.8132C29.6009 26.9428 29.1387 26.9428 28.6914 26.8134C28.2441 26.6839 27.8464 26.4156 27.4984 26.0083L28.4478 25.1969C28.6407 25.4226 28.865 25.5721 29.1206 25.6454C29.3766 25.7139 29.6431 25.7106 29.9201 25.6355C30.197 25.5604 30.4613 25.4153 30.7129 25.2003C30.9905 24.9631 31.1767 24.703 31.2715 24.42C31.3663 24.137 31.3678 23.8394 31.2761 23.5273C31.1848 23.2103 30.9984 22.8871 30.7168 22.5577L25.8487 16.8611Z" fill="#E1251B"/>
<path d="M44.6365 11.9238C45.1093 12.9231 45.3376 13.8721 45.3211 14.7708C45.3047 15.6695 45.0753 16.4651 44.6329 17.1576C44.1905 17.8502 43.5652 18.3876 42.7571 18.77C41.949 19.1524 41.1369 19.295 40.3209 19.198C39.5048 19.1009 38.7442 18.7738 38.0388 18.2166C37.3335 17.6595 36.7444 16.8812 36.2716 15.8819C35.7987 14.8825 35.5705 13.9335 35.5869 13.0348C35.6034 12.1362 35.8328 11.3406 36.2752 10.648C36.7176 9.95547 37.3428 9.41801 38.151 9.03563C38.9591 8.65324 39.7711 8.51058 40.5872 8.60765C41.4032 8.70472 42.1639 9.03184 42.8692 9.589C43.5745 10.1462 44.1636 10.9244 44.6365 11.9238ZM43.5261 12.4492C43.1379 11.6287 42.6729 11.0012 42.1314 10.5667C41.5928 10.1307 41.0221 9.87787 40.4192 9.80832C39.8193 9.73731 39.2326 9.83754 38.6589 10.109C38.0852 10.3805 37.634 10.7714 37.3055 11.2817C36.98 11.7905 36.8136 12.3921 36.8061 13.0865C36.8018 13.7793 36.9937 14.536 37.382 15.3565C37.7702 16.1769 38.2335 16.8051 38.7721 17.2412C39.3137 17.6757 39.8844 17.9285 40.4842 17.9995C41.0872 18.069 41.6755 17.9681 42.2492 17.6966C42.8229 17.4252 43.2725 17.035 43.5979 16.5261C43.9265 16.0158 44.0929 15.4142 44.0973 14.7214C44.1047 14.027 43.9143 13.2696 43.5261 12.4492Z" fill="#E1251B"/>
<path d="M64.0831 12.0755C63.6702 12.0755 63.2931 11.9748 62.9519 11.7735C62.6107 11.5688 62.3377 11.2958 62.133 10.9545C61.9316 10.6133 61.831 10.2363 61.831 9.82337C61.831 9.40708 61.9316 9.03002 62.133 8.6922C62.3377 8.35098 62.6107 8.0797 62.9519 7.87838C63.2931 7.67364 63.6702 7.57127 64.0831 7.57127C64.4994 7.57127 64.8764 7.67364 65.2143 7.87838C65.5555 8.0797 65.8268 8.35098 66.0281 8.6922C66.2328 9.03002 66.3352 9.40708 66.3352 9.82337C66.3352 10.2363 66.2328 10.6133 66.0281 10.9545C65.8268 11.2958 65.5555 11.5688 65.2143 11.7735C64.8764 11.9748 64.4994 12.0755 64.0831 12.0755Z" fill="#E1251B"/>
<path d="M64.0831 121.943C63.6702 121.943 63.2931 121.842 62.9519 121.641C62.6107 121.436 62.3377 121.163 62.133 120.822C61.9316 120.481 61.831 120.103 61.831 119.691C61.831 119.274 61.9316 118.897 62.133 118.559C62.3377 118.218 62.6107 117.947 62.9519 117.746C63.2931 117.541 63.6702 117.438 64.0831 117.438C64.4994 117.438 64.8764 117.541 65.2143 117.746C65.5555 117.947 65.8268 118.218 66.0281 118.559C66.2328 118.897 66.3352 119.274 66.3352 119.691C66.3352 120.103 66.2328 120.481 66.0281 120.822C65.8268 121.163 65.5555 121.436 65.2143 121.641C64.8764 121.842 64.4994 121.943 64.0831 121.943Z" fill="#E1251B"/>
<path d="M85.9218 7.61621L87.2848 8.27764L86.6911 17.6612L86.8016 17.7148L93.8054 11.4418L95.1684 12.1032L90.592 21.534L89.5237 21.0156L93.0007 13.8504L92.9086 13.8057L86.4845 19.5408L85.453 19.0402L85.9828 10.4449L85.8907 10.4002L82.4138 17.5654L81.3454 17.047L85.9218 7.61621Z" fill="#E1251B"/>
<path d="M102.629 17.8535L95.8972 25.8891L94.9241 25.0739L101.656 17.0384L102.629 17.8535Z" fill="#E1251B"/>
<path d="M110.928 30.7671C111.301 30.4015 111.467 29.9583 111.427 29.4374C111.387 28.9165 111.173 28.4049 110.785 27.9024C110.502 27.5351 110.194 27.2595 109.863 27.0758C109.533 26.8947 109.205 26.8075 108.878 26.8141C108.554 26.8234 108.259 26.9302 107.994 27.1345C107.773 27.3055 107.623 27.5052 107.545 27.7335C107.472 27.9625 107.447 28.2014 107.471 28.4502C107.498 28.6969 107.548 28.9381 107.622 29.1739C107.699 29.4077 107.777 29.6171 107.855 29.8024L108.279 30.8203C108.389 31.0801 108.496 31.381 108.601 31.7229C108.707 32.0674 108.768 32.428 108.782 32.8045C108.802 33.1817 108.74 33.5532 108.595 33.9189C108.451 34.2847 108.184 34.6178 107.795 34.918C107.347 35.2642 106.851 35.4594 106.308 35.5038C105.766 35.5509 105.216 35.4327 104.656 35.149C104.099 34.8681 103.574 34.4088 103.082 33.7714C102.623 33.1771 102.322 32.5886 102.178 32.0056C102.036 31.4254 102.041 30.8787 102.192 30.3654C102.346 29.8547 102.637 29.4081 103.065 29.0254L103.866 30.0626C103.574 30.3315 103.396 30.637 103.332 30.9791C103.273 31.3219 103.304 31.6737 103.423 32.0344C103.546 32.3958 103.735 32.7413 103.99 33.0708C104.286 33.4543 104.614 33.7508 104.974 33.9601C105.336 34.1673 105.698 34.2735 106.06 34.2787C106.425 34.2819 106.758 34.1666 107.061 33.9331C107.336 33.7204 107.501 33.4704 107.555 33.183C107.609 32.8956 107.593 32.5846 107.507 32.25C107.421 31.9153 107.306 31.5709 107.162 31.2166L106.666 29.9704C106.352 29.1783 106.222 28.4597 106.275 27.8147C106.329 27.1696 106.636 26.6313 107.195 26.1997C107.66 25.841 108.162 25.6538 108.701 25.6382C109.246 25.6231 109.779 25.7549 110.3 26.0336C110.826 26.313 111.293 26.7174 111.702 27.2468C112.115 27.7816 112.386 28.331 112.515 28.895C112.647 29.4569 112.642 29.9866 112.5 30.4841C112.361 30.9843 112.087 31.4028 111.678 31.7395L110.928 30.7671Z" fill="#E1251B"/>
<path d="M108.403 41.9315L107.894 40.7017L119.052 40.2516L119.553 41.4624L111.338 49.0261L110.829 47.7963L117.786 41.5287L117.755 41.4531L108.403 41.9315ZM112.375 40.8203L114.425 45.7771L113.385 46.2075L111.334 41.2508L112.375 40.8203Z" fill="#E1251B"/>
<path d="M112.542 54.5057L122.94 53.1775L123.101 54.4366L117.943 55.0955L117.958 55.2174L123.713 59.2295L123.923 60.8745L118.674 57.1073L113.525 62.2026L113.331 60.6795L117.703 56.4472L116.074 55.3342L112.703 55.7648L112.542 54.5057Z" fill="#E1251B"/>
<path d="M110.914 78.876L111.916 75.8003L121.883 79.0471L120.837 82.2591C120.522 83.226 120.053 83.9883 119.43 84.5462C118.81 85.105 118.069 85.4468 117.206 85.5714C116.347 85.697 115.402 85.5918 114.37 85.2557C113.332 84.9175 112.498 84.4414 111.869 83.8274C111.244 83.2144 110.845 82.4887 110.673 81.6504C110.504 80.8131 110.585 79.8883 110.914 78.876ZM112.594 77.356L112.011 79.147C111.742 79.9711 111.679 80.7058 111.82 81.3512C111.961 81.9966 112.282 82.548 112.783 83.0053C113.284 83.4627 113.939 83.8235 114.751 84.0877C115.555 84.3498 116.291 84.4441 116.957 84.3704C117.627 84.2979 118.202 84.0512 118.684 83.6303C119.169 83.2104 119.538 82.6112 119.792 81.8325L120.42 79.9053L112.594 77.356Z" fill="#E1251B"/>
<path d="M106.185 98.7026C105.273 98.0786 104.597 97.3745 104.157 96.5904C103.718 95.8063 103.514 95.0037 103.547 94.1826C103.579 93.3614 103.847 92.5819 104.352 91.8439C104.857 91.1059 105.486 90.5728 106.239 90.2447C106.993 89.9166 107.814 89.8151 108.704 89.94C109.594 90.065 110.496 90.4395 111.408 91.0635C112.321 91.6875 112.997 92.3916 113.437 93.1757C113.876 93.9598 114.08 94.7624 114.047 95.5835C114.015 96.4047 113.746 97.1843 113.242 97.9223C112.737 98.6603 112.108 99.1933 111.355 99.5214C110.601 99.8495 109.779 99.9511 108.889 99.8261C107.999 99.7011 107.098 99.3266 106.185 98.7026ZM106.879 97.6886C107.628 98.2009 108.346 98.5079 109.033 98.6097C109.718 98.7143 110.338 98.6444 110.894 98.4001C111.447 98.1586 111.903 97.7759 112.261 97.252C112.62 96.7281 112.812 96.163 112.838 95.5566C112.862 94.953 112.702 94.3497 112.358 93.7465C112.012 93.1462 111.464 92.5899 110.715 92.0776C109.966 91.5652 109.249 91.2568 108.564 91.1522C107.877 91.0505 107.257 91.1203 106.703 91.3618C106.147 91.6061 105.69 91.9902 105.332 92.5141C104.974 93.038 104.783 93.6018 104.759 94.2053C104.733 94.8117 104.893 95.4151 105.239 96.0154C105.583 96.6185 106.129 97.1763 106.879 97.6886Z" fill="#E1251B"/>
<path d="M101.405 110.486L100.439 111.309L95.5782 105.607C95.1444 105.098 94.8693 104.586 94.753 104.07C94.6368 103.555 94.6701 103.061 94.8532 102.586C95.0362 102.112 95.3588 101.678 95.8211 101.284C96.2574 100.912 96.7131 100.66 97.1883 100.528C97.6658 100.399 98.128 100.4 98.5751 100.53C99.0222 100.66 99.4196 100.929 99.7671 101.337L98.8166 102.147C98.6241 101.921 98.4 101.771 98.1444 101.697C97.8885 101.629 97.622 101.632 97.345 101.706C97.0679 101.781 96.8034 101.926 96.5515 102.141C96.2737 102.377 96.0872 102.637 95.992 102.92C95.8969 103.203 95.8949 103.501 95.9862 103.813C96.0771 104.13 96.2632 104.453 96.5443 104.783L101.405 110.486Z" fill="#E1251B"/>
<path d="M82.6112 115.399C82.1396 114.399 81.9126 113.45 81.9302 112.551C81.9478 111.653 82.1782 110.857 82.6215 110.165C83.0648 109.473 83.6907 108.937 84.4993 108.555C85.3079 108.174 86.1201 108.032 86.936 108.131C87.752 108.229 88.5122 108.557 89.2168 109.115C89.9214 109.673 90.5095 110.452 90.9811 111.452C91.4528 112.452 91.6798 113.401 91.6622 114.3C91.6446 115.198 91.4142 115.994 90.9709 116.686C90.5276 117.378 89.9017 117.914 89.0931 118.296C88.2845 118.677 87.4723 118.819 86.6563 118.721C85.8404 118.622 85.0802 118.294 84.3756 117.736C83.671 117.178 83.0829 116.399 82.6112 115.399ZM83.7223 114.875C84.1095 115.696 84.5736 116.324 85.1146 116.76C85.6526 117.196 86.223 117.45 86.8259 117.52C87.4256 117.592 88.0125 117.492 88.5866 117.222C89.1606 116.951 89.6122 116.561 89.9414 116.051C90.2675 115.542 90.4347 114.941 90.443 114.246C90.4483 113.554 90.2573 112.797 89.8701 111.976C89.4829 111.155 89.0203 110.526 88.4824 110.089C87.9413 109.654 87.3709 109.401 86.7712 109.329C86.1683 109.259 85.5799 109.359 85.0058 109.629C84.4318 109.9 83.9817 110.29 83.6556 110.798C83.3264 111.308 83.1592 111.91 83.154 112.602C83.1457 113.297 83.3351 114.054 83.7223 114.875Z" fill="#E1251B"/>
</svg>
