<svg width="248" height="114" viewBox="0 0 248 114" fill="none" xmlns="http://www.w3.org/2000/svg">
<path d="M2 44.5773C10.3416 32.8614 21.6863 26.075 34.0987 18.8489C48.2136 10.6316 63.0171 2.24425 79.8271 2.00938C104.853 1.65972 124.664 11.0892 140.667 30.0588C152.332 43.8874 157.039 61.6867 145.012 77.0711C137.445 86.7512 119.869 94.6139 108.864 85.8612C97.9747 77.2003 95.2239 59.8583 104.518 49.1205C115.13 36.8609 136.034 37.7128 150.346 40.1329C174.441 44.2074 196.135 54.8613 214.741 70.5526C222.605 77.1852 229.85 84.6309 235.827 93.0217C239.836 98.6491 240.471 102.704 242.889 108.577" stroke="#E1251B" stroke-width="3" stroke-linecap="round"/>
<path d="M213.111 85.5772C215.172 84.2037 235.772 105.326 238.296 107.404C244.137 112.212 246.289 114.086 245.803 105.923C245.557 101.796 242.463 65.1419 246 66.9106" stroke="#E1251B" stroke-width="3" stroke-linecap="round"/>
</svg>
