<svg width="360" height="252" viewBox="0 0 360 252" fill="none" xmlns="http://www.w3.org/2000/svg">
<rect width="360" height="252" fill="black"/>
<mask id="mask0_1_25634" style="mask-type:alpha" maskUnits="userSpaceOnUse" x="312" y="86" width="32" height="24">
<path d="M335.851 108.483C335.497 108.701 335.088 108.813 334.731 109.02C334.667 109.057 334.442 109.027 334.417 109.034C333.997 109.085 333.649 108.418 333.508 108.117C333.247 107.551 332.994 106.979 332.711 106.417C332.558 106.114 332.403 105.808 332.3 105.489C332.163 105.062 332.206 104.639 332.456 104.255C332.56 104.097 332.73 104.031 332.892 103.952C333.104 103.849 333.307 103.728 333.501 103.593C333.726 103.435 333.941 103.225 334.195 103.117C334.511 102.983 334.824 102.797 335.153 102.699C335.555 102.579 335.905 102.428 336.27 102.203C336.662 101.961 337.054 101.703 337.477 101.518C337.638 101.448 337.801 101.411 337.952 101.313C338.188 101.157 338.412 100.982 338.657 100.84C338.942 100.67 339.262 100.608 339.561 100.467C339.908 100.305 340.251 100.172 340.61 100.039C340.863 99.9459 341.144 99.7957 341.423 99.8332C341.771 99.8809 341.997 100.288 342.17 100.553C342.318 100.769 342.392 101.026 342.558 101.246C342.679 101.404 342.805 101.563 342.946 101.7C343.195 101.946 343.381 102.219 343.518 102.537C343.588 102.696 343.655 102.863 343.769 102.997C343.929 103.184 343.929 103.603 343.893 103.83C343.85 104.098 343.734 104.174 343.501 104.327C342.88 104.735 342.166 104.967 341.516 105.323C341.124 105.54 340.808 105.854 340.434 106.095C340.295 106.183 340.198 106.271 340.041 106.321C339.804 106.399 339.581 106.497 339.362 106.618C338.806 106.921 338.191 107.127 337.654 107.453C337.463 107.569 337.279 107.702 337.09 107.821C336.898 107.941 336.699 108.016 336.499 108.124C336.281 108.242 336.063 108.361 335.851 108.483Z" fill="black"/>
<path d="M336.212 107.58C336.066 107.653 335.954 107.788 335.782 107.822C335.307 107.916 334.897 108.173 334.448 108.325C334.402 108.312 334.357 108.305 334.318 108.281C334.019 108.093 333.723 107.497 333.631 107.166C333.482 106.623 333.254 106.112 332.982 105.62C332.863 105.406 332.874 105.19 332.977 104.985C333.115 104.705 333.294 104.463 333.59 104.336C333.689 104.289 333.787 104.232 333.879 104.17C334.456 103.817 335.017 103.433 335.622 103.114C335.656 103.098 335.686 103.077 335.713 103.06C336.005 102.86 336.311 102.693 336.666 102.637C336.742 102.624 336.805 102.583 336.869 102.546C337.303 102.273 337.773 102.059 338.2 101.771C338.459 101.59 338.814 101.564 339.028 101.296C339.065 101.25 339.124 101.251 339.178 101.242C339.431 101.198 339.687 101.144 339.925 101.044C340.3 100.885 340.665 100.681 341.093 100.695C341.106 100.697 341.115 100.692 341.125 100.688C341.278 100.639 341.429 100.662 341.541 100.767C341.739 100.954 341.991 101.094 342.142 101.325C342.305 101.588 342.519 101.796 342.733 102.012C342.965 102.259 343.071 102.56 343.127 102.878C343.156 103.051 343.157 103.226 343.215 103.391C343.282 103.559 343.223 103.668 343.107 103.785C342.864 104.04 342.586 104.256 342.3 104.444C342.138 104.548 342.003 104.694 341.815 104.758C341.285 104.944 340.811 105.257 340.321 105.529C339.803 105.806 339.267 106.046 338.751 106.327C338.283 106.587 337.801 106.831 337.314 107.036C336.983 107.179 336.738 107.474 336.349 107.493C336.302 107.496 336.26 107.558 336.212 107.58Z" fill="#E2231A"/>
<path d="M338.047 90.7512C337.964 90.5955 337.86 90.4478 337.72 90.2538C337.429 89.8473 337.299 89.4355 337.147 88.9852C336.83 88.0502 335.82 85.9734 334.567 86.3122C333.976 86.4725 333.417 86.9189 332.853 87.1832C332.117 87.5284 331.227 87.812 330.561 88.2831C330.419 88.3733 330.377 88.4794 330.409 88.6119C330.523 89.066 330.425 89.5261 330.626 89.9634C330.708 90.1446 330.83 90.305 330.905 90.4899C330.994 90.7101 331.009 90.956 331.112 91.1719C331.233 91.4242 331.328 91.6816 331.446 91.9348C331.755 92.5881 332.06 93.2433 332.367 93.8994C332.48 94.1411 332.585 94.3893 332.706 94.6274C332.802 94.8137 332.94 94.9272 333.044 95.0985C333.306 95.5346 333.298 96.0812 333.514 96.5417C333.65 96.8314 333.665 97.1142 333.768 97.4145C333.98 98.0265 334.383 98.5419 334.638 99.1313C334.782 99.4667 334.895 99.8041 335.08 100.123C335.313 100.526 335.492 101.038 336.065 100.931C336.461 100.858 336.743 100.506 337.138 100.44C337.522 100.377 337.929 100.327 338.273 100.107C338.573 99.9176 338.814 99.5892 339.16 99.4691C339.468 99.3622 339.953 99.4181 340.151 99.1056C340.406 98.7027 340.37 98.0553 340.217 97.6193C340.06 97.1755 339.983 96.6901 339.82 96.2377C339.624 95.6905 339.6 95.1497 339.474 94.591C339.39 94.2259 339.301 93.872 339.153 93.527C339.008 93.1859 338.778 92.8862 338.634 92.5442C338.467 92.1476 338.341 91.6685 338.235 91.2573C338.183 91.0475 338.124 90.8953 338.047 90.7512Z" fill="black"/>
<path d="M332.456 97.3017C332.454 97.2978 332.45 97.2949 332.447 97.2891C331.94 96.2213 331.045 93.7627 331.014 93.6861C330.839 93.2883 330.685 92.8834 330.465 92.5138C330.327 92.281 330.186 92.0547 330.107 91.7996C330.089 91.7375 330.047 91.6824 330.02 91.6249C329.892 91.3524 329.687 91.0979 329.465 90.8951C329.262 90.7071 329.183 90.5828 329.083 90.3139C328.801 89.5617 328.5 89.01 327.643 88.92C327.026 88.856 326.387 89.1904 325.86 89.468C325.435 89.6903 324.95 89.8382 324.544 90.0894C323.582 90.6829 323.216 91.376 323.558 92.4652C323.679 92.8531 323.951 93.1983 324.209 93.5054C324.506 93.8579 324.666 94.3349 324.861 94.7513C325.07 95.1964 325.2 95.575 325.299 96.0552C325.51 97.0842 326.115 97.9754 326.509 98.937C326.639 99.255 326.699 99.5873 326.846 99.9C326.984 100.195 327.127 100.491 327.264 100.787C327.532 101.369 327.692 102.236 328.158 102.696C328.479 103.012 328.608 103.417 328.792 103.815C328.878 103.997 329.021 104.162 329.188 104.27C329.337 104.367 329.405 104.492 329.588 104.483C329.795 104.475 330.009 104.319 330.186 104.226C330.562 104.031 330.953 103.872 331.299 103.627C331.53 103.461 331.793 103.338 332.043 103.197C332.232 103.09 332.424 102.976 332.597 102.837C332.838 102.642 333.129 102.513 333.354 102.295C333.628 102.045 333.694 101.738 333.643 101.378C333.596 101.044 333.366 100.797 333.294 100.484C333.285 100.425 333.248 100.372 333.257 100.321C333.312 99.839 333.056 99.4164 333.017 98.95C333.009 98.8721 332.959 98.7902 332.916 98.7237C332.833 98.606 332.811 98.4756 332.766 98.3446C332.656 97.9987 332.554 97.6511 332.456 97.3017Z" fill="black"/>
<path d="M330.788 103.158C330.968 103.069 331.148 102.968 331.327 102.856C331.53 102.731 331.768 102.669 331.979 102.555C332.198 102.439 332.37 102.255 332.59 102.141C332.686 102.091 332.779 102.094 332.861 102.011C333.003 101.87 333.013 101.65 333.004 101.462C332.979 101.02 332.776 100.617 332.701 100.186C332.616 99.6903 332.415 99.307 332.187 98.8737C332.001 98.523 331.953 98.045 331.862 97.6617C331.749 97.1906 331.563 96.7281 331.493 96.2458C331.462 96.045 331.309 95.8876 331.232 95.7036C331.102 95.3506 330.94 95.0052 330.775 94.6684C330.592 94.2865 330.403 93.9092 330.223 93.5255C330.032 93.1074 329.791 92.7126 329.592 92.3028C329.466 92.0342 329.31 91.7867 329.131 91.5547C329.05 91.4408 328.966 91.3277 328.904 91.2048C328.815 91.0244 328.69 90.8724 328.538 90.7586C328.349 90.6135 328.202 90.4249 327.993 90.303C327.875 90.2365 327.765 90.1522 327.68 90.0354C327.581 89.8831 327.433 89.8585 327.266 89.9253C326.867 90.0839 326.46 90.2375 326.066 90.4057C325.683 90.5618 325.304 90.7228 324.905 90.8282C324.852 90.8411 324.8 90.8654 324.757 90.8974C324.622 90.9841 324.479 91.0392 324.326 91.0874C324.025 91.1774 323.896 91.4177 324.014 91.7136C324.1 91.9233 324.176 92.1452 324.305 92.3352C324.276 92.4472 324.349 92.5296 324.386 92.6178C324.507 92.9118 324.742 93.1273 324.922 93.3773C324.952 93.4151 325.103 93.5895 325.138 93.6624C325.247 93.8965 325.326 94.1402 325.351 94.4024C325.406 94.9033 325.551 95.3894 325.77 95.83C326.039 96.38 326.219 96.9741 326.583 97.48C326.664 97.5939 326.692 97.7378 326.713 97.8682C326.763 98.1604 326.891 98.4328 326.906 98.7299C326.913 98.8201 326.952 98.9121 326.994 98.9928C327.147 99.3075 327.24 99.6426 327.35 99.9771C327.387 100.081 327.419 100.184 327.509 100.266C327.542 100.301 327.575 100.356 327.586 100.405C327.678 100.752 327.843 101.054 328.091 101.308C328.337 101.558 328.371 102.016 328.604 102.298C328.748 102.471 328.929 102.607 329.06 102.796C329.26 103.083 329.385 103.535 329.772 103.482C330.132 103.433 330.466 103.316 330.788 103.158Z" fill="#E2231A"/>
<path d="M322.337 106.56C322.063 106.478 322.094 106.16 321.966 105.892C321.86 105.672 321.689 105.617 321.521 105.448C321.123 105.052 320.939 104.499 320.628 104.041C320.152 103.34 319.902 102.577 319.633 101.784C319.469 101.278 319.246 100.793 319.012 100.313C318.961 100.204 318.915 100.096 318.886 99.9741C318.786 99.5366 318.708 99.0938 318.54 98.6763C318.512 98.6074 318.512 98.5325 318.494 98.459C318.433 98.1134 318.376 97.7679 318.215 97.4577C317.967 96.9794 317.821 96.4629 317.637 95.9663C317.546 95.7166 317.453 95.4678 317.348 95.2244C317.281 95.0663 317.097 94.8275 317.084 94.6603C317.069 94.459 317.324 94.1129 317.472 94.0058C317.873 93.7174 318.28 93.4027 318.729 93.1923C319.09 93.0233 319.449 92.9974 319.835 92.866C320.193 92.7424 320.664 92.7089 321.039 92.6691C321.447 92.6274 321.907 92.6154 322.299 92.778C322.811 92.99 323.061 93.785 323.237 94.2643C323.337 94.5379 323.446 94.8146 323.585 95.0769C323.708 95.3046 323.799 95.543 323.825 95.8043C323.84 95.9307 323.871 96.0566 323.937 96.173C324.055 96.3636 324.112 96.5822 324.172 96.7931C324.213 96.9421 324.258 97.0967 324.342 97.2278C324.531 97.5255 324.638 97.859 324.777 98.18C324.886 98.4378 325.037 98.6643 325.159 98.911C325.354 99.316 325.531 99.729 325.704 100.144C325.808 100.399 325.921 100.655 326.014 100.909C326.132 101.256 326.231 101.612 326.444 101.922C326.476 101.965 326.504 102.015 326.509 102.071C326.562 102.748 327.19 103.285 327.193 103.969C327.193 104.399 326.665 104.551 326.366 104.712C325.994 104.912 325.719 105.233 325.355 105.436C325.226 105.509 325.077 105.55 324.948 105.625C324.719 105.755 324.565 106.01 324.328 106.124C324.102 106.232 323.83 106.249 323.597 106.351C323.233 106.51 322.826 106.624 322.42 106.577C322.388 106.574 322.362 106.567 322.337 106.56Z" fill="black"/>
<path d="M317.713 109.19C317.192 109.456 316.74 109.635 316.204 109.306C316.004 109.182 315.897 108.979 315.771 108.786C315.696 108.671 315.642 108.554 315.553 108.445C315.321 108.159 315.126 107.873 315.015 107.511C314.971 107.368 314.937 107.22 314.867 107.096C314.655 106.704 314.473 106.305 314.258 105.922C313.792 105.101 313.532 104.212 313.282 103.314C313.15 102.857 313.008 102.404 312.761 101.993C312.717 101.908 312.673 101.83 312.673 101.73C312.684 101.304 312.605 100.886 312.476 100.486C312.336 100.037 312.487 99.7745 312.828 99.5045C313.077 99.3014 313.347 99.1282 313.625 98.9627C314.384 98.5252 315.194 98.2861 316.054 98.2037C316.277 98.181 316.488 98.2574 316.633 98.4166C316.988 98.8237 317.311 99.2546 317.57 99.7417C318.133 100.809 318.457 101.958 318.815 103.098C318.928 103.469 319.027 103.855 319.177 104.211C319.295 104.486 319.301 104.843 319.477 105.086C319.637 105.301 319.795 105.515 319.874 105.782C319.957 106.075 319.991 106.392 320.025 106.694C320.05 106.928 320.023 107.184 320.069 107.417C320.111 107.627 320.196 107.737 320.012 107.914C319.821 108.1 319.555 108.053 319.322 108.135C319.102 108.21 319.01 108.388 318.835 108.522C318.483 108.79 318.11 108.988 317.713 109.19Z" fill="black"/>
<path d="M337.249 99.9704C336.578 100.285 335.698 99.8949 335.395 99.2484C335.205 98.8436 335.025 98.4485 334.878 98.0306C334.714 97.562 334.686 97.0675 334.514 96.6006C334.191 95.7251 333.699 94.9164 333.262 94.092C332.844 93.3052 332.412 92.4942 332.26 91.625C332.21 91.3347 332.066 91.1471 331.901 90.9297C331.814 90.8137 331.723 90.6948 331.64 90.5515C331.258 89.8953 331.086 89.3886 331.13 89.0447C331.174 88.7179 331.395 88.46 331.788 88.2757C332.031 88.1616 332.304 88.0898 332.545 88.0286C332.636 88.0044 332.722 87.9829 332.798 87.9593C332.993 87.9007 333.19 87.8128 333.377 87.7276C333.862 87.5096 334.413 87.261 335.024 87.5268C335.417 87.698 335.678 88.0392 335.91 88.3398C335.975 88.424 336.038 88.5071 336.103 88.5817L336.156 88.6456C336.344 88.8665 336.537 89.0941 336.651 89.3918C336.715 89.5631 336.746 89.7383 336.774 89.9077C336.868 90.4598 337.19 90.9154 337.425 91.418C337.632 91.8593 337.743 92.2706 337.867 92.7363C338.004 93.2431 338.206 93.7335 338.353 94.2377C338.478 94.6636 338.6 95.079 338.791 95.481C338.935 95.7879 339.107 96.0956 339.195 96.4192C339.267 96.6759 339.29 96.9363 339.385 97.1822C339.646 97.8647 339.667 98.6197 338.925 98.9676C338.877 98.9901 338.678 99.0788 338.628 99.1022C338.566 99.131 338.504 99.1626 338.445 99.1971C338.293 99.2871 338.149 99.3896 337.997 99.4985C337.814 99.6284 337.627 99.763 337.42 99.8762C337.362 99.9155 337.303 99.9452 337.249 99.9704Z" fill="#E2231A"/>
<path d="M322.974 105.596C323.186 105.7 323.383 105.704 323.647 105.629C323.993 105.533 324.339 105.443 324.604 105.181C324.702 105.084 324.789 104.996 324.906 104.925C325.107 104.805 325.311 104.761 325.492 104.613C325.766 104.389 325.995 104.159 326.198 103.863C326.251 103.787 326.244 103.701 326.194 103.631C326.087 103.471 326.051 103.3 326.031 103.118C326.008 102.878 325.898 102.654 325.801 102.437C325.67 102.131 325.628 101.807 325.546 101.487C325.448 101.124 325.325 100.767 325.126 100.447C324.99 100.241 324.935 100.005 324.838 99.788C324.649 99.3501 324.375 98.9545 324.217 98.4974C324.108 98.1696 323.946 97.8593 323.808 97.5402C323.749 97.4041 323.708 97.2665 323.687 97.1172C323.67 96.9499 323.594 96.7983 323.519 96.6532C323.428 96.4689 323.366 96.2759 323.314 96.085C323.26 95.8998 323.191 95.7284 323.095 95.5581C322.968 95.3483 322.903 95.0983 322.842 94.8646C322.764 94.5432 322.548 94.2467 322.354 93.9868C322.216 93.8032 322.06 93.5348 321.82 93.4974C321.578 93.459 321.311 93.4788 321.058 93.4335C320.671 93.3667 320.409 93.4122 320.04 93.5478C319.693 93.6755 319.343 93.8581 319.035 94.0587C318.71 94.2694 318.306 94.4658 318.073 94.7878C317.938 94.9749 317.993 95.0919 318.033 95.3166C318.122 95.8316 318.071 96.3422 318.388 96.8042C318.494 96.9585 318.591 97.1307 318.626 97.3221C318.617 97.4318 318.689 97.5151 318.725 97.6033C318.795 97.7861 318.83 97.9803 318.871 98.1643C318.97 98.8483 319.122 99.5185 319.393 100.157C319.459 100.306 319.53 100.46 319.604 100.607C319.713 100.814 319.809 101.019 319.846 101.252C319.85 101.297 319.861 101.344 319.879 101.382C320.136 101.863 320.214 102.409 320.448 102.896C320.602 103.226 320.81 103.515 321.006 103.814C321.311 104.279 321.725 104.873 322.208 105.155C322.399 105.267 322.597 105.34 322.777 105.471C322.847 105.525 322.91 105.565 322.974 105.596Z" fill="#E2231A"/>
<path d="M318.201 108.178C318.299 108.156 318.388 108.067 318.449 107.978C318.497 107.899 318.566 107.838 318.649 107.8C318.678 107.786 318.72 107.771 318.738 107.746C318.912 107.403 319.183 107.107 319.221 106.703C319.227 106.632 319.207 106.579 319.187 106.521C319.136 106.352 319.199 106.173 319.164 106.014C319.099 105.694 319.015 105.38 318.873 105.077C318.695 104.699 318.526 104.303 318.467 103.886C318.413 103.481 318.265 103.106 318.13 102.734C318.057 102.541 318.008 102.337 317.945 102.144C317.741 101.564 317.607 100.962 317.311 100.415C317.057 99.9331 316.742 99.5071 316.408 99.0834C316.224 98.8513 315.963 98.838 315.729 98.8567C315.373 98.8874 314.993 98.8806 314.652 99.0008C314.327 99.1158 314.017 99.3079 313.703 99.4572C313.483 99.5625 313.404 99.6184 313.308 99.832C313.233 99.9979 313.129 100.14 313.048 100.302C312.866 100.666 313.121 101.127 313.28 101.46C313.414 101.741 313.609 102.007 313.694 102.309C313.755 102.529 313.685 102.753 313.726 102.972C313.773 103.222 313.935 103.434 314.001 103.679C314.085 103.983 314.122 104.301 314.217 104.603C314.338 104.993 314.514 105.367 314.687 105.737C314.802 105.982 314.902 106.24 315.044 106.468C315.129 106.604 315.218 106.735 315.305 106.865C315.499 107.154 315.619 107.471 315.776 107.78C315.866 107.957 316.003 108.071 316.142 108.207C316.275 108.336 316.433 108.569 316.633 108.592C316.772 108.609 316.966 108.527 317.099 108.493C317.273 108.449 317.442 108.395 317.615 108.35C317.814 108.296 318.005 108.218 318.201 108.178Z" fill="#E2231A"/>
</mask>
<g mask="url(#mask0_1_25634)">
<rect x="304.682" y="94.9563" width="38" height="30" transform="rotate(-25.1078 304.682 94.9563)" fill="#5F0F0B"/>
</g>
<mask id="mask1_1_25634" style="mask-type:alpha" maskUnits="userSpaceOnUse" x="162" y="17" width="30" height="23">
<path d="M180.424 38.9157C180.009 38.9284 179.599 38.8224 179.186 38.8247C179.112 38.825 178.932 38.6869 178.907 38.6806C178.516 38.5167 178.546 37.7645 178.573 37.433C178.628 36.8125 178.692 36.1907 178.727 35.5621C178.744 35.2234 178.762 34.8805 178.831 34.5524C178.924 34.1137 179.172 33.7683 179.58 33.5595C179.749 33.4734 179.929 33.501 180.109 33.5136C180.344 33.5286 180.58 33.5247 180.815 33.5036C181.09 33.4793 181.381 33.4033 181.654 33.4364C181.995 33.4772 182.359 33.4709 182.693 33.5493C183.102 33.6445 183.481 33.6884 183.909 33.6747C184.37 33.6593 184.838 33.6297 185.297 33.6802C185.472 33.6988 185.632 33.748 185.811 33.7373C186.093 33.72 186.375 33.6794 186.658 33.6771C186.99 33.6725 187.298 33.7764 187.627 33.8035C188.01 33.8348 188.373 33.8902 188.75 33.953C189.017 33.9983 189.335 34.0074 189.559 34.1788C189.837 34.393 189.83 34.858 189.849 35.1742C189.87 35.4352 189.806 35.6957 189.841 35.9686C189.868 36.1663 189.898 36.3665 189.952 36.5559C190.046 36.8931 190.072 37.2226 190.033 37.566C190.015 37.7388 189.99 37.9174 190.022 38.0901C190.068 38.332 189.86 38.6954 189.715 38.8749C189.545 39.0862 189.406 39.094 189.128 39.1115C188.387 39.157 187.651 39.003 186.911 38.989C186.463 38.982 186.032 39.0976 185.588 39.1207C185.424 39.1284 185.296 39.1562 185.135 39.1217C184.891 39.0719 184.648 39.0456 184.398 39.0421C183.765 39.0284 183.129 38.9018 182.501 38.9183C182.277 38.9233 182.052 38.9473 181.828 38.9566C181.602 38.9656 181.392 38.9314 181.165 38.9255C180.917 38.92 180.669 38.9145 180.424 38.9157Z" fill="black"/>
<path d="M181.186 38.3109C181.024 38.3018 180.859 38.3627 180.694 38.3066C180.234 38.152 179.75 38.1718 179.286 38.0805C179.252 38.0459 179.217 38.0174 179.194 37.9773C179.029 37.6661 179.068 37.0018 179.153 36.6687C179.293 36.1232 179.35 35.5666 179.358 35.0039C179.361 34.7597 179.478 34.578 179.669 34.4513C179.928 34.2769 180.203 34.155 180.523 34.1919C180.633 34.2009 180.746 34.1996 180.857 34.1917C181.533 34.1727 182.211 34.1179 182.893 34.142C182.931 34.1451 182.968 34.1418 183 34.1401C183.353 34.1117 183.701 34.119 184.037 34.2465C184.109 34.2737 184.184 34.2692 184.258 34.269C184.77 34.2472 185.285 34.2958 185.799 34.2572C186.113 34.2299 186.434 34.3838 186.753 34.2569C186.808 34.2359 186.859 34.2656 186.91 34.2847C187.152 34.3725 187.4 34.4525 187.657 34.4842C188.061 34.5322 188.48 34.5368 188.844 34.7623C188.854 34.7695 188.864 34.7704 188.875 34.7712C189.032 34.8053 189.151 34.9002 189.197 35.0464C189.275 35.3079 189.425 35.554 189.441 35.8296C189.451 36.1387 189.534 36.4261 189.612 36.7195C189.691 37.0491 189.634 37.3632 189.524 37.6667C189.463 37.8318 189.376 37.9841 189.345 38.1559C189.32 38.3345 189.215 38.4003 189.056 38.4446C188.718 38.5444 188.37 38.5945 188.028 38.6153C187.836 38.6251 187.646 38.6839 187.451 38.6466C186.899 38.5439 186.332 38.5803 185.772 38.5725C185.184 38.5562 184.6 38.4976 184.012 38.4855C183.477 38.4777 182.937 38.4504 182.413 38.3861C182.055 38.3461 181.696 38.4803 181.349 38.303C181.306 38.2824 181.239 38.3153 181.186 38.3109Z" fill="#E2231A"/>
<path d="M191.142 24.6194C191.148 24.4434 191.131 24.2634 191.106 24.0254C191.055 23.5281 191.147 23.1062 191.239 22.6397C191.429 21.671 191.584 19.3666 190.329 19.0383C189.736 18.8833 189.029 18.9932 188.409 18.9423C187.598 18.8757 186.685 18.6796 185.873 18.7575C185.704 18.7649 185.615 18.8363 185.577 18.967C185.451 19.418 185.137 19.7685 185.094 20.2475C185.075 20.4458 185.101 20.6457 185.074 20.8433C185.042 21.0787 184.933 21.2993 184.915 21.5381C184.895 21.817 184.849 22.0875 184.826 22.3662C184.769 23.0865 184.708 23.8063 184.649 24.5285C184.627 24.7946 184.594 25.0619 184.581 25.3286C184.572 25.5384 184.635 25.7051 184.64 25.9053C184.651 26.4143 184.372 26.8846 184.331 27.3914C184.305 27.7102 184.177 27.9634 184.118 28.2753C183.998 28.9116 184.091 29.5592 184.02 30.1974C183.977 30.5596 183.908 30.9089 183.91 31.2768C183.912 31.7426 183.813 32.2765 184.362 32.4683C184.743 32.6016 185.162 32.4362 185.538 32.5754C185.903 32.7117 186.281 32.8703 186.689 32.8506C187.043 32.835 187.416 32.6701 187.776 32.7379C188.096 32.7982 188.489 33.0877 188.816 32.9147C189.238 32.6921 189.528 32.1122 189.612 31.6578C189.697 31.1949 189.87 30.7351 189.954 30.2616C190.056 29.6896 190.304 29.2083 190.472 28.6608C190.58 28.302 190.679 27.9508 190.723 27.5781C190.766 27.2096 190.716 26.8356 190.761 26.4673C190.813 26.04 190.941 25.5616 191.054 25.1521C191.113 24.9444 191.137 24.7827 191.142 24.6194Z" fill="black"/>
<path d="M183.035 27.5252C183.035 27.5209 183.034 27.5165 183.034 27.5102C183.125 26.3314 183.57 23.7532 183.581 23.6712C183.627 23.2392 183.694 22.8111 183.687 22.381C183.684 22.1108 183.674 21.8442 183.731 21.5832C183.747 21.5208 183.738 21.452 183.743 21.3886C183.768 21.0888 183.715 20.7656 183.624 20.4797C183.542 20.2157 183.535 20.0684 183.581 19.7852C183.71 18.9923 183.723 18.3641 183.025 17.8604C182.521 17.498 181.801 17.4707 181.205 17.4495C180.726 17.4314 180.231 17.3185 179.754 17.3346C178.624 17.3715 177.963 17.7913 177.718 18.9064C177.63 19.3031 177.694 19.7378 177.766 20.1327C177.848 20.5858 177.75 21.0795 177.713 21.5377C177.672 22.0276 177.597 22.4211 177.444 22.8869C177.116 23.8845 177.198 24.9584 177.062 25.9889C177.017 26.3296 176.904 26.6477 176.876 26.9919C176.849 27.3171 176.826 27.6447 176.798 27.9697C176.741 28.6071 176.449 29.4399 176.625 30.0708C176.747 30.5038 176.657 30.9195 176.619 31.3564C176.603 31.557 176.645 31.7709 176.737 31.9485C176.817 32.1061 176.814 32.2482 176.977 32.3318C177.161 32.4276 177.425 32.3983 177.624 32.4061C178.048 32.4239 178.466 32.4795 178.888 32.4398C179.171 32.4098 179.46 32.4336 179.747 32.4359C179.964 32.4367 180.187 32.4338 180.407 32.3986C180.713 32.3494 181.029 32.3817 181.333 32.3046C181.695 32.2237 181.905 31.9902 182.039 31.6525C182.165 31.3397 182.088 31.0103 182.181 30.7033C182.203 30.6477 182.197 30.5835 182.23 30.5437C182.518 30.1527 182.505 29.6585 182.703 29.2347C182.735 29.1629 182.732 29.067 182.728 28.988C182.714 28.8445 182.761 28.7207 182.787 28.5847C182.862 28.2295 182.947 27.8772 183.035 27.5252Z" fill="black"/>
<path d="M178.677 31.7785C178.878 31.7908 179.084 31.7928 179.295 31.7846C179.534 31.7766 179.771 31.8407 180.01 31.8476C180.259 31.8552 180.498 31.7814 180.746 31.7911C180.854 31.7957 180.933 31.8447 181.046 31.8136C181.24 31.7615 181.357 31.5755 181.443 31.4083C181.641 31.0121 181.666 30.5613 181.814 30.1505C181.987 29.6779 182.003 29.2455 182.02 28.7558C182.034 28.3594 182.229 27.9205 182.341 27.5428C182.477 27.0778 182.545 26.5838 182.725 26.1309C182.798 25.9413 182.743 25.7285 182.767 25.5307C182.83 25.1595 182.861 24.7794 182.885 24.4052C182.916 23.9825 182.94 23.5614 182.974 23.1391C183.016 22.6812 183.003 22.2189 183.034 21.7644C183.058 21.4687 183.046 21.1765 183.006 20.8862C182.992 20.7469 182.976 20.6074 182.983 20.4698C182.995 20.2688 182.962 20.0748 182.887 19.9007C182.795 19.6805 182.761 19.4439 182.64 19.2342C182.571 19.118 182.518 18.9903 182.502 18.8466C182.491 18.665 182.376 18.5705 182.197 18.5452C181.773 18.4848 181.343 18.4155 180.917 18.3657C180.507 18.3108 180.099 18.2624 179.7 18.1552C179.648 18.1403 179.591 18.1356 179.537 18.1419C179.377 18.15 179.226 18.1269 179.069 18.0928C178.762 18.0209 178.532 18.1656 178.487 18.4808C178.457 18.7059 178.413 18.9361 178.43 19.165C178.349 19.2476 178.372 19.3558 178.36 19.4504C178.319 19.766 178.416 20.0693 178.448 20.376C178.455 20.4233 178.5 20.6502 178.493 20.7305C178.472 20.9881 178.42 21.2389 178.311 21.4786C178.109 21.9404 177.994 22.4348 177.964 22.9255C177.925 23.5367 177.786 24.1417 177.85 24.7613C177.864 24.9007 177.816 25.0392 177.77 25.163C177.669 25.4416 177.644 25.7415 177.51 26.0068C177.471 26.0886 177.459 26.1875 177.455 26.2787C177.431 26.6274 177.346 26.9648 177.275 27.3098C177.255 27.4187 177.232 27.5231 177.269 27.6388C177.28 27.6865 177.281 27.7503 177.267 27.798C177.175 28.1455 177.168 28.4893 177.256 28.8325C177.345 29.1714 177.148 29.5867 177.209 29.9468C177.249 30.169 177.338 30.3761 177.357 30.6052C177.388 30.9542 177.272 31.4081 177.634 31.5548C177.972 31.6909 178.319 31.7556 178.677 31.7785Z" fill="#E2231A"/>
<path d="M169.654 30.5317C169.457 30.3241 169.642 30.063 169.664 29.7672C169.682 29.5242 169.561 29.391 169.499 29.1605C169.35 28.619 169.465 28.0481 169.423 27.4962C169.358 26.6512 169.521 25.8652 169.682 25.043C169.79 24.5225 169.838 23.9908 169.874 23.458C169.883 23.3376 169.897 23.2218 169.933 23.1014C170.064 22.6721 170.215 22.2488 170.277 21.8032C170.288 21.7296 170.325 21.6647 170.346 21.592C170.464 21.2616 170.587 20.9336 170.601 20.584C170.623 20.0459 170.753 19.5251 170.841 19.003C170.886 18.7409 170.929 18.4787 170.959 18.2155C170.979 18.045 170.938 17.7461 171.01 17.5947C171.097 17.4126 171.49 17.2387 171.672 17.2196C172.163 17.1685 172.672 17.0977 173.167 17.1382C173.564 17.1708 173.889 17.3272 174.288 17.4046C174.661 17.4756 175.086 17.6806 175.431 17.8322C175.806 17.9991 176.211 18.2173 176.471 18.5532C176.809 18.9912 176.632 19.8057 176.546 20.3089C176.497 20.5961 176.453 20.8901 176.444 21.187C176.437 21.4458 176.398 21.6976 176.291 21.9376C176.241 22.0547 176.205 22.1793 176.205 22.3132C176.212 22.537 176.154 22.7554 176.1 22.9678C176.062 23.1178 176.024 23.2741 176.032 23.4299C176.048 23.782 175.975 24.1247 175.936 24.4722C175.903 24.7501 175.921 25.0215 175.905 25.2966C175.872 25.7446 175.82 26.191 175.765 26.6371C175.727 26.9104 175.698 27.1886 175.653 27.4549C175.583 27.8148 175.492 28.1729 175.523 28.5475C175.529 28.6012 175.529 28.6585 175.505 28.7097C175.215 29.3236 175.493 30.1012 175.155 30.6963C174.942 31.0699 174.408 30.939 174.069 30.9302C173.647 30.919 173.248 31.0606 172.832 31.0561C172.683 31.0546 172.533 31.0167 172.384 31.0173C172.121 31.0169 171.86 31.1613 171.598 31.1419C171.349 31.1236 171.104 31.0036 170.851 30.9764C170.457 30.9334 170.046 30.8296 169.718 30.5879C169.692 30.5688 169.672 30.5501 169.654 30.5317Z" fill="black"/>
<path d="M164.334 30.5161C163.75 30.4872 163.269 30.418 162.967 29.866C162.855 29.6591 162.863 29.4302 162.85 29.1995C162.842 29.0628 162.853 28.934 162.83 28.7961C162.77 28.4319 162.743 28.0875 162.827 27.7181C162.86 27.572 162.904 27.4268 162.905 27.2844C162.916 26.8389 162.956 26.4022 162.96 25.9625C162.964 25.0188 163.18 24.1182 163.409 23.2145C163.522 22.7518 163.623 22.2882 163.614 21.8091C163.617 21.7137 163.618 21.6245 163.668 21.5372C163.889 21.1727 164.029 20.7717 164.115 20.3601C164.217 19.9007 164.478 19.7479 164.909 19.6833C165.226 19.6306 165.546 19.6144 165.869 19.6091C166.745 19.6066 167.567 19.8016 168.354 20.1574C168.559 20.2487 168.704 20.42 168.751 20.6301C168.856 21.1595 168.923 21.6943 168.905 22.2456C168.864 23.4518 168.573 24.6099 168.318 25.7773C168.232 26.1549 168.126 26.5395 168.079 26.9226C168.044 27.2195 167.872 27.5327 167.905 27.8309C167.936 28.0971 167.968 28.3611 167.903 28.6322C167.83 28.928 167.702 29.2194 167.581 29.4986C167.487 29.7141 167.336 29.9227 167.26 30.1482C167.192 30.351 167.21 30.4886 166.963 30.5512C166.705 30.6171 166.498 30.4449 166.255 30.3995C166.027 30.3553 165.858 30.4647 165.639 30.4935C165.201 30.5511 164.779 30.5377 164.334 30.5161Z" fill="black"/>
<path d="M185.868 32.2247C185.129 32.164 184.559 31.3881 184.618 30.6765C184.654 30.2309 184.694 29.7984 184.774 29.3628C184.865 28.875 185.087 28.4318 185.169 27.9412C185.324 27.0206 185.299 26.0748 185.329 25.1418C185.358 24.2513 185.386 23.3332 185.686 22.5032C185.787 22.2267 185.756 21.9924 185.72 21.7216C185.702 21.5777 185.683 21.4294 185.681 21.2635C185.676 20.5041 185.778 19.979 185.988 19.7028C186.188 19.4408 186.508 19.3267 186.941 19.3622C187.209 19.3843 187.481 19.4576 187.721 19.524C187.812 19.5486 187.897 19.5726 187.974 19.5895C188.173 19.6356 188.388 19.6575 188.592 19.6764C189.122 19.7283 189.723 19.7862 190.121 20.3206C190.378 20.6648 190.434 21.0903 190.486 21.4666C190.501 21.572 190.514 21.6751 190.533 21.7724L190.548 21.8543C190.601 22.1393 190.656 22.4329 190.606 22.7477C190.577 22.9281 190.516 23.0953 190.456 23.2562C190.264 23.7825 190.316 24.3374 190.271 24.8906C190.231 25.3763 190.123 25.7883 190 26.2544C189.867 26.7622 189.798 27.288 189.675 27.7987C189.572 28.2303 189.471 28.6515 189.437 29.0951C189.409 29.4329 189.406 29.7855 189.322 30.1103C189.256 30.3685 189.147 30.6061 189.107 30.8664C188.994 31.5885 188.638 32.2543 187.82 32.1872C187.768 32.1829 187.55 32.1608 187.496 32.1563C187.428 32.1508 187.358 32.1472 187.29 32.148C187.113 32.1505 186.938 32.1679 186.751 32.1866C186.528 32.2087 186.299 32.2324 186.063 32.2279C185.993 32.2328 185.927 32.2295 185.868 32.2247Z" fill="#E2231A"/>
<path d="M170.684 30.0103C170.817 30.2061 170.985 30.3071 171.252 30.3736C171.6 30.4617 171.945 30.5559 172.306 30.4601C172.438 30.4243 172.558 30.3916 172.694 30.3879C172.928 30.3837 173.127 30.4468 173.358 30.4083C173.707 30.3498 174.02 30.265 174.343 30.1087C174.427 30.0688 174.464 29.991 174.456 29.9054C174.442 29.7129 174.496 29.5473 174.569 29.379C174.668 29.1596 174.684 28.9101 174.708 28.6739C174.746 28.3433 174.87 28.041 174.958 27.723C175.054 27.3588 175.125 26.9884 175.111 26.611C175.095 26.3652 175.165 26.1329 175.189 25.8967C175.243 25.4228 175.201 24.9432 175.291 24.4681C175.359 24.1293 175.373 23.7797 175.412 23.4342C175.428 23.2868 175.461 23.147 175.517 23.0071C175.585 22.8532 175.595 22.6839 175.602 22.5208C175.615 22.3156 175.656 22.1171 175.706 21.9256C175.751 21.738 175.777 21.5552 175.778 21.3597C175.773 21.1148 175.84 20.8652 175.904 20.6323C175.996 20.3146 175.955 19.95 175.916 19.6278C175.888 19.4002 175.886 19.0897 175.696 18.938C175.505 18.7841 175.263 18.6687 175.066 18.5037C174.764 18.2535 174.514 18.1629 174.126 18.097C173.761 18.0352 173.367 18.0198 173 18.0407C172.613 18.0621 172.165 18.0317 171.803 18.1954C171.593 18.2909 171.583 18.4197 171.506 18.6344C171.327 19.1257 171.029 19.5434 171.075 20.102C171.089 20.2881 171.088 20.4857 171.024 20.6697C170.961 20.7602 170.982 20.8682 170.97 20.9629C170.939 21.1559 170.873 21.3418 170.818 21.5222C170.563 22.1646 170.363 22.822 170.281 23.5104C170.263 23.6726 170.249 23.8416 170.24 24.0066C170.231 24.2398 170.213 24.4657 170.129 24.6863C170.11 24.7273 170.096 24.7729 170.093 24.8151C170.078 25.3602 169.874 25.8728 169.834 26.4116C169.804 26.7748 169.841 27.1286 169.863 27.4854C169.896 28.0408 169.96 28.7625 170.239 29.2467C170.349 29.4385 170.484 29.6006 170.576 29.8037C170.61 29.8851 170.645 29.9518 170.684 30.0103Z" fill="#E2231A"/>
<path d="M165.259 29.8788C165.355 29.9079 165.477 29.8754 165.574 29.8281C165.654 29.7837 165.745 29.7656 165.836 29.7731C165.867 29.7757 165.911 29.7836 165.94 29.771C166.261 29.5593 166.643 29.4376 166.877 29.106C166.918 29.0477 166.927 28.9911 166.938 28.9304C166.978 28.7593 167.122 28.6351 167.171 28.4796C167.273 28.1691 167.356 27.855 167.383 27.5213C167.417 27.1054 167.467 26.6779 167.623 26.2868C167.777 25.9083 167.835 25.5092 167.904 25.1194C167.935 24.9157 167.994 24.7144 168.036 24.5159C168.147 23.9106 168.33 23.3219 168.344 22.7002C168.364 22.1555 168.303 21.6296 168.223 21.0959C168.179 20.8032 167.959 20.6618 167.746 20.5614C167.423 20.4116 167.096 20.2169 166.74 20.1515C166.401 20.0896 166.037 20.1022 165.69 20.0759C165.447 20.0581 165.351 20.0672 165.161 20.2046C165.014 20.3116 164.853 20.3834 164.702 20.4837C164.363 20.7088 164.356 21.2355 164.327 21.6031C164.304 21.9136 164.341 22.2419 164.265 22.546C164.209 22.7667 164.036 22.9269 163.963 23.1378C163.88 23.3775 163.916 23.6419 163.851 23.8874C163.773 24.1935 163.646 24.4872 163.579 24.7962C163.491 25.195 163.457 25.6068 163.423 26.0143C163.401 26.2846 163.36 26.5575 163.369 26.8262C163.375 26.9861 163.388 27.1445 163.398 27.3005C163.423 27.6469 163.37 27.9827 163.352 28.3278C163.342 28.5268 163.405 28.6935 163.458 28.8806C163.509 29.0592 163.531 29.3394 163.693 29.459C163.805 29.5426 164.014 29.5683 164.147 29.6047C164.319 29.6529 164.493 29.6905 164.665 29.7365C164.865 29.7891 165.069 29.8164 165.259 29.8788Z" fill="#E2231A"/>
</mask>
<g mask="url(#mask1_1_25634)">
<rect x="160.099" y="11.687" width="38" height="30" transform="rotate(4.69296 160.099 11.687)" fill="#5F0F0B"/>
</g>
<mask id="mask2_1_25634" style="mask-type:alpha" maskUnits="userSpaceOnUse" x="32" y="158" width="31" height="30">
<path d="M43.4529 183.098C43.0821 182.91 42.773 182.62 42.4097 182.425C42.3443 182.389 42.2525 182.182 42.2336 182.164C41.9694 181.833 42.356 181.187 42.5388 180.909C42.8846 180.391 43.2386 179.876 43.5701 179.341C43.7475 179.052 43.9272 178.759 44.1454 178.505C44.4377 178.164 44.8202 177.98 45.2786 177.992C45.4679 177.997 45.6131 178.108 45.7648 178.205C45.9636 178.331 46.1729 178.441 46.3898 178.535C46.642 178.645 46.9339 178.718 47.1582 178.878C47.438 179.077 47.7605 179.246 48.0158 179.475C48.329 179.754 48.6407 179.975 49.0233 180.168C49.4348 180.375 49.8597 180.573 50.2387 180.838C50.3833 180.938 50.4998 181.058 50.6625 181.134C50.9183 181.254 51.1851 181.354 51.4345 181.487C51.7281 181.642 51.9488 181.881 52.225 182.063C52.5454 182.273 52.8377 182.496 53.1389 182.732C53.3509 182.899 53.6258 183.06 53.7402 183.318C53.8815 183.639 53.6532 184.044 53.5181 184.33C53.4115 184.57 53.2305 184.768 53.1305 185.024C53.0588 185.21 52.9895 185.4 52.9467 185.593C52.8671 185.933 52.7321 186.235 52.5336 186.518C52.4346 186.661 52.3268 186.805 52.2726 186.973C52.1971 187.207 51.84 187.426 51.6273 187.514C51.3764 187.618 51.2509 187.559 50.9986 187.441C50.3261 187.125 49.7542 186.638 49.1108 186.27C48.721 186.05 48.2878 185.945 47.887 185.752C47.739 185.68 47.6136 185.644 47.489 185.536C47.2981 185.375 47.0981 185.236 46.8799 185.113C46.3314 184.798 45.8339 184.382 45.2745 184.095C45.0758 183.993 44.8666 183.906 44.6656 183.807C44.4628 183.706 44.2951 183.576 44.0987 183.462C43.8834 183.338 43.6682 183.214 43.4529 183.098Z" fill="black"/>
<path d="M44.4109 182.933C44.2722 182.847 44.0987 182.821 43.9804 182.693C43.6514 182.337 43.2169 182.122 42.853 181.82C42.8404 181.773 42.8225 181.731 42.8222 181.685C42.8259 181.333 43.179 180.769 43.413 180.517C43.7976 180.105 44.1138 179.644 44.3904 179.154C44.5101 178.941 44.6998 178.837 44.9283 178.818C45.239 178.789 45.5394 178.814 45.8027 179C45.8947 179.06 45.9944 179.113 46.0958 179.159C46.6977 179.466 47.3194 179.743 47.9069 180.092C47.9387 180.113 47.9723 180.127 48.0012 180.141C48.3247 180.285 48.6267 180.458 48.8605 180.731C48.9109 180.79 48.9786 180.822 49.0441 180.857C49.5039 181.083 49.9323 181.373 50.4014 181.585C50.6908 181.712 50.8989 182.001 51.2394 182.042C51.2976 182.05 51.3279 182.1 51.364 182.142C51.5339 182.335 51.7137 182.524 51.9238 182.675C52.2556 182.911 52.6206 183.115 52.8322 183.487C52.8376 183.499 52.8464 183.504 52.8553 183.51C52.9764 183.615 53.036 183.756 53.0058 183.906C52.9494 184.173 52.9629 184.461 52.8447 184.71C52.706 184.987 52.6408 185.279 52.5686 185.573C52.4802 185.901 52.2791 186.149 52.0371 186.362C51.9051 186.478 51.7558 186.571 51.6462 186.706C51.5384 186.851 51.4145 186.858 51.2538 186.821C50.9096 186.747 50.5797 186.624 50.2697 186.478C50.0964 186.395 49.9017 186.355 49.7487 186.229C49.3127 185.874 48.7982 185.635 48.3099 185.36C47.8021 185.064 47.3175 184.732 46.8074 184.44C46.3415 184.177 45.8807 183.894 45.4516 183.587C45.1565 183.38 44.7765 183.325 44.557 183.003C44.5292 182.965 44.4551 182.962 44.4109 182.933Z" fill="#E2231A"/>
<path d="M59.7124 175.686C59.8019 175.534 59.8732 175.368 59.9652 175.147C60.1591 174.687 60.4421 174.36 60.7459 173.995C61.3769 173.236 62.6174 171.287 61.6733 170.398C61.227 169.978 60.5543 169.736 60.0339 169.393C59.3541 168.946 58.6468 168.337 57.8967 168.016C57.7453 167.942 57.6331 167.962 57.5368 168.058C57.2098 168.394 56.7666 168.551 56.4988 168.95C56.3876 169.116 56.3148 169.304 56.1965 169.464C56.0555 169.655 55.8537 169.797 55.7239 169.998C55.572 170.233 55.4024 170.448 55.2487 170.682C54.8536 171.287 54.4549 171.889 54.0568 172.495C53.9101 172.718 53.7534 172.937 53.6138 173.164C53.5057 173.344 53.4809 173.521 53.3892 173.699C53.1553 174.151 52.6852 174.43 52.4058 174.855C52.23 175.122 51.9972 175.284 51.7954 175.529C51.3849 176.03 51.1567 176.643 50.788 177.169C50.5772 177.466 50.3492 177.74 50.1744 178.064C49.9531 178.473 49.6102 178.895 50.0008 179.326C50.2706 179.625 50.7182 179.681 50.981 179.984C51.2361 180.278 51.492 180.598 51.8593 180.777C52.1776 180.933 52.5838 180.966 52.8674 181.199C53.1196 181.405 53.3257 181.847 53.6954 181.852C54.1726 181.859 54.705 181.489 54.9965 181.13C55.2927 180.765 55.6656 180.444 55.9658 180.069C56.3296 179.616 56.7778 179.312 57.1878 178.912C57.4547 178.649 57.7098 178.388 57.9265 178.082C58.1408 177.779 58.2761 177.427 58.4922 177.125C58.7427 176.775 59.0847 176.417 59.3796 176.111C59.5314 175.957 59.6298 175.827 59.7124 175.686Z" fill="black"/>
<path d="M51.2031 174.352C51.2054 174.348 51.206 174.344 51.2095 174.338C51.8537 173.347 53.4802 171.298 53.5291 171.231C53.7766 170.874 54.0406 170.53 54.2404 170.149C54.3669 169.91 54.4859 169.672 54.6615 169.47C54.7053 169.423 54.7301 169.358 54.765 169.305C54.9303 169.054 55.0394 168.745 55.0963 168.45C55.1504 168.179 55.2148 168.046 55.3914 167.82C55.8846 167.186 56.1973 166.641 55.8256 165.864C55.5571 165.305 54.9377 164.935 54.4251 164.631C54.0134 164.386 53.6334 164.05 53.2066 163.835C52.1974 163.326 51.4156 163.378 50.6665 164.239C50.3993 164.545 50.2474 164.958 50.1211 165.339C49.9758 165.776 49.6533 166.162 49.4007 166.546C49.1306 166.957 48.8764 167.266 48.5189 167.602C47.7525 168.32 47.3097 169.302 46.6969 170.141C46.4941 170.419 46.2423 170.644 46.0526 170.932C45.8733 171.205 45.6964 171.482 45.5154 171.753C45.1603 172.285 44.5053 172.876 44.3572 173.514C44.2565 173.953 43.9789 174.275 43.7361 174.64C43.6256 174.808 43.5599 175.016 43.5553 175.216C43.5505 175.393 43.4796 175.516 43.5828 175.668C43.6979 175.84 43.9436 175.94 44.1147 176.043C44.478 176.261 44.8187 176.511 45.2081 176.678C45.4709 176.787 45.7135 176.947 45.9641 177.086C46.154 177.191 46.3515 177.296 46.5612 177.37C46.8533 177.473 47.1153 177.653 47.419 177.731C47.7752 177.834 48.0719 177.729 48.3513 177.497C48.6114 177.283 48.7016 176.957 48.9306 176.732C48.9761 176.694 49.0022 176.635 49.0503 176.616C49.4897 176.41 49.7155 175.97 50.0928 175.693C50.1547 175.645 50.1983 175.56 50.2325 175.489C50.2892 175.356 50.3892 175.27 50.4772 175.163C50.7141 174.887 50.9568 174.618 51.2031 174.352Z" fill="black"/>
<path d="M45.3392 175.996C45.5097 176.103 45.6896 176.204 45.8788 176.298C46.0922 176.405 46.2696 176.575 46.4766 176.696C46.6907 176.821 46.9367 176.872 47.1496 176.999C47.2422 177.055 47.288 177.136 47.4022 177.162C47.597 177.209 47.789 177.102 47.9447 176.997C48.3086 176.744 48.5459 176.36 48.8731 176.071C49.2512 175.739 49.4727 175.367 49.7222 174.945C49.9239 174.604 50.3058 174.312 50.5849 174.034C50.9271 173.691 51.2236 173.29 51.5983 172.979C51.7532 172.848 51.8071 172.634 51.9236 172.473C52.1562 172.177 52.3657 171.858 52.5665 171.541C52.7957 171.185 53.0185 170.827 53.2513 170.473C53.5075 170.091 53.7176 169.679 53.9625 169.295C54.1255 169.047 54.2549 168.785 54.3589 168.511C54.4133 168.382 54.466 168.251 54.5381 168.134C54.6451 167.964 54.7092 167.777 54.7268 167.589C54.7511 167.351 54.8349 167.127 54.8293 166.885C54.8243 166.75 54.8387 166.613 54.8937 166.479C54.9714 166.314 54.9153 166.176 54.7706 166.068C54.427 165.812 54.0827 165.545 53.7333 165.297C53.3997 165.053 53.0644 164.815 52.7653 164.529C52.7268 164.491 52.679 164.46 52.6289 164.439C52.4845 164.37 52.3629 164.277 52.2418 164.172C52.0071 163.962 51.7352 163.979 51.5446 164.234C51.4112 164.417 51.2619 164.598 51.1675 164.807C51.0566 164.841 51.025 164.947 50.9691 165.024C50.7821 165.281 50.7212 165.594 50.6025 165.878C50.5858 165.923 50.5166 166.144 50.4724 166.211C50.3304 166.427 50.1642 166.622 49.9536 166.78C49.5554 167.089 49.2176 167.468 48.9564 167.885C48.6288 168.402 48.2169 168.866 47.9761 169.441C47.9216 169.57 47.8136 169.669 47.7136 169.755C47.491 169.951 47.3257 170.202 47.0805 170.371C47.0074 170.424 46.9492 170.505 46.9027 170.584C46.7141 170.878 46.4778 171.133 46.2503 171.402C46.1809 171.488 46.1103 171.569 46.0876 171.688C46.0744 171.735 46.0447 171.792 46.0091 171.827C45.7616 172.088 45.5907 172.386 45.5042 172.73C45.42 173.07 45.0474 173.34 44.9291 173.685C44.857 173.899 44.8361 174.124 44.7434 174.334C44.6032 174.655 44.284 174.998 44.5315 175.3C44.7625 175.581 45.0366 175.805 45.3392 175.996Z" fill="#E2231A"/>
<path d="M38.0177 170.578C37.9436 170.301 38.2313 170.161 38.3925 169.912C38.5246 169.707 38.4823 169.532 38.5384 169.3C38.6672 168.753 39.0416 168.307 39.2693 167.803C39.6176 167.03 40.1367 166.418 40.6721 165.774C41.0168 165.369 41.3137 164.925 41.5999 164.474C41.6663 164.374 41.7338 164.279 41.8226 164.19C42.1432 163.876 42.4792 163.577 42.7472 163.216C42.7915 163.156 42.8553 163.117 42.9084 163.063C43.1708 162.83 43.4356 162.601 43.6152 162.3C43.8932 161.839 44.2568 161.444 44.5838 161.028C44.7488 160.819 44.912 160.61 45.0646 160.393C45.1642 160.253 45.2711 159.971 45.4068 159.873C45.5706 159.755 45.9986 159.79 46.1677 159.861C46.6232 160.051 47.1044 160.233 47.5187 160.506C47.8515 160.725 48.0619 161.018 48.3756 161.277C48.6686 161.518 48.9437 161.902 49.1736 162.2C49.4231 162.526 49.6741 162.912 49.7408 163.331C49.8277 163.878 49.2817 164.507 48.9651 164.908C48.7844 165.136 48.6055 165.374 48.4549 165.63C48.3253 165.854 48.1697 166.056 47.9609 166.215C47.8609 166.294 47.7698 166.386 47.7054 166.504C47.6044 166.703 47.4485 166.867 47.2997 167.028C47.1946 167.141 47.0861 167.26 47.0188 167.401C46.8639 167.718 46.6359 167.984 46.4349 168.27C46.2724 168.498 46.1582 168.745 46.0122 168.978C45.769 169.356 45.5098 169.723 45.2471 170.088C45.0834 170.31 44.9244 170.54 44.7571 170.752C44.5233 171.034 44.2717 171.305 44.1194 171.649C44.0991 171.699 44.0712 171.749 44.0262 171.783C43.4769 172.182 43.3487 172.998 42.7669 173.359C42.4005 173.584 41.995 173.214 41.7013 173.043C41.3362 172.831 40.9186 172.764 40.5553 172.561C40.4256 172.488 40.3121 172.383 40.1812 172.312C39.95 172.186 39.6521 172.188 39.4314 172.045C39.2213 171.91 39.0636 171.687 38.8547 171.542C38.5295 171.315 38.2191 171.027 38.0464 170.658C38.0327 170.628 38.0243 170.603 38.0177 170.578Z" fill="black"/>
<path d="M33.3569 168.016C32.8578 167.71 32.4687 167.419 32.4688 166.79C32.4691 166.554 32.5859 166.357 32.6851 166.149C32.7437 166.025 32.8147 165.917 32.8609 165.785C32.9832 165.437 33.1246 165.122 33.3749 164.838C33.4741 164.725 33.5821 164.619 33.6513 164.494C33.8745 164.109 34.119 163.745 34.3334 163.361C34.7882 162.534 35.4097 161.847 36.0441 161.164C36.3645 160.812 36.676 160.453 36.8972 160.028C36.9461 159.946 36.9896 159.869 37.0751 159.816C37.4439 159.602 37.7583 159.317 38.0319 158.997C38.3411 158.642 38.6436 158.633 39.0524 158.783C39.3557 158.889 39.6445 159.028 39.9311 159.178C40.7012 159.596 41.3288 160.161 41.8491 160.85C41.9854 161.029 42.0309 161.249 41.9711 161.455C41.8098 161.97 41.612 162.472 41.3324 162.947C40.7178 163.986 39.9078 164.863 39.1243 165.765C38.8676 166.056 38.5903 166.342 38.366 166.656C38.193 166.9 37.8916 167.092 37.7776 167.37C37.6775 167.619 37.5786 167.865 37.3919 168.072C37.1859 168.297 36.9339 168.491 36.6941 168.678C36.5082 168.822 36.2756 168.933 36.1009 169.095C35.9443 169.24 35.8946 169.37 35.6474 169.306C35.389 169.24 35.2899 168.99 35.0985 168.834C34.9195 168.686 34.7192 168.701 34.513 168.621C34.1007 168.462 33.7368 168.248 33.3569 168.016Z" fill="black"/>
<path d="M51.4387 179.834C50.8191 179.426 50.6908 178.472 51.0831 177.875C51.3287 177.502 51.5708 177.141 51.8501 176.798C52.1638 176.413 52.5704 176.13 52.8782 175.739C53.4547 175.005 53.8866 174.163 54.3598 173.359C54.8116 172.591 55.2766 171.799 55.9375 171.214C56.159 171.02 56.2434 170.799 56.3423 170.544C56.3955 170.409 56.4493 170.27 56.5277 170.124C56.8866 169.454 57.2283 169.043 57.5447 168.901C57.8459 168.767 58.1812 168.82 58.5441 169.058C58.7689 169.206 58.9729 169.401 59.1509 169.574C59.2195 169.639 59.2827 169.701 59.3424 169.753C59.4943 169.888 59.6725 170.011 59.8431 170.125C60.2828 170.425 60.7826 170.763 60.8761 171.423C60.9364 171.848 60.7821 172.249 60.6474 172.604C60.6098 172.704 60.5717 172.8 60.5423 172.895L60.5158 172.974C60.4258 173.25 60.333 173.534 60.139 173.786C60.0265 173.93 59.8932 174.048 59.7635 174.161C59.3427 174.531 59.1227 175.043 58.8177 175.506C58.55 175.914 58.2576 176.223 57.926 176.573C57.5658 176.955 57.2536 177.384 56.9011 177.773C56.6035 178.102 56.3135 178.424 56.0708 178.797C55.8846 179.08 55.7126 179.388 55.4832 179.633C55.3017 179.828 55.0923 179.984 54.9321 180.193C54.4874 180.773 53.8553 181.187 53.1703 180.736C53.126 180.707 52.946 180.584 52.9 180.553C52.8433 180.516 52.7837 180.48 52.7236 180.448C52.5673 180.365 52.4047 180.296 52.2321 180.223C52.0259 180.136 51.8131 180.047 51.6085 179.93C51.5443 179.9 51.4882 179.866 51.4387 179.834Z" fill="#E2231A"/>
<path d="M39.1716 170.614C39.1943 170.85 39.2935 171.019 39.4956 171.205C39.7587 171.449 40.0165 171.697 40.379 171.786C40.5126 171.818 40.6332 171.847 40.7547 171.909C40.9622 172.017 41.1066 172.168 41.3274 172.245C41.6619 172.361 41.9774 172.436 42.3359 172.454C42.4288 172.459 42.4978 172.408 42.532 172.329C42.612 172.154 42.7387 172.034 42.8838 171.922C43.0756 171.776 43.2094 171.565 43.3433 171.369C43.5349 171.097 43.7892 170.892 44.0187 170.654C44.2773 170.381 44.5169 170.09 44.6858 169.752C44.7896 169.528 44.9624 169.358 45.0963 169.162C45.3706 168.772 45.5641 168.331 45.8708 167.957C46.093 167.693 46.2727 167.392 46.4725 167.108C46.5575 166.986 46.6532 166.879 46.7695 166.783C46.9028 166.681 46.9924 166.537 47.0767 166.397C47.1861 166.223 47.3179 166.069 47.4533 165.925C47.5829 165.782 47.693 165.633 47.7877 165.462C47.9003 165.245 48.079 165.058 48.2465 164.884C48.4795 164.649 48.619 164.31 48.7387 164.008C48.8231 163.795 48.9701 163.522 48.8764 163.298C48.7821 163.071 48.6256 162.854 48.5318 162.615C48.3861 162.25 48.2103 162.051 47.9014 161.807C47.6109 161.578 47.2723 161.376 46.9399 161.218C46.5903 161.052 46.2116 160.81 45.8153 160.78C45.5854 160.764 45.5144 160.872 45.3438 161.023C44.9517 161.369 44.4901 161.593 44.2624 162.105C44.1859 162.275 44.09 162.448 43.9457 162.579C43.8473 162.628 43.8139 162.733 43.758 162.81C43.6385 162.965 43.4912 163.096 43.3563 163.228C42.825 163.67 42.3338 164.151 41.9319 164.716C41.8388 164.85 41.7456 164.991 41.6584 165.132C41.5392 165.332 41.4146 165.522 41.2352 165.675C41.1995 165.702 41.1651 165.735 41.1418 165.771C40.8674 166.242 40.443 166.594 40.1497 167.048C39.9495 167.353 39.8123 167.681 39.6604 168.004C39.4233 168.508 39.1337 169.172 39.1466 169.73C39.151 169.951 39.1922 170.159 39.1754 170.381C39.166 170.468 39.1647 170.544 39.1716 170.614Z" fill="#E2231A"/>
<path d="M34.474 167.9C34.5438 167.971 34.6662 168.001 34.7744 168.006C34.8661 168.005 34.9544 168.033 35.0305 168.083C35.0571 168.1 35.0919 168.128 35.1231 168.131C35.5066 168.099 35.9002 168.176 36.264 167.996C36.3278 167.965 36.3628 167.919 36.4019 167.871C36.5186 167.74 36.7046 167.7 36.822 167.587C37.0603 167.364 37.2839 167.128 37.4678 166.848C37.6971 166.499 37.9458 166.148 38.2697 165.879C38.5865 165.621 38.8289 165.299 39.0755 164.989C39.2008 164.826 39.3492 164.677 39.481 164.523C39.8687 164.045 40.3108 163.616 40.6218 163.077C40.8997 162.608 41.0982 162.118 41.2842 161.611C41.3858 161.333 41.2604 161.103 41.1217 160.913C40.9095 160.627 40.7164 160.3 40.4353 160.072C40.1671 159.855 39.8411 159.691 39.5496 159.502C39.3449 159.37 39.2559 159.332 39.0234 159.361C38.8431 159.385 38.6673 159.371 38.487 159.386C38.0812 159.421 37.8226 159.88 37.6218 160.189C37.4525 160.451 37.3275 160.756 37.1151 160.987C36.9598 161.154 36.7316 161.212 36.5668 161.362C36.3787 161.532 36.2833 161.781 36.1088 161.966C35.8934 162.197 35.642 162.394 35.4343 162.633C35.166 162.941 34.939 163.286 34.7143 163.628C34.5653 163.854 34.3981 164.074 34.2779 164.314C34.2066 164.458 34.1417 164.603 34.0762 164.745C33.9319 165.061 33.7244 165.33 33.5435 165.624C33.4394 165.794 33.4146 165.971 33.3712 166.16C33.3306 166.341 33.2153 166.598 33.3005 166.781C33.3589 166.908 33.5295 167.03 33.6288 167.126C33.7571 167.251 33.8912 167.367 34.0207 167.49C34.1709 167.632 34.3368 167.754 34.474 167.9Z" fill="#E2231A"/>
</mask>
<g mask="url(#mask2_1_25634)">
<rect x="38.6621" y="149.459" width="38" height="30" transform="rotate(33.3267 38.6621 149.459)" fill="#5F0F0B"/>
</g>
<mask id="mask3_1_25634" style="mask-type:alpha" maskUnits="userSpaceOnUse" x="192" y="107" width="31" height="28">
<path d="M206.006 131.012C205.608 130.892 205.252 130.662 204.86 130.534C204.79 130.51 204.663 130.323 204.641 130.309C204.322 130.03 204.589 129.326 204.719 129.02C204.968 128.449 205.225 127.879 205.457 127.293C205.58 126.978 205.705 126.658 205.875 126.369C206.103 125.982 206.446 125.733 206.9 125.664C207.087 125.635 207.25 125.719 207.416 125.787C207.634 125.876 207.859 125.947 208.089 126.001C208.357 126.065 208.657 126.085 208.906 126.203C209.217 126.35 209.564 126.459 209.856 126.639C210.214 126.859 210.56 127.02 210.97 127.143C211.412 127.274 211.865 127.394 212.285 127.587C212.445 127.66 212.581 127.757 212.755 127.804C213.028 127.877 213.308 127.927 213.577 128.014C213.893 128.115 214.153 128.311 214.457 128.441C214.809 128.592 215.136 128.759 215.475 128.938C215.713 129.065 216.012 129.175 216.17 129.408C216.366 129.699 216.213 130.138 216.131 130.444C216.068 130.699 215.925 130.926 215.872 131.195C215.834 131.391 215.8 131.591 215.792 131.788C215.774 132.137 215.694 132.458 215.549 132.771C215.476 132.93 215.396 133.091 215.372 133.265C215.339 133.509 215.027 133.788 214.833 133.913C214.604 134.059 214.47 134.023 214.201 133.951C213.483 133.76 212.834 133.381 212.136 133.133C211.713 132.985 211.268 132.959 210.84 132.84C210.682 132.795 210.552 132.781 210.41 132.698C210.194 132.573 209.972 132.471 209.736 132.389C209.14 132.176 208.577 131.855 207.975 131.671C207.762 131.605 207.54 131.557 207.325 131.495C207.108 131.432 206.92 131.333 206.706 131.256C206.472 131.172 206.239 131.088 206.006 131.012Z" fill="black"/>
<path d="M206.92 130.679C206.769 130.619 206.593 130.625 206.454 130.519C206.067 130.227 205.602 130.093 205.19 129.86C205.169 129.816 205.144 129.778 205.136 129.733C205.077 129.385 205.325 128.767 205.511 128.478C205.817 128.005 206.046 127.495 206.232 126.964C206.312 126.733 206.48 126.598 206.702 126.538C207.002 126.454 207.302 126.426 207.594 126.562C207.696 126.606 207.803 126.64 207.911 126.668C208.558 126.863 209.219 127.026 209.858 127.265C209.894 127.28 209.929 127.288 209.96 127.297C210.304 127.381 210.632 127.498 210.91 127.726C210.97 127.774 211.043 127.794 211.113 127.817C211.606 127.958 212.079 128.167 212.578 128.293C212.885 128.367 213.141 128.614 213.483 128.595C213.542 128.592 213.581 128.636 213.624 128.671C213.825 128.831 214.036 128.985 214.269 129.096C214.637 129.27 215.033 129.407 215.307 129.736C215.314 129.746 215.324 129.75 215.334 129.754C215.471 129.836 215.555 129.964 215.552 130.117C215.543 130.39 215.608 130.671 215.535 130.937C215.448 131.234 215.435 131.532 215.417 131.835C215.387 132.173 215.233 132.453 215.033 132.706C214.924 132.844 214.793 132.961 214.709 133.114C214.629 133.275 214.508 133.304 214.343 133.296C213.991 133.284 213.645 133.221 213.314 133.133C213.129 133.081 212.93 133.077 212.757 132.98C212.265 132.708 211.716 132.563 211.187 132.378C210.635 132.177 210.099 131.937 209.546 131.739C209.04 131.562 208.537 131.366 208.06 131.139C207.733 130.988 207.35 131.001 207.077 130.723C207.042 130.69 206.969 130.7 206.92 130.679Z" fill="#E2231A"/>
<path d="M220.696 120.84C220.757 120.675 220.798 120.499 220.85 120.265C220.959 119.777 221.18 119.406 221.414 118.993C221.901 118.134 222.777 115.997 221.691 115.289C221.177 114.954 220.472 114.835 219.899 114.59C219.151 114.27 218.347 113.795 217.552 113.612C217.39 113.566 217.283 113.606 217.205 113.718C216.943 114.105 216.535 114.339 216.342 114.779C216.261 114.962 216.223 115.159 216.135 115.338C216.03 115.552 215.856 115.726 215.764 115.947C215.656 116.205 215.528 116.447 215.418 116.705C215.136 117.37 214.85 118.033 214.565 118.7C214.46 118.945 214.345 119.188 214.248 119.437C214.173 119.633 214.18 119.812 214.121 120.003C213.971 120.489 213.558 120.847 213.358 121.315C213.232 121.609 213.031 121.809 212.876 122.086C212.561 122.652 212.445 123.296 212.175 123.878C212.02 124.209 211.844 124.518 211.729 124.868C211.584 125.31 211.321 125.785 211.782 126.141C212.1 126.388 212.551 126.364 212.863 126.615C213.166 126.859 213.475 127.129 213.867 127.24C214.208 127.337 214.614 127.298 214.934 127.477C215.219 127.635 215.5 128.034 215.865 127.973C216.336 127.896 216.794 127.437 217.018 127.033C217.245 126.621 217.555 126.24 217.784 125.817C218.062 125.306 218.449 124.928 218.782 124.462C218.998 124.156 219.203 123.854 219.362 123.514C219.52 123.178 219.59 122.808 219.75 122.473C219.934 122.084 220.208 121.671 220.444 121.318C220.566 121.139 220.64 120.994 220.696 120.84Z" fill="black"/>
<path d="M212.087 121.032C212.089 121.028 212.089 121.024 212.091 121.018C212.55 119.928 213.788 117.623 213.824 117.549C214.005 117.154 214.204 116.769 214.333 116.359C214.415 116.101 214.49 115.845 214.627 115.616C214.662 115.561 214.675 115.493 214.7 115.435C214.818 115.158 214.871 114.835 214.875 114.535C214.88 114.258 214.92 114.116 215.054 113.863C215.427 113.151 215.638 112.559 215.135 111.861C214.772 111.357 214.097 111.104 213.539 110.895C213.09 110.726 212.657 110.463 212.199 110.327C211.115 110.005 210.355 110.193 209.77 111.174C209.561 111.522 209.485 111.955 209.428 112.352C209.362 112.808 209.113 113.246 208.932 113.668C208.739 114.12 208.544 114.47 208.251 114.863C207.624 115.706 207.362 116.751 206.907 117.685C206.757 117.994 206.549 118.26 206.413 118.578C206.285 118.878 206.16 119.181 206.029 119.481C205.774 120.067 205.234 120.765 205.201 121.419C205.18 121.868 204.963 122.234 204.789 122.637C204.71 122.822 204.682 123.038 204.713 123.236C204.739 123.411 204.691 123.544 204.82 123.675C204.964 123.824 205.223 123.88 205.41 123.95C205.806 124.101 206.185 124.286 206.598 124.382C206.876 124.443 207.143 124.558 207.415 124.65C207.62 124.72 207.833 124.788 208.052 124.824C208.358 124.874 208.648 125.005 208.961 125.028C209.329 125.065 209.603 124.91 209.837 124.633C210.055 124.376 210.086 124.039 210.272 123.777C210.31 123.731 210.325 123.668 210.369 123.641C210.765 123.361 210.909 122.888 211.232 122.549C211.284 122.491 211.312 122.399 211.333 122.323C211.365 122.182 211.448 122.079 211.516 121.959C211.701 121.646 211.892 121.338 212.087 121.032Z" fill="black"/>
<path d="M206.606 123.688C206.793 123.763 206.988 123.83 207.191 123.889C207.42 123.957 207.624 124.093 207.85 124.175C208.083 124.261 208.334 124.267 208.566 124.355C208.667 124.393 208.726 124.465 208.843 124.471C209.043 124.483 209.213 124.343 209.348 124.212C209.661 123.899 209.827 123.479 210.098 123.136C210.411 122.743 210.563 122.338 210.734 121.878C210.872 121.507 211.197 121.152 211.422 120.829C211.698 120.431 211.919 119.984 212.233 119.611C212.362 119.454 212.378 119.235 212.464 119.055C212.64 118.723 212.79 118.372 212.932 118.025C213.094 117.634 213.25 117.242 213.417 116.852C213.601 116.431 213.735 115.988 213.908 115.567C214.025 115.294 214.106 115.013 214.16 114.725C214.19 114.588 214.219 114.451 214.269 114.323C214.345 114.136 214.375 113.941 214.359 113.752C214.341 113.514 214.383 113.279 214.335 113.042C214.306 112.91 214.296 112.772 214.326 112.631C214.374 112.455 214.294 112.329 214.133 112.248C213.749 112.057 213.363 111.855 212.975 111.673C212.604 111.491 212.232 111.316 211.887 111.088C211.842 111.057 211.79 111.035 211.737 111.024C211.582 110.981 211.446 110.911 211.308 110.829C211.04 110.664 210.775 110.728 210.633 111.013C210.534 111.217 210.419 111.422 210.363 111.644C210.26 111.697 210.248 111.807 210.206 111.893C210.068 112.179 210.063 112.498 209.997 112.799C209.988 112.846 209.959 113.075 209.928 113.149C209.826 113.387 209.697 113.608 209.518 113.801C209.18 114.176 208.915 114.608 208.731 115.064C208.501 115.632 208.177 116.162 208.042 116.77C208.011 116.906 207.922 117.023 207.839 117.125C207.655 117.358 207.537 117.634 207.325 117.843C207.263 117.909 207.22 117.999 207.188 118.084C207.054 118.407 206.867 118.701 206.69 119.005C206.637 119.102 206.582 119.194 206.581 119.316C206.576 119.364 206.557 119.425 206.528 119.466C206.331 119.766 206.215 120.09 206.191 120.444C206.168 120.794 205.849 121.125 205.794 121.486C205.761 121.709 205.78 121.934 205.726 122.158C205.645 122.498 205.391 122.892 205.688 123.146C205.965 123.382 206.275 123.553 206.606 123.688Z" fill="#E2231A"/>
<path d="M198.442 119.65C198.32 119.391 198.579 119.201 198.693 118.928C198.787 118.703 198.715 118.538 198.729 118.3C198.759 117.739 199.048 117.234 199.183 116.697C199.389 115.875 199.792 115.181 200.205 114.452C200.473 113.993 200.686 113.503 200.888 113.009C200.936 112.898 200.985 112.792 201.057 112.689C201.317 112.324 201.595 111.97 201.795 111.567C201.828 111.5 201.884 111.451 201.926 111.388C202.143 111.112 202.363 110.84 202.487 110.513C202.679 110.009 202.967 109.557 203.215 109.089C203.341 108.854 203.464 108.619 203.576 108.379C203.65 108.224 203.705 107.927 203.821 107.806C203.961 107.661 204.389 107.62 204.568 107.66C205.05 107.767 205.556 107.861 206.012 108.056C206.378 108.212 206.637 108.463 206.991 108.663C207.322 108.849 207.661 109.178 207.94 109.43C208.243 109.707 208.559 110.043 208.698 110.443C208.881 110.966 208.455 111.682 208.214 112.133C208.077 112.389 207.942 112.655 207.84 112.933C207.752 113.177 207.634 113.403 207.457 113.597C207.372 113.692 207.299 113.799 207.256 113.926C207.192 114.141 207.068 114.329 206.95 114.514C206.867 114.644 206.781 114.78 206.739 114.931C206.643 115.27 206.466 115.572 206.318 115.889C206.199 116.142 206.13 116.405 206.028 116.661C205.855 117.076 205.665 117.483 205.471 117.889C205.349 118.136 205.233 118.391 205.106 118.629C204.926 118.948 204.726 119.259 204.637 119.624C204.626 119.677 204.608 119.732 204.569 119.773C204.099 120.263 204.117 121.089 203.609 121.546C203.288 121.833 202.823 121.54 202.504 121.425C202.107 121.28 201.684 121.289 201.291 121.153C201.15 121.104 201.02 121.021 200.878 120.974C200.629 120.891 200.336 120.945 200.093 120.844C199.863 120.748 199.668 120.556 199.437 120.45C199.076 120.285 198.72 120.057 198.485 119.723C198.466 119.697 198.453 119.673 198.442 119.65Z" fill="black"/>
<path d="M193.4 117.952C192.854 117.74 192.42 117.522 192.309 116.903C192.267 116.671 192.348 116.457 192.408 116.234C192.444 116.102 192.495 115.983 192.517 115.845C192.576 115.481 192.659 115.145 192.855 114.821C192.933 114.693 193.02 114.569 193.067 114.435C193.218 114.015 193.394 113.614 193.537 113.198C193.839 112.304 194.329 111.518 194.832 110.733C195.085 110.33 195.329 109.922 195.471 109.465C195.505 109.375 195.534 109.291 195.609 109.224C195.934 108.948 196.193 108.612 196.405 108.249C196.647 107.845 196.943 107.783 197.372 107.858C197.689 107.908 197.998 107.994 198.307 108.091C199.139 108.366 199.856 108.811 200.49 109.398C200.656 109.549 200.74 109.758 200.717 109.972C200.65 110.507 200.544 111.036 200.353 111.553C199.932 112.684 199.29 113.691 198.678 114.717C198.477 115.048 198.255 115.38 198.089 115.728C197.962 115.999 197.7 116.242 197.637 116.535C197.582 116.797 197.528 117.058 197.381 117.294C197.218 117.552 197.004 117.788 196.802 118.014C196.644 118.189 196.435 118.339 196.291 118.529C196.163 118.7 196.137 118.836 195.882 118.817C195.616 118.798 195.475 118.569 195.259 118.449C195.056 118.335 194.862 118.386 194.645 118.344C194.211 118.26 193.815 118.114 193.4 117.952Z" fill="black"/>
<path d="M213.288 126.386C212.606 126.095 212.311 125.179 212.591 124.522C212.767 124.111 212.941 123.713 213.155 123.326C213.396 122.892 213.746 122.541 213.98 122.102C214.418 121.277 214.694 120.372 215.017 119.497C215.326 118.661 215.644 117.799 216.191 117.107C216.374 116.877 216.418 116.644 216.471 116.376C216.499 116.234 216.527 116.087 216.579 115.929C216.813 115.207 217.077 114.741 217.363 114.546C217.636 114.361 217.975 114.353 218.375 114.524C218.622 114.63 218.857 114.786 219.063 114.924C219.142 114.977 219.215 115.026 219.283 115.067C219.457 115.173 219.654 115.262 219.842 115.345C220.328 115.561 220.88 115.806 221.088 116.439C221.223 116.847 221.142 117.269 221.072 117.642C221.053 117.747 221.032 117.849 221.02 117.947L221.008 118.029C220.968 118.317 220.927 118.612 220.781 118.895C220.696 119.057 220.585 119.197 220.478 119.33C220.129 119.769 220.003 120.312 219.785 120.822C219.593 121.27 219.36 121.627 219.096 122.03C218.809 122.47 218.577 122.947 218.299 123.392C218.065 123.769 217.836 124.137 217.663 124.547C217.53 124.858 217.415 125.192 217.233 125.473C217.089 125.697 216.91 125.888 216.79 126.123C216.454 126.772 215.906 127.291 215.152 126.969C215.103 126.948 214.904 126.858 214.853 126.837C214.791 126.81 214.726 126.784 214.661 126.764C214.493 126.71 214.32 126.671 214.137 126.63C213.919 126.58 213.694 126.53 213.472 126.451C213.403 126.434 213.342 126.41 213.288 126.386Z" fill="#E2231A"/>
<path d="M199.583 119.482C199.647 119.71 199.775 119.859 200.007 120.006C200.309 120.2 200.606 120.399 200.979 120.422C201.116 120.43 201.24 120.437 201.37 120.476C201.594 120.546 201.763 120.669 201.993 120.706C202.343 120.761 202.667 120.779 203.023 120.733C203.115 120.722 203.174 120.66 203.194 120.576C203.242 120.389 203.345 120.249 203.468 120.112C203.631 119.935 203.726 119.704 203.823 119.487C203.963 119.186 204.177 118.938 204.361 118.664C204.567 118.349 204.751 118.02 204.858 117.658C204.92 117.42 205.06 117.221 205.158 117.005C205.359 116.572 205.471 116.104 205.707 115.682C205.879 115.382 206.002 115.055 206.149 114.74C206.211 114.605 206.286 114.483 206.384 114.368C206.497 114.243 206.559 114.086 206.618 113.933C206.695 113.743 206.797 113.567 206.905 113.401C207.007 113.238 207.089 113.072 207.152 112.887C207.224 112.653 207.367 112.438 207.501 112.237C207.689 111.965 207.766 111.606 207.831 111.288C207.876 111.063 207.972 110.768 207.841 110.564C207.708 110.358 207.515 110.172 207.381 109.953C207.173 109.62 206.964 109.455 206.617 109.27C206.291 109.096 205.922 108.956 205.567 108.86C205.193 108.758 204.778 108.587 204.382 108.628C204.153 108.652 204.102 108.771 203.961 108.95C203.637 109.36 203.222 109.662 203.088 110.206C203.043 110.387 202.979 110.574 202.86 110.729C202.772 110.795 202.758 110.904 202.717 110.99C202.626 111.163 202.505 111.319 202.395 111.472C201.95 112.001 201.552 112.561 201.257 113.188C201.189 113.337 201.122 113.493 201.061 113.646C200.979 113.865 200.89 114.073 200.741 114.256C200.71 114.289 200.682 114.328 200.666 114.367C200.479 114.879 200.123 115.301 199.915 115.799C199.772 116.134 199.695 116.482 199.603 116.827C199.458 117.364 199.291 118.069 199.402 118.617C199.446 118.834 199.523 119.03 199.546 119.252C199.552 119.34 199.564 119.414 199.583 119.482Z" fill="#E2231A"/>
<path d="M194.481 117.641C194.562 117.699 194.688 117.707 194.795 117.693C194.886 117.676 194.977 117.688 195.061 117.723C195.09 117.736 195.13 117.757 195.161 117.754C195.533 117.655 195.933 117.661 196.26 117.42C196.317 117.378 196.343 117.327 196.373 117.273C196.465 117.123 196.641 117.051 196.737 116.919C196.932 116.656 197.11 116.385 197.242 116.077C197.406 115.693 197.588 115.303 197.859 114.981C198.126 114.671 198.307 114.311 198.495 113.963C198.589 113.78 198.709 113.607 198.812 113.432C199.109 112.893 199.468 112.392 199.679 111.807C199.869 111.297 199.978 110.779 200.071 110.247C200.122 109.956 199.958 109.752 199.788 109.589C199.528 109.345 199.28 109.057 198.963 108.882C198.661 108.716 198.311 108.613 197.991 108.478C197.766 108.384 197.672 108.362 197.448 108.433C197.275 108.488 197.099 108.505 196.925 108.552C196.531 108.659 196.358 109.156 196.215 109.496C196.095 109.783 196.026 110.106 195.857 110.371C195.734 110.562 195.52 110.659 195.384 110.836C195.229 111.037 195.179 111.3 195.04 111.512C194.869 111.778 194.657 112.016 194.494 112.288C194.285 112.638 194.122 113.018 193.962 113.394C193.855 113.644 193.729 113.89 193.654 114.147C193.609 114.301 193.571 114.455 193.531 114.607C193.445 114.943 193.289 115.245 193.163 115.567C193.09 115.752 193.097 115.93 193.088 116.124C193.08 116.31 193.012 116.583 193.128 116.748C193.208 116.862 193.397 116.953 193.512 117.029C193.661 117.129 193.813 117.22 193.962 117.318C194.135 117.431 194.32 117.522 194.481 117.641Z" fill="#E2231A"/>
</mask>
<g mask="url(#mask3_1_25634)">
<rect x="195.339" y="98.7505" width="38" height="30" transform="rotate(23.1369 195.339 98.7505)" fill="#5F0F0B"/>
</g>
<mask id="mask4_1_25634" style="mask-type:alpha" maskUnits="userSpaceOnUse" x="238" y="207" width="31" height="23">
<path d="M259.703 229.027C259.31 229.162 258.887 229.183 258.494 229.307C258.423 229.329 258.21 229.25 258.184 229.252C257.763 229.211 257.569 228.483 257.497 228.159C257.366 227.55 257.243 226.937 257.09 226.326C257.006 225.998 256.921 225.665 256.891 225.331C256.85 224.884 256.984 224.481 257.312 224.161C257.448 224.029 257.629 224.002 257.804 223.96C258.033 223.905 258.257 223.832 258.476 223.742C258.731 223.638 258.986 223.479 259.257 223.43C259.595 223.368 259.941 223.254 260.283 223.23C260.702 223.2 261.077 223.13 261.482 222.99C261.917 222.839 262.356 222.672 262.809 222.585C262.982 222.551 263.149 222.551 263.317 222.487C263.581 222.387 263.839 222.265 264.108 222.179C264.424 222.077 264.749 222.085 265.072 222.013C265.446 221.93 265.809 221.875 266.189 221.824C266.456 221.788 266.763 221.703 267.028 221.8C267.357 221.923 267.488 222.369 267.599 222.665C267.697 222.908 267.713 223.176 267.827 223.426C267.911 223.607 267.999 223.79 268.107 223.954C268.296 224.249 268.419 224.556 268.483 224.895C268.517 225.066 268.545 225.244 268.627 225.399C268.743 225.617 268.651 226.026 268.567 226.24C268.466 226.492 268.336 226.54 268.076 226.639C267.381 226.902 266.633 226.973 265.921 227.179C265.491 227.304 265.114 227.542 264.697 227.696C264.542 227.752 264.428 227.816 264.264 227.831C264.016 227.855 263.777 227.902 263.536 227.973C262.928 228.147 262.283 228.214 261.688 228.415C261.476 228.486 261.268 228.576 261.057 228.651C260.843 228.727 260.633 228.756 260.414 228.818C260.176 228.886 259.937 228.954 259.703 229.027Z" fill="black"/>
<path d="M260.252 228.224C260.093 228.264 259.954 228.371 259.78 228.366C259.295 228.354 258.839 228.516 258.368 228.567C258.326 228.543 258.283 228.527 258.25 228.495C258 228.247 257.841 227.601 257.823 227.257C257.796 226.695 257.685 226.146 257.526 225.607C257.457 225.372 257.515 225.164 257.66 224.987C257.856 224.744 258.083 224.545 258.4 224.486C258.507 224.462 258.615 224.428 258.718 224.387C259.358 224.169 259.99 223.916 260.649 223.737C260.686 223.729 260.72 223.715 260.75 223.704C261.079 223.572 261.414 223.476 261.772 223.499C261.849 223.503 261.919 223.477 261.99 223.455C262.473 223.282 262.979 223.177 263.458 222.988C263.751 222.869 264.103 222.921 264.37 222.705C264.416 222.669 264.473 222.682 264.528 222.685C264.785 222.698 265.046 222.7 265.3 222.655C265.701 222.581 266.102 222.462 266.516 222.569C266.528 222.573 266.538 222.571 266.549 222.569C266.709 222.555 266.851 222.61 266.938 222.736C267.09 222.963 267.306 223.154 267.402 223.412C267.504 223.704 267.668 223.954 267.829 224.212C268.003 224.503 268.04 224.82 268.025 225.143C268.016 225.318 267.978 225.489 267.999 225.663C268.028 225.841 267.947 225.935 267.808 226.024C267.515 226.219 267.197 226.37 266.877 226.491C266.696 226.557 266.532 226.67 266.335 226.692C265.777 226.757 265.247 226.959 264.709 227.118C264.143 227.276 263.568 227.393 263.003 227.555C262.489 227.706 261.965 227.84 261.446 227.933C261.092 228.001 260.788 228.236 260.404 228.169C260.357 228.162 260.303 228.213 260.252 228.224Z" fill="#E2231A"/>
<path d="M265.712 212.202C265.665 212.032 265.596 211.865 265.501 211.645C265.306 211.185 265.269 210.755 265.218 210.282C265.113 209.301 264.58 207.054 263.284 207.111C262.671 207.139 262.029 207.453 261.421 207.588C260.627 207.764 259.697 207.847 258.944 208.161C258.785 208.218 258.722 208.313 258.724 208.449C258.736 208.917 258.54 209.345 258.641 209.815C258.682 210.01 258.766 210.193 258.799 210.39C258.838 210.624 258.798 210.868 258.852 211.101C258.915 211.373 258.951 211.645 259.012 211.918C259.17 212.623 259.325 213.329 259.482 214.036C259.54 214.297 259.588 214.562 259.654 214.821C259.708 215.024 259.817 215.164 259.881 215.354C260.042 215.837 259.915 216.369 260.025 216.865C260.095 217.177 260.048 217.457 260.083 217.772C260.157 218.416 260.438 219.007 260.558 219.638C260.625 219.996 260.662 220.35 260.773 220.701C260.912 221.145 260.976 221.685 261.558 221.705C261.96 221.72 262.312 221.438 262.712 221.46C263.101 221.482 263.509 221.522 263.893 221.382C264.226 221.263 264.534 220.995 264.898 220.953C265.222 220.916 265.683 221.076 265.943 220.814C266.281 220.477 266.386 219.837 266.332 219.378C266.276 218.911 266.306 218.42 266.246 217.943C266.174 217.367 266.269 216.833 266.267 216.261C266.264 215.886 266.255 215.521 266.186 215.152C266.118 214.788 265.96 214.445 265.894 214.08C265.817 213.657 265.799 213.162 265.785 212.737C265.78 212.521 265.755 212.359 265.712 212.202Z" fill="black"/>
<path d="M258.829 217.374C258.828 217.37 258.825 217.366 258.824 217.36C258.561 216.207 258.224 213.612 258.21 213.531C258.126 213.104 258.064 212.676 257.93 212.267C257.847 212.01 257.758 211.758 257.736 211.492C257.732 211.427 257.703 211.365 257.689 211.302C257.624 211.009 257.479 210.715 257.307 210.469C257.15 210.242 257.1 210.103 257.061 209.819C256.949 209.023 256.776 208.419 255.96 208.145C255.371 207.947 254.675 208.135 254.1 208.29C253.637 208.415 253.131 208.453 252.68 208.61C251.611 208.98 251.104 209.576 251.2 210.714C251.233 211.119 251.423 211.515 251.609 211.871C251.821 212.28 251.873 212.78 251.973 213.229C252.08 213.709 252.125 214.107 252.116 214.597C252.098 215.647 252.493 216.649 252.669 217.673C252.727 218.012 252.713 218.349 252.787 218.687C252.858 219.005 252.933 219.325 253.002 219.644C253.137 220.269 253.104 221.151 253.459 221.702C253.703 222.079 253.741 222.503 253.834 222.931C253.877 223.128 253.981 223.32 254.121 223.462C254.245 223.589 254.284 223.726 254.464 223.757C254.668 223.795 254.911 223.688 255.104 223.637C255.514 223.529 255.93 223.458 256.321 223.295C256.583 223.183 256.866 223.12 257.141 223.037C257.348 222.974 257.561 222.905 257.76 222.806C258.038 222.669 258.35 222.606 258.617 222.443C258.939 222.258 259.071 221.973 259.099 221.611C259.126 221.275 258.955 220.983 258.953 220.662C258.957 220.603 258.933 220.543 258.953 220.495C259.112 220.037 258.954 219.568 259.018 219.105C259.026 219.027 258.995 218.936 258.968 218.862C258.913 218.729 258.92 218.597 258.905 218.459C258.872 218.098 258.848 217.736 258.829 217.374Z" fill="black"/>
<path d="M255.922 222.726C256.118 222.678 256.315 222.619 256.515 222.549C256.74 222.471 256.986 222.462 257.217 222.397C257.456 222.331 257.663 222.19 257.903 222.126C258.008 222.098 258.097 222.122 258.196 222.058C258.366 221.951 258.423 221.739 258.455 221.554C258.528 221.117 258.417 220.679 258.438 220.243C258.463 219.74 258.351 219.322 258.222 218.85C258.117 218.467 258.174 217.99 258.169 217.596C258.162 217.111 258.081 216.619 258.118 216.134C258.132 215.931 258.017 215.744 257.982 215.548C257.931 215.175 257.849 214.802 257.761 214.438C257.665 214.025 257.564 213.616 257.472 213.202C257.376 212.752 257.227 212.314 257.122 211.871C257.058 211.581 256.96 211.306 256.836 211.04C256.781 210.911 256.724 210.783 256.69 210.649C256.643 210.454 256.554 210.278 256.431 210.134C256.277 209.951 256.175 209.735 255.997 209.571C255.897 209.48 255.808 209.374 255.751 209.241C255.687 209.071 255.548 209.015 255.37 209.044C254.947 209.111 254.516 209.172 254.095 209.251C253.687 209.32 253.282 209.394 252.869 209.41C252.815 209.411 252.759 209.423 252.71 209.445C252.559 209.5 252.408 209.523 252.248 209.537C251.934 209.559 251.756 209.765 251.807 210.08C251.845 210.303 251.871 210.536 251.955 210.75C251.902 210.853 251.956 210.949 251.973 211.043C252.027 211.357 252.209 211.618 252.33 211.902C252.351 211.945 252.461 212.148 252.479 212.227C252.535 212.479 252.559 212.734 252.526 212.995C252.47 213.496 252.506 214.002 252.623 214.48C252.766 215.076 252.812 215.695 253.057 216.268C253.111 216.397 253.107 216.543 253.099 216.675C253.085 216.971 253.15 217.265 253.1 217.558C253.087 217.648 253.105 217.746 253.129 217.834C253.208 218.174 253.227 218.522 253.261 218.872C253.275 218.982 253.283 219.088 253.353 219.188C253.378 219.23 253.398 219.291 253.398 219.341C253.413 219.7 253.508 220.03 253.694 220.332C253.879 220.629 253.813 221.085 253.979 221.41C254.082 221.611 254.229 221.782 254.315 221.996C254.448 222.32 254.471 222.788 254.861 222.821C255.223 222.851 255.574 222.81 255.922 222.726Z" fill="#E2231A"/>
<path d="M246.935 224.204C246.685 224.065 246.785 223.76 246.718 223.471C246.663 223.234 246.509 223.142 246.381 222.941C246.079 222.467 246.02 221.888 245.816 221.373C245.505 220.585 245.427 219.786 245.338 218.953C245.288 218.424 245.176 217.902 245.052 217.383C245.026 217.265 245.005 217.15 245.003 217.024C245.001 216.576 245.021 216.126 244.948 215.682C244.936 215.609 244.953 215.536 244.951 215.46C244.966 215.11 244.987 214.76 244.896 214.422C244.759 213.901 244.729 213.365 244.658 212.841C244.624 212.577 244.587 212.314 244.538 212.054C244.507 211.885 244.379 211.611 244.403 211.446C244.432 211.246 244.756 210.964 244.924 210.891C245.378 210.697 245.844 210.479 246.328 210.371C246.717 210.285 247.074 210.338 247.478 210.294C247.855 210.252 248.322 210.322 248.696 210.364C249.104 210.413 249.556 210.501 249.903 210.746C250.356 211.064 250.427 211.894 250.494 212.4C250.532 212.689 250.578 212.983 250.656 213.269C250.727 213.519 250.763 213.771 250.732 214.032C250.719 214.158 250.722 214.288 250.761 214.416C250.834 214.628 250.843 214.854 250.855 215.072C250.863 215.227 250.873 215.387 250.927 215.534C251.046 215.865 251.078 216.214 251.143 216.558C251.194 216.833 251.291 217.087 251.357 217.355C251.459 217.792 251.541 218.234 251.62 218.676C251.665 218.949 251.72 219.223 251.755 219.491C251.795 219.855 251.814 220.224 251.954 220.573C251.976 220.622 251.993 220.677 251.985 220.733C251.889 221.405 252.385 222.066 252.239 222.734C252.145 223.154 251.597 223.187 251.27 223.279C250.864 223.393 250.525 223.646 250.126 223.765C249.983 223.808 249.829 223.816 249.687 223.861C249.435 223.938 249.229 224.153 248.973 224.212C248.729 224.269 248.459 224.226 248.21 224.275C247.821 224.351 247.398 224.373 247.013 224.239C246.982 224.229 246.958 224.217 246.935 224.204Z" fill="black"/>
<path d="M241.849 225.764C241.283 225.909 240.803 225.985 240.352 225.547C240.183 225.383 240.123 225.162 240.042 224.945C239.994 224.817 239.966 224.691 239.904 224.566C239.739 224.235 239.612 223.914 239.582 223.537C239.571 223.387 239.569 223.236 239.528 223.099C239.407 222.671 239.316 222.241 239.19 221.82C238.914 220.918 238.854 219.994 238.806 219.062C238.776 218.587 238.737 218.114 238.586 217.659C238.561 217.567 238.535 217.482 238.557 217.384C238.66 216.97 238.675 216.546 238.636 216.127C238.597 215.658 238.801 215.435 239.194 215.246C239.481 215.102 239.782 214.991 240.089 214.891C240.925 214.629 241.768 214.572 242.625 214.679C242.848 214.706 243.037 214.827 243.144 215.013C243.401 215.488 243.623 215.979 243.769 216.511C244.086 217.675 244.151 218.868 244.253 220.058C244.282 220.445 244.295 220.843 244.364 221.223C244.418 221.517 244.346 221.867 244.466 222.142C244.575 222.387 244.683 222.63 244.701 222.908C244.719 223.213 244.683 223.529 244.65 223.831C244.624 224.065 244.541 224.309 244.535 224.547C244.531 224.76 244.589 224.886 244.371 225.019C244.144 225.159 243.895 225.056 243.65 225.084C243.419 225.109 243.29 225.264 243.089 225.356C242.688 225.541 242.281 225.653 241.849 225.764Z" fill="black"/>
<path d="M262.924 221.026C262.2 221.187 261.427 220.614 261.272 219.917C261.175 219.481 261.085 219.056 261.033 218.616C260.976 218.123 261.056 217.634 260.99 217.141C260.865 216.216 260.562 215.32 260.314 214.42C260.078 213.561 259.834 212.675 259.874 211.794C259.89 211.5 259.79 211.285 259.676 211.037C259.616 210.905 259.554 210.769 259.503 210.611C259.273 209.887 259.216 209.355 259.335 209.029C259.448 208.72 259.72 208.516 260.144 208.422C260.407 208.364 260.689 208.353 260.937 208.346C261.031 208.342 261.12 208.34 261.199 208.334C261.401 208.319 261.613 208.276 261.814 208.234C262.335 208.127 262.927 208.004 263.465 208.397C263.812 208.65 263.992 209.039 264.153 209.384C264.198 209.48 264.241 209.575 264.289 209.662L264.327 209.736C264.462 209.992 264.601 210.256 264.647 210.572C264.672 210.753 264.664 210.93 264.654 211.102C264.626 211.661 264.84 212.176 264.961 212.718C265.066 213.194 265.085 213.619 265.105 214.101C265.128 214.625 265.218 215.148 265.252 215.672C265.281 216.115 265.309 216.547 265.408 216.981C265.481 217.312 265.582 217.65 265.598 217.985C265.611 218.251 265.578 218.51 265.616 218.771C265.722 219.494 265.579 220.235 264.778 220.413C264.727 220.424 264.513 220.468 264.459 220.479C264.393 220.494 264.325 220.511 264.26 220.532C264.092 220.587 263.929 220.656 263.757 220.729C263.55 220.816 263.338 220.906 263.112 220.972C263.046 220.997 262.982 221.013 262.924 221.026Z" fill="#E2231A"/>
<path d="M247.764 223.402C247.949 223.55 248.139 223.596 248.414 223.581C248.772 223.562 249.13 223.55 249.446 223.352C249.562 223.278 249.666 223.212 249.796 223.168C250.018 223.095 250.227 223.096 250.436 222.991C250.752 222.832 251.026 222.658 251.288 222.413C251.357 222.35 251.368 222.265 251.336 222.186C251.265 222.006 251.268 221.832 251.288 221.649C251.318 221.411 251.259 221.167 251.212 220.935C251.15 220.608 251.18 220.282 251.17 219.952C251.153 219.576 251.111 219.201 250.987 218.845C250.899 218.615 250.897 218.372 250.85 218.14C250.761 217.671 250.58 217.225 250.525 216.745C250.49 216.401 250.4 216.063 250.335 215.721C250.307 215.576 250.297 215.432 250.309 215.282C250.328 215.115 250.287 214.951 250.246 214.793C250.197 214.593 250.178 214.391 250.169 214.193C250.157 214.001 250.127 213.818 250.07 213.631C249.993 213.399 249.983 213.141 249.975 212.899C249.969 212.569 249.823 212.232 249.69 211.936C249.596 211.727 249.502 211.431 249.276 211.342C249.047 211.252 248.783 211.213 248.546 211.114C248.183 210.964 247.917 210.952 247.527 211.003C247.161 211.052 246.78 211.154 246.435 211.283C246.072 211.418 245.635 211.521 245.337 211.785C245.165 211.938 245.193 212.064 245.183 212.292C245.158 212.814 244.997 213.301 245.206 213.821C245.275 213.995 245.332 214.184 245.325 214.379C245.292 214.484 245.344 214.581 245.36 214.675C245.388 214.868 245.38 215.065 245.38 215.254C245.327 215.943 245.33 216.63 245.455 217.312C245.487 217.472 245.523 217.638 245.563 217.798C245.624 218.024 245.673 218.245 245.658 218.48C245.653 218.525 245.653 218.573 245.662 218.614C245.809 219.139 245.766 219.689 245.887 220.216C245.966 220.571 246.106 220.899 246.232 221.233C246.428 221.754 246.703 222.424 247.113 222.804C247.274 222.955 247.452 223.07 247.599 223.236C247.656 223.304 247.709 223.358 247.764 223.402Z" fill="#E2231A"/>
<path d="M242.545 224.881C242.645 224.88 242.752 224.813 242.831 224.739C242.894 224.673 242.975 224.629 243.064 224.609C243.095 224.602 243.14 224.597 243.163 224.577C243.408 224.279 243.737 224.05 243.862 223.664C243.883 223.596 243.875 223.54 243.868 223.478C243.855 223.303 243.956 223.142 243.957 222.979C243.962 222.652 243.949 222.327 243.876 222.001C243.786 221.593 243.707 221.17 243.74 220.75C243.775 220.343 243.713 219.945 243.663 219.552C243.633 219.348 243.63 219.139 243.611 218.937C243.538 218.325 243.538 217.709 243.368 217.111C243.226 216.585 243.012 216.101 242.778 215.614C242.649 215.348 242.397 215.278 242.164 215.245C241.811 215.197 241.441 215.108 241.082 215.151C240.74 215.192 240.395 215.312 240.056 215.389C239.819 215.444 239.73 215.481 239.589 215.669C239.48 215.815 239.347 215.931 239.233 216.071C238.976 216.387 239.125 216.892 239.207 217.251C239.276 217.555 239.408 217.858 239.426 218.17C239.437 218.398 239.32 218.602 239.313 218.825C239.304 219.079 239.416 219.321 239.427 219.574C239.443 219.89 239.409 220.208 239.436 220.523C239.47 220.93 239.559 221.333 239.648 221.733C239.707 221.997 239.748 222.27 239.837 222.524C239.89 222.675 239.948 222.823 240.005 222.968C240.131 223.292 240.179 223.629 240.265 223.963C240.314 224.156 240.423 224.297 240.529 224.46C240.631 224.616 240.734 224.877 240.925 224.943C241.057 224.99 241.263 224.953 241.401 224.948C241.58 224.943 241.757 224.928 241.935 224.921C242.142 224.912 242.345 224.878 242.545 224.881Z" fill="#E2231A"/>
</mask>
<g mask="url(#mask4_1_25634)">
<rect x="232.232" y="209.032" width="38" height="30" transform="rotate(-12.5151 232.232 209.032)" fill="#5F0F0B"/>
</g>
<mask id="mask5_1_25634" style="mask-type:alpha" maskUnits="userSpaceOnUse" x="46" y="55" width="33" height="26">
<path d="M71.2693 77.158C70.9507 77.425 70.5629 77.5954 70.2401 77.8525C70.1818 77.8987 69.955 77.9016 69.9315 77.9121C69.5233 78.0249 69.0815 77.4154 68.8978 77.1381C68.5573 76.6164 68.2227 76.0884 67.8611 75.5731C67.665 75.2964 67.4667 75.0161 67.3183 74.7154C67.1203 74.3129 67.101 73.8885 67.2926 73.4719C67.3718 73.2999 67.5307 73.2099 67.6797 73.1087C67.8734 72.9753 68.0566 72.826 68.2287 72.6637C68.429 72.4751 68.6107 72.2353 68.8462 72.092C69.1393 71.9131 69.4215 71.683 69.7322 71.5381C70.1123 71.36 70.4373 71.16 70.7654 70.8842C71.1176 70.5873 71.467 70.2746 71.8591 70.0301C72.008 69.9365 72.1639 69.8764 72.2983 69.757C72.5092 69.5689 72.7055 69.3627 72.9264 69.1859C73.1843 68.9768 73.4908 68.8679 73.7664 68.6853C74.0861 68.4736 74.4057 68.2923 74.7412 68.1082C74.9784 67.979 75.2339 67.7894 75.516 67.7855C75.8668 67.7819 76.1496 68.1511 76.3598 68.388C76.5379 68.5801 76.6488 68.8243 76.8451 69.017C76.9881 69.1561 77.1358 69.2946 77.2958 69.4097C77.5779 69.6167 77.8022 69.8595 77.9841 70.1533C78.0765 70.3004 78.1671 70.4564 78.2996 70.572C78.4854 70.7335 78.5465 71.148 78.544 71.3783C78.5409 71.6498 78.4366 71.7418 78.2292 71.9274C77.6748 72.4218 77.0016 72.7559 76.4109 73.2031C76.0546 73.4747 75.7879 73.8318 75.4533 74.1246C75.329 74.2324 75.2459 74.3332 75.0981 74.4056C74.8751 74.5178 74.6685 74.6471 74.4694 74.7993C73.9641 75.1797 73.3862 75.4736 72.9026 75.8753C72.73 76.0176 72.5679 76.1758 72.3977 76.3216C72.2257 76.4686 72.0397 76.5714 71.8577 76.7072C71.6592 76.8565 71.4608 77.0058 71.2693 77.158Z" fill="black"/>
<path d="M71.4946 76.2115C71.361 76.3051 71.2695 76.4547 71.1048 76.513C70.6483 76.6756 70.2801 76.9906 69.8587 77.2062C69.8111 77.1996 69.7653 77.1995 69.7231 77.1817C69.4003 77.0398 69.0205 76.4933 68.881 76.1791C68.6539 75.6637 68.3539 75.1916 68.012 74.7445C67.8633 74.5508 67.8428 74.3357 67.9145 74.1179C68.01 73.8208 68.1512 73.5544 68.4256 73.3854C68.5174 73.3246 68.6052 73.2537 68.6877 73.1788C69.2066 72.746 69.7057 72.2833 70.2569 71.88C70.2887 71.859 70.3152 71.8338 70.3394 71.8127C70.5992 71.5719 70.8772 71.3624 71.2201 71.2547C71.2936 71.2314 71.3496 71.1816 71.4079 71.1354C71.7967 70.8016 72.2312 70.5214 72.6107 70.1734C72.841 69.9573 73.1886 69.8796 73.3604 69.5827C73.3905 69.5323 73.4487 69.5242 73.5011 69.5073C73.7452 69.427 73.9899 69.336 74.2113 69.2021C74.5586 68.9898 74.8902 68.7346 75.3157 68.6865C75.3281 68.6859 75.3369 68.6801 75.3457 68.6742C75.4899 68.6041 75.6427 68.6046 75.7688 68.6913C75.9922 68.8483 76.2622 68.949 76.4449 69.1558C76.6446 69.392 76.8874 69.5666 77.1301 69.7489C77.3963 69.9589 77.5453 70.2414 77.6467 70.5478C77.7014 70.7149 77.7273 70.8883 77.8091 71.0425C77.8998 71.1985 77.8577 71.3153 77.7604 71.4484C77.5568 71.7358 77.3139 71.9907 77.0582 72.2185C76.9133 72.345 76.8006 72.5086 76.6246 72.5998C76.1267 72.861 75.7043 73.2399 75.259 73.5806C74.7873 73.9312 74.2922 74.2465 73.8228 74.6006C73.3976 74.9255 72.9566 75.238 72.5051 75.5117C72.1989 75.7017 71.9994 76.0296 71.6172 76.1049C71.5707 76.1153 71.5388 76.1822 71.4946 76.2115Z" fill="#E2231A"/>
<path d="M70.8478 59.2948C70.7436 59.1528 70.6189 59.022 70.4519 58.8505C70.1045 58.4911 69.9158 58.1027 69.6991 57.6795C69.2492 56.8009 67.9456 54.8943 66.7565 55.4126C66.1946 55.6578 65.7076 56.1811 65.1883 56.5251C64.5101 56.9744 63.6715 57.385 63.0816 57.9486C62.9538 58.0587 62.9282 58.1697 62.979 58.2962C63.1587 58.7286 63.1291 59.198 63.3912 59.6013C63.4994 59.7685 63.6435 59.9094 63.7447 60.0813C63.8651 60.2861 63.9155 60.5272 64.0495 60.7256C64.2057 60.9576 64.3373 61.1983 64.4917 61.4315C64.8925 62.0326 65.2897 62.6361 65.6898 63.2402C65.8373 63.4627 65.977 63.6929 66.1315 63.9108C66.2544 64.081 66.4069 64.1731 66.5346 64.3274C66.8584 64.7203 66.9302 65.2623 67.2111 65.6862C67.3877 65.9529 67.4445 66.2304 67.5906 66.5123C67.8898 67.0867 68.3638 67.5377 68.7024 68.0834C68.8931 68.3942 69.0549 68.7114 69.2839 68.9994C69.5737 69.364 69.8261 69.8449 70.3767 69.6555C70.7578 69.525 70.9852 69.1355 71.3664 69.0126C71.7375 68.8938 72.1327 68.7845 72.4408 68.5169C72.7094 68.2856 72.9003 67.9253 73.2252 67.7559C73.5141 67.6051 74.0019 67.5895 74.1516 67.2515C74.3456 66.8154 74.2147 66.1804 73.9996 65.7714C73.7799 65.3553 73.632 64.8865 73.4047 64.4628C73.1312 63.9501 73.0281 63.4186 72.8217 62.8845C72.6846 62.5356 72.5452 62.1985 72.3487 61.8788C72.1545 61.5627 71.8838 61.2998 71.6914 60.9825C71.468 60.6146 71.2731 60.1592 71.1079 59.768C71.0262 59.5679 70.945 59.4261 70.8478 59.2948Z" fill="black"/>
<path d="M66.2759 66.5926C66.2735 66.5891 66.2694 66.5867 66.2659 66.5814C65.6077 65.5993 64.3629 63.2981 64.3208 63.2268C64.0897 62.8589 63.8775 62.481 63.6059 62.1476C63.4361 61.9373 63.2633 61.7341 63.1471 61.4934C63.1208 61.4346 63.071 61.3863 63.0359 61.3333C62.8698 61.0824 62.6289 60.8608 62.3802 60.6926C62.1521 60.5362 62.0555 60.4249 61.9169 60.1735C61.5277 59.4708 61.1495 58.969 60.2891 59.0053C59.6691 59.0322 59.0861 59.4565 58.605 59.8083C58.2175 60.0904 57.7591 60.3076 57.3939 60.6157C56.5291 61.3435 56.269 62.0826 56.7666 63.11C56.943 63.4761 57.2624 63.7779 57.563 64.0438C57.9077 64.3492 58.1361 64.7976 58.39 65.1809C58.6615 65.5907 58.8461 65.9461 59.014 66.4067C59.3731 67.3938 60.1017 68.1869 60.6327 69.0805C60.8081 69.376 60.9159 69.696 61.1066 69.9839C61.2868 70.2559 61.4717 70.5273 61.6501 70.8005C61.9999 71.3363 62.286 72.1709 62.8143 72.558C63.1778 72.8229 63.3648 73.2048 63.6052 73.5716C63.7163 73.7394 63.8816 73.8815 64.0636 73.9643C64.2244 74.0382 64.3098 74.1519 64.4897 74.1166C64.6932 74.0784 64.8823 73.8921 65.0437 73.775C65.3876 73.5269 65.7508 73.3117 66.0578 73.0194C66.2617 72.8208 66.5037 72.6605 66.7304 72.4849C66.9012 72.3514 67.075 72.2109 67.2259 72.0474C67.4358 71.8194 67.7042 71.6492 67.8953 71.4006C68.1295 71.1133 68.1504 70.7996 68.0468 70.4514C67.952 70.128 67.6876 69.9168 67.5709 69.618C67.5535 69.5609 67.5095 69.5138 67.5109 69.4621C67.4946 68.9772 67.179 68.5967 67.0728 68.141C67.0531 68.0651 66.9916 67.9915 66.9395 67.932C66.8399 67.8277 66.7997 67.7018 66.736 67.5788C66.576 67.2528 66.4242 66.9239 66.2759 66.5926Z" fill="black"/>
<path d="M65.4826 72.6301C65.6481 72.5154 65.8112 72.3895 65.972 72.2525C66.1546 72.0985 66.3806 72.0022 66.5731 71.8594C66.7728 71.7119 66.9156 71.5055 67.1164 71.3597C67.2041 71.2965 67.2964 71.2862 67.366 71.1918C67.4858 71.0312 67.4629 70.8125 67.427 70.6279C67.3378 70.1939 67.078 69.8247 66.9405 69.4101C66.7839 68.9319 66.5293 68.5821 66.2396 68.1869C66.0049 67.8672 65.887 67.4014 65.7411 67.0355C65.5603 66.586 65.3083 66.1557 65.1692 65.6887C65.1093 65.4946 64.9345 65.3613 64.8316 65.1906C64.651 64.8604 64.4404 64.5425 64.228 64.2334C63.9905 63.8824 63.7488 63.5368 63.5148 63.1835C63.2644 62.7979 62.9681 62.4427 62.7113 62.0665C62.5475 61.8192 62.3571 61.5971 62.1462 61.3937C62.0489 61.293 61.9499 61.1934 61.8703 61.0809C61.7556 60.9154 61.6097 60.7834 61.4431 60.693C61.2342 60.5772 61.0614 60.4122 60.8366 60.3222C60.7104 60.2736 60.5895 60.2063 60.4882 60.1031C60.3675 59.9671 60.2183 59.9643 60.0623 60.0549C59.6915 60.27 59.3106 60.4816 58.9457 60.7056C58.5895 60.9161 58.2387 61.1308 57.8586 61.2936C57.8086 61.314 57.7609 61.3456 57.7226 61.3837C57.6018 61.4891 57.4688 61.5645 57.3246 61.6346C57.0392 61.7677 56.9474 62.0243 57.107 62.2997C57.2234 62.4946 57.3309 62.7029 57.4861 62.872C57.4734 62.9872 57.5584 63.0579 57.6075 63.1397C57.7707 63.4129 58.034 63.5917 58.249 63.8127C58.2836 63.8457 58.4594 63.9961 58.5039 64.0632C58.6466 64.2787 58.7605 64.5082 58.8233 64.764C58.9505 65.2515 59.166 65.7111 59.4463 66.115C59.7933 66.6196 60.0584 67.181 60.4919 67.6282C60.5892 67.729 60.6375 67.8673 60.6777 67.9931C60.7703 68.2749 60.9365 68.5257 60.995 68.8173C61.0153 68.9055 61.0667 68.9909 61.1206 69.0645C61.3172 69.3536 61.459 69.6713 61.6168 69.9862C61.6688 70.0839 61.7149 70.1804 61.8158 70.2482C61.8539 70.2789 61.8943 70.3284 61.9124 70.3749C62.0548 70.7049 62.262 70.9794 62.544 71.1941C62.8237 71.4053 62.9252 71.8539 63.1965 72.0986C63.3647 72.2489 63.563 72.3565 63.72 72.5244C63.9602 72.7795 64.1499 73.2079 64.5252 73.0991C64.8745 72.9973 65.1876 72.8331 65.4826 72.6301Z" fill="#E2231A"/>
<path d="M57.6209 77.2324C57.3372 77.1916 57.3211 76.8719 57.1555 76.6258C57.0192 76.4239 56.8418 76.394 56.6507 76.2512C56.1986 75.9179 55.9357 75.3982 55.5614 74.9905C54.9879 74.3665 54.6292 73.6486 54.2471 72.9029C54.0105 72.4268 53.7192 71.9794 53.4173 71.539C53.3506 71.4383 53.2898 71.3388 53.2431 71.2223C53.0804 70.804 52.9377 70.3776 52.7108 69.9891C52.6734 69.9249 52.6625 69.8509 52.6339 69.7808C52.5226 69.4479 52.4161 69.1144 52.2106 68.8312C51.8958 68.3942 51.6757 67.9047 51.4214 67.4403C51.2946 67.2067 51.166 66.9742 51.0268 66.7487C50.9373 66.6021 50.72 66.3929 50.6828 66.2294C50.6387 66.0324 50.8396 65.6528 50.9711 65.5251C51.3252 65.1812 51.6818 64.8103 52.0952 64.5365C52.4272 64.3165 52.7794 64.2382 53.1414 64.0518C53.478 63.8771 53.939 63.7751 54.3036 63.6809C54.7017 63.5799 55.155 63.5007 55.5666 63.6041C56.1033 63.7391 56.4678 64.4888 56.7115 64.9373C56.8506 65.1933 56.9985 65.4511 57.1747 65.6902C57.3298 65.8975 57.4543 66.12 57.5188 66.3746C57.5519 66.4976 57.6009 66.6176 57.6835 66.723C57.8275 66.8944 57.9168 67.1021 58.0061 67.3022C58.0692 67.4434 58.1358 67.5899 58.2388 67.7071C58.469 67.974 58.6238 68.2883 58.808 68.5855C58.9536 68.8245 59.1358 69.0266 59.2932 69.2527C59.5448 69.6249 59.7805 70.0075 60.0126 70.3925C60.1524 70.6303 60.3015 70.867 60.4307 71.1042C60.5984 71.4302 60.7484 71.7679 61.0044 72.0431C61.0425 72.0814 61.0776 72.1268 61.0909 72.1814C61.2424 72.8436 61.9421 73.2822 62.0447 73.9589C62.1081 74.3845 61.608 74.6116 61.3359 74.8147C60.9972 75.067 60.7717 75.4248 60.4419 75.6788C60.3241 75.7696 60.1829 75.8326 60.0663 75.9251C59.859 76.0879 59.7436 76.3625 59.5257 76.5094C59.3185 76.6492 59.0515 76.7066 58.836 76.8417C58.4999 77.0517 58.1133 77.2239 57.7055 77.2374C57.6732 77.2385 57.6461 77.236 57.6209 77.2324Z" fill="black"/>
<path d="M53.4317 80.5112C52.9548 80.8501 52.5339 81.0933 51.9558 80.846C51.7393 80.7531 51.6041 80.5682 51.4512 80.3949C51.3604 80.2924 51.289 80.1847 51.1859 80.0904C50.914 79.841 50.6797 79.587 50.5167 79.2452C50.4525 79.1098 50.3971 78.9686 50.3099 78.8561C50.043 78.4993 49.8043 78.1313 49.5356 77.7832C48.9543 77.0399 48.5671 76.1985 48.1883 75.3465C47.9903 74.9134 47.7836 74.4862 47.4797 74.1157C47.4235 74.0386 47.3691 73.9679 47.3541 73.8685C47.3024 73.4453 47.1638 73.0441 46.9774 72.6669C46.773 72.2432 46.8837 71.9615 47.182 71.6445C47.3983 71.4071 47.6399 71.1963 47.8908 70.9919C48.5776 70.448 49.3437 70.093 50.1823 69.8857C50.3998 69.8305 50.6201 69.8752 50.7866 70.0115C51.1969 70.3623 51.58 70.7413 51.9072 71.1853C52.6207 72.1587 53.1087 73.2485 53.6303 74.3236C53.7962 74.6737 53.9508 75.0414 54.1514 75.3711C54.3075 75.626 54.3659 75.9787 54.5762 76.1926C54.7654 76.3824 54.9535 76.5704 55.0703 76.8234C55.1958 77.1012 55.2754 77.4093 55.3533 77.7033C55.4125 77.9309 55.423 78.1883 55.5028 78.4125C55.5751 78.6136 55.6747 78.7103 55.519 78.9126C55.3567 79.1242 55.0876 79.117 54.8687 79.2315C54.6621 79.3378 54.5975 79.528 54.4431 79.6863C54.1343 80.0027 53.7945 80.2532 53.4317 80.5112Z" fill="black"/>
<path d="M71.4093 68.5324C70.7911 68.9419 69.8634 68.6848 69.4691 68.0895C69.2222 67.7168 68.9858 67.3524 68.7796 66.9604C68.5493 66.5208 68.4491 66.0357 68.2106 65.599C67.7623 64.7803 67.158 64.0522 66.6044 63.3008C66.0758 62.5835 65.5304 61.8444 65.2525 61.0069C65.1611 60.7269 64.9912 60.5624 64.796 60.3715C64.6929 60.2695 64.5857 60.1652 64.4821 60.0356C64.0078 59.4425 63.7636 58.9664 63.7576 58.6197C63.7527 58.29 63.9333 58.0026 64.2954 57.7627C64.5197 57.6141 64.7792 57.5032 65.0081 57.4075C65.0951 57.3702 65.1769 57.3363 65.2481 57.3019C65.4323 57.2155 65.6148 57.0996 65.7873 56.9879C66.2353 56.7013 66.7434 56.3749 67.3869 56.5484C67.8015 56.6601 68.1091 56.9595 68.3827 57.2229C68.4595 57.2966 68.5333 57.3697 68.6089 57.434L68.6711 57.4894C68.8891 57.6804 69.1136 57.8774 69.2697 58.1552C69.3579 58.3153 69.4138 58.4841 69.4662 58.6476C69.641 59.1799 70.0253 59.5836 70.3318 60.0463C70.6009 60.4526 70.7708 60.8433 70.9622 61.2857C71.1718 61.767 71.4431 62.2226 71.6626 62.6998C71.8483 63.1029 72.0299 63.496 72.2774 63.8657C72.4646 64.1483 72.68 64.4275 72.8148 64.7346C72.9228 64.9782 72.9844 65.2322 73.1136 65.4618C73.4719 66.0987 73.6037 66.8424 72.9201 67.2952C72.876 67.3244 72.6917 67.4414 72.6458 67.4719C72.5893 67.5093 72.5322 67.5497 72.4791 67.5924C72.3419 67.7037 72.2146 67.8261 72.0797 67.9562C71.9182 68.1114 71.7526 68.2719 71.5647 68.4142C71.5123 68.4616 71.4587 68.4996 71.4093 68.5324Z" fill="#E2231A"/>
<path d="M58.1091 76.1859C58.3346 76.2577 58.5292 76.233 58.7798 76.1203C59.1076 75.9744 59.437 75.8349 59.6612 75.5365C59.7432 75.4262 59.817 75.3266 59.9218 75.2393C60.1032 75.0912 60.2985 75.0177 60.4559 74.8448C60.6941 74.5829 60.8876 74.3225 61.0449 73.9998C61.0862 73.9165 61.0665 73.833 61.0073 73.7705C60.8773 73.6279 60.8173 73.4644 60.7708 73.2868C60.7127 73.0533 60.5711 72.8472 60.4436 72.6471C60.2687 72.3639 60.1797 72.0493 60.0519 71.7451C59.9019 71.3997 59.7284 71.0649 59.4842 70.7768C59.3196 70.5936 59.231 70.3677 59.1035 70.1675C58.8526 69.7619 58.5233 69.4107 58.3001 68.9817C58.1441 68.6733 57.9387 68.39 57.7557 68.0945C57.6773 67.9685 57.6166 67.8385 57.5741 67.6938C57.5323 67.5309 57.4351 67.3919 57.3397 67.2595C57.2227 67.0905 57.1327 66.9086 57.0534 66.7274C56.9728 66.5521 56.8798 66.3925 56.7598 66.2382C56.6041 66.0491 56.5025 65.8114 56.4086 65.589C56.2843 65.2825 56.0271 65.0209 55.7968 64.7922C55.634 64.6307 55.4402 64.388 55.1975 64.3861C54.9519 64.3837 54.6908 64.4422 54.434 64.4344C54.0415 64.4251 53.7892 64.5083 53.4437 64.6965C53.1188 64.8736 52.7996 65.1054 52.5239 65.349C52.2335 65.605 51.8625 65.8583 51.6793 66.211C51.5735 66.4157 51.6449 66.5235 51.7171 66.7399C51.8808 67.2364 51.9051 67.7488 52.2865 68.1595C52.413 68.2968 52.5342 68.4529 52.5977 68.637C52.6044 68.7469 52.6876 68.8188 52.7368 68.9007C52.8321 69.0714 52.895 69.2584 52.9632 69.4343C53.1605 70.0966 53.4095 70.7372 53.7709 71.3288C53.8575 71.4672 53.9511 71.6085 54.0459 71.7439C54.1834 71.9324 54.3086 72.1213 54.379 72.3466C54.3901 72.3901 54.407 72.4348 54.4304 72.4702C54.7558 72.9077 54.9129 73.4365 55.2148 73.8845C55.4161 74.1883 55.6639 74.4435 55.9017 74.7104C56.2712 75.1263 56.768 75.6537 57.2868 75.8615C57.4917 75.9444 57.6984 75.9879 57.8961 76.0907C57.973 76.1338 58.0416 76.1646 58.1091 76.1859Z" fill="#E2231A"/>
<path d="M53.7651 79.4384C53.858 79.4023 53.9335 79.3014 53.9808 79.204C54.0163 79.1195 54.0765 79.0492 54.1524 78.9988C54.1789 78.9813 54.2183 78.9603 54.2331 78.9327C54.3547 78.5675 54.5795 78.2356 54.5578 77.8307C54.5539 77.7596 54.5258 77.7095 54.4972 77.6548C54.4224 77.4959 54.4588 77.3092 54.4011 77.1568C54.2892 76.8497 54.1602 76.5514 53.9753 76.2723C53.7448 75.9244 53.5197 75.5576 53.3998 75.1542C53.287 74.7613 53.0858 74.4117 52.8982 74.0632C52.7971 73.8837 52.7189 73.689 52.629 73.5072C52.3421 72.9628 52.121 72.3874 51.7482 71.8898C51.4263 71.4499 51.0531 71.0745 50.6605 70.7043C50.4448 70.5015 50.1844 70.5266 49.9551 70.5794C49.6082 70.6618 49.2313 70.7107 48.9112 70.8795C48.6063 71.0408 48.3277 71.2762 48.0392 71.4699C47.8372 71.6062 47.7671 71.673 47.703 71.8985C47.6537 72.0734 47.5715 72.2295 47.5152 72.4015C47.3877 72.7884 47.7079 73.2065 47.9133 73.5127C48.0871 73.7712 48.3191 74.0063 48.4475 74.2923C48.5397 74.5006 48.5032 74.7332 48.5766 74.9437C48.6594 75.1837 48.851 75.3694 48.952 75.6024C49.0798 75.8913 49.1623 76.2 49.3002 76.4848C49.4777 76.8526 49.7059 77.1971 49.9317 77.538C50.0815 77.764 50.2177 78.0042 50.3916 78.2092C50.4953 78.3311 50.603 78.4478 50.7079 78.5639C50.9416 78.8208 51.1076 79.1174 51.3072 79.3995C51.4224 79.562 51.5749 79.6541 51.7321 79.7686C51.8828 79.8771 52.0732 80.084 52.2747 80.0775C52.4146 80.0738 52.5941 79.965 52.7212 79.9113C52.8866 79.8425 53.046 79.7648 53.2102 79.6942C53.3996 79.6119 53.5768 79.5072 53.7651 79.4384Z" fill="#E2231A"/>
</mask>
<g mask="url(#mask5_1_25634)">
<rect x="38.457" y="68.3369" width="38" height="30" transform="rotate(-33.5217 38.457 68.3369)" fill="#5F0F0B"/>
</g>
</svg>
