<svg width="1024" height="138" viewBox="0 0 1024 138" fill="none" xmlns="http://www.w3.org/2000/svg">
<rect width="1024" height="138" fill="black"/>
<mask id="mask0_1_7431" style="mask-type:alpha" maskUnits="userSpaceOnUse" x="-14" y="62" width="32" height="24">
<path d="M9.85094 84.2812C9.49662 84.4987 9.0881 84.6106 8.7312 84.8176C8.66674 84.8548 8.44194 84.8245 8.41712 84.8314C7.99686 84.8833 7.64894 84.2157 7.5078 83.9145C7.24732 83.3487 6.99363 82.7773 6.71127 82.2147C6.55784 81.9122 6.4026 81.6059 6.29983 81.2868C6.16283 80.8596 6.20581 80.437 6.45633 80.0529C6.55988 79.8944 6.73027 79.8286 6.89244 79.7503C7.1036 79.6466 7.30666 79.5257 7.50061 79.3904C7.7264 79.2331 7.94123 79.0225 8.19513 78.9152C8.51132 78.7811 8.8241 78.5947 9.15264 78.4969C9.55474 78.3764 9.90546 78.2261 10.2704 78.0012C10.6623 77.7591 11.0537 77.5008 11.4773 77.3163C11.6384 77.2455 11.8014 77.2089 11.9517 77.1104C12.1879 76.9553 12.4122 76.78 12.6566 76.6374C12.9424 76.4683 13.2615 76.4054 13.5608 76.2651C13.9081 76.1024 14.2508 75.9699 14.6096 75.8368C14.8631 75.7438 15.1437 75.5936 15.4233 75.631C15.7709 75.6787 15.9965 76.0854 16.1699 76.3505C16.3179 76.5665 16.3919 76.8243 16.5579 77.0437C16.679 77.2022 16.8048 77.3609 16.9463 77.4981C17.195 77.7442 17.3814 78.0172 17.5184 78.3344C17.5883 78.4935 17.6551 78.6611 17.7692 78.7948C17.9294 78.9818 17.9292 79.4007 17.893 79.6282C17.8502 79.8963 17.7336 79.972 17.5013 80.1253C16.8805 80.5332 16.1656 80.7653 15.5159 81.1212C15.1236 81.3378 14.8076 81.652 14.4337 81.8927C14.295 81.9811 14.198 82.0687 14.0413 82.1187C13.8042 82.1971 13.5809 82.2947 13.3617 82.4161C12.8062 82.7186 12.1915 82.9247 11.6543 83.2513C11.4627 83.3668 11.2793 83.4996 11.0895 83.6189C10.8979 83.7391 10.6988 83.8137 10.4989 83.9214C10.2808 84.04 10.0626 84.1586 9.85094 84.2812Z" fill="black"/>
<path d="M10.2122 83.3782C10.0663 83.4513 9.95383 83.5858 9.78237 83.6194C9.30702 83.7134 8.89669 83.9712 8.44831 84.1229C8.40221 84.1094 8.35689 84.1025 8.31768 84.0788C8.01916 83.8911 7.72344 83.295 7.63139 82.9637C7.48218 82.4206 7.25444 81.9097 6.98167 81.4174C6.86293 81.204 6.87411 80.9882 6.97695 80.7832C7.11487 80.5034 7.29355 80.2605 7.58966 80.1335C7.68942 80.0867 7.7866 80.0295 7.87917 79.9674C8.45587 79.6152 9.01728 79.2305 9.62156 78.9122C9.65609 78.8961 9.68601 78.875 9.71299 78.8577C10.0053 78.6576 10.3109 78.4909 10.6659 78.4346C10.742 78.4223 10.8047 78.3812 10.8691 78.344C11.3026 78.0707 11.7734 77.8571 12.1997 77.5684C12.4592 77.3883 12.8144 77.3623 13.0278 77.0938C13.065 77.0483 13.1237 77.0488 13.178 77.0398C13.4312 76.996 13.6866 76.9418 13.9252 76.8417C14.2998 76.6826 14.6652 76.4786 15.0932 76.4933C15.1055 76.4945 15.1151 76.49 15.1247 76.4855C15.2776 76.4373 15.4286 76.4601 15.5407 76.5644C15.7387 76.7523 15.9911 76.8914 16.1416 77.1228C16.3046 77.3857 16.5192 77.5939 16.7326 77.8098C16.9652 78.0564 17.0713 78.3577 17.1267 78.6757C17.1564 78.8489 17.1567 79.0243 17.2151 79.1888C17.2819 79.3564 17.2232 79.4658 17.1074 79.5832C16.864 79.8377 16.5864 80.0543 16.3001 80.2423C16.1383 80.3462 16.0028 80.4915 15.8154 80.556C15.2847 80.7415 14.8113 81.0546 14.321 81.3264C13.8031 81.6042 13.2672 81.8437 12.751 82.1253C12.2828 82.3845 11.8008 82.6291 11.3141 82.8337C10.9835 82.977 10.7381 83.2721 10.349 83.2907C10.3015 83.2942 10.2601 83.3557 10.2122 83.3782Z" fill="#E2231A"/>
<path d="M12.0468 66.549C11.9645 66.3934 11.8602 66.2457 11.7201 66.0516C11.429 65.6452 11.2992 65.2334 11.1467 64.7831C10.8302 63.8481 9.81961 61.7713 8.56746 62.11C7.97574 62.2703 7.41749 62.7168 6.85345 62.9811C6.11675 63.3263 5.22712 63.6098 4.56114 64.081C4.41857 64.1712 4.37702 64.2772 4.40871 64.4098C4.52322 64.8639 4.42527 65.3239 4.62551 65.7612C4.70809 65.9424 4.83007 66.1029 4.90498 66.2877C4.99416 66.508 5.00876 66.7538 5.11227 66.9697C5.23286 67.2221 5.32773 67.4794 5.4464 67.7327C5.75488 68.386 6.05952 69.0411 6.36698 69.6972C6.48026 69.939 6.58484 70.1871 6.70579 70.4252C6.80246 70.6116 6.93985 70.725 7.04355 70.8964C7.30637 71.3324 7.29815 71.8791 7.51391 72.3395C7.64966 72.6292 7.66522 72.9121 7.76847 73.2123C7.98038 73.8243 8.38336 74.3397 8.63849 74.9291C8.78161 75.2645 8.8953 75.602 9.07961 75.9204C9.31294 76.3235 9.49231 76.8361 10.0647 76.7293C10.4608 76.656 10.7427 76.3039 11.1378 76.2381C11.5223 76.1749 11.9292 76.1246 12.2732 75.905C12.5728 75.7154 12.8143 75.387 13.1605 75.2669C13.4684 75.1601 13.9532 75.216 14.1507 74.9035C14.4064 74.5005 14.3698 73.8532 14.2169 73.4171C14.0605 72.9733 13.9828 72.488 13.8199 72.0355C13.6243 71.4884 13.6002 70.9475 13.4741 70.3889C13.3896 70.0237 13.3009 69.6698 13.1533 69.3249C13.0075 68.9837 12.7782 68.6841 12.6343 68.3421C12.4671 67.9454 12.3409 67.4664 12.2348 67.0552C12.1833 66.8454 12.1237 66.6931 12.0468 66.549Z" fill="black"/>
<path d="M6.45555 73.0995C6.45375 73.0957 6.45003 73.0927 6.44734 73.087C5.93993 72.0192 5.04518 69.5605 5.01396 69.4839C4.83925 69.0861 4.68463 68.6813 4.46466 68.3117C4.32747 68.0788 4.18631 67.8525 4.10655 67.5974C4.08917 67.5354 4.04698 67.4803 4.02001 67.4227C3.89235 67.1503 3.68651 66.8958 3.46514 66.693C3.26235 66.5049 3.18306 66.3806 3.08279 66.1117C2.80052 65.3596 2.49988 64.8079 1.64345 64.7178C1.02616 64.6538 0.387355 64.9882 -0.140056 65.2658C-0.564647 65.4882 -1.0499 65.636 -1.45627 65.8873C-2.41824 66.4808 -2.78372 67.1738 -2.44178 68.263C-2.32084 68.6509 -2.04907 68.9962 -1.79055 69.3032C-1.49432 69.6558 -1.33395 70.1328 -1.13886 70.5491C-0.930294 70.9942 -0.799654 71.3729 -0.700975 71.8531C-0.490198 72.8821 0.11459 73.7732 0.509062 74.7349C0.639353 75.0529 0.699139 75.3852 0.845677 75.6979C0.984125 75.9933 1.12731 76.2889 1.26384 76.5853C1.5315 77.1664 1.69236 78.034 2.15836 78.4942C2.47923 78.8094 2.60825 79.2146 2.79243 79.6126C2.87783 79.7949 3.02055 79.9596 3.1884 80.0682C3.33664 80.1648 3.40455 80.2898 3.5877 80.2811C3.79453 80.2731 4.00893 80.1165 4.18567 80.0243C4.56218 79.8292 4.95295 79.6695 5.29942 79.4252C5.53019 79.2586 5.79303 79.1354 6.04304 78.9949C6.23153 78.8878 6.42398 78.7742 6.59719 78.6346C6.83815 78.4398 7.12863 78.3107 7.35407 78.0927C7.62771 77.8428 7.69428 77.5355 7.64277 77.1759C7.59629 76.8421 7.36564 76.5945 7.29398 76.2818C7.28505 76.2228 7.24848 76.1698 7.25736 76.1188C7.31228 75.6368 7.05574 75.2142 7.01737 74.7478C7.00893 74.6699 6.95889 74.5881 6.91603 74.5216C6.83277 74.4038 6.81145 74.2734 6.76644 74.1424C6.65582 73.7965 6.55377 73.4489 6.45555 73.0995Z" fill="black"/>
<path d="M4.78769 78.9561C4.96815 78.8669 5.14795 78.7662 5.32709 78.6542C5.53028 78.5286 5.76786 78.4664 5.97926 78.3533C6.19833 78.2366 6.36981 78.0533 6.58978 77.9385C6.68582 77.8888 6.77862 77.8921 6.86131 77.8089C7.00328 77.6675 7.01266 77.4479 7.00417 77.26C6.97941 76.8177 6.77641 76.4144 6.7011 75.9841C6.6161 75.4881 6.41543 75.1048 6.18665 74.6715C6.00127 74.3209 5.95277 73.8429 5.86206 73.4596C5.74893 72.9885 5.5626 72.5259 5.49336 72.0436C5.46245 71.8429 5.30912 71.6854 5.23229 71.5015C5.10194 71.1484 4.94012 70.8031 4.77524 70.4662C4.5916 70.0843 4.4031 69.707 4.2233 69.3233C4.03205 68.9052 3.79092 68.5105 3.59188 68.1007C3.46601 67.8321 3.31024 67.5845 3.13131 67.3525C3.04986 67.2386 2.96648 67.1256 2.90421 67.0027C2.81497 66.8222 2.68993 66.6702 2.53833 66.5564C2.34867 66.4113 2.20181 66.2228 1.9926 66.1009C1.87487 66.0344 1.76517 65.9501 1.68 65.8332C1.58056 65.6809 1.43333 65.6563 1.26576 65.7232C0.867436 65.8817 0.45976 66.0353 0.0659303 66.2035C-0.317167 66.3596 -0.695654 66.5206 -1.09547 66.6261C-1.14793 66.639 -1.19973 66.6632 -1.24319 66.6953C-1.37809 66.7819 -1.52072 66.837 -1.6736 66.8853C-1.97539 66.9752 -2.10377 67.2156 -1.98619 67.5114C-1.89959 67.7212 -1.82372 67.943 -1.69491 68.133C-1.7243 68.2451 -1.65057 68.3275 -1.61395 68.4156C-1.49253 68.7097 -1.25822 68.9251 -1.07786 69.1752C-1.04849 69.2129 -0.896535 69.3874 -0.862372 69.4603C-0.752693 69.6943 -0.67359 69.938 -0.648983 70.2003C-0.59443 70.7012 -0.448508 71.1873 -0.230344 71.6279C0.0390623 72.1778 0.219195 72.772 0.582608 73.2779C0.664066 73.3918 0.691685 73.5356 0.713011 73.666C0.763393 73.9583 0.891054 74.2307 0.906245 74.5277C0.913428 74.618 0.951845 74.7099 0.99434 74.7906C1.14651 75.1054 1.24035 75.4405 1.35032 75.775C1.38747 75.8792 1.419 75.9815 1.50885 76.0634C1.54206 76.0993 1.57479 76.1541 1.58587 76.2028C1.67845 76.5501 1.84327 76.8519 2.09083 77.1056C2.3366 77.3554 2.37138 77.8141 2.60401 78.0959C2.7484 78.2692 2.92883 78.4046 3.05956 78.5937C3.25982 78.8812 3.38482 79.3327 3.77192 79.28C4.1324 79.2304 4.46616 79.1138 4.78769 78.9561Z" fill="#E2231A"/>
<path d="M-3.6626 82.358C-3.93728 82.2761 -3.90642 81.9575 -4.0342 81.6898C-4.13951 81.4701 -4.3106 81.4146 -4.4788 81.2454C-4.87724 80.8495 -5.06127 80.2969 -5.37188 79.8388C-5.84785 79.1377 -6.09763 78.3749 -6.36653 77.5814C-6.53091 77.0758 -6.75362 76.5906 -6.98785 76.1107C-7.03909 76.0014 -7.0847 75.8941 -7.11382 75.772C-7.21358 75.3344 -7.29236 74.8917 -7.45993 74.4742C-7.48756 74.4052 -7.48755 74.3303 -7.50558 74.2569C-7.56693 73.9113 -7.62354 73.5658 -7.78531 73.2555C-8.03284 72.7772 -8.17894 72.2607 -8.3625 71.7641C-8.45378 71.5144 -8.54697 71.2656 -8.65167 71.0222C-8.71873 70.8641 -8.90317 70.6253 -8.91598 70.4582C-8.93076 70.2569 -8.67647 69.9108 -8.52778 69.8036C-8.12711 69.5153 -7.72007 69.2005 -7.27114 68.9902C-6.91046 68.8212 -6.55058 68.7952 -6.16527 68.6638C-5.80669 68.5402 -5.33572 68.5067 -4.96127 68.467C-4.55265 68.4252 -4.09266 68.4132 -3.70061 68.5758C-3.18944 68.7879 -2.93859 69.5828 -2.76312 70.0621C-2.66297 70.3358 -2.55438 70.6124 -2.41509 70.8747C-2.29198 71.1025 -2.20136 71.3408 -2.17483 71.6021C-2.16004 71.7286 -2.12913 71.8545 -2.0629 71.9708C-1.94548 72.1615 -1.88753 72.38 -1.82845 72.591C-1.78674 72.7399 -1.74234 72.8946 -1.65753 73.0256C-1.4689 73.3233 -1.36175 73.6568 -1.223 73.9779C-1.11393 74.2356 -0.963305 74.4622 -0.840678 74.7089C-0.646251 75.1138 -0.469087 75.5268 -0.295763 75.9416C-0.192322 76.1973 -0.0794058 76.4533 0.013665 76.7068C0.131843 77.0539 0.230836 77.4099 0.4438 77.7196C0.475868 77.7631 0.503974 77.8131 0.509183 77.8691C0.562096 78.5463 1.19012 79.0826 1.19262 79.767C1.19304 80.1973 0.66505 80.3488 0.366181 80.5099C-0.00571081 80.7099 -0.281157 81.0308 -0.644597 81.2339C-0.774396 81.3064 -0.923315 81.3481 -1.05222 81.4226C-1.28112 81.5532 -1.43547 81.8081 -1.67246 81.9215C-1.89795 82.0295 -2.17042 82.0472 -2.40333 82.1493C-2.76659 82.3078 -3.1742 82.4216 -3.57964 82.3753C-3.61177 82.3716 -3.63814 82.3653 -3.6626 82.358Z" fill="black"/>
<path d="M11.2493 75.7683C10.5778 76.0829 9.69771 75.6928 9.39474 75.0462C9.20505 74.6414 9.02459 74.2464 8.87789 73.8284C8.71446 73.3598 8.68629 72.8653 8.51429 72.3984C8.19061 71.5229 7.69935 70.7143 7.26158 69.8899C6.84371 69.103 6.41223 68.2921 6.25995 67.4228C6.21046 67.1325 6.06643 66.945 5.90136 66.7275C5.81426 66.6116 5.72345 66.4927 5.6399 66.3493C5.25756 65.6932 5.08562 65.1865 5.13039 64.8426C5.17377 64.5158 5.39454 64.2579 5.78783 64.0736C6.03148 63.9594 6.30438 63.8877 6.54479 63.8265C6.63639 63.8023 6.72225 63.7808 6.79773 63.7571C6.99257 63.6986 7.19005 63.6107 7.37705 63.5254C7.86219 63.3074 8.41256 63.0589 9.02377 63.3247C9.4175 63.4958 9.678 63.837 9.91015 64.1377C9.9753 64.2218 10.0376 64.3049 10.103 64.3795L10.1564 64.4435C10.3441 64.6643 10.5374 64.892 10.6511 65.1897C10.715 65.3609 10.7456 65.5361 10.7735 65.7055C10.8685 66.2577 11.1896 66.7132 11.4251 67.2159C11.6319 67.6571 11.7427 68.0685 11.8674 68.5342C12.0043 69.0409 12.206 69.5313 12.3533 70.0355C12.478 70.4614 12.6002 70.8768 12.7909 71.2788C12.9347 71.5858 13.107 71.8935 13.1954 72.217C13.2666 72.4738 13.2903 72.7341 13.3845 72.9801C13.6458 73.6625 13.6674 74.4175 12.9249 74.7655C12.877 74.7879 12.6776 74.8767 12.6277 74.9001C12.5663 74.9288 12.5039 74.9604 12.4452 74.9949C12.2931 75.0849 12.1493 75.1874 11.9968 75.2963C11.8143 75.4263 11.627 75.5608 11.4204 75.674C11.3616 75.7133 11.303 75.7431 11.2493 75.7683Z" fill="#E2231A"/>
<path d="M-3.02601 81.3941C-2.8135 81.4981 -2.61741 81.5021 -2.35296 81.4273C-2.0074 81.3309 -1.66106 81.2411 -1.39563 80.9787C-1.29838 80.8817 -1.21084 80.7938 -1.09435 80.7229C-0.893202 80.6029 -0.689246 80.5588 -0.50824 80.4108C-0.234303 80.1865 -0.00478959 79.9573 0.197996 79.661C0.251121 79.5847 0.24382 79.4992 0.19443 79.4287C0.0866601 79.2686 0.051188 79.0981 0.031187 78.9156C0.00789619 78.6761 -0.102023 78.4516 -0.198876 78.2349C-0.330428 77.9292 -0.372413 77.6049 -0.454326 77.2853C-0.552179 76.9217 -0.674851 76.5651 -0.874264 76.2444C-1.01027 76.039 -1.06491 75.8026 -1.16176 75.5859C-1.35061 75.1479 -1.62489 74.7524 -1.78293 74.2953C-1.89211 73.9674 -2.05388 73.6571 -2.19172 73.338C-2.25082 73.2019 -2.29187 73.0644 -2.31271 72.9151C-2.33026 72.7478 -2.40602 72.5961 -2.481 72.4511C-2.57204 72.2668 -2.63442 72.0737 -2.68643 71.8829C-2.74048 71.6976 -2.80911 71.5262 -2.90524 71.356C-3.03165 71.1462 -3.09733 70.8962 -3.15773 70.6624C-3.2358 70.341 -3.45194 70.0445 -3.64627 69.7846C-3.78377 69.601 -3.93997 69.3326 -4.17976 69.2953C-4.42238 69.2569 -4.68921 69.2766 -4.94207 69.2313C-5.32898 69.1646 -5.59079 69.2101 -5.96009 69.3457C-6.3074 69.4733 -6.65705 69.6559 -6.96545 69.8566C-7.29023 70.0673 -7.69425 70.2636 -7.92707 70.5856C-8.06168 70.7727 -8.00684 70.8897 -7.96706 71.1144C-7.8778 71.6295 -7.9287 72.14 -7.61156 72.6021C-7.50649 72.7564 -7.40946 72.9285 -7.37357 73.12C-7.383 73.2297 -7.31118 73.313 -7.27456 73.4011C-7.20529 73.5839 -7.17042 73.7782 -7.12866 73.9622C-7.03042 74.6461 -6.87781 75.3163 -6.60686 75.9545C-6.54147 76.104 -6.46955 76.2575 -6.39559 76.4053C-6.28711 76.6119 -6.19092 76.8171 -6.15419 77.0503C-6.14964 77.0949 -6.13946 77.1416 -6.12148 77.18C-5.86357 77.6605 -5.78552 78.2065 -5.55244 78.6939C-5.39781 79.0239 -5.19 79.3126 -4.99382 79.6114C-4.68909 80.077 -4.27485 80.6713 -3.79199 80.9528C-3.60148 81.0648 -3.40336 81.138 -3.22281 81.2687C-3.15309 81.3226 -3.08967 81.3631 -3.02601 81.3941Z" fill="#E2231A"/>
</mask>
<g mask="url(#mask0_1_7431)">
<rect x="-21.3184" y="70.7542" width="38" height="30" transform="rotate(-25.1078 -21.3184 70.7542)" fill="#5F0F0B"/>
</g>
<mask id="mask1_1_7431" style="mask-type:alpha" maskUnits="userSpaceOnUse" x="166" y="13" width="29" height="23">
<path d="M183.826 35.5263C183.41 35.539 183 35.433 182.587 35.4353C182.513 35.4356 182.333 35.2975 182.308 35.2912C181.918 35.1273 181.947 34.3751 181.975 34.0436C182.03 33.4231 182.094 32.8013 182.128 32.1727C182.145 31.834 182.163 31.4911 182.232 31.163C182.326 30.7243 182.573 30.3789 182.981 30.1701C183.15 30.084 183.331 30.1116 183.51 30.1242C183.745 30.1392 183.981 30.1352 184.217 30.1142C184.491 30.0899 184.782 30.0139 185.056 30.047C185.397 30.0878 185.761 30.0815 186.094 30.1599C186.503 30.2551 186.882 30.299 187.311 30.2853C187.771 30.2699 188.239 30.2403 188.698 30.2908C188.873 30.3094 189.033 30.3586 189.212 30.3478C189.494 30.3306 189.776 30.29 190.059 30.2877C190.391 30.2831 190.699 30.387 191.029 30.4141C191.411 30.4454 191.774 30.5008 192.152 30.5636C192.418 30.6089 192.736 30.618 192.96 30.7894C193.238 31.0036 193.232 31.4686 193.25 31.7848C193.272 32.0458 193.208 32.3063 193.243 32.5792C193.269 32.7769 193.299 32.9771 193.354 33.1665C193.447 33.5037 193.473 33.8332 193.435 34.1765C193.416 34.3494 193.391 34.528 193.423 34.7007C193.47 34.9426 193.261 35.306 193.117 35.4855C192.946 35.6968 192.807 35.7045 192.53 35.7221C191.788 35.7676 191.053 35.6136 190.312 35.5996C189.864 35.5926 189.434 35.7082 188.989 35.7313C188.825 35.739 188.697 35.7668 188.537 35.7323C188.292 35.6825 188.05 35.6562 187.799 35.6527C187.167 35.639 186.531 35.5124 185.902 35.5289C185.679 35.5339 185.454 35.5579 185.23 35.5672C185.004 35.5762 184.794 35.542 184.567 35.5361C184.318 35.5306 184.07 35.5251 183.826 35.5263Z" fill="black"/>
<path d="M184.588 34.9215C184.425 34.9124 184.26 34.9733 184.095 34.9172C183.636 34.7626 183.152 34.7824 182.687 34.6911C182.654 34.6565 182.618 34.628 182.596 34.5879C182.43 34.2767 182.47 33.6124 182.554 33.2793C182.695 32.7338 182.751 32.1772 182.759 31.6145C182.762 31.3703 182.879 31.1886 183.07 31.0619C183.329 30.8875 183.605 30.7656 183.925 30.8025C184.035 30.8115 184.147 30.8102 184.258 30.8023C184.934 30.7833 185.612 30.7285 186.295 30.7526C186.333 30.7557 186.369 30.7523 186.401 30.7507C186.754 30.7223 187.102 30.7296 187.438 30.8571C187.511 30.8843 187.585 30.8798 187.66 30.8795C188.172 30.8578 188.687 30.9064 189.2 30.8678C189.515 30.8405 189.836 30.9944 190.154 30.8675C190.209 30.8465 190.26 30.8762 190.312 30.8953C190.553 30.9831 190.802 31.0631 191.058 31.0948C191.463 31.1428 191.881 31.1474 192.245 31.3729C192.255 31.3801 192.266 31.3809 192.276 31.3818C192.433 31.4159 192.553 31.5108 192.598 31.657C192.676 31.9185 192.826 32.1646 192.842 32.4401C192.853 32.7493 192.935 33.0367 193.013 33.3301C193.093 33.6597 193.035 33.9738 192.925 34.2773C192.865 34.4424 192.778 34.5947 192.747 34.7665C192.721 34.9451 192.616 35.0109 192.457 35.0552C192.12 35.155 191.771 35.2051 191.429 35.2259C191.237 35.2357 191.047 35.2945 190.853 35.2572C190.3 35.1545 189.734 35.1909 189.173 35.1831C188.585 35.1668 188.001 35.1082 187.414 35.0961C186.879 35.0883 186.339 35.061 185.815 34.9967C185.457 34.9567 185.097 35.0909 184.75 34.9136C184.707 34.893 184.641 34.9259 184.588 34.9215Z" fill="#E2231A"/>
<path d="M194.543 21.23C194.549 21.054 194.532 20.874 194.507 20.636C194.456 20.1387 194.548 19.7168 194.64 19.2503C194.83 18.2816 194.985 15.9772 193.73 15.6488C193.137 15.4939 192.431 15.6038 191.81 15.5529C190.999 15.4863 190.086 15.2902 189.274 15.3681C189.106 15.3755 189.017 15.4469 188.978 15.5776C188.852 16.0286 188.539 16.3791 188.495 16.8581C188.477 17.0564 188.503 17.2562 188.476 17.4539C188.444 17.6893 188.334 17.9099 188.317 18.1487C188.296 18.4276 188.25 18.6981 188.227 18.9768C188.17 19.6971 188.109 20.4169 188.05 21.1391C188.028 21.4052 187.996 21.6725 187.982 21.9392C187.973 22.149 188.036 22.3157 188.041 22.5159C188.052 23.0249 187.774 23.4952 187.732 24.002C187.706 24.3208 187.579 24.574 187.519 24.8859C187.399 25.5222 187.492 26.1698 187.421 26.808C187.378 27.1702 187.309 27.5195 187.311 27.8874C187.313 28.3532 187.214 28.8871 187.764 29.0789C188.144 29.2122 188.564 29.0468 188.939 29.186C189.304 29.3223 189.682 29.4809 190.09 29.4612C190.444 29.4456 190.817 29.2807 191.177 29.3485C191.497 29.4088 191.89 29.6983 192.217 29.5253C192.639 29.3027 192.929 28.7228 193.013 28.2684C193.098 27.8055 193.272 27.3457 193.355 26.8722C193.457 26.3002 193.705 25.8188 193.873 25.2714C193.982 24.9126 194.081 24.5614 194.124 24.1887C194.167 23.8202 194.117 23.4462 194.162 23.0779C194.214 22.6506 194.343 22.1722 194.455 21.7627C194.514 21.555 194.538 21.3933 194.543 21.23Z" fill="black"/>
<path d="M186.436 24.1358C186.437 24.1315 186.435 24.1271 186.436 24.1208C186.526 22.942 186.971 20.3638 186.982 20.2818C187.029 19.8498 187.096 19.4216 187.088 18.9916C187.085 18.7214 187.075 18.4548 187.133 18.1938C187.148 18.1314 187.139 18.0626 187.144 17.9992C187.169 17.6994 187.117 17.3762 187.025 17.0902C186.943 16.8263 186.936 16.679 186.983 16.3958C187.111 15.6029 187.125 14.9747 186.426 14.4709C185.922 14.1086 185.202 14.0813 184.606 14.0601C184.127 14.042 183.633 13.9291 183.155 13.9452C182.026 13.9821 181.364 14.4019 181.119 15.517C181.032 15.9137 181.096 16.3484 181.168 16.7433C181.249 17.1964 181.151 17.6901 181.114 18.1483C181.074 18.6382 180.999 19.0317 180.846 19.4975C180.517 20.4951 180.599 21.569 180.464 22.5995C180.419 22.9402 180.305 23.2583 180.277 23.6025C180.25 23.9277 180.228 24.2553 180.199 24.5803C180.142 25.2177 179.851 26.0505 180.026 26.6814C180.148 27.1144 180.059 27.5301 180.021 27.967C180.004 28.1676 180.046 28.3815 180.138 28.5591C180.219 28.7167 180.215 28.8588 180.379 28.9424C180.562 29.0382 180.826 29.0089 181.025 29.0167C181.449 29.0345 181.867 29.0901 182.289 29.0504C182.573 29.0204 182.862 29.0442 183.149 29.0465C183.365 29.0473 183.589 29.0444 183.809 29.0092C184.114 28.96 184.431 28.9923 184.735 28.9152C185.096 28.8343 185.307 28.6008 185.441 28.2631C185.566 27.9503 185.489 27.6209 185.582 27.3139C185.604 27.2583 185.599 27.1941 185.632 27.1543C185.919 26.7633 185.906 26.2691 186.105 25.8453C186.136 25.7735 186.133 25.6776 186.129 25.5986C186.116 25.4551 186.162 25.3313 186.188 25.1953C186.264 24.8401 186.348 24.4878 186.436 24.1358Z" fill="black"/>
<path d="M182.078 28.3891C182.279 28.4014 182.485 28.4034 182.696 28.3952C182.935 28.3872 183.172 28.4513 183.412 28.4582C183.66 28.4658 183.9 28.392 184.148 28.4017C184.256 28.4063 184.335 28.4553 184.448 28.4242C184.641 28.3721 184.759 28.1861 184.845 28.0189C185.043 27.6227 185.067 27.1719 185.216 26.7611C185.388 26.2885 185.405 25.8561 185.422 25.3664C185.435 24.97 185.63 24.5311 185.742 24.1534C185.878 23.6884 185.946 23.1944 186.126 22.7415C186.199 22.5519 186.144 22.3391 186.169 22.1413C186.231 21.7701 186.262 21.39 186.287 21.0158C186.317 20.5931 186.341 20.172 186.376 19.7497C186.418 19.2918 186.405 18.8295 186.436 18.375C186.46 18.0793 186.448 17.7871 186.408 17.4968C186.394 17.3575 186.377 17.218 186.384 17.0804C186.397 16.8794 186.364 16.6854 186.289 16.5113C186.196 16.2911 186.163 16.0545 186.042 15.8448C185.972 15.7286 185.919 15.6009 185.903 15.4572C185.893 15.2756 185.777 15.1811 185.599 15.1558C185.174 15.0954 184.744 15.0261 184.319 14.9763C183.909 14.9214 183.5 14.873 183.101 14.7658C183.049 14.7509 182.992 14.7462 182.938 14.7525C182.778 14.7606 182.627 14.7375 182.47 14.7034C182.164 14.6315 181.933 14.7762 181.888 15.0914C181.859 15.3165 181.814 15.5467 181.832 15.7755C181.751 15.8582 181.774 15.9663 181.762 16.061C181.721 16.3765 181.817 16.6799 181.849 16.9866C181.856 17.0339 181.901 17.2608 181.895 17.3411C181.873 17.5987 181.821 17.8495 181.712 18.0892C181.51 18.551 181.395 19.0454 181.366 19.5361C181.326 20.1472 181.187 20.7523 181.251 21.3719C181.265 21.5113 181.218 21.6498 181.171 21.7736C181.07 22.0522 181.045 22.352 180.911 22.6174C180.872 22.6992 180.86 22.7981 180.857 22.8893C180.832 23.238 180.747 23.5754 180.676 23.9204C180.657 24.0293 180.633 24.1337 180.671 24.2494C180.682 24.2971 180.683 24.3609 180.668 24.4086C180.576 24.7561 180.569 25.0999 180.658 25.4431C180.747 25.782 180.549 26.1973 180.611 26.5574C180.65 26.7796 180.739 26.9867 180.759 27.2158C180.79 27.5648 180.674 28.0187 181.036 28.1654C181.373 28.3015 181.721 28.3662 182.078 28.3891Z" fill="#E2231A"/>
<path d="M173.056 27.1423C172.858 26.9347 173.043 26.6736 173.065 26.3778C173.083 26.1348 172.962 26.0016 172.9 25.7711C172.751 25.2296 172.866 24.6587 172.824 24.1068C172.76 23.2618 172.922 22.4758 173.083 21.6536C173.192 21.1331 173.24 20.6014 173.275 20.0686C173.285 19.9482 173.299 19.8324 173.334 19.712C173.465 19.2827 173.617 18.8594 173.679 18.4138C173.689 18.3402 173.726 18.2753 173.747 18.2026C173.866 17.8722 173.988 17.5442 174.002 17.1946C174.025 16.6565 174.155 16.1357 174.242 15.6136C174.287 15.3515 174.33 15.0893 174.36 14.8261C174.38 14.6556 174.339 14.3567 174.411 14.2053C174.498 14.0232 174.891 13.8493 175.073 13.8302C175.564 13.7791 176.074 13.7083 176.568 13.7488C176.965 13.7814 177.29 13.9378 177.69 14.0152C178.062 14.0862 178.488 14.2912 178.832 14.4428C179.208 14.6097 179.613 14.8279 179.872 15.1638C180.21 15.6018 180.033 16.4163 179.947 16.9195C179.898 17.2067 179.855 17.5007 179.845 17.7976C179.839 18.0564 179.799 18.3082 179.692 18.5482C179.642 18.6653 179.606 18.7899 179.606 18.9238C179.613 19.1476 179.555 19.366 179.501 19.5784C179.463 19.7284 179.425 19.8847 179.434 20.0405C179.449 20.3926 179.377 20.7353 179.337 21.0828C179.304 21.3607 179.322 21.6321 179.306 21.9072C179.273 22.3552 179.222 22.8016 179.166 23.2477C179.129 23.521 179.1 23.7992 179.054 24.0655C178.984 24.4254 178.893 24.7835 178.924 25.1581C178.93 25.2118 178.93 25.2691 178.907 25.3203C178.616 25.9342 178.894 26.7117 178.556 27.3069C178.343 27.6805 177.81 27.5495 177.47 27.5408C177.048 27.5295 176.65 27.6711 176.233 27.6667C176.085 27.6652 175.935 27.6273 175.786 27.6279C175.522 27.6275 175.262 27.7719 175 27.7525C174.75 27.7342 174.505 27.6141 174.252 27.587C173.858 27.544 173.448 27.4402 173.119 27.1985C173.093 27.1794 173.073 27.1607 173.056 27.1423Z" fill="black"/>
<path d="M167.735 27.1266C167.151 27.0978 166.67 27.0286 166.369 26.4766C166.256 26.2697 166.264 26.0408 166.251 25.8101C166.243 25.6734 166.254 25.5446 166.231 25.4067C166.172 25.0425 166.145 24.6981 166.228 24.3286C166.262 24.1826 166.305 24.0374 166.306 23.895C166.318 23.4495 166.358 23.0127 166.362 22.573C166.365 21.6294 166.581 20.7288 166.811 19.8251C166.923 19.3624 167.025 18.8988 167.015 18.4197C167.019 18.3243 167.02 18.2351 167.069 18.1478C167.291 17.7833 167.43 17.3823 167.517 16.9707C167.618 16.5113 167.88 16.3585 168.31 16.2939C168.627 16.2412 168.947 16.225 169.271 16.2197C170.147 16.2172 170.968 16.4122 171.755 16.768C171.96 16.8593 172.106 17.0306 172.152 17.2407C172.258 17.7701 172.324 18.3049 172.307 18.8562C172.265 20.0624 171.974 21.2205 171.719 22.3879C171.633 22.7655 171.527 23.1501 171.481 23.5332C171.446 23.8301 171.273 24.1433 171.306 24.4415C171.337 24.7077 171.369 24.9717 171.304 25.2428C171.231 25.5386 171.103 25.83 170.982 26.1092C170.888 26.3247 170.737 26.5333 170.661 26.7588C170.593 26.9616 170.612 27.0992 170.364 27.1618C170.106 27.2277 169.899 27.0555 169.656 27.0101C169.428 26.9659 169.26 27.0753 169.04 27.1041C168.602 27.1616 168.18 27.1483 167.735 27.1266Z" fill="black"/>
<path d="M189.269 28.8353C188.53 28.7746 187.96 27.9987 188.019 27.2871C188.055 26.8415 188.095 26.409 188.176 25.9734C188.267 25.4856 188.488 25.0424 188.571 24.5518C188.725 23.6312 188.701 22.6854 188.73 21.7524C188.759 20.8619 188.788 19.9438 189.087 19.1138C189.189 18.8373 189.157 18.603 189.122 18.3322C189.104 18.1883 189.084 18.04 189.083 17.8741C189.077 17.1147 189.18 16.5896 189.39 16.3134C189.59 16.0514 189.909 15.9373 190.342 15.9728C190.61 15.9949 190.883 16.0682 191.122 16.1346C191.213 16.1592 191.299 16.1832 191.376 16.2001C191.574 16.2462 191.789 16.2681 191.994 16.287C192.523 16.3389 193.124 16.3968 193.522 16.9312C193.779 17.2754 193.836 17.7009 193.888 18.0772C193.902 18.1826 193.915 18.2857 193.935 18.3829L193.949 18.4649C194.002 18.7499 194.057 19.0435 194.008 19.3583C193.978 19.5387 193.918 19.7059 193.858 19.8668C193.666 20.3931 193.718 20.948 193.672 21.5012C193.632 21.9869 193.524 22.3989 193.401 22.865C193.268 23.3728 193.199 23.8986 193.076 24.4093C192.973 24.8409 192.873 25.2621 192.838 25.7057C192.811 26.0435 192.807 26.3961 192.723 26.7209C192.657 26.9791 192.548 27.2167 192.508 27.477C192.395 28.1991 192.039 28.8649 191.222 28.7978C191.169 28.7935 190.952 28.7714 190.897 28.7669C190.829 28.7614 190.76 28.7578 190.691 28.7586C190.515 28.7611 190.339 28.7785 190.153 28.7972C189.93 28.8193 189.7 28.843 189.465 28.8385C189.394 28.8434 189.328 28.8401 189.269 28.8353Z" fill="#E2231A"/>
<path d="M174.086 26.6209C174.219 26.8167 174.387 26.9177 174.653 26.9842C175.001 27.0723 175.346 27.1665 175.707 27.0707C175.84 27.0348 175.959 27.0022 176.096 26.9985C176.33 26.9943 176.529 27.0574 176.759 27.0189C177.108 26.9604 177.422 26.8756 177.745 26.7193C177.829 26.6794 177.865 26.6016 177.857 26.516C177.843 26.3235 177.897 26.1578 177.97 25.9896C178.069 25.7702 178.086 25.5207 178.109 25.2845C178.147 24.9539 178.272 24.6516 178.359 24.3336C178.455 23.9694 178.526 23.599 178.512 23.2216C178.496 22.9758 178.566 22.7435 178.59 22.5073C178.644 22.0334 178.602 21.5538 178.692 21.0787C178.761 20.7399 178.775 20.3902 178.814 20.0448C178.83 19.8973 178.863 19.7576 178.919 19.6177C178.987 19.4638 178.996 19.2945 179.003 19.1314C179.016 18.9262 179.058 18.7277 179.107 18.5362C179.153 18.3486 179.178 18.1658 179.179 17.9703C179.174 17.7254 179.241 17.4758 179.305 17.2429C179.397 16.9252 179.357 16.5605 179.317 16.2384C179.289 16.0108 179.287 15.7002 179.098 15.5486C178.906 15.3947 178.665 15.2793 178.468 15.1143C178.165 14.8641 177.915 14.7735 177.528 14.7076C177.163 14.6458 176.769 14.6304 176.401 14.6513C176.015 14.6727 175.567 14.6423 175.205 14.806C174.995 14.9015 174.984 15.0303 174.907 15.245C174.728 15.7363 174.431 16.154 174.476 16.7126C174.491 16.8987 174.489 17.0963 174.425 17.2803C174.363 17.3708 174.383 17.4788 174.371 17.5735C174.341 17.7665 174.274 17.9524 174.219 18.1328C173.965 18.7752 173.764 19.4326 173.682 20.121C173.664 20.2832 173.65 20.4522 173.641 20.6172C173.633 20.8504 173.614 21.0763 173.53 21.2969C173.512 21.3379 173.497 21.3835 173.494 21.4257C173.479 21.9708 173.275 22.4834 173.235 23.0222C173.206 23.3854 173.242 23.7392 173.264 24.096C173.297 24.6514 173.361 25.3731 173.64 25.8573C173.75 26.0491 173.886 26.2112 173.977 26.4143C174.011 26.4957 174.046 26.5624 174.086 26.6209Z" fill="#E2231A"/>
<path d="M168.661 26.4894C168.756 26.5185 168.878 26.486 168.975 26.4387C169.056 26.3943 169.146 26.3762 169.237 26.3837C169.269 26.3863 169.313 26.3942 169.341 26.3816C169.663 26.1699 170.045 26.0482 170.278 25.7166C170.319 25.6583 170.328 25.6017 170.339 25.5409C170.379 25.3699 170.523 25.2457 170.572 25.0902C170.674 24.7797 170.757 24.4656 170.785 24.1319C170.819 23.716 170.869 23.2885 171.024 22.8974C171.179 22.5189 171.237 22.1198 171.305 21.73C171.337 21.5263 171.396 21.325 171.437 21.1265C171.549 20.5212 171.731 19.9325 171.746 19.3108C171.765 18.7661 171.704 18.2402 171.625 17.7065C171.581 17.4138 171.36 17.2724 171.148 17.172C170.824 17.0222 170.498 16.8275 170.142 16.7621C169.802 16.7002 169.438 16.7128 169.091 16.6865C168.848 16.6687 168.752 16.6778 168.562 16.8152C168.415 16.9222 168.254 16.994 168.103 17.0943C167.764 17.3194 167.757 17.8461 167.729 18.2136C167.705 18.5242 167.742 18.8525 167.666 19.1566C167.61 19.3773 167.437 19.5375 167.365 19.7484C167.281 19.9881 167.317 20.2525 167.252 20.498C167.174 20.8041 167.048 21.0977 166.98 21.4068C166.892 21.8056 166.858 22.2174 166.825 22.6249C166.802 22.8952 166.761 23.1681 166.771 23.4368C166.777 23.5967 166.789 23.7551 166.8 23.9111C166.825 24.2575 166.771 24.5933 166.754 24.9384C166.744 25.1374 166.807 25.3041 166.859 25.4912C166.911 25.6697 166.932 25.95 167.095 26.0696C167.207 26.1532 167.415 26.1788 167.548 26.2153C167.721 26.2635 167.894 26.3011 168.067 26.3471C168.266 26.3997 168.47 26.427 168.661 26.4894Z" fill="#E2231A"/>
</mask>
<g mask="url(#mask1_1_7431)">
<rect x="163.5" y="8.29761" width="38" height="30" transform="rotate(4.69296 163.5 8.29761)" fill="#5F0F0B"/>
</g>
<mask id="mask2_1_7431" style="mask-type:alpha" maskUnits="userSpaceOnUse" x="295" y="90" width="30" height="30">
<path d="M306.088 114.894C305.717 114.706 305.408 114.416 305.044 114.221C304.979 114.185 304.887 113.978 304.868 113.96C304.604 113.629 304.991 112.984 305.174 112.706C305.519 112.187 305.873 111.672 306.205 111.137C306.382 110.848 306.562 110.555 306.78 110.301C307.072 109.961 307.455 109.776 307.913 109.788C308.103 109.794 308.248 109.904 308.4 110.001C308.598 110.127 308.808 110.237 309.025 110.331C309.277 110.441 309.569 110.514 309.793 110.674C310.073 110.873 310.395 111.042 310.651 111.271C310.964 111.551 311.275 111.771 311.658 111.964C312.07 112.171 312.494 112.369 312.873 112.634C313.018 112.734 313.135 112.854 313.297 112.93C313.553 113.05 313.82 113.15 314.069 113.283C314.363 113.438 314.584 113.677 314.86 113.859C315.18 114.07 315.472 114.292 315.774 114.528C315.986 114.696 316.261 114.856 316.375 115.114C316.516 115.435 316.288 115.84 316.153 116.127C316.046 116.366 315.865 116.564 315.765 116.82C315.694 117.006 315.624 117.196 315.581 117.389C315.502 117.73 315.367 118.031 315.168 118.314C315.069 118.457 314.962 118.602 314.907 118.769C314.832 119.003 314.475 119.222 314.262 119.311C314.011 119.414 313.886 119.355 313.633 119.237C312.961 118.922 312.389 118.434 311.746 118.067C311.356 117.846 310.923 117.741 310.522 117.548C310.374 117.477 310.248 117.44 310.124 117.332C309.933 117.171 309.733 117.032 309.515 116.909C308.966 116.594 308.469 116.178 307.909 115.891C307.711 115.789 307.501 115.702 307.3 115.603C307.098 115.502 306.93 115.372 306.733 115.258C306.518 115.134 306.303 115.01 306.088 114.894Z" fill="black"/>
<path d="M307.046 114.729C306.907 114.643 306.733 114.617 306.615 114.489C306.286 114.133 305.852 113.918 305.488 113.616C305.475 113.569 305.457 113.527 305.457 113.481C305.461 113.129 305.814 112.565 306.048 112.313C306.432 111.901 306.749 111.44 307.025 110.95C307.145 110.737 307.335 110.634 307.563 110.614C307.874 110.585 308.174 110.61 308.437 110.796C308.53 110.856 308.629 110.909 308.731 110.956C309.332 111.263 309.954 111.539 310.542 111.888C310.573 111.909 310.607 111.923 310.636 111.937C310.959 112.081 311.261 112.255 311.495 112.528C311.546 112.586 311.613 112.618 311.679 112.653C312.139 112.88 312.567 113.169 313.036 113.381C313.326 113.508 313.534 113.797 313.874 113.838C313.932 113.846 313.963 113.896 313.999 113.938C314.169 114.131 314.348 114.32 314.559 114.471C314.89 114.707 315.255 114.911 315.467 115.284C315.472 115.295 315.481 115.301 315.49 115.306C315.611 115.411 315.671 115.552 315.641 115.702C315.584 115.969 315.598 116.257 315.479 116.506C315.341 116.783 315.276 117.075 315.203 117.37C315.115 117.697 314.914 117.945 314.672 118.159C314.54 118.275 314.391 118.367 314.281 118.503C314.173 118.647 314.049 118.654 313.889 118.617C313.544 118.543 313.214 118.42 312.904 118.274C312.731 118.191 312.536 118.152 312.383 118.026C311.947 117.671 311.433 117.431 310.945 117.156C310.437 116.86 309.952 116.528 309.442 116.236C308.976 115.973 308.516 115.69 308.086 115.383C307.791 115.176 307.411 115.121 307.192 114.8C307.164 114.761 307.09 114.758 307.046 114.729Z" fill="#E2231A"/>
<path d="M322.347 107.482C322.437 107.331 322.508 107.164 322.6 106.943C322.794 106.483 323.077 106.157 323.381 105.791C324.012 105.032 325.252 103.084 324.308 102.194C323.862 101.774 323.189 101.532 322.669 101.19C321.989 100.743 321.282 100.133 320.532 99.8122C320.38 99.7379 320.268 99.758 320.172 99.8544C319.845 100.19 319.401 100.347 319.134 100.747C319.022 100.912 318.95 101.1 318.831 101.26C318.69 101.452 318.488 101.593 318.359 101.794C318.207 102.029 318.037 102.244 317.884 102.478C317.488 103.083 317.09 103.685 316.692 104.291C316.545 104.514 316.388 104.733 316.249 104.961C316.14 105.14 316.116 105.317 316.024 105.495C315.79 105.947 315.32 106.226 315.041 106.651C314.865 106.918 314.632 107.08 314.43 107.325C314.02 107.826 313.791 108.439 313.423 108.965C313.212 109.262 312.984 109.536 312.809 109.86C312.588 110.27 312.245 110.691 312.636 111.122C312.905 111.422 313.353 111.478 313.616 111.78C313.871 112.074 314.127 112.395 314.494 112.573C314.812 112.729 315.219 112.763 315.502 112.995C315.754 113.201 315.96 113.643 316.33 113.648C316.807 113.655 317.34 113.285 317.631 112.927C317.927 112.561 318.3 112.241 318.601 111.865C318.964 111.412 319.413 111.108 319.823 110.708C320.089 110.445 320.345 110.184 320.561 109.878C320.776 109.575 320.911 109.223 321.127 108.921C321.377 108.571 321.72 108.213 322.014 107.907C322.166 107.754 322.265 107.623 322.347 107.482Z" fill="black"/>
<path d="M313.838 106.148C313.84 106.144 313.841 106.14 313.844 106.134C314.488 105.143 316.115 103.094 316.164 103.027C316.411 102.67 316.675 102.326 316.875 101.945C317.002 101.707 317.121 101.468 317.296 101.266C317.34 101.219 317.365 101.154 317.4 101.101C317.565 100.85 317.674 100.541 317.731 100.246C317.785 99.9751 317.85 99.8425 318.026 99.6163C318.519 98.9821 318.832 98.4371 318.46 97.6603C318.192 97.1008 317.572 96.7316 317.06 96.4275C316.648 96.1821 316.268 95.8461 315.841 95.6314C314.832 95.1224 314.05 95.1738 313.301 96.0353C313.034 96.3414 312.882 96.7537 312.756 97.1347C312.611 97.5716 312.288 97.958 312.035 98.3422C311.765 98.7529 311.511 99.0624 311.154 99.3978C310.387 100.116 309.945 101.098 309.332 101.937C309.129 102.215 308.877 102.44 308.687 102.728C308.508 103.001 308.331 103.278 308.15 103.549C307.795 104.081 307.14 104.673 306.992 105.311C306.891 105.749 306.614 106.071 306.371 106.436C306.26 106.604 306.195 106.812 306.19 107.012C306.185 107.189 306.114 107.312 306.218 107.464C306.333 107.636 306.578 107.737 306.749 107.839C307.113 108.058 307.453 108.307 307.843 108.474C308.106 108.584 308.348 108.743 308.599 108.883C308.789 108.987 308.986 109.092 309.196 109.166C309.488 109.269 309.75 109.449 310.054 109.527C310.41 109.63 310.707 109.526 310.986 109.293C311.246 109.079 311.336 108.753 311.565 108.528C311.611 108.49 311.637 108.431 311.685 108.412C312.124 108.206 312.35 107.766 312.728 107.49C312.79 107.442 312.833 107.356 312.867 107.285C312.924 107.152 313.024 107.066 313.112 106.959C313.349 106.683 313.592 106.415 313.838 106.148Z" fill="black"/>
<path d="M307.974 107.792C308.144 107.899 308.324 108 308.514 108.094C308.727 108.201 308.904 108.371 309.111 108.492C309.325 108.618 309.571 108.668 309.784 108.795C309.877 108.851 309.923 108.932 310.037 108.959C310.232 109.006 310.424 108.899 310.579 108.793C310.943 108.54 311.181 108.156 311.508 107.867C311.886 107.535 312.108 107.163 312.357 106.741C312.559 106.4 312.941 106.108 313.22 105.83C313.562 105.487 313.858 105.087 314.233 104.775C314.388 104.644 314.442 104.431 314.558 104.269C314.791 103.973 315 103.654 315.201 103.337C315.43 102.981 315.653 102.623 315.886 102.269C316.142 101.887 316.352 101.475 316.597 101.091C316.76 100.843 316.89 100.581 316.994 100.307C317.048 100.178 317.101 100.048 317.173 99.9302C317.28 99.7597 317.344 99.5736 317.362 99.3849C317.386 99.1473 317.47 98.9235 317.464 98.6814C317.459 98.5463 317.473 98.4087 317.528 98.275C317.606 98.1105 317.55 97.9722 317.405 97.8644C317.062 97.608 316.717 97.3411 316.368 97.0936C316.034 96.8489 315.699 96.6107 315.4 96.3252C315.362 96.2872 315.314 96.2558 315.264 96.2356C315.119 96.166 314.998 96.0733 314.877 95.9683C314.642 95.7582 314.37 95.7747 314.179 96.0297C314.046 96.2133 313.897 96.3941 313.802 96.6033C313.691 96.6369 313.66 96.7429 313.604 96.8202C313.417 97.0776 313.356 97.39 313.237 97.6746C313.221 97.7194 313.151 97.9402 313.107 98.0074C312.965 98.2234 312.799 98.4184 312.588 98.5766C312.19 98.8853 311.852 99.2641 311.591 99.6806C311.264 100.198 310.852 100.663 310.611 101.237C310.556 101.366 310.448 101.465 310.348 101.551C310.126 101.747 309.96 101.999 309.715 102.167C309.642 102.22 309.584 102.301 309.537 102.38C309.349 102.674 309.113 102.93 308.885 103.198C308.816 103.285 308.745 103.365 308.722 103.484C308.709 103.531 308.68 103.588 308.644 103.623C308.396 103.884 308.226 104.182 308.139 104.526C308.055 104.866 307.682 105.136 307.564 105.481C307.492 105.695 307.471 105.92 307.378 106.13C307.238 106.451 306.919 106.794 307.166 107.096C307.397 107.378 307.671 107.601 307.974 107.792Z" fill="#E2231A"/>
<path d="M300.652 102.374C300.578 102.097 300.866 101.957 301.027 101.708C301.159 101.503 301.117 101.328 301.173 101.096C301.302 100.55 301.676 100.103 301.904 99.599C302.252 98.8264 302.771 98.2144 303.307 97.5699C303.652 97.1651 303.948 96.7214 304.235 96.2706C304.301 96.1697 304.369 96.0747 304.457 95.9859C304.778 95.6719 305.114 95.373 305.382 95.0117C305.426 94.952 305.49 94.9128 305.543 94.859C305.806 94.6258 306.07 94.3968 306.25 94.0965C306.528 93.6352 306.892 93.2404 307.219 92.824C307.384 92.6155 307.547 92.4059 307.699 92.1893C307.799 92.0494 307.906 91.7672 308.042 91.6688C308.205 91.5508 308.633 91.5863 308.802 91.6569C309.258 91.8474 309.739 92.0294 310.153 92.3018C310.486 92.5206 310.697 92.8137 311.01 93.0732C311.303 93.3141 311.578 93.6978 311.808 93.996C312.058 94.3223 312.309 94.708 312.376 95.1271C312.462 95.6737 311.916 96.3036 311.6 96.704C311.419 96.9325 311.24 97.1699 311.09 97.4259C310.96 97.65 310.804 97.852 310.596 98.0114C310.496 98.0902 310.405 98.1824 310.34 98.2998C310.239 98.4996 310.083 98.6634 309.934 98.8241C309.829 98.9376 309.721 99.0564 309.654 99.1973C309.499 99.5138 309.271 99.7797 309.07 100.066C308.907 100.294 308.793 100.541 308.647 100.774C308.404 101.152 308.145 101.519 307.882 101.884C307.718 102.106 307.559 102.336 307.392 102.548C307.158 102.831 306.907 103.101 306.754 103.445C306.734 103.495 306.706 103.545 306.661 103.579C306.112 103.978 305.983 104.794 305.402 105.155C305.035 105.38 304.63 105.01 304.336 104.839C303.971 104.627 303.553 104.561 303.19 104.357C303.06 104.285 302.947 104.179 302.816 104.109C302.585 103.982 302.287 103.984 302.066 103.841C301.856 103.706 301.698 103.483 301.489 103.338C301.164 103.111 300.854 102.824 300.681 102.454C300.667 102.425 300.659 102.399 300.652 102.374Z" fill="black"/>
<path d="M295.992 99.8117C295.493 99.5064 295.103 99.215 295.104 98.5862C295.104 98.3506 295.221 98.1536 295.32 97.9449C295.378 97.8212 295.449 97.7132 295.496 97.5813C295.618 97.2332 295.759 96.9179 296.01 96.6337C296.109 96.5214 296.217 96.4149 296.286 96.2905C296.509 95.9048 296.754 95.5407 296.968 95.1568C297.423 94.33 298.044 93.6432 298.679 92.9599C298.999 92.6077 299.311 92.2496 299.532 91.8245C299.581 91.7425 299.624 91.6647 299.71 91.6118C300.079 91.3979 300.393 91.1127 300.667 90.7931C300.976 90.4385 301.278 90.4295 301.687 90.5791C301.99 90.6848 302.279 90.824 302.566 90.9743C303.336 91.392 303.964 91.9568 304.484 92.6463C304.62 92.8247 304.666 93.0448 304.606 93.2514C304.445 93.7666 304.247 94.2679 303.967 94.7433C303.353 95.7821 302.543 96.6592 301.759 97.5615C301.502 97.8517 301.225 98.1384 301.001 98.4525C300.828 98.6963 300.526 98.8886 300.412 99.1661C300.312 99.4147 300.213 99.6615 300.027 99.8684C299.821 100.093 299.569 100.287 299.329 100.475C299.143 100.619 298.91 100.729 298.736 100.891C298.579 101.036 298.529 101.166 298.282 101.102C298.024 101.036 297.925 100.786 297.733 100.63C297.554 100.482 297.354 100.497 297.148 100.417C296.735 100.258 296.372 100.044 295.992 99.8117Z" fill="black"/>
<path d="M314.073 111.63C313.454 111.222 313.326 110.268 313.718 109.672C313.963 109.298 314.206 108.937 314.485 108.594C314.799 108.209 315.205 107.926 315.513 107.535C316.09 106.801 316.521 105.959 316.995 105.155C317.446 104.387 317.911 103.595 318.572 103.01C318.794 102.816 318.878 102.595 318.977 102.34C319.03 102.206 319.084 102.066 319.162 101.92C319.521 101.25 319.863 100.839 320.179 100.697C320.481 100.563 320.816 100.616 321.179 100.854C321.404 101.002 321.608 101.197 321.786 101.37C321.854 101.435 321.917 101.497 321.977 101.549C322.129 101.685 322.307 101.807 322.478 101.922C322.918 102.221 323.417 102.56 323.511 103.22C323.571 103.645 323.417 104.045 323.282 104.4C323.245 104.5 323.206 104.597 323.177 104.691L323.151 104.77C323.061 105.046 322.968 105.33 322.774 105.582C322.661 105.726 322.528 105.844 322.398 105.957C321.978 106.327 321.757 106.839 321.452 107.303C321.185 107.71 320.892 108.019 320.561 108.369C320.201 108.751 319.888 109.18 319.536 109.569C319.238 109.899 318.948 110.22 318.706 110.593C318.519 110.876 318.347 111.184 318.118 111.429C317.936 111.624 317.727 111.78 317.567 111.989C317.122 112.569 316.49 112.983 315.805 112.532C315.761 112.503 315.581 112.38 315.535 112.35C315.478 112.312 315.418 112.276 315.358 112.244C315.202 112.161 315.039 112.092 314.867 112.02C314.661 111.932 314.448 111.843 314.243 111.726C314.179 111.697 314.123 111.662 314.073 111.63Z" fill="#E2231A"/>
<path d="M301.806 102.41C301.829 102.646 301.928 102.815 302.13 103.001C302.393 103.245 302.651 103.493 303.014 103.582C303.147 103.614 303.268 103.643 303.389 103.705C303.597 103.813 303.741 103.964 303.962 104.041C304.297 104.157 304.612 104.232 304.971 104.25C305.064 104.255 305.133 104.204 305.167 104.125C305.247 103.95 305.374 103.83 305.519 103.718C305.71 103.573 305.844 103.361 305.978 103.165C306.17 102.893 306.424 102.688 306.653 102.451C306.912 102.177 307.152 101.886 307.321 101.548C307.424 101.325 307.597 101.154 307.731 100.958C308.005 100.568 308.199 100.127 308.506 99.7534C308.728 99.4887 308.907 99.1885 309.107 98.904C309.192 98.7824 309.288 98.6754 309.404 98.5795C309.538 98.477 309.627 98.333 309.711 98.1932C309.821 98.0192 309.953 97.865 310.088 97.7207C310.218 97.5777 310.328 97.4295 310.422 97.2585C310.535 97.041 310.714 96.8541 310.881 96.6803C311.114 96.4455 311.254 96.1062 311.373 95.8046C311.458 95.5913 311.605 95.3177 311.511 95.0938C311.417 94.867 311.26 94.65 311.167 94.4108C311.021 94.0462 310.845 93.847 310.536 93.6033C310.246 93.3742 309.907 93.1719 309.575 93.0141C309.225 92.8477 308.846 92.6062 308.45 92.5764C308.22 92.5597 308.149 92.6677 307.979 92.8192C307.586 93.1648 307.125 93.3887 306.897 93.9008C306.821 94.0711 306.725 94.2439 306.58 94.3747C306.482 94.4241 306.449 94.5289 306.393 94.6062C306.273 94.761 306.126 94.8923 305.991 95.0242C305.46 95.466 304.969 95.9468 304.567 96.5118C304.474 96.6457 304.38 96.7874 304.293 96.9278C304.174 97.1283 304.049 97.3177 303.87 97.4711C303.834 97.4983 303.8 97.5315 303.777 97.5669C303.502 98.0381 303.078 98.3905 302.785 98.8442C302.584 99.1487 302.447 99.4769 302.295 99.8004C302.058 100.304 301.768 100.968 301.781 101.527C301.786 101.748 301.827 101.955 301.81 102.177C301.801 102.265 301.799 102.34 301.806 102.41Z" fill="#E2231A"/>
<path d="M297.109 99.6957C297.179 99.767 297.301 99.7967 297.409 99.8019C297.501 99.8013 297.589 99.829 297.665 99.879C297.692 99.8965 297.727 99.9245 297.758 99.9272C298.141 99.8954 298.535 99.9717 298.899 99.7925C298.963 99.7609 298.998 99.7155 299.037 99.6676C299.153 99.5364 299.339 99.4965 299.457 99.3835C299.695 99.1598 299.919 98.924 300.103 98.6442C300.332 98.2955 300.581 97.9443 300.904 97.6754C301.221 97.4172 301.464 97.0948 301.71 96.7854C301.836 96.6218 301.984 96.4734 302.116 96.3191C302.503 95.8413 302.946 95.4119 303.257 94.8734C303.534 94.4045 303.733 93.9137 303.919 93.4072C304.021 93.1292 303.895 92.8996 303.756 92.7095C303.544 92.4229 303.351 92.0956 303.07 91.8677C302.802 91.6508 302.476 91.4871 302.184 91.298C301.98 91.1659 301.891 91.1277 301.658 91.1574C301.478 91.1808 301.302 91.1667 301.122 91.1825C300.716 91.2174 300.457 91.6762 300.257 91.9854C300.087 92.2468 299.962 92.5526 299.75 92.7831C299.595 92.9498 299.366 93.0077 299.202 93.158C299.013 93.3284 298.918 93.5776 298.744 93.762C298.528 93.9931 298.277 94.1904 298.069 94.4291C297.801 94.737 297.574 95.0822 297.349 95.4239C297.2 95.6505 297.033 95.8701 296.913 96.1106C296.841 96.2539 296.776 96.3988 296.711 96.5409C296.567 96.8568 296.359 97.126 296.178 97.4204C296.074 97.5903 296.049 97.7668 296.006 97.9563C295.965 98.1375 295.85 98.3939 295.935 98.5767C295.994 98.7038 296.164 98.8261 296.264 98.9219C296.392 99.0468 296.526 99.1629 296.655 99.2861C296.806 99.4279 296.972 99.5497 297.109 99.6957Z" fill="#E2231A"/>
</mask>
<g mask="url(#mask2_1_7431)">
<rect x="301.297" y="81.2549" width="38" height="30" transform="rotate(33.3267 301.297 81.2549)" fill="#5F0F0B"/>
</g>
<mask id="mask3_1_7431" style="mask-type:alpha" maskUnits="userSpaceOnUse" x="647" y="16" width="31" height="23">
<path d="M668.942 37.9681C668.549 38.1032 668.125 38.1233 667.732 38.2475C667.661 38.2698 667.448 38.1911 667.422 38.1925C667.001 38.1515 666.807 37.4241 666.735 37.0994C666.604 36.4904 666.481 35.8775 666.328 35.2668C666.244 34.9382 666.16 34.6054 666.129 34.2715C666.088 33.8248 666.222 33.4217 666.551 33.1014C666.686 32.9693 666.867 32.9423 667.042 32.9012C667.271 32.8461 667.495 32.7724 667.714 32.6826C667.969 32.5783 668.224 32.4196 668.496 32.3702C668.833 32.3082 669.179 32.1946 669.521 32.1708C669.94 32.1407 670.315 32.0705 670.72 31.9307C671.156 31.7798 671.594 31.6131 672.047 31.5254C672.22 31.4914 672.387 31.4912 672.555 31.4278C672.82 31.3279 673.077 31.2057 673.346 31.1199C673.662 31.0172 673.987 31.0253 674.31 30.9537C674.684 30.8706 675.048 30.816 675.427 30.7644C675.695 30.7288 676.001 30.6434 676.266 30.7409C676.595 30.8632 676.726 31.3093 676.838 31.6058C676.935 31.849 676.951 32.1167 677.065 32.367C677.149 32.5481 677.237 32.7303 677.345 32.8951C677.534 33.1896 677.657 33.4966 677.721 33.836C677.755 34.0066 677.783 34.1847 677.866 34.34C677.981 34.5575 677.89 34.9663 677.805 35.1804C677.705 35.4327 677.574 35.4812 677.314 35.5802C676.619 35.8429 675.871 35.9135 675.159 36.1192C674.729 36.2451 674.352 36.4828 673.935 36.6362C673.78 36.6923 673.667 36.7566 673.503 36.7712C673.254 36.796 673.015 36.8426 672.775 36.9133C672.167 37.0874 671.522 37.1545 670.926 37.3562C670.714 37.4271 670.506 37.5167 670.295 37.5918C670.082 37.6674 669.871 37.6967 669.653 37.7583C669.414 37.8264 669.175 37.8946 668.942 37.9681Z" fill="black"/>
<path d="M669.49 37.1652C669.332 37.2047 669.193 37.3115 669.018 37.3068C668.534 37.295 668.077 37.4571 667.606 37.5074C667.564 37.4841 667.521 37.4676 667.488 37.4359C667.238 37.1876 667.079 36.5414 667.062 36.198C667.034 35.6355 666.924 35.0871 666.765 34.5473C666.695 34.3131 666.753 34.1049 666.898 33.9273C667.094 33.6842 667.321 33.4862 667.638 33.4267C667.746 33.4028 667.853 33.3682 667.957 33.3278C668.596 33.1098 669.228 32.8567 669.887 32.6779C669.924 32.6696 669.958 32.6556 669.988 32.6446C670.317 32.513 670.652 32.417 671.011 32.4394C671.088 32.444 671.158 32.4176 671.229 32.3953C671.711 32.2231 672.217 32.1172 672.696 31.9285C672.989 31.8093 673.341 31.8613 673.608 31.6458C673.654 31.6095 673.711 31.6228 673.766 31.6258C674.023 31.6383 674.284 31.6411 674.539 31.5955C674.939 31.5218 675.34 31.4024 675.755 31.51C675.766 31.5139 675.777 31.5116 675.787 31.5093C675.947 31.4956 676.089 31.5508 676.176 31.677C676.328 31.9036 676.544 32.0944 676.641 32.3529C676.742 32.645 676.906 32.8951 677.068 33.1523C677.241 33.4437 677.279 33.7609 677.263 34.0833C677.255 34.2588 677.217 34.43 677.238 34.6033C677.266 34.7814 677.185 34.8754 677.047 34.9648C676.754 35.16 676.436 35.3109 676.115 35.432C675.935 35.4981 675.771 35.6104 675.574 35.6324C675.015 35.6978 674.485 35.9001 673.947 36.0586C673.381 36.2168 672.806 36.3336 672.241 36.4959C671.727 36.6468 671.204 36.7804 670.684 36.8741C670.33 36.9418 670.026 37.1763 669.643 37.1096C669.595 37.1027 669.542 37.1537 669.49 37.1652Z" fill="#E2231A"/>
<path d="M674.95 21.1427C674.903 20.9729 674.834 20.806 674.739 20.5861C674.544 20.126 674.507 19.6958 674.456 19.223C674.351 18.2415 673.818 15.9944 672.522 16.052C671.91 16.0794 671.267 16.3934 670.659 16.5284C669.865 16.7047 668.935 16.7874 668.182 17.1021C668.024 17.159 667.96 17.2535 667.962 17.3897C667.975 17.8578 667.779 18.2855 667.879 18.7559C667.92 18.9508 668.004 19.134 668.037 19.3307C668.076 19.5651 668.036 19.8082 668.09 20.0415C668.153 20.314 668.19 20.5859 668.25 20.8589C668.409 21.5638 668.563 22.2695 668.72 22.9769C668.778 23.2375 668.826 23.5025 668.892 23.7613C668.946 23.9642 669.055 24.1049 669.119 24.2947C669.281 24.7776 669.153 25.3093 669.264 25.8057C669.333 26.118 669.286 26.3975 669.322 26.713C669.395 27.3565 669.676 27.9474 669.796 28.5782C669.863 28.9367 669.9 29.2908 670.011 29.6418C670.151 30.086 670.214 30.6254 670.796 30.646C671.198 30.6608 671.55 30.3787 671.95 30.4006C672.339 30.4228 672.747 30.4624 673.131 30.323C673.465 30.2033 673.772 29.9355 674.136 29.8937C674.46 29.8566 674.921 30.0168 675.182 29.7549C675.519 29.4174 675.625 28.7777 675.57 28.3187C675.514 27.8515 675.544 27.3609 675.484 26.8838C675.413 26.3072 675.507 25.7741 675.506 25.2014C675.503 24.8266 675.493 24.4619 675.425 24.0931C675.357 23.7284 675.198 23.3859 675.132 23.0207C675.056 22.5972 675.037 22.1022 675.023 21.6777C675.018 21.4617 674.993 21.3002 674.95 21.1427Z" fill="black"/>
<path d="M668.067 26.3144C668.066 26.3103 668.063 26.3066 668.062 26.3004C667.799 25.1476 667.462 22.553 667.448 22.4714C667.365 22.0451 667.302 21.6163 667.168 21.2077C667.085 20.9505 666.996 20.6989 666.974 20.4325C666.971 20.3682 666.942 20.3052 666.928 20.2431C666.863 19.9494 666.717 19.6562 666.545 19.41C666.388 19.1822 666.338 19.0436 666.299 18.7594C666.187 17.9638 666.014 17.3598 665.198 17.0852C664.61 16.8881 663.913 17.0753 663.338 17.2312C662.875 17.3556 662.369 17.3941 661.918 17.5507C660.85 17.9202 660.342 18.5169 660.438 19.6544C660.472 20.0594 660.662 20.4556 660.847 20.8116C661.059 21.2202 661.112 21.7208 661.211 22.1696C661.318 22.6495 661.363 23.0475 661.354 23.5377C661.336 24.5879 661.732 25.5895 661.907 26.614C661.965 26.9527 661.951 27.2901 662.026 27.6272C662.096 27.9457 662.172 28.2654 662.24 28.5844C662.375 29.2099 662.343 30.0917 662.697 30.6424C662.942 31.02 662.979 31.4436 663.072 31.8722C663.116 32.0687 663.219 32.2606 663.359 32.4031C663.483 32.5297 663.522 32.6665 663.702 32.698C663.906 32.7353 664.149 32.6292 664.342 32.5777C664.752 32.4694 665.168 32.3987 665.56 32.2359C665.821 32.1235 666.105 32.0606 666.379 31.978C666.586 31.9146 666.799 31.8457 666.999 31.7472C667.276 31.6096 667.588 31.5469 667.855 31.3834C668.177 31.1991 668.309 30.9138 668.337 30.5516C668.364 30.2156 668.193 29.9237 668.192 29.6029C668.196 29.5434 668.172 29.4836 668.191 29.4359C668.35 28.9774 668.192 28.5091 668.256 28.0456C668.265 27.9677 668.234 27.8769 668.206 27.8026C668.151 27.6696 668.158 27.5377 668.143 27.4C668.111 27.0383 668.087 26.6768 668.067 26.3144Z" fill="black"/>
<path d="M665.161 31.6667C665.356 31.6189 665.554 31.5599 665.753 31.4896C665.979 31.4113 666.224 31.4024 666.455 31.3381C666.694 31.272 666.902 31.1305 667.141 31.0664C667.246 31.0389 667.336 31.0623 667.435 30.9992C667.604 30.8921 667.661 30.6798 667.694 30.4946C667.766 30.0575 667.656 29.6197 667.676 29.1833C667.701 28.6807 667.589 28.2629 667.46 27.7902C667.356 27.4075 667.413 26.9305 667.408 26.5366C667.4 26.0522 667.319 25.5601 667.356 25.0743C667.37 24.8716 667.255 24.6846 667.22 24.4883C667.17 24.1153 667.087 23.743 667 23.3783C666.904 22.9655 666.802 22.5562 666.71 22.1426C666.615 21.6928 666.465 21.255 666.36 20.8117C666.296 20.5221 666.198 20.2465 666.074 19.9811C666.019 19.8522 665.963 19.7237 665.929 19.5902C665.881 19.3946 665.792 19.219 665.669 19.0749C665.515 18.8919 665.413 18.6759 665.236 18.5113C665.135 18.4207 665.047 18.3145 664.989 18.1819C664.925 18.0116 664.787 17.9555 664.609 17.9842C664.185 18.0521 663.754 18.1131 663.333 18.1914C662.925 18.2603 662.52 18.3348 662.107 18.3506C662.053 18.3517 661.997 18.3641 661.948 18.386C661.798 18.4411 661.646 18.4638 661.487 18.4775C661.172 18.4995 660.995 18.7061 661.045 19.0205C661.084 19.2441 661.109 19.4771 661.194 19.6906C661.141 19.7935 661.195 19.8901 661.211 19.9841C661.266 20.2975 661.447 20.5589 661.569 20.8422C661.589 20.8854 661.699 21.0889 661.717 21.1674C661.773 21.4198 661.797 21.6749 661.764 21.9362C661.708 22.4369 661.744 22.9432 661.861 23.4207C662.004 24.0162 662.05 24.6353 662.295 25.2082C662.349 25.3372 662.345 25.4836 662.337 25.6155C662.323 25.9117 662.388 26.2054 662.338 26.4986C662.325 26.5882 662.343 26.6864 662.367 26.7744C662.447 27.1147 662.465 27.4622 662.5 27.8127C662.513 27.9225 662.522 28.0291 662.591 28.1287C662.616 28.171 662.636 28.2316 662.636 28.2815C662.651 28.6407 662.746 28.9712 662.932 29.2727C663.118 29.5701 663.052 30.0254 663.217 30.351C663.32 30.5517 663.467 30.7231 663.553 30.9362C663.686 31.2605 663.71 31.7284 664.099 31.7613C664.461 31.7915 664.813 31.7505 665.161 31.6667Z" fill="#E2231A"/>
<path d="M656.174 33.1451C655.923 33.0054 656.023 32.7011 655.957 32.412C655.902 32.1746 655.747 32.0831 655.62 31.8813C655.317 31.4081 655.258 30.8287 655.055 30.3139C654.743 29.5258 654.666 28.727 654.576 27.894C654.526 27.3647 654.414 26.8426 654.29 26.3232C654.264 26.2053 654.243 26.0906 654.241 25.9651C654.239 25.5163 654.259 25.0671 654.186 24.6231C654.175 24.5498 654.191 24.4767 654.189 24.4011C654.205 24.0504 654.225 23.7009 654.135 23.3628C653.997 22.842 653.967 22.3061 653.896 21.7815C653.862 21.5179 653.825 21.2547 653.776 20.9944C653.745 20.8254 653.617 20.5522 653.641 20.3863C653.67 20.1866 653.994 19.9042 654.163 19.8321C654.616 19.638 655.082 19.4196 655.566 19.3122C655.955 19.2258 656.312 19.279 656.717 19.2348C657.094 19.1923 657.561 19.2623 657.935 19.3051C658.343 19.3535 658.794 19.4421 659.141 19.6862C659.594 20.0046 659.665 20.8351 659.732 21.3412C659.77 21.63 659.816 21.9237 659.895 22.2101C659.965 22.4592 660.002 22.7116 659.971 22.9724C659.957 23.099 659.96 23.2286 659.999 23.3566C660.072 23.5683 660.081 23.7942 660.093 24.013C660.101 24.1674 660.111 24.328 660.165 24.4744C660.284 24.8061 660.316 25.1549 660.382 25.4985C660.432 25.7738 660.529 26.0278 660.595 26.2953C660.697 26.7328 660.78 27.1745 660.858 27.6172C660.904 27.8893 660.958 28.1637 660.994 28.4314C661.033 28.7959 661.052 29.165 661.193 29.5136C661.214 29.563 661.231 29.6179 661.224 29.6738C661.128 30.3462 661.624 31.0065 661.477 31.675C661.384 32.095 660.835 32.1278 660.508 32.2198C660.102 32.334 659.763 32.5871 659.364 32.7061C659.222 32.7485 659.067 32.7568 658.925 32.8013C658.673 32.8789 658.467 33.094 658.211 33.153C657.967 33.2092 657.698 33.1671 657.448 33.216C657.059 33.2915 656.636 33.3137 656.251 33.1801C656.22 33.1695 656.196 33.1576 656.174 33.1451Z" fill="black"/>
<path d="M651.088 34.7043C650.521 34.8496 650.041 34.9258 649.59 34.4876C649.421 34.3233 649.361 34.1022 649.281 33.8857C649.233 33.7575 649.205 33.6313 649.142 33.5063C648.978 33.176 648.85 32.8549 648.82 32.4774C648.809 32.328 648.808 32.1763 648.767 32.04C648.645 31.6112 648.555 31.1821 648.428 30.7609C648.152 29.8586 648.092 28.9343 648.044 28.0031C648.015 27.5279 647.975 27.0549 647.824 26.6001C647.799 26.5079 647.774 26.4225 647.795 26.3243C647.899 25.9107 647.913 25.4865 647.874 25.0676C647.835 24.5987 648.04 24.3754 648.432 24.1864C648.719 24.0424 649.02 23.9321 649.327 23.8313C650.164 23.5698 651.006 23.513 651.863 23.62C652.086 23.6465 652.276 23.7672 652.382 23.9541C652.64 24.4287 652.861 24.9198 653.008 25.4516C653.325 26.6161 653.39 27.8084 653.491 28.999C653.521 29.3853 653.533 29.784 653.602 30.1637C653.657 30.4576 653.585 30.8078 653.704 31.0829C653.813 31.3279 653.921 31.5709 653.939 31.8489C653.957 32.1532 653.921 32.4694 653.888 32.7718C653.862 33.0055 653.779 33.2495 653.774 33.4874C653.769 33.7011 653.827 33.8271 653.609 33.9601C653.382 34.0995 653.133 33.9963 652.888 34.0247C652.657 34.0499 652.528 34.2043 652.328 34.2966C651.926 34.4813 651.519 34.5934 651.088 34.7043Z" fill="black"/>
<path d="M672.163 29.9669C671.439 30.1276 670.665 29.555 670.51 28.858C670.413 28.4216 670.323 27.9966 670.271 27.5568C670.214 27.0638 670.294 26.575 670.228 26.0819C670.103 25.1569 669.8 24.2606 669.552 23.3606C669.316 22.5015 669.072 21.616 669.113 20.7345C669.128 20.4404 669.028 20.2259 668.914 19.9777C668.855 19.8456 668.792 19.7097 668.742 19.5516C668.512 18.8279 668.454 18.2959 668.573 17.9701C668.687 17.6605 668.958 17.457 669.382 17.3629C669.645 17.3046 669.927 17.2941 670.175 17.2868C670.27 17.2831 670.358 17.2808 670.437 17.2742C670.64 17.2595 670.852 17.2168 671.053 17.1744C671.574 17.0674 672.165 16.9448 672.704 17.3375C673.051 17.5903 673.23 17.9801 673.391 18.3242C673.437 18.4205 673.479 18.5152 673.527 18.6023L673.565 18.6763C673.7 18.9328 673.839 19.1971 673.885 19.5124C673.91 19.6935 673.902 19.8711 673.892 20.0426C673.864 20.6021 674.079 21.1167 674.199 21.6586C674.304 22.1343 674.323 22.5599 674.343 23.0416C674.366 23.566 674.456 24.0886 674.49 24.6128C674.519 25.0557 674.547 25.4877 674.646 25.9216C674.719 26.2525 674.82 26.5904 674.836 26.9254C674.85 27.1915 674.816 27.4508 674.854 27.7114C674.961 28.4344 674.817 29.1759 674.017 29.3536C673.965 29.3651 673.751 29.4082 673.697 29.4201C673.631 29.4348 673.563 29.4521 673.498 29.473C673.33 29.5276 673.168 29.5963 672.995 29.6693C672.789 29.7564 672.577 29.8469 672.35 29.9123C672.284 29.9378 672.221 29.9541 672.163 29.9669Z" fill="#E2231A"/>
<path d="M657.002 32.3424C657.187 32.4902 657.378 32.5369 657.652 32.5215C658.01 32.5028 658.368 32.4907 658.684 32.2924C658.8 32.2189 658.905 32.1523 659.034 32.1085C659.256 32.0352 659.465 32.0366 659.674 31.9317C659.99 31.7725 660.264 31.5988 660.527 31.3539C660.595 31.291 660.607 31.2059 660.574 31.1264C660.504 30.9467 660.506 30.7725 660.526 30.59C660.556 30.3513 660.498 30.1081 660.45 29.8756C660.388 29.5485 660.418 29.2229 660.408 28.8931C660.392 28.5169 660.35 28.1421 660.225 27.7857C660.137 27.5556 660.135 27.3129 660.088 27.0804C659.999 26.6118 659.818 26.1659 659.763 25.6854C659.728 25.3416 659.638 25.0035 659.573 24.662C659.545 24.5163 659.535 24.3731 659.547 24.2228C659.566 24.0558 659.526 23.8912 659.484 23.7333C659.435 23.5336 659.417 23.3316 659.407 23.134C659.395 22.9414 659.365 22.7592 659.309 22.5721C659.231 22.3397 659.221 22.0814 659.214 21.8401C659.207 21.5095 659.061 21.173 658.928 20.877C658.834 20.6678 658.74 20.3718 658.514 20.2831C658.286 20.1927 658.021 20.1538 657.784 20.0545C657.421 19.905 657.156 19.8923 656.766 19.9441C656.399 19.993 656.018 20.0949 655.673 20.2235C655.31 20.3584 654.873 20.4619 654.576 20.7254C654.403 20.8786 654.431 21.0048 654.421 21.2328C654.396 21.7549 654.235 22.242 654.444 22.7621C654.513 22.9356 654.57 23.1248 654.563 23.3194C654.53 23.4244 654.582 23.5214 654.599 23.6154C654.626 23.8089 654.618 24.0061 654.619 24.1948C654.565 24.8837 654.568 25.5711 654.694 26.2529C654.725 26.4131 654.762 26.5786 654.801 26.739C654.862 26.9642 654.911 27.1855 654.896 27.4211C654.891 27.4656 654.891 27.5134 654.9 27.5548C655.047 28.08 655.004 28.6299 655.125 29.1564C655.204 29.5121 655.344 29.8392 655.471 30.1736C655.666 30.6944 655.941 31.3648 656.351 31.7447C656.513 31.8955 656.69 32.0102 656.838 32.1771C656.894 32.2449 656.947 32.2982 657.002 32.3424Z" fill="#E2231A"/>
<path d="M651.783 33.8215C651.883 33.8211 651.99 33.754 652.069 33.68C652.132 33.6139 652.214 33.5698 652.303 33.55C652.334 33.5431 652.378 33.5376 652.402 33.5172C652.646 33.2199 652.975 32.9906 653.1 32.6048C653.122 32.537 653.113 32.4802 653.106 32.4189C653.093 32.2438 653.194 32.0825 653.195 31.9195C653.201 31.5928 653.187 31.268 653.115 30.9412C653.024 30.5338 652.946 30.1107 652.978 29.6911C653.014 29.2839 652.951 28.8854 652.901 28.4929C652.871 28.289 652.868 28.0792 652.849 27.8772C652.776 27.2661 652.776 26.6498 652.607 26.0516C652.464 25.5255 652.25 25.0413 652.016 24.5549C651.888 24.2883 651.635 24.2184 651.402 24.1855C651.049 24.1381 650.68 24.0486 650.32 24.0915C649.978 24.1328 649.633 24.2526 649.295 24.33C649.057 24.3849 648.968 24.4221 648.827 24.6096C648.718 24.7552 648.586 24.8715 648.472 25.0119C648.214 25.3273 648.363 25.8325 648.445 26.1919C648.514 26.4955 648.647 26.7982 648.664 27.1112C648.675 27.3387 648.558 27.5427 648.551 27.7656C648.542 28.0193 648.655 28.2613 648.665 28.5151C648.681 28.8306 648.647 29.1484 648.674 29.4637C648.708 29.8707 648.798 30.274 648.886 30.6732C648.945 30.9379 648.986 31.211 649.075 31.4647C649.128 31.6157 649.187 31.7632 649.243 31.9092C649.369 32.2328 649.418 32.5692 649.503 32.9041C649.552 33.0971 649.662 33.2378 649.767 33.401C649.869 33.5563 649.973 33.8176 650.163 33.8839C650.295 33.9306 650.502 33.8934 650.639 33.8888C650.818 33.8838 650.995 33.8684 651.174 33.8614C651.38 33.8524 651.583 33.8183 651.783 33.8215Z" fill="#E2231A"/>
</mask>
<g mask="url(#mask3_1_7431)">
<rect x="641.471" y="17.9727" width="38" height="30" transform="rotate(-12.5151 641.471 17.9727)" fill="#5F0F0B"/>
</g>
<mask id="mask4_1_7431" style="mask-type:alpha" maskUnits="userSpaceOnUse" x="780" y="77" width="31" height="28">
<path d="M794.147 101.096C793.749 100.977 793.393 100.746 793.001 100.618C792.93 100.595 792.803 100.407 792.781 100.393C792.463 100.114 792.729 99.4098 792.86 99.1039C793.109 98.5328 793.366 97.963 793.598 97.3777C793.721 97.0618 793.846 96.742 794.016 96.4528C794.243 96.0662 794.587 95.8168 795.04 95.7479C795.228 95.7196 795.39 95.8029 795.557 95.8717C795.775 95.9602 796 96.0312 796.23 96.0857C796.498 96.1494 796.798 96.1694 797.047 96.2874C797.358 96.4339 797.705 96.5432 797.997 96.7231C798.355 96.9428 798.7 97.1043 799.111 97.2268C799.553 97.358 800.006 97.4779 800.426 97.6711C800.586 97.7441 800.722 97.8413 800.895 97.8879C801.168 97.9607 801.448 98.0114 801.718 98.0987C802.034 98.1993 802.293 98.3955 802.597 98.5253C802.95 98.676 803.277 98.8434 803.615 99.0225C803.854 99.1497 804.152 99.2589 804.311 99.4925C804.507 99.7835 804.354 100.223 804.271 100.529C804.209 100.783 804.066 101.01 804.012 101.28C803.975 101.476 803.94 101.675 803.932 101.872C803.914 102.221 803.835 102.542 803.689 102.856C803.617 103.014 803.537 103.175 803.513 103.349C803.48 103.593 803.167 103.872 802.974 103.997C802.745 104.143 802.611 104.107 802.342 104.036C801.624 103.844 800.975 103.465 800.277 103.218C799.854 103.069 799.409 103.043 798.981 102.924C798.822 102.88 798.692 102.866 798.551 102.782C798.334 102.657 798.113 102.556 797.876 102.473C797.281 102.26 796.717 101.939 796.116 101.756C795.902 101.69 795.681 101.641 795.466 101.579C795.248 101.516 795.06 101.417 794.847 101.34C794.613 101.256 794.379 101.172 794.147 101.096Z" fill="black"/>
<path d="M795.061 100.764C794.909 100.703 794.734 100.709 794.595 100.604C794.208 100.312 793.742 100.177 793.331 99.9438C793.31 99.9004 793.285 99.862 793.277 99.817C793.218 99.4693 793.466 98.8517 793.651 98.5624C793.957 98.0894 794.187 97.5793 794.372 97.048C794.452 96.8173 794.621 96.6819 794.842 96.6221C795.143 96.5386 795.443 96.5102 795.735 96.6465C795.836 96.6898 795.944 96.7241 796.052 96.7518C796.698 96.9475 797.359 97.1101 797.999 97.349C798.034 97.364 798.07 97.3723 798.101 97.3809C798.445 97.4656 798.772 97.5827 799.051 97.8099C799.111 97.8586 799.183 97.878 799.254 97.9012C799.746 98.0426 800.219 98.2516 800.718 98.3773C801.026 98.451 801.282 98.6986 801.624 98.679C801.683 98.6765 801.721 98.7207 801.764 98.7551C801.966 98.9149 802.176 99.0693 802.41 99.1806C802.778 99.3541 803.173 99.4908 803.448 99.8199C803.455 99.8299 803.464 99.8341 803.474 99.8382C803.612 99.9202 803.696 100.048 803.692 100.201C803.684 100.474 803.748 100.755 803.676 101.021C803.588 101.318 803.576 101.617 803.557 101.92C803.528 102.257 803.374 102.537 803.174 102.79C803.064 102.928 802.934 103.045 802.85 103.198C802.769 103.359 802.648 103.388 802.484 103.38C802.132 103.368 801.785 103.305 801.455 103.217C801.269 103.165 801.071 103.161 800.898 103.064C800.406 102.792 799.857 102.647 799.328 102.463C798.776 102.261 798.24 102.021 797.686 101.823C797.181 101.647 796.678 101.45 796.201 101.223C795.874 101.072 795.49 101.085 795.217 100.807C795.183 100.774 795.11 100.785 795.061 100.764Z" fill="#E2231A"/>
<path d="M808.837 90.9244C808.898 90.7594 808.939 90.5833 808.99 90.3495C809.1 89.8617 809.32 89.4907 809.555 89.077C810.042 88.2182 810.918 86.0813 809.831 85.3728C809.318 85.0381 808.613 84.9189 808.04 84.6742C807.292 84.3545 806.488 83.8797 805.693 83.6966C805.531 83.6503 805.424 83.69 805.346 83.8019C805.084 84.1897 804.675 84.423 804.482 84.8636C804.402 85.0459 804.364 85.2437 804.276 85.4227C804.171 85.6359 803.997 85.8105 803.905 86.0315C803.797 86.2895 803.668 86.5317 803.558 86.7889C803.276 87.4541 802.99 88.1176 802.706 88.7839C802.601 89.0294 802.485 89.2727 802.388 89.5215C802.314 89.7177 802.321 89.8957 802.262 90.0872C802.112 90.5736 801.698 90.9316 801.498 91.3992C801.373 91.6934 801.172 91.8933 801.017 92.1703C800.701 92.7359 800.585 93.3798 800.316 93.9626C800.161 94.2927 799.985 94.6023 799.87 94.9518C799.724 95.3943 799.462 95.8695 799.922 96.2254C800.241 96.4721 800.691 96.4479 801.003 96.6988C801.307 96.9436 801.615 97.2137 802.008 97.324C802.349 97.4212 802.755 97.3827 803.075 97.5609C803.36 97.7195 803.641 98.1184 804.005 98.0576C804.476 97.9801 804.935 97.5217 805.158 97.1172C805.385 96.7049 805.696 96.3238 805.925 95.9009C806.203 95.3907 806.59 95.0125 806.923 94.5464C807.139 94.2402 807.344 93.9384 807.503 93.5985C807.66 93.2626 807.731 92.8919 807.89 92.5568C808.075 92.168 808.348 91.7548 808.584 91.4018C808.707 91.2237 808.78 91.0778 808.837 90.9244Z" fill="black"/>
<path d="M800.228 91.1164C800.229 91.1125 800.229 91.1078 800.232 91.1019C800.69 90.0123 801.929 87.7075 801.965 87.6332C802.145 87.2379 802.344 86.853 802.474 86.4428C802.556 86.1853 802.631 85.9293 802.768 85.6999C802.803 85.6456 802.816 85.5775 802.841 85.519C802.959 85.2424 803.012 84.9193 803.016 84.6191C803.021 84.3426 803.061 84.2007 803.195 83.9468C803.568 83.2354 803.779 82.6437 803.276 81.9448C802.913 81.4417 802.238 81.1879 801.679 80.9792C801.231 80.8106 800.797 80.547 800.339 80.4112C799.256 80.0888 798.495 80.2777 797.911 81.2582C797.702 81.6067 797.625 82.0394 797.568 82.4367C797.503 82.8925 797.254 83.3298 797.073 83.7526C796.88 84.2046 796.684 84.5542 796.392 84.9476C795.764 85.7901 795.502 86.8347 795.048 87.7694C794.897 88.0784 794.689 88.3443 794.554 88.6618C794.425 88.9619 794.3 89.2655 794.17 89.5647C793.915 90.1515 793.375 90.8492 793.342 91.5033C793.32 91.9526 793.104 92.3187 792.93 92.7211C792.851 92.9062 792.823 93.1224 792.853 93.3199C792.88 93.4948 792.832 93.6287 792.96 93.7596C793.104 93.9086 793.364 93.9642 793.55 94.0347C793.947 94.1856 794.326 94.3707 794.739 94.4665C795.017 94.5277 795.284 94.6418 795.555 94.7347C795.761 94.804 795.973 94.8719 796.193 94.9081C796.499 94.9582 796.789 95.0889 797.101 95.1119C797.47 95.1496 797.743 94.9947 797.977 94.7168C798.196 94.4598 798.227 94.1228 798.412 93.8611C798.45 93.8152 798.465 93.7526 798.509 93.7252C798.906 93.4452 799.05 92.9724 799.372 92.6332C799.425 92.575 799.453 92.4832 799.474 92.4069C799.506 92.2664 799.589 92.1637 799.657 92.0429C799.841 91.73 800.033 91.4224 800.228 91.1164Z" fill="black"/>
<path d="M794.747 93.7723C794.934 93.8475 795.129 93.9146 795.331 93.9736C795.561 94.0415 795.765 94.1773 795.99 94.2597C796.223 94.3454 796.474 94.3513 796.706 94.4389C796.807 94.4775 796.867 94.5489 796.984 94.5552C797.184 94.567 797.354 94.4277 797.488 94.2962C797.802 93.9832 797.968 93.5632 798.238 93.2205C798.552 92.8268 798.704 92.4218 798.875 91.9626C799.013 91.5908 799.337 91.2363 799.563 90.9133C799.839 90.5152 800.06 90.0682 800.374 89.6953C800.503 89.5386 800.518 89.3193 800.604 89.1395C800.781 88.8072 800.931 88.4565 801.072 88.1091C801.235 87.7178 801.391 87.3259 801.557 86.9363C801.742 86.5152 801.876 86.0724 802.049 85.651C802.165 85.3783 802.246 85.0972 802.3 84.8092C802.331 84.6726 802.36 84.5351 802.41 84.4068C802.485 84.2201 802.515 84.0256 802.499 83.8367C802.481 83.5986 802.524 83.3635 802.476 83.1262C802.447 82.9941 802.437 82.8561 802.467 82.7148C802.514 82.5392 802.435 82.413 802.273 82.3324C801.89 82.1409 801.504 81.9391 801.116 81.7573C800.744 81.5754 800.372 81.4003 800.027 81.1723C799.983 81.1417 799.93 81.1192 799.877 81.1082C799.723 81.0652 799.587 80.9955 799.449 80.9136C799.181 80.7484 798.916 80.8126 798.774 81.0974C798.675 81.3017 798.56 81.506 798.504 81.7286C798.401 81.7813 798.388 81.8912 798.347 81.9772C798.209 82.2637 798.204 82.5819 798.137 82.883C798.129 82.93 798.1 83.1596 798.068 83.2336C797.967 83.4713 797.838 83.6926 797.658 83.8856C797.321 84.2598 797.055 84.6925 796.872 85.1486C796.641 85.7158 796.318 86.2459 796.183 86.8539C796.152 86.9905 796.063 87.1069 795.98 87.2096C795.795 87.4419 795.677 87.7185 795.466 87.9277C795.403 87.9931 795.36 88.083 795.328 88.1685C795.195 88.4916 795.007 88.7847 794.831 89.0895C794.778 89.1867 794.723 89.2783 794.721 89.3999C794.717 89.4485 794.698 89.5095 794.669 89.5501C794.471 89.8505 794.356 90.1745 794.332 90.5281C794.309 90.8778 793.99 91.2092 793.935 91.5704C793.901 91.7935 793.921 92.0183 793.867 92.2417C793.785 92.5826 793.532 92.9765 793.829 93.2302C794.106 93.4661 794.415 93.6374 794.747 93.7723Z" fill="#E2231A"/>
<path d="M786.583 89.7342C786.461 89.4748 786.719 89.2856 786.834 89.012C786.928 88.7871 786.855 88.6225 786.869 88.3843C786.899 87.8235 787.189 87.3182 787.324 86.7814C787.53 85.9594 787.933 85.2651 788.346 84.5361C788.613 84.0768 788.827 83.5875 789.029 83.0932C789.076 82.9821 789.126 82.8766 789.198 82.7736C789.458 82.4078 789.736 82.0542 789.935 81.6511C789.968 81.5846 790.024 81.5348 790.067 81.4724C790.284 81.1965 790.504 80.9242 790.628 80.5969C790.82 80.0937 791.108 79.6407 791.356 79.1731C791.481 78.9387 791.605 78.7035 791.717 78.4633C791.79 78.308 791.845 78.0114 791.962 77.8905C792.102 77.7454 792.53 77.7046 792.708 77.7442C793.19 77.8511 793.696 77.9451 794.152 78.1399C794.518 78.2964 794.777 78.5476 795.132 78.7476C795.463 78.9328 795.802 79.2618 796.081 79.5146C796.384 79.7917 796.699 80.1268 796.839 80.5276C797.021 81.0501 796.595 81.7667 796.355 82.2168C796.217 82.4737 796.083 82.739 795.98 83.0175C795.892 83.2611 795.775 83.4874 795.598 83.6812C795.513 83.7764 795.44 83.8833 795.397 84.0102C795.333 84.2248 795.209 84.4135 795.091 84.5981C795.007 84.7284 794.921 84.8645 794.88 85.0151C794.784 85.354 794.606 85.6561 794.459 85.9734C794.339 86.2264 794.271 86.4896 794.168 86.7454C793.996 87.1601 793.806 87.5673 793.612 87.9729C793.49 88.2203 793.374 88.475 793.247 88.7133C793.067 89.0325 792.867 89.3435 792.778 89.7086C792.767 89.7615 792.748 89.8157 792.71 89.8569C792.24 90.3474 792.258 91.173 791.749 91.6307C791.428 91.9175 790.964 91.6246 790.645 91.5089C790.248 91.3646 789.825 91.3729 789.431 91.237C789.291 91.1885 789.16 91.1051 789.019 91.0586C788.769 90.9748 788.476 91.0294 788.234 90.9281C788.003 90.8318 787.808 90.6403 787.577 90.5346C787.217 90.3692 786.861 90.1409 786.625 89.8076C786.607 89.7812 786.594 89.7573 786.583 89.7342Z" fill="black"/>
<path d="M781.54 88.0366C780.995 87.8243 780.561 87.6064 780.449 86.9875C780.408 86.7556 780.488 86.541 780.549 86.3181C780.585 86.1859 780.635 86.067 780.658 85.929C780.716 85.5648 780.8 85.2295 780.996 84.9055C781.074 84.7774 781.161 84.6535 781.207 84.5188C781.359 84.0997 781.535 83.6981 781.678 83.2823C781.979 82.3881 782.47 81.6022 782.973 80.8174C783.226 80.4141 783.469 80.0065 783.612 79.549C783.645 79.4597 783.675 79.3753 783.749 79.3082C784.074 79.0324 784.333 78.6961 784.546 78.3331C784.788 77.9295 785.084 77.8671 785.513 77.942C785.83 77.9923 786.139 78.0782 786.447 78.1755C787.279 78.4503 787.997 78.8952 788.631 79.4818C788.797 79.6333 788.88 79.8418 788.858 80.0558C788.791 80.5914 788.685 81.1198 788.493 81.6372C788.072 82.7682 787.43 83.7749 786.819 84.8015C786.617 85.1325 786.395 85.4638 786.23 85.8126C786.103 86.0831 785.84 86.3257 785.777 86.619C785.723 86.8814 785.669 87.1419 785.522 87.3785C785.359 87.636 785.145 87.8719 784.942 88.0985C784.785 88.2731 784.575 88.4233 784.432 88.6132C784.304 88.7842 784.278 88.9205 784.023 88.9016C783.757 88.8824 783.615 88.6536 783.399 88.5336C783.197 88.4195 783.002 88.4701 782.785 88.428C782.351 88.3439 781.955 88.1977 781.54 88.0366Z" fill="black"/>
<path d="M801.428 96.4707C800.746 96.1793 800.451 95.2629 800.732 94.6064C800.907 94.1953 801.082 93.7975 801.296 93.4098C801.537 92.9758 801.887 92.6255 802.121 92.1862C802.558 91.3617 802.834 90.4567 803.158 89.5812C803.467 88.7454 803.784 87.8835 804.331 87.191C804.515 86.9607 804.559 86.7284 804.611 86.4604C804.64 86.3183 804.668 86.1713 804.719 86.0135C804.954 85.2914 805.218 84.8257 805.504 84.63C805.777 84.4448 806.116 84.4377 806.515 84.6084C806.763 84.7141 806.998 84.8699 807.204 85.0085C807.283 85.0607 807.356 85.1105 807.424 85.151C807.597 85.2574 807.794 85.3462 807.983 85.4289C808.468 85.6456 809.02 85.8907 809.229 86.5236C809.364 86.9313 809.283 87.3529 809.213 87.7263C809.193 87.8309 809.173 87.9328 809.161 88.0313L809.149 88.1136C809.109 88.4008 809.068 88.6965 808.921 88.9796C808.836 89.1413 808.726 89.2808 808.618 89.4145C808.269 89.853 808.144 90.3959 807.925 90.9064C807.734 91.3545 807.501 91.7111 807.236 92.1142C806.95 92.5538 806.718 93.0309 806.44 93.4766C806.205 93.8532 805.977 94.221 805.804 94.631C805.671 94.9427 805.556 95.2761 805.373 95.5575C805.229 95.7816 805.051 95.9727 804.93 96.2068C804.595 96.8562 804.046 97.375 803.292 97.0529C803.244 97.0321 803.045 96.9424 802.994 96.9208C802.932 96.8941 802.866 96.8686 802.802 96.8478C802.633 96.7943 802.461 96.7553 802.278 96.714C802.06 96.6644 801.835 96.6143 801.612 96.5356C801.544 96.5178 801.483 96.494 801.428 96.4707Z" fill="#E2231A"/>
<path d="M787.724 89.5664C787.788 89.7942 787.915 89.9431 788.147 90.0906C788.449 90.2842 788.747 90.4828 789.12 90.506C789.257 90.514 789.38 90.5208 789.511 90.5604C789.734 90.6306 789.903 90.7533 790.134 90.7898C790.484 90.8448 790.808 90.8634 791.164 90.8174C791.256 90.8061 791.315 90.7438 791.335 90.66C791.382 90.473 791.486 90.333 791.609 90.1965C791.772 90.0197 791.866 89.7881 791.963 89.5716C792.104 89.2698 792.318 89.0226 792.502 88.7486C792.708 88.4335 792.892 88.1045 792.999 87.7421C793.061 87.5039 793.201 87.3057 793.298 87.0892C793.499 86.6566 793.612 86.1886 793.847 85.7663C794.019 85.4665 794.143 85.1392 794.289 84.8238C794.351 84.6891 794.427 84.5669 794.524 84.4519C794.637 84.3274 794.7 84.1699 794.758 84.0174C794.835 83.8267 794.938 83.6516 795.045 83.4857C795.148 83.322 795.23 83.1567 795.293 82.9716C795.365 82.7376 795.508 82.5221 795.642 82.3214C795.83 82.0491 795.907 81.6904 795.971 81.3724C796.017 81.1475 796.113 80.8523 795.981 80.6485C795.848 80.4419 795.656 80.256 795.521 80.0372C795.313 79.7042 795.105 79.5391 794.758 79.354C794.431 79.1799 794.062 79.0406 793.707 78.9442C793.334 78.8422 792.918 78.6716 792.523 78.7123C792.294 78.7365 792.243 78.8553 792.102 79.0347C791.777 79.4442 791.362 79.7463 791.229 80.2906C791.184 80.4717 791.12 80.6587 791.001 80.813C790.913 80.879 790.899 80.9881 790.857 81.0741C790.767 81.2475 790.645 81.4029 790.536 81.5565C790.091 82.0853 789.693 82.6455 789.397 83.2726C789.329 83.4209 789.263 83.5768 789.202 83.7304C789.12 83.9489 789.031 84.1574 788.881 84.34C788.851 84.3732 788.823 84.4119 788.806 84.4508C788.619 84.9632 788.264 85.385 788.056 85.8835C787.913 86.2186 787.836 86.5659 787.743 86.9112C787.599 87.4486 787.431 88.1535 787.543 88.7011C787.586 88.9178 787.664 89.1144 787.686 89.3361C787.693 89.424 787.705 89.4983 787.724 89.5664Z" fill="#E2231A"/>
<path d="M782.622 87.7255C782.703 87.7833 782.829 87.791 782.936 87.7769C783.026 87.7602 783.118 87.7717 783.202 87.8075C783.231 87.82 783.27 87.8414 783.301 87.8386C783.673 87.7394 784.074 87.7448 784.4 87.5041C784.458 87.4618 784.484 87.4108 784.514 87.3568C784.606 87.2071 784.782 87.1348 784.877 87.0029C785.072 86.7406 785.251 86.4689 785.382 86.161C785.546 85.7772 785.729 85.3876 786 85.0657C786.266 84.7555 786.448 84.3953 786.636 84.0471C786.73 83.8639 786.85 83.6916 786.952 83.5165C787.249 82.9776 787.608 82.4767 787.819 81.8917C788.01 81.381 788.118 80.8629 788.212 80.3314C788.263 80.0398 788.099 79.8361 787.928 79.6735C787.669 79.429 787.421 79.141 787.104 78.9664C786.802 78.8003 786.452 78.6969 786.132 78.5624C785.907 78.4686 785.812 78.4467 785.589 78.517C785.415 78.572 785.24 78.5892 785.065 78.6367C784.672 78.7428 784.499 79.2401 784.356 79.58C784.235 79.8672 784.166 80.1903 783.998 80.4547C783.875 80.6463 783.66 80.7436 783.525 80.9207C783.37 81.1217 783.32 81.3838 783.181 81.5962C783.01 81.8618 782.797 82.1005 782.635 82.3722C782.425 82.7226 782.263 83.1025 782.102 83.4786C781.996 83.7279 781.87 83.9737 781.794 84.2317C781.749 84.3853 781.711 84.5395 781.672 84.6909C781.586 85.0273 781.429 85.329 781.303 85.6508C781.231 85.8364 781.238 86.0144 781.228 86.2086C781.221 86.3942 781.152 86.6669 781.269 86.8318C781.349 86.9466 781.538 87.0368 781.653 87.1134C781.801 87.2137 781.954 87.3042 782.103 87.4026C782.276 87.5156 782.461 87.6061 782.622 87.7255Z" fill="#E2231A"/>
</mask>
<g mask="url(#mask4_1_7431)">
<rect x="783.479" y="68.8347" width="38" height="30" transform="rotate(23.1369 783.479 68.8347)" fill="#5F0F0B"/>
</g>
<mask id="mask5_1_7431" style="mask-type:alpha" maskUnits="userSpaceOnUse" x="943" y="30" width="33" height="26">
<path d="M967.898 51.9346C967.58 52.2016 967.192 52.3721 966.869 52.6291C966.811 52.6753 966.584 52.6782 966.56 52.6887C966.152 52.8015 965.71 52.192 965.527 51.9147C965.186 51.3931 964.852 50.865 964.49 50.3497C964.294 50.073 964.096 49.7927 963.947 49.492C963.749 49.0895 963.73 48.6651 963.921 48.2485C964.001 48.0766 964.16 47.9865 964.309 47.8853C964.502 47.7519 964.686 47.6026 964.858 47.4403C965.058 47.2517 965.24 47.0119 965.475 46.8686C965.768 46.6897 966.05 46.4596 966.361 46.3148C966.741 46.1366 967.066 45.9366 967.394 45.6608C967.747 45.3639 968.096 45.0512 968.488 44.8067C968.637 44.7131 968.793 44.653 968.927 44.5336C969.138 44.3456 969.334 44.1393 969.555 43.9625C969.813 43.7535 970.12 43.6445 970.395 43.4619C970.715 43.2502 971.035 43.0689 971.37 42.8848C971.607 42.7557 971.863 42.566 972.145 42.5621C972.496 42.5585 972.778 42.9277 972.989 43.1646C973.167 43.3567 973.278 43.6009 973.474 43.7936C973.617 43.9327 973.765 44.0712 973.925 44.1863C974.207 44.3934 974.431 44.6361 974.613 44.9299C974.705 45.0771 974.796 45.233 974.929 45.3486C975.114 45.5102 975.175 45.9246 975.173 46.155C975.17 46.4264 975.066 46.5184 974.858 46.704C974.304 47.1984 973.631 47.5325 973.04 47.9797C972.683 48.2513 972.417 48.6084 972.082 48.9012C971.958 49.009 971.875 49.1098 971.727 49.1822C971.504 49.2944 971.297 49.4237 971.098 49.5759C970.593 49.9563 970.015 50.2502 969.531 50.6519C969.359 50.7942 969.197 50.9524 969.027 51.0982C968.855 51.2452 968.669 51.3481 968.487 51.4838C968.288 51.6331 968.09 51.7824 967.898 51.9346Z" fill="black"/>
<path d="M968.124 50.9881C967.99 51.0817 967.898 51.2313 967.734 51.2896C967.277 51.4522 966.909 51.7672 966.488 51.9828C966.44 51.9762 966.394 51.9761 966.352 51.9584C966.029 51.8164 965.649 51.2699 965.51 50.9557C965.283 50.4403 964.983 49.9682 964.641 49.5212C964.492 49.3274 964.472 49.1123 964.543 48.8945C964.639 48.5974 964.78 48.331 965.054 48.162C965.146 48.1012 965.234 48.0303 965.317 47.9554C965.836 47.5226 966.335 47.0599 966.886 46.6566C966.918 46.6356 966.944 46.6104 966.968 46.5893C967.228 46.3485 967.506 46.139 967.849 46.0313C967.923 46.008 967.978 45.9582 968.037 45.912C968.426 45.5782 968.86 45.298 969.24 44.95C969.47 44.7339 969.817 44.6562 969.989 44.3593C970.019 44.3089 970.078 44.3008 970.13 44.2839C970.374 44.2036 970.619 44.1126 970.84 43.9787C971.187 43.7664 971.519 43.5112 971.945 43.4631C971.957 43.4625 971.966 43.4567 971.975 43.4508C972.119 43.3807 972.272 43.3812 972.398 43.4679C972.621 43.6249 972.891 43.7256 973.074 43.9324C973.274 44.1686 973.516 44.3432 973.759 44.5255C974.025 44.7355 974.174 45.018 974.276 45.3245C974.33 45.4915 974.356 45.6649 974.438 45.8191C974.529 45.9751 974.487 46.0919 974.389 46.225C974.186 46.5124 973.943 46.7673 973.687 46.9951C973.542 47.1216 973.429 47.2852 973.254 47.3764C972.756 47.6376 972.333 48.0165 971.888 48.3572C971.416 48.7078 970.921 49.0231 970.452 49.3772C970.027 49.7021 969.585 50.0146 969.134 50.2883C968.828 50.4784 968.628 50.8062 968.246 50.8815C968.2 50.892 968.168 50.9589 968.124 50.9881Z" fill="#E2231A"/>
<path d="M967.477 34.0714C967.373 33.9294 967.248 33.7986 967.081 33.6271C966.733 33.2677 966.545 32.8793 966.328 32.4561C965.878 31.5775 964.574 29.6709 963.385 30.1893C962.823 30.4344 962.337 30.9577 961.817 31.3017C961.139 31.751 960.3 32.1617 959.711 32.7252C959.583 32.8353 959.557 32.9463 959.608 33.0728C959.788 33.5052 959.758 33.9746 960.02 34.3779C960.128 34.5451 960.272 34.686 960.374 34.8579C960.494 35.0627 960.544 35.3038 960.678 35.5022C960.835 35.7342 960.966 35.9749 961.121 36.2081C961.521 36.8092 961.919 37.4127 962.319 38.0168C962.466 38.2393 962.606 38.4695 962.76 38.6874C962.883 38.8576 963.036 38.9497 963.163 39.104C963.487 39.4969 963.559 40.0389 963.84 40.4628C964.017 40.7295 964.073 41.0071 964.219 41.289C964.519 41.8634 964.993 42.3143 965.331 42.86C965.522 43.1708 965.684 43.488 965.913 43.776C966.203 44.1406 966.455 44.6215 967.006 44.4321C967.387 44.3016 967.614 43.9121 967.995 43.7892C968.366 43.6704 968.762 43.5611 969.07 43.2935C969.338 43.0622 969.529 42.7019 969.854 42.5325C970.143 42.3817 970.631 42.3661 970.78 42.0281C970.974 41.592 970.844 40.957 970.629 40.548C970.409 40.1319 970.261 39.6631 970.034 39.2394C969.76 38.7268 969.657 38.1952 969.451 37.6611C969.314 37.3122 969.174 36.9751 968.978 36.6554C968.783 36.3393 968.513 36.0764 968.32 35.7591C968.097 35.3912 967.902 34.9358 967.737 34.5446C967.655 34.3445 967.574 34.2027 967.477 34.0714Z" fill="black"/>
<path d="M962.905 41.3692C962.902 41.3657 962.898 41.3633 962.895 41.358C962.237 40.3759 960.992 38.0747 960.95 38.0034C960.719 37.6355 960.506 37.2576 960.235 36.9242C960.065 36.714 959.892 36.5107 959.776 36.27C959.75 36.2112 959.7 36.1629 959.665 36.1099C959.499 35.8591 959.258 35.6374 959.009 35.4692C958.781 35.3128 958.684 35.2015 958.546 34.9501C958.157 34.2474 957.778 33.7456 956.918 33.7819C956.298 33.8088 955.715 34.2332 955.234 34.5849C954.846 34.867 954.388 35.0843 954.023 35.3923C953.158 36.1201 952.898 36.8592 953.396 37.8866C953.572 38.2527 953.891 38.5545 954.192 38.8204C954.537 39.1258 954.765 39.5742 955.019 39.9575C955.29 40.3673 955.475 40.7227 955.643 41.1833C956.002 42.1704 956.731 42.9635 957.262 43.8571C957.437 44.1526 957.545 44.4726 957.735 44.7605C957.916 45.0325 958.101 45.3039 958.279 45.5771C958.629 46.1129 958.915 46.9475 959.443 47.3346C959.807 47.5995 959.994 47.9814 960.234 48.3482C960.345 48.516 960.511 48.6581 960.692 48.7409C960.853 48.8148 960.939 48.9285 961.119 48.8932C961.322 48.855 961.511 48.6687 961.673 48.5516C962.016 48.3035 962.38 48.0883 962.687 47.796C962.891 47.5974 963.133 47.4371 963.359 47.2615C963.53 47.128 963.704 46.9875 963.855 46.824C964.065 46.596 964.333 46.4258 964.524 46.1772C964.758 45.8899 964.779 45.5762 964.676 45.228C964.581 44.9046 964.316 44.6934 964.2 44.3946C964.182 44.3375 964.138 44.2904 964.14 44.2387C964.124 43.7538 963.808 43.3733 963.702 42.9176C963.682 42.8417 963.621 42.7681 963.568 42.7086C963.469 42.6043 963.429 42.4784 963.365 42.3554C963.205 42.0294 963.053 41.7005 962.905 41.3692Z" fill="black"/>
<path d="M962.111 47.4067C962.277 47.292 962.44 47.1661 962.601 47.0291C962.784 46.8751 963.009 46.7788 963.202 46.636C963.402 46.4885 963.544 46.2821 963.745 46.1363C963.833 46.0731 963.925 46.0628 963.995 45.9684C964.115 45.8078 964.092 45.5891 964.056 45.4045C963.967 44.9706 963.707 44.6013 963.569 44.1867C963.413 43.7085 963.158 43.3587 962.868 42.9635C962.634 42.6438 962.516 42.178 962.37 41.8121C962.189 41.3626 961.937 40.9323 961.798 40.4653C961.738 40.2713 961.563 40.1379 961.461 39.9672C961.28 39.637 961.069 39.3191 960.857 39.01C960.619 38.6591 960.378 38.3134 960.144 37.9602C959.893 37.5745 959.597 37.2193 959.34 36.8431C959.176 36.5958 958.986 36.3737 958.775 36.1703C958.678 36.0696 958.579 35.97 958.499 35.8575C958.385 35.692 958.239 35.56 958.072 35.4696C957.863 35.3538 957.69 35.1888 957.465 35.0988C957.339 35.0502 957.218 34.9829 957.117 34.8798C956.996 34.7437 956.847 34.7409 956.691 34.8315C956.32 35.0467 955.94 35.2583 955.575 35.4822C955.218 35.6927 954.868 35.9074 954.487 36.0702C954.437 36.0906 954.39 36.1222 954.351 36.1603C954.231 36.2657 954.098 36.3411 953.954 36.4112C953.668 36.5443 953.576 36.8009 953.736 37.0763C953.852 37.2712 953.96 37.4795 954.115 37.6486C954.102 37.7638 954.187 37.8345 954.236 37.9164C954.4 38.1895 954.663 38.3683 954.878 38.5893C954.912 38.6223 955.088 38.7727 955.133 38.8398C955.276 39.0553 955.389 39.2848 955.452 39.5406C955.579 40.0281 955.795 40.4877 956.075 40.8916C956.422 41.3962 956.687 41.9576 957.121 42.4049C957.218 42.5056 957.266 42.6439 957.307 42.7697C957.399 43.0515 957.565 43.3023 957.624 43.5939C957.644 43.6821 957.696 43.7675 957.749 43.8411C957.946 44.1302 958.088 44.4479 958.246 44.7628C958.298 44.8605 958.344 44.957 958.445 45.0248C958.483 45.0555 958.523 45.105 958.541 45.1515C958.684 45.4815 958.891 45.756 959.173 45.9707C959.453 46.1819 959.554 46.6305 959.825 46.8752C959.994 47.0255 960.192 47.1331 960.349 47.301C960.589 47.5562 960.779 47.9845 961.154 47.8757C961.503 47.7739 961.817 47.6097 962.111 47.4067Z" fill="#E2231A"/>
<path d="M954.25 52.009C953.966 51.9683 953.95 51.6485 953.784 51.4024C953.648 51.2005 953.471 51.1706 953.28 51.0278C952.827 50.6945 952.565 50.1748 952.19 49.7671C951.617 49.1431 951.258 48.4252 950.876 47.6795C950.639 47.2034 950.348 46.756 950.046 46.3156C949.98 46.2149 949.919 46.1154 949.872 45.9989C949.709 45.5806 949.567 45.1542 949.34 44.7657C949.302 44.7015 949.291 44.6275 949.263 44.5575C949.152 44.2245 949.045 43.891 948.84 43.6078C948.525 43.1708 948.305 42.6813 948.05 42.2169C947.924 41.9833 947.795 41.7508 947.656 41.5253C947.566 41.3787 947.349 41.1695 947.312 41.006C947.268 40.809 947.469 40.4294 947.6 40.3017C947.954 39.9578 948.311 39.5869 948.724 39.3131C949.056 39.0931 949.408 39.0148 949.77 38.8285C950.107 38.6537 950.568 38.5517 950.933 38.4576C951.331 38.3565 951.784 38.2773 952.196 38.3808C952.732 38.5157 953.097 39.2654 953.34 39.7139C953.48 39.9699 953.627 40.2277 953.804 40.4668C953.959 40.6741 954.083 40.8966 954.148 41.1513C954.181 41.2742 954.23 41.3942 954.312 41.4996C954.456 41.671 954.546 41.8787 954.635 42.0788C954.698 42.22 954.765 42.3665 954.868 42.4837C955.098 42.7506 955.253 43.0649 955.437 43.3622C955.583 43.6012 955.765 43.8032 955.922 44.0294C956.174 44.4015 956.409 44.7841 956.642 45.1691C956.781 45.4069 956.93 45.6436 957.06 45.8808C957.227 46.2068 957.377 46.5445 957.633 46.8197C957.671 46.858 957.706 46.9034 957.72 46.9581C957.871 47.6202 958.571 48.0588 958.674 48.7355C958.737 49.1611 958.237 49.3882 957.965 49.5913C957.626 49.8436 957.401 50.2014 957.071 50.4554C956.953 50.5462 956.812 50.6092 956.695 50.7017C956.488 50.8645 956.372 51.1391 956.155 51.286C955.947 51.4258 955.68 51.4832 955.465 51.6183C955.129 51.8283 954.742 52.0005 954.334 52.014C954.302 52.0151 954.275 52.0126 954.25 52.009Z" fill="black"/>
<path d="M950.061 55.2879C949.584 55.6267 949.163 55.8699 948.585 55.6226C948.368 55.5297 948.233 55.3448 948.08 55.1716C947.989 55.069 947.918 54.9613 947.815 54.867C947.543 54.6176 947.309 54.3637 947.146 54.0218C947.081 53.8864 947.026 53.7452 946.939 53.6327C946.672 53.2759 946.433 52.9079 946.164 52.5598C945.583 51.8165 945.196 50.9751 944.817 50.1231C944.619 49.69 944.412 49.2628 944.109 48.8923C944.052 48.8152 943.998 48.7445 943.983 48.6451C943.931 48.2219 943.793 47.8207 943.606 47.4435C943.402 47.0198 943.513 46.7381 943.811 46.4211C944.027 46.1837 944.269 45.9729 944.52 45.7685C945.206 45.2247 945.973 44.8696 946.811 44.6623C947.029 44.6071 947.249 44.6519 947.415 44.7881C947.826 45.1389 948.209 45.5179 948.536 45.9619C949.25 46.9354 949.738 48.0251 950.259 49.1002C950.425 49.4503 950.58 49.818 950.78 50.1477C950.936 50.4026 950.995 50.7553 951.205 50.9693C951.394 51.159 951.582 51.347 951.699 51.6C951.825 51.8778 951.904 52.1859 951.982 52.48C952.041 52.7075 952.052 52.965 952.132 53.1891C952.204 53.3902 952.304 53.4869 952.148 53.6892C951.986 53.9008 951.717 53.8936 951.498 54.0081C951.291 54.1145 951.226 54.3047 951.072 54.4629C950.763 54.7793 950.423 55.0298 950.061 55.2879Z" fill="black"/>
<path d="M968.038 43.309C967.42 43.7185 966.492 43.4614 966.098 42.8661C965.851 42.4934 965.615 42.129 965.408 41.737C965.178 41.2974 965.078 40.8123 964.84 40.3756C964.391 39.5569 963.787 38.8288 963.233 38.0774C962.705 37.3601 962.159 36.6211 961.881 35.7835C961.79 35.5035 961.62 35.339 961.425 35.1481C961.322 35.0461 961.215 34.9418 961.111 34.8122C960.637 34.2191 960.393 33.743 960.386 33.3963C960.382 33.0666 960.562 32.7792 960.924 32.5393C961.149 32.3907 961.408 32.2798 961.637 32.1841C961.724 32.1468 961.806 32.113 961.877 32.0785C962.061 31.9921 962.244 31.8763 962.416 31.7645C962.864 31.4779 963.372 31.1515 964.016 31.325C964.43 31.4367 964.738 31.7361 965.012 31.9996C965.088 32.0732 965.162 32.1463 965.238 32.2106L965.3 32.266C965.518 32.457 965.742 32.654 965.899 32.9318C965.987 33.0919 966.043 33.2607 966.095 33.4242C966.27 33.9565 966.654 34.3602 966.961 34.8229C967.23 35.2292 967.4 35.6199 967.591 36.0623C967.801 36.5436 968.072 36.9992 968.292 37.4764C968.477 37.8795 968.659 38.2726 968.906 38.6423C969.093 38.9249 969.309 39.2041 969.444 39.5112C969.552 39.7548 969.613 40.0089 969.742 40.2384C970.101 40.8753 970.233 41.619 969.549 42.0718C969.505 42.1011 969.321 42.218 969.275 42.2485C969.218 42.2859 969.161 42.3263 969.108 42.369C968.971 42.4803 968.844 42.6027 968.709 42.7328C968.547 42.888 968.382 43.0485 968.194 43.1908C968.141 43.2382 968.088 43.2763 968.038 43.309Z" fill="#E2231A"/>
<path d="M954.738 50.9625C954.963 51.0343 955.158 51.0096 955.409 50.8969C955.736 50.751 956.066 50.6115 956.29 50.3131C956.372 50.2028 956.446 50.1032 956.551 50.0159C956.732 49.8678 956.927 49.7943 957.085 49.6214C957.323 49.3595 957.517 49.0991 957.674 48.7764C957.715 48.6931 957.695 48.6096 957.636 48.5471C957.506 48.4045 957.446 48.241 957.4 48.0634C957.342 47.8299 957.2 47.6239 957.072 47.4237C956.898 47.1405 956.809 46.8259 956.681 46.5217C956.531 46.1763 956.357 45.8415 956.113 45.5534C955.949 45.3702 955.86 45.1443 955.732 44.9441C955.481 44.5385 955.152 44.1873 954.929 43.7583C954.773 43.4499 954.568 43.1666 954.385 42.8711C954.306 42.7451 954.245 42.6151 954.203 42.4704C954.161 42.3075 954.064 42.1686 953.969 42.0361C953.852 41.8671 953.762 41.6852 953.682 41.504C953.602 41.3287 953.509 41.1691 953.389 41.0148C953.233 40.8257 953.131 40.5881 953.037 40.3657C952.913 40.0591 952.656 39.7975 952.426 39.5688C952.263 39.4073 952.069 39.1646 951.826 39.1628C951.581 39.1603 951.32 39.2189 951.063 39.211C950.67 39.2017 950.418 39.285 950.073 39.4732C949.748 39.6503 949.429 39.882 949.153 40.1257C948.862 40.3816 948.491 40.6349 948.308 40.9876C948.202 41.1923 948.274 41.3001 948.346 41.5165C948.51 42.013 948.534 42.5254 948.915 42.9361C949.042 43.0734 949.163 43.2295 949.227 43.4136C949.233 43.5235 949.317 43.5955 949.366 43.6773C949.461 43.848 949.524 44.035 949.592 44.2109C949.789 44.8732 950.038 45.5138 950.4 46.1054C950.486 46.2438 950.58 46.3851 950.675 46.5205C950.812 46.709 950.938 46.898 951.008 47.1232C951.019 47.1667 951.036 47.2114 951.059 47.2468C951.385 47.6843 951.542 48.2131 951.844 48.6611C952.045 48.9649 952.293 49.2201 952.531 49.487C952.9 49.9029 953.397 50.4303 953.916 50.6381C954.121 50.721 954.327 50.7645 954.525 50.8673C954.602 50.9104 954.671 50.9412 954.738 50.9625Z" fill="#E2231A"/>
<path d="M950.394 54.215C950.487 54.1789 950.562 54.078 950.61 53.9806C950.645 53.8961 950.705 53.8258 950.781 53.7755C950.808 53.7579 950.847 53.7369 950.862 53.7093C950.984 53.3441 951.208 53.0122 951.187 52.6073C951.183 52.5362 951.155 52.4861 951.126 52.4314C951.051 52.2725 951.088 52.0858 951.03 51.9334C950.918 51.6263 950.789 51.328 950.604 51.049C950.374 50.701 950.149 50.3342 950.029 49.9308C949.916 49.5379 949.715 49.1883 949.527 48.8399C949.426 48.6603 949.348 48.4656 949.258 48.2838C948.971 47.7394 948.75 47.164 948.377 46.6664C948.055 46.2265 947.682 45.8511 947.289 45.4809C947.074 45.2781 946.813 45.3032 946.584 45.356C946.237 45.4384 945.86 45.4873 945.54 45.6562C945.235 45.8174 944.957 46.0529 944.668 46.2465C944.466 46.3828 944.396 46.4496 944.332 46.6751C944.283 46.85 944.2 47.0061 944.144 47.1781C944.017 47.565 944.337 47.9831 944.542 48.2893C944.716 48.5478 944.948 48.7829 945.076 49.0689C945.169 49.2772 945.132 49.5098 945.206 49.7203C945.288 49.9603 945.48 50.146 945.581 50.379C945.709 50.6679 945.791 50.9766 945.929 51.2615C946.107 51.6292 946.335 51.9737 946.561 52.3146C946.71 52.5407 946.847 52.7808 947.021 52.9858C947.124 53.1077 947.232 53.2244 947.337 53.3405C947.57 53.5974 947.737 53.894 947.936 54.1761C948.051 54.3386 948.204 54.4307 948.361 54.5452C948.512 54.6537 948.702 54.8606 948.904 54.8541C949.044 54.8504 949.223 54.7416 949.35 54.6879C949.515 54.6191 949.675 54.5414 949.839 54.4708C950.029 54.3885 950.206 54.2838 950.394 54.215Z" fill="#E2231A"/>
</mask>
<g mask="url(#mask5_1_7431)">
<rect x="935.086" y="43.1135" width="38" height="30" transform="rotate(-33.5217 935.086 43.1135)" fill="#5F0F0B"/>
</g>
</svg>
