<svg width="768" height="138" viewBox="0 0 768 138" fill="none" xmlns="http://www.w3.org/2000/svg">
<rect width="768" height="138" fill="black"/>
<mask id="mask0_1_16777" style="mask-type:alpha" maskUnits="userSpaceOnUse" x="46" y="13" width="29" height="23">
<path d="M63.8257 35.5261C63.4101 35.5387 63 35.4328 62.5874 35.435C62.513 35.4353 62.333 35.2972 62.308 35.2909C61.9175 35.1271 61.9474 34.3749 61.9746 34.0433C62.0298 33.4229 62.0936 32.801 62.1282 32.1725C62.1454 31.8338 62.1629 31.4908 62.2323 31.1628C62.3258 30.724 62.5731 30.3787 62.9814 30.1698C63.15 30.0838 63.3305 30.1113 63.5102 30.124C63.7449 30.139 63.9812 30.135 64.2168 30.114C64.4909 30.0897 64.782 30.0137 65.0556 30.0468C65.3967 30.0875 65.7607 30.0813 66.0944 30.1597C66.5032 30.2549 66.8823 30.2988 67.3107 30.285C67.7711 30.2697 68.2391 30.2401 68.6984 30.2905C68.8733 30.3091 69.033 30.3584 69.2124 30.3476C69.4945 30.3304 69.7763 30.2897 70.0592 30.2874C70.3912 30.2828 70.6994 30.3868 71.0288 30.4138C71.411 30.4452 71.7742 30.5005 72.1517 30.5634C72.418 30.6086 72.7361 30.6177 72.9601 30.7892C73.238 31.0033 73.2318 31.4684 73.2504 31.7845C73.2715 32.0456 73.2076 32.3061 73.2426 32.5789C73.2689 32.7767 73.2993 32.9769 73.3539 33.1663C73.4473 33.5035 73.4734 33.833 73.4346 34.1763C73.4162 34.3491 73.3909 34.5277 73.4235 34.7005C73.4695 34.9423 73.2611 35.3058 73.1167 35.4852C72.9463 35.6966 72.8075 35.7043 72.5297 35.7219C71.7883 35.7673 71.0527 35.6134 70.3119 35.5994C69.8639 35.5923 69.4335 35.7079 68.9895 35.731C68.8251 35.7388 68.6974 35.7666 68.5366 35.7321C68.2919 35.6823 68.0496 35.656 67.7991 35.6524C67.1667 35.6388 66.5308 35.5122 65.9024 35.5286C65.6788 35.5336 65.4536 35.5577 65.2296 35.5669C65.0035 35.576 64.7937 35.5418 64.5668 35.5359C64.3185 35.5304 64.0702 35.5249 63.8257 35.5261Z" fill="black"/>
<path d="M64.5878 34.9213C64.4249 34.9122 64.2605 34.9731 64.095 34.917C63.6358 34.7623 63.1516 34.7821 62.6871 34.6908C62.6538 34.6562 62.6179 34.6278 62.5957 34.5877C62.4299 34.2765 62.4696 33.6122 62.5543 33.279C62.6947 32.7336 62.7511 32.177 62.759 31.6143C62.762 31.3701 62.879 31.1884 63.0701 31.0616C63.3289 30.8873 63.6046 30.7654 63.9247 30.8023C64.0345 30.8113 64.1473 30.8099 64.2585 30.802C64.9339 30.7831 65.6123 30.7282 66.2948 30.7524C66.3328 30.7555 66.3693 30.7521 66.4013 30.7505C66.7544 30.7221 67.1024 30.7294 67.4385 30.8569C67.5106 30.8841 67.5854 30.8796 67.6598 30.8793C68.1718 30.8576 68.6865 30.9062 69.1999 30.8676C69.5146 30.8402 69.8357 30.9942 70.1544 30.8673C70.2093 30.8462 70.26 30.8759 70.3116 30.895C70.5531 30.9829 70.8016 31.0628 71.0583 31.0945C71.4626 31.1426 71.881 31.1472 72.2451 31.3726C72.2551 31.3798 72.2657 31.3807 72.2763 31.3816C72.4329 31.4157 72.5527 31.5106 72.5981 31.6567C72.6765 31.9182 72.8264 32.1644 72.842 32.4399C72.8528 32.749 72.9355 33.0364 73.0134 33.3298C73.0927 33.6594 73.035 33.9736 72.925 34.2771C72.8647 34.4422 72.7778 34.5945 72.7467 34.7662C72.7214 34.9448 72.6161 35.0106 72.4573 35.055C72.1196 35.1548 71.7711 35.2048 71.4292 35.2257C71.2371 35.2354 71.0473 35.2942 70.8527 35.257C70.2999 35.1542 69.7336 35.1906 69.173 35.1829C68.5855 35.1665 68.0014 35.108 67.4136 35.0958C66.8785 35.0881 66.3387 35.0608 65.8146 34.9965C65.4565 34.9565 65.0969 35.0906 64.75 34.9133C64.7071 34.8928 64.6406 34.9256 64.5878 34.9213Z" fill="#E2231A"/>
<path d="M74.5433 21.2297C74.5492 21.0538 74.5321 20.8738 74.507 20.6358C74.4564 20.1384 74.5484 19.7166 74.6399 19.25C74.8299 18.2814 74.9851 15.977 73.7302 15.6486C73.1371 15.4936 72.4308 15.6036 71.81 15.5526C70.9991 15.4861 70.0862 15.2899 69.2741 15.3678C69.1056 15.3753 69.0168 15.4466 68.9785 15.5774C68.8522 16.0283 68.5385 16.3789 68.4949 16.8578C68.4765 17.0562 68.5026 17.256 68.4758 17.4536C68.4437 17.6891 68.3342 17.9097 68.3167 18.1485C68.296 18.4274 68.2504 18.6979 68.2275 18.9766C68.1705 19.6968 68.1093 20.4167 68.05 21.1389C68.0281 21.4049 67.9956 21.6722 67.9822 21.939C67.9735 22.1487 68.0363 22.3154 68.0411 22.5157C68.0525 23.0247 67.7737 23.495 67.732 24.0017C67.7059 24.3206 67.5788 24.5738 67.5192 24.8856C67.3989 25.522 67.4924 26.1695 67.4209 26.8078C67.3784 27.17 67.3094 27.5193 67.3111 27.8872C67.3132 28.3529 67.2141 28.8869 67.7638 29.0787C68.144 29.2119 68.5637 29.0466 68.9391 29.1858C69.3042 29.3221 69.6823 29.4806 70.09 29.461C70.4441 29.4454 70.817 29.2804 71.177 29.3483C71.4973 29.4086 71.8902 29.698 72.2169 29.525C72.6391 29.3025 72.929 28.7225 73.0131 28.2681C73.0979 27.8053 73.2717 27.3455 73.3552 26.8719C73.4574 26.3 73.7053 25.8186 73.8735 25.2712C73.9816 24.9123 74.0806 24.5612 74.1239 24.1885C74.167 23.82 74.1169 23.446 74.162 23.0777C74.2141 22.6504 74.3426 22.172 74.4549 21.7624C74.5145 21.5547 74.5384 21.393 74.5433 21.2297Z" fill="black"/>
<path d="M66.4365 24.1355C66.4368 24.1313 66.4351 24.1269 66.4356 24.1206C66.526 22.9418 66.9715 20.3636 66.9824 20.2816C67.0285 19.8496 67.0956 19.4214 67.0883 18.9914C67.085 18.7211 67.075 18.4546 67.1326 18.1936C67.1483 18.1311 67.1391 18.0623 67.1443 17.999C67.1689 17.6991 67.1168 17.376 67.0255 17.09C66.943 16.826 66.9359 16.6787 66.9826 16.3956C67.1114 15.6026 67.1247 14.9745 66.4263 14.4707C65.9225 14.1083 65.2019 14.0811 64.6063 14.0598C64.1274 14.0418 63.6328 13.9289 63.1553 13.945C62.0256 13.9819 61.364 14.4016 61.1194 15.5167C61.0316 15.9134 61.0958 16.3481 61.1676 16.743C61.2494 17.1962 61.1515 17.6898 61.1139 18.1481C61.0737 18.6379 60.9988 19.0315 60.8458 19.4972C60.5173 20.4949 60.5992 21.5688 60.4636 22.5993C60.4186 22.94 60.3054 23.2581 60.2771 23.6022C60.2504 23.9274 60.2278 24.2551 60.199 24.5801C60.1424 25.2174 59.8508 26.0502 60.0265 26.6811C60.1482 27.1142 60.0588 27.5299 60.0209 27.9668C60.0044 28.1674 60.0463 28.3813 60.1381 28.5589C60.2187 28.7164 60.2155 28.8586 60.3787 28.9421C60.5622 29.038 60.826 29.0086 61.0252 29.0165C61.4489 29.0343 61.8674 29.0899 62.2895 29.0501C62.5725 29.0202 62.8618 29.0439 63.1486 29.0462C63.3654 29.047 63.5888 29.0441 63.8085 29.009C64.1145 28.9597 64.4307 28.992 64.7346 28.915C65.0963 28.8341 65.3068 28.6005 65.4408 28.2629C65.5664 27.9501 65.4892 27.6206 65.5825 27.3137C65.604 27.258 65.5987 27.1938 65.6317 27.154C65.9189 26.7631 65.9063 26.2688 66.1048 25.8451C66.1362 25.7733 66.1335 25.6774 66.1293 25.5984C66.1156 25.4548 66.1619 25.3311 66.1879 25.195C66.2639 24.8399 66.3481 24.4875 66.4365 24.1355Z" fill="black"/>
<path d="M62.0782 28.3889C62.2791 28.4011 62.4852 28.4032 62.6963 28.395C62.9351 28.387 63.1721 28.4511 63.4118 28.458C63.6599 28.4656 63.8998 28.3917 64.1477 28.4015C64.2557 28.4061 64.3346 28.4551 64.4477 28.424C64.6412 28.3718 64.7585 28.1859 64.8445 28.0186C65.0429 27.6225 65.0671 27.1717 65.2156 26.7608C65.3884 26.2882 65.4047 25.8559 65.4215 25.3662C65.4349 24.9698 65.6304 24.5309 65.7422 24.1532C65.8782 23.6881 65.9463 23.1942 66.126 22.7412C66.1989 22.5517 66.1441 22.3388 66.1688 22.141C66.2312 21.7699 66.2624 21.3898 66.2868 21.0155C66.3172 20.5929 66.3411 20.1718 66.3758 19.7495C66.4176 19.2916 66.4046 18.8292 66.4355 18.3747C66.4598 18.0791 66.4476 17.7869 66.4077 17.4966C66.3936 17.3573 66.3774 17.2177 66.3845 17.0801C66.3967 16.8792 66.3638 16.6852 66.2888 16.5111C66.1963 16.2909 66.1626 16.0543 66.0416 15.8445C65.9725 15.7283 65.9192 15.6006 65.9034 15.4569C65.8928 15.2754 65.7772 15.1808 65.5986 15.1555C65.1741 15.0952 64.744 15.0259 64.3187 14.9761C63.9087 14.9212 63.5002 14.8727 63.1009 14.7656C63.049 14.7507 62.992 14.746 62.9383 14.7522C62.7782 14.7603 62.627 14.7373 62.4704 14.7032C62.1638 14.6312 61.933 14.776 61.888 15.0911C61.8588 15.3162 61.8144 15.5464 61.8318 15.7753C61.7506 15.8579 61.7736 15.9661 61.7616 16.0608C61.7208 16.3763 61.8171 16.6797 61.8493 16.9863C61.856 17.0337 61.9012 17.2606 61.8946 17.3408C61.8735 17.5984 61.821 17.8492 61.712 18.089C61.5104 18.5508 61.3954 19.0451 61.3658 19.5359C61.3262 20.147 61.1873 20.7521 61.2512 21.3717C61.2653 21.511 61.2178 21.6496 61.1715 21.7733C61.0699 22.052 61.0453 22.3518 60.9109 22.6171C60.8723 22.699 60.8599 22.7979 60.8567 22.889C60.8323 23.2378 60.7472 23.5752 60.6764 23.9201C60.6568 24.0291 60.6333 24.1334 60.6706 24.2492C60.6816 24.2968 60.6827 24.3607 60.6682 24.4084C60.5759 24.7558 60.5689 25.0996 60.6577 25.4428C60.7467 25.7818 60.549 26.1971 60.6108 26.5571C60.65 26.7793 60.7393 26.9865 60.7587 27.2155C60.7896 27.5646 60.6737 28.0185 61.0358 28.1651C61.3732 28.3013 61.7208 28.3659 62.0782 28.3889Z" fill="#E2231A"/>
<path d="M53.0556 27.142C52.858 26.9345 53.0431 26.6733 53.0653 26.3775C53.0831 26.1345 52.9622 26.0013 52.9003 25.7709C52.7514 25.2293 52.8662 24.6584 52.8244 24.1065C52.7598 23.2615 52.9221 22.4755 53.0832 21.6533C53.1918 21.1329 53.2397 20.6011 53.2749 20.0683C53.2848 19.9479 53.2986 19.8322 53.334 19.7118C53.4649 19.2825 53.6165 18.8591 53.6786 18.4135C53.6889 18.34 53.7261 18.275 53.747 18.2023C53.8655 17.8719 53.9881 17.544 54.0019 17.1944C54.0248 16.6563 54.1548 16.1355 54.2423 15.6133C54.2872 15.3513 54.3299 15.0891 54.3601 14.8258C54.3804 14.6553 54.3391 14.3564 54.411 14.205C54.4982 14.023 54.8909 13.849 55.0732 13.83C55.5642 13.7789 56.0738 13.708 56.5679 13.7486C56.9649 13.7812 57.2901 13.9375 57.6897 14.015C58.0623 14.086 58.4877 14.291 58.8324 14.4426C59.2077 14.6094 59.6128 14.8276 59.8722 15.1635C60.2104 15.6016 60.033 16.4161 59.947 16.9192C59.898 17.2064 59.8547 17.5005 59.8452 17.7973C59.8388 18.0562 59.799 18.308 59.6922 18.5479C59.6422 18.665 59.6064 18.7896 59.6061 18.9235C59.6132 19.1473 59.5549 19.3657 59.5013 19.5782C59.4635 19.7281 59.4251 19.8844 59.4336 20.0403C59.4494 20.3924 59.3766 20.735 59.3374 21.0826C59.304 21.3604 59.3221 21.6319 59.3059 21.9069C59.2734 22.3549 59.2218 22.8014 59.1661 23.2475C59.1288 23.5208 59.0996 23.799 59.0543 24.0652C58.9844 24.4251 58.8933 24.7833 58.9242 25.1578C58.9304 25.2115 58.93 25.2689 58.9067 25.3201C58.616 25.934 58.8945 26.7115 58.5565 27.3066C58.343 27.6803 57.8096 27.5493 57.4701 27.5406C57.048 27.5293 56.6495 27.6709 56.2332 27.6665C56.0845 27.6649 55.9346 27.6271 55.7857 27.6276C55.5222 27.6273 55.2616 27.7717 54.9996 27.7523C54.7502 27.7339 54.505 27.6139 54.2521 27.5868C53.8581 27.5438 53.4478 27.44 53.119 27.1983C53.093 27.1791 53.0733 27.1605 53.0556 27.142Z" fill="black"/>
<path d="M47.7354 27.1264C47.1511 27.0976 46.6699 27.0283 46.3687 26.4764C46.2561 26.2694 46.2642 26.0405 46.2513 25.8099C46.2434 25.6732 46.2539 25.5443 46.2312 25.4064C46.1718 25.0423 46.1449 24.6978 46.2283 24.3284C46.2616 24.1823 46.3054 24.0371 46.3064 23.8948C46.3175 23.4493 46.3576 23.0125 46.3618 22.5728C46.3649 21.6292 46.5812 20.7286 46.8106 19.8248C46.923 19.3621 47.0248 18.8985 47.0153 18.4194C47.0188 18.3241 47.0198 18.2349 47.0695 18.1475C47.2907 17.7831 47.4299 17.3821 47.5169 16.9704C47.6183 16.5111 47.8796 16.3582 48.3101 16.2936C48.6269 16.241 48.9471 16.2248 49.2707 16.2194C50.1467 16.2169 50.9683 16.4119 51.7554 16.7678C51.9605 16.859 52.1058 17.0304 52.1524 17.2404C52.2577 17.7699 52.3244 18.3047 52.3067 18.856C52.2651 20.0621 51.9745 21.2202 51.7192 22.3876C51.6329 22.7653 51.527 23.1499 51.4806 23.533C51.4456 23.8298 51.2732 24.1431 51.3061 24.4413C51.3374 24.7074 51.3689 24.9715 51.3041 25.2425C51.231 25.5384 51.1029 25.8297 50.9822 26.1089C50.888 26.3244 50.7369 26.5331 50.661 26.7586C50.5933 26.9614 50.6118 27.0989 50.3643 27.1615C50.1059 27.2275 49.899 27.0553 49.6561 27.0098C49.428 26.9656 49.2596 27.0751 49.0404 27.1039C48.602 27.1614 48.1801 27.148 47.7354 27.1264Z" fill="black"/>
<path d="M69.2693 28.835C68.5303 28.7743 67.9605 27.9984 68.0189 27.2868C68.0555 26.8413 68.0952 26.4087 68.1756 25.9732C68.2667 25.4853 68.488 25.0422 68.5708 24.5515C68.725 23.631 68.7006 22.6851 68.7305 21.7522C68.7589 20.8617 68.7875 19.9436 69.0874 19.1136C69.1887 18.837 69.157 18.6027 69.1218 18.332C69.1038 18.1881 69.0841 18.0398 69.0829 17.8739C69.0772 17.1145 69.1798 16.5893 69.3895 16.3132C69.5896 16.0511 69.9094 15.9371 70.3422 15.9726C70.6104 15.9946 70.8829 16.068 71.1219 16.1344C71.2134 16.1589 71.2986 16.1829 71.3759 16.1999C71.574 16.2459 71.7891 16.2678 71.9937 16.2867C72.523 16.3387 73.1241 16.3965 73.5224 16.9309C73.7791 17.2751 73.8355 17.7007 73.8875 18.077C73.9023 18.1823 73.9151 18.2854 73.9347 18.3827L73.9493 18.4647C74.0024 18.7496 74.0569 19.0432 74.0077 19.3581C73.978 19.5385 73.9175 19.7057 73.8576 19.8666C73.6655 20.3929 73.7178 20.9478 73.6724 21.501C73.6325 21.9867 73.5243 22.3987 73.401 22.8648C73.2679 23.3725 73.1992 23.8983 73.0765 24.4091C72.973 24.8407 72.8726 25.2618 72.8383 25.7054C72.8105 26.0433 72.8071 26.3959 72.7231 26.7206C72.6572 26.9788 72.5484 27.2165 72.5079 27.4768C72.3955 28.1988 72.039 28.8647 71.2218 28.7976C71.169 28.7933 70.9519 28.7712 70.8969 28.7667C70.8294 28.7611 70.7595 28.7575 70.6914 28.7583C70.5148 28.7608 70.339 28.7783 70.1525 28.797C69.9296 28.8191 69.7002 28.8428 69.4646 28.8383C69.3941 28.8431 69.3285 28.8399 69.2693 28.835Z" fill="#E2231A"/>
<path d="M54.0858 26.6207C54.2185 26.8165 54.3867 26.9175 54.6533 26.984C55.0011 27.0721 55.3463 27.1663 55.707 27.0705C55.8396 27.0346 55.9592 27.0019 56.0956 26.9982C56.3298 26.9941 56.5287 27.0572 56.7593 27.0187C57.1085 26.9602 57.4216 26.8754 57.7448 26.7191C57.8288 26.6792 57.865 26.6014 57.8571 26.5157C57.8432 26.3232 57.8971 26.1576 57.9705 25.9893C58.0693 25.77 58.0855 25.5204 58.1091 25.2843C58.1469 24.9536 58.2716 24.6514 58.3594 24.3333C58.4552 23.9692 58.526 23.5987 58.5123 23.2213C58.4964 22.9755 58.5665 22.7432 58.5901 22.5071C58.6439 22.0332 58.6025 21.5536 58.6925 21.0784C58.7607 20.7396 58.7745 20.39 58.8135 20.0446C58.8299 19.8971 58.8626 19.7574 58.9187 19.6174C58.9866 19.4635 58.9963 19.2943 59.0033 19.1312C59.0159 18.926 59.0577 18.7275 59.1074 18.536C59.1526 18.3484 59.1782 18.1655 59.1794 17.97C59.174 17.7251 59.2412 17.4756 59.305 17.2427C59.397 16.925 59.3568 16.5603 59.3173 16.2382C59.2892 16.0105 59.2871 15.7 59.0976 15.5484C58.9061 15.3945 58.6648 15.279 58.4678 15.1141C58.1653 14.8639 57.9155 14.7732 57.5276 14.7074C57.1628 14.6455 56.7686 14.6302 56.4013 14.651C56.0148 14.6725 55.5666 14.642 55.2045 14.8058C54.9947 14.9012 54.9841 15.03 54.907 15.2448C54.7285 15.7361 54.4306 16.1538 54.4761 16.7124C54.4906 16.8985 54.4893 17.0961 54.4253 17.28C54.3626 17.3705 54.3835 17.4786 54.3715 17.5732C54.3407 17.7663 54.2745 17.9522 54.2193 18.1326C53.9646 18.7749 53.7639 19.4323 53.6819 20.1207C53.6643 20.283 53.6505 20.4519 53.6412 20.617C53.6327 20.8501 53.6141 21.0761 53.5301 21.2966C53.5118 21.3376 53.4975 21.3832 53.494 21.4255C53.479 21.9706 53.2754 22.4832 53.2354 23.022C53.2056 23.3852 53.2424 23.739 53.2642 24.0958C53.2972 24.6512 53.3613 25.3728 53.6404 25.8571C53.7501 26.0489 53.8856 26.2109 53.9773 26.414C54.011 26.4955 54.046 26.5621 54.0858 26.6207Z" fill="#E2231A"/>
<path d="M48.6608 26.4892C48.7562 26.5183 48.878 26.4858 48.9754 26.4385C49.0555 26.3941 49.1463 26.376 49.2371 26.3834C49.2688 26.386 49.3128 26.3939 49.3414 26.3814C49.6628 26.1697 50.0448 26.048 50.2783 25.7164C50.3192 25.6581 50.3281 25.6014 50.3394 25.5407C50.379 25.3696 50.5231 25.2454 50.572 25.09C50.674 24.7795 50.7572 24.4653 50.7846 24.1317C50.8188 23.7157 50.8687 23.2883 51.0241 22.8971C51.1785 22.5186 51.2368 22.1195 51.3049 21.7297C51.3365 21.5261 51.3956 21.3247 51.4374 21.1262C51.5487 20.521 51.731 19.9322 51.7459 19.3106C51.7651 18.7658 51.7041 18.24 51.6246 17.7063C51.5806 17.4135 51.3605 17.2722 51.1476 17.1718C50.8241 17.0219 50.4978 16.8272 50.1418 16.7618C49.8025 16.7 49.4379 16.7126 49.0914 16.6863C48.8484 16.6684 48.752 16.6775 48.5622 16.815C48.4152 16.922 48.2541 16.9938 48.1035 17.0941C47.764 17.3192 47.7569 17.8458 47.7288 18.2134C47.7055 18.524 47.7423 18.8523 47.6663 19.1564C47.6099 19.3771 47.4373 19.5372 47.3648 19.7481C47.2813 19.9879 47.317 20.2523 47.2522 20.4978C47.1739 20.8039 47.0478 21.0975 46.9799 21.4066C46.8919 21.8054 46.8581 22.2171 46.8246 22.6247C46.8024 22.8949 46.7609 23.1679 46.7707 23.4365C46.7767 23.5965 46.7892 23.7548 46.7998 23.9109C46.8245 24.2573 46.7715 24.5931 46.7538 24.9381C46.7438 25.1371 46.8066 25.3038 46.8593 25.491C46.9106 25.6695 46.9322 25.9498 47.0946 26.0694C47.2067 26.153 47.4151 26.1786 47.5482 26.215C47.7206 26.2632 47.894 26.3008 48.0667 26.3469C48.2664 26.3994 48.4704 26.4268 48.6608 26.4892Z" fill="#E2231A"/>
</mask>
<g mask="url(#mask0_1_16777)">
<rect x="43.5" y="8.29736" width="38" height="30" transform="rotate(4.69296 43.5 8.29736)" fill="#5F0F0B"/>
</g>
<mask id="mask1_1_16777" style="mask-type:alpha" maskUnits="userSpaceOnUse" x="175" y="90" width="30" height="30">
<path d="M186.088 114.893C185.717 114.705 185.408 114.416 185.044 114.22C184.979 114.185 184.887 113.977 184.868 113.96C184.604 113.629 184.991 112.983 185.174 112.705C185.519 112.187 185.873 111.672 186.205 111.136C186.382 110.847 186.562 110.555 186.78 110.3C187.072 109.96 187.455 109.775 187.913 109.788C188.103 109.793 188.248 109.904 188.4 110.001C188.598 110.126 188.808 110.236 189.025 110.331C189.277 110.441 189.569 110.513 189.793 110.674C190.073 110.873 190.395 111.042 190.651 111.27C190.964 111.55 191.275 111.77 191.658 111.963C192.07 112.17 192.494 112.369 192.873 112.633C193.018 112.733 193.135 112.853 193.297 112.93C193.553 113.05 193.82 113.149 194.069 113.283C194.363 113.438 194.584 113.676 194.86 113.858C195.18 114.069 195.472 114.291 195.774 114.527C195.986 114.695 196.261 114.855 196.375 115.113C196.516 115.434 196.288 115.839 196.153 116.126C196.046 116.365 195.865 116.563 195.765 116.819C195.694 117.005 195.624 117.196 195.581 117.388C195.502 117.729 195.367 118.031 195.168 118.313C195.069 118.456 194.962 118.601 194.907 118.768C194.832 119.002 194.475 119.221 194.262 119.31C194.011 119.414 193.886 119.354 193.633 119.236C192.961 118.921 192.389 118.433 191.746 118.066C191.356 117.845 190.923 117.74 190.522 117.548C190.374 117.476 190.248 117.439 190.124 117.332C189.933 117.171 189.733 117.031 189.515 116.908C188.966 116.593 188.469 116.177 187.909 115.891C187.711 115.788 187.501 115.701 187.3 115.602C187.098 115.502 186.93 115.371 186.733 115.257C186.518 115.133 186.303 115.009 186.088 114.893Z" fill="black"/>
<path d="M187.046 114.728C186.907 114.642 186.733 114.617 186.615 114.488C186.286 114.132 185.852 113.918 185.488 113.615C185.475 113.569 185.457 113.526 185.457 113.481C185.461 113.128 185.814 112.564 186.048 112.312C186.432 111.901 186.749 111.439 187.025 110.949C187.145 110.736 187.335 110.633 187.563 110.613C187.874 110.584 188.174 110.609 188.437 110.795C188.53 110.856 188.629 110.908 188.731 110.955C189.332 111.262 189.954 111.539 190.542 111.887C190.573 111.908 190.607 111.922 190.636 111.936C190.959 112.081 191.261 112.254 191.495 112.527C191.546 112.585 191.613 112.617 191.679 112.653C192.139 112.879 192.567 113.168 193.036 113.38C193.326 113.507 193.534 113.796 193.874 113.837C193.932 113.845 193.963 113.896 193.999 113.937C194.169 114.13 194.348 114.319 194.559 114.47C194.89 114.706 195.255 114.91 195.467 115.283C195.472 115.294 195.481 115.3 195.49 115.306C195.611 115.411 195.671 115.551 195.641 115.701C195.584 115.968 195.598 116.256 195.479 116.506C195.341 116.782 195.276 117.074 195.203 117.369C195.115 117.696 194.914 117.944 194.672 118.158C194.54 118.274 194.391 118.366 194.281 118.502C194.173 118.646 194.049 118.654 193.889 118.617C193.544 118.542 193.214 118.419 192.904 118.274C192.731 118.19 192.536 118.151 192.383 118.025C191.947 117.67 191.433 117.43 190.945 117.155C190.437 116.859 189.952 116.528 189.442 116.235C188.976 115.972 188.516 115.69 188.086 115.382C187.791 115.175 187.411 115.121 187.192 114.799C187.164 114.76 187.09 114.757 187.046 114.728Z" fill="#E2231A"/>
<path d="M202.347 107.481C202.437 107.33 202.508 107.164 202.6 106.943C202.794 106.482 203.077 106.156 203.381 105.79C204.012 105.031 205.252 103.083 204.308 102.193C203.862 101.773 203.189 101.531 202.669 101.189C201.989 100.742 201.282 100.132 200.532 99.8114C200.38 99.7372 200.268 99.7573 200.172 99.8537C199.845 100.189 199.401 100.346 199.134 100.746C199.022 100.911 198.95 101.099 198.831 101.26C198.69 101.451 198.488 101.592 198.359 101.793C198.207 102.028 198.037 102.244 197.884 102.477C197.488 103.082 197.09 103.685 196.692 104.29C196.545 104.513 196.388 104.732 196.249 104.96C196.14 105.14 196.116 105.316 196.024 105.494C195.79 105.946 195.32 106.226 195.041 106.65C194.865 106.918 194.632 107.079 194.43 107.324C194.02 107.825 193.791 108.438 193.423 108.964C193.212 109.262 192.984 109.535 192.809 109.859C192.588 110.269 192.245 110.69 192.636 111.122C192.905 111.421 193.353 111.477 193.616 111.779C193.871 112.073 194.127 112.394 194.494 112.572C194.812 112.728 195.219 112.762 195.502 112.994C195.754 113.2 195.96 113.643 196.33 113.647C196.807 113.654 197.34 113.284 197.631 112.926C197.927 112.56 198.3 112.24 198.601 111.864C198.964 111.411 199.413 111.108 199.823 110.708C200.089 110.444 200.345 110.184 200.561 109.877C200.776 109.575 200.911 109.222 201.127 108.921C201.377 108.571 201.72 108.212 202.014 107.907C202.166 107.753 202.265 107.622 202.347 107.481Z" fill="black"/>
<path d="M193.838 106.147C193.84 106.144 193.841 106.139 193.844 106.134C194.488 105.142 196.115 103.093 196.164 103.026C196.411 102.669 196.675 102.326 196.875 101.945C197.002 101.706 197.121 101.467 197.296 101.266C197.34 101.218 197.365 101.154 197.4 101.1C197.565 100.849 197.674 100.54 197.731 100.246C197.785 99.9744 197.85 99.8418 198.026 99.6156C198.519 98.9814 198.832 98.4364 198.46 97.6596C198.192 97.1001 197.572 96.7309 197.06 96.4268C196.648 96.1814 196.268 95.8453 195.841 95.6306C194.832 95.1217 194.05 95.1731 193.301 96.0346C193.034 96.3407 192.882 96.753 192.756 97.134C192.611 97.5709 192.288 97.9573 192.035 98.3414C191.765 98.7521 191.511 99.0617 191.154 99.3971C190.387 100.115 189.945 101.097 189.332 101.937C189.129 102.214 188.877 102.439 188.687 102.728C188.508 103 188.331 103.277 188.15 103.548C187.795 104.081 187.14 104.672 186.992 105.31C186.891 105.748 186.614 106.07 186.371 106.436C186.26 106.604 186.195 106.812 186.19 107.011C186.185 107.188 186.114 107.312 186.218 107.463C186.333 107.635 186.578 107.736 186.749 107.838C187.113 108.057 187.453 108.306 187.843 108.474C188.106 108.583 188.348 108.742 188.599 108.882C188.789 108.986 188.986 109.091 189.196 109.165C189.488 109.269 189.75 109.449 190.054 109.527C190.41 109.629 190.707 109.525 190.986 109.293C191.246 109.078 191.336 108.752 191.565 108.527C191.611 108.489 191.637 108.43 191.685 108.411C192.124 108.205 192.35 107.766 192.728 107.489C192.79 107.441 192.833 107.355 192.867 107.284C192.924 107.151 193.024 107.065 193.112 106.958C193.349 106.683 193.592 106.414 193.838 106.147Z" fill="black"/>
<path d="M187.974 107.792C188.144 107.899 188.324 107.999 188.514 108.093C188.727 108.201 188.904 108.37 189.111 108.491C189.325 108.617 189.571 108.667 189.784 108.794C189.877 108.85 189.923 108.931 190.037 108.958C190.232 109.005 190.424 108.898 190.579 108.792C190.943 108.54 191.181 108.156 191.508 107.866C191.886 107.534 192.108 107.162 192.357 106.741C192.559 106.399 192.941 106.108 193.22 105.83C193.562 105.487 193.858 105.086 194.233 104.774C194.388 104.643 194.442 104.43 194.558 104.268C194.791 103.972 195 103.654 195.201 103.337C195.43 102.98 195.653 102.622 195.886 102.268C196.142 101.886 196.352 101.474 196.597 101.09C196.76 100.842 196.89 100.58 196.994 100.306C197.048 100.177 197.101 100.047 197.173 99.9295C197.28 99.759 197.344 99.5729 197.362 99.3842C197.386 99.1466 197.47 98.9228 197.464 98.6807C197.459 98.5456 197.473 98.408 197.528 98.2742C197.606 98.1098 197.55 97.9715 197.405 97.8637C197.062 97.6073 196.717 97.3404 196.368 97.0928C196.034 96.8481 195.699 96.6099 195.4 96.3245C195.362 96.2865 195.314 96.2551 195.264 96.2348C195.119 96.1652 194.998 96.0726 194.877 95.9676C194.642 95.7575 194.37 95.7739 194.179 96.029C194.046 96.2126 193.897 96.3934 193.802 96.6026C193.691 96.6362 193.66 96.7421 193.604 96.8195C193.417 97.0769 193.356 97.3893 193.237 97.6739C193.221 97.7186 193.151 97.9394 193.107 98.0067C192.965 98.2227 192.799 98.4177 192.588 98.5759C192.19 98.8846 191.852 99.2634 191.591 99.6799C191.264 100.197 190.852 100.662 190.611 101.236C190.556 101.365 190.448 101.464 190.348 101.551C190.126 101.747 189.96 101.998 189.715 102.166C189.642 102.22 189.584 102.301 189.537 102.379C189.349 102.673 189.113 102.929 188.885 103.198C188.816 103.284 188.745 103.364 188.722 103.484C188.709 103.531 188.68 103.587 188.644 103.622C188.396 103.883 188.226 104.181 188.139 104.525C188.055 104.865 187.682 105.135 187.564 105.481C187.492 105.694 187.471 105.919 187.378 106.129C187.238 106.451 186.919 106.793 187.166 107.096C187.397 107.377 187.671 107.6 187.974 107.792Z" fill="#E2231A"/>
<path d="M180.652 102.373C180.578 102.097 180.866 101.956 181.027 101.707C181.159 101.502 181.117 101.327 181.173 101.096C181.302 100.549 181.676 100.103 181.904 99.5983C182.252 98.8257 182.771 98.2136 183.307 97.5691C183.652 97.1644 183.948 96.7206 184.235 96.2699C184.301 96.169 184.369 96.0739 184.457 95.9852C184.778 95.6711 185.114 95.3723 185.382 95.0109C185.426 94.9513 185.49 94.9121 185.543 94.8583C185.806 94.6251 186.07 94.396 186.25 94.0958C186.528 93.6345 186.892 93.2396 187.219 92.8233C187.384 92.6148 187.547 92.4052 187.699 92.1885C187.799 92.0486 187.906 91.7665 188.042 91.6681C188.205 91.5501 188.633 91.5856 188.802 91.6562C189.258 91.8466 189.739 92.0287 190.153 92.3011C190.486 92.5199 190.697 92.813 191.01 93.0725C191.303 93.3133 191.578 93.6971 191.808 93.9953C192.058 94.3216 192.309 94.7073 192.376 95.1264C192.462 95.6729 191.916 96.3028 191.6 96.7032C191.419 96.9318 191.24 97.1692 191.09 97.4252C190.96 97.6493 190.804 97.8512 190.596 98.0106C190.496 98.0894 190.405 98.1817 190.34 98.299C190.239 98.4989 190.083 98.6626 189.934 98.8234C189.829 98.9369 189.721 99.0557 189.654 99.1966C189.499 99.5131 189.271 99.779 189.07 100.065C188.907 100.293 188.793 100.54 188.647 100.774C188.404 101.151 188.145 101.518 187.882 101.883C187.718 102.105 187.559 102.335 187.392 102.547C187.158 102.83 186.907 103.101 186.754 103.444C186.734 103.494 186.706 103.544 186.661 103.578C186.112 103.978 185.983 104.794 185.402 105.154C185.035 105.38 184.63 105.009 184.336 104.839C183.971 104.626 183.553 104.56 183.19 104.356C183.06 104.284 182.947 104.179 182.816 104.108C182.585 103.981 182.287 103.983 182.066 103.841C181.856 103.705 181.698 103.482 181.489 103.337C181.164 103.111 180.854 102.823 180.681 102.453C180.667 102.424 180.659 102.398 180.652 102.373Z" fill="black"/>
<path d="M175.992 99.811C175.493 99.5056 175.103 99.2143 175.104 98.5855C175.104 98.3499 175.221 98.1529 175.32 97.9442C175.378 97.8204 175.449 97.7125 175.496 97.5805C175.618 97.2325 175.759 96.9172 176.01 96.6329C176.109 96.5207 176.217 96.4142 176.286 96.2898C176.509 95.9041 176.754 95.5399 176.968 95.156C177.423 94.3293 178.044 93.6425 178.679 92.9592C178.999 92.6069 179.311 92.2488 179.532 91.8238C179.581 91.7418 179.624 91.6639 179.71 91.6111C180.079 91.3972 180.393 91.112 180.667 90.7923C180.976 90.4378 181.278 90.4288 181.687 90.5784C181.99 90.684 182.279 90.8232 182.566 90.9736C183.336 91.3912 183.964 91.9561 184.484 92.6456C184.62 92.824 184.666 93.044 184.606 93.2507C184.445 93.7659 184.247 94.2672 183.967 94.7426C183.353 95.7813 182.543 96.6585 181.759 97.5608C181.502 97.8509 181.225 98.1377 181.001 98.4517C180.828 98.6955 180.526 98.8878 180.412 99.1653C180.312 99.4139 180.213 99.6608 180.027 99.8676C179.821 100.092 179.569 100.287 179.329 100.474C179.143 100.618 178.91 100.729 178.736 100.89C178.579 101.036 178.529 101.165 178.282 101.102C178.024 101.036 177.925 100.785 177.733 100.629C177.554 100.481 177.354 100.496 177.148 100.417C176.735 100.257 176.372 100.043 175.992 99.811Z" fill="black"/>
<path d="M194.073 111.629C193.454 111.222 193.326 110.267 193.718 109.671C193.963 109.297 194.206 108.937 194.485 108.593C194.799 108.208 195.205 107.926 195.513 107.535C196.09 106.8 196.521 105.959 196.995 105.154C197.446 104.386 197.911 103.594 198.572 103.009C198.794 102.815 198.878 102.594 198.977 102.34C199.03 102.205 199.084 102.065 199.162 101.919C199.521 101.25 199.863 100.838 200.179 100.696C200.481 100.562 200.816 100.615 201.179 100.854C201.404 101.002 201.608 101.197 201.786 101.369C201.854 101.435 201.917 101.497 201.977 101.549C202.129 101.684 202.307 101.806 202.478 101.921C202.918 102.22 203.417 102.559 203.511 103.219C203.571 103.644 203.417 104.044 203.282 104.4C203.245 104.499 203.206 104.596 203.177 104.691L203.151 104.77C203.061 105.045 202.968 105.329 202.774 105.582C202.661 105.726 202.528 105.844 202.398 105.956C201.978 106.326 201.757 106.838 201.452 107.302C201.185 107.709 200.892 108.019 200.561 108.369C200.201 108.751 199.888 109.179 199.536 109.569C199.238 109.898 198.948 110.219 198.706 110.592C198.519 110.876 198.347 111.183 198.118 111.428C197.936 111.623 197.727 111.78 197.567 111.989C197.122 112.569 196.49 112.982 195.805 112.532C195.761 112.503 195.581 112.379 195.535 112.349C195.478 112.312 195.418 112.275 195.358 112.243C195.202 112.161 195.039 112.092 194.867 112.019C194.661 111.931 194.448 111.842 194.243 111.725C194.179 111.696 194.123 111.662 194.073 111.629Z" fill="#E2231A"/>
<path d="M181.806 102.41C181.829 102.645 181.928 102.814 182.13 103C182.393 103.244 182.651 103.492 183.014 103.581C183.147 103.613 183.268 103.642 183.389 103.704C183.597 103.813 183.741 103.963 183.962 104.04C184.297 104.156 184.612 104.232 184.971 104.249C185.064 104.255 185.133 104.204 185.167 104.125C185.247 103.949 185.374 103.83 185.519 103.717C185.71 103.572 185.844 103.361 185.978 103.165C186.17 102.893 186.424 102.687 186.653 102.45C186.912 102.176 187.152 101.885 187.321 101.547C187.424 101.324 187.597 101.153 187.731 100.958C188.005 100.567 188.199 100.127 188.506 99.7527C188.728 99.488 188.907 99.1878 189.107 98.9033C189.192 98.7817 189.288 98.6747 189.404 98.5788C189.538 98.4763 189.627 98.3323 189.711 98.1925C189.821 98.0185 189.953 97.8643 190.088 97.72C190.218 97.577 190.328 97.4288 190.422 97.2578C190.535 97.0402 190.714 96.8534 190.881 96.6796C191.114 96.4448 191.254 96.1055 191.373 95.8038C191.458 95.5906 191.605 95.317 191.511 95.0931C191.417 94.8663 191.26 94.6493 191.167 94.4101C191.021 94.0455 190.845 93.8462 190.536 93.6026C190.246 93.3735 189.907 93.1711 189.575 93.0134C189.225 92.847 188.846 92.6055 188.45 92.5757C188.22 92.5589 188.149 92.6669 187.979 92.8184C187.586 93.1641 187.125 93.388 186.897 93.9001C186.821 94.0704 186.725 94.2432 186.58 94.374C186.482 94.4234 186.449 94.5282 186.393 94.6055C186.273 94.7602 186.126 94.8916 185.991 95.0235C185.46 95.4652 184.969 95.9461 184.567 96.511C184.474 96.645 184.38 96.7866 184.293 96.927C184.174 97.1276 184.049 97.317 183.87 97.4703C183.834 97.4976 183.8 97.5307 183.777 97.5661C183.502 98.0374 183.078 98.3897 182.785 98.8435C182.584 99.148 182.447 99.4761 182.295 99.7997C182.058 100.303 181.768 100.967 181.781 101.526C181.786 101.747 181.827 101.954 181.81 102.176C181.801 102.264 181.799 102.339 181.806 102.41Z" fill="#E2231A"/>
<path d="M177.109 99.695C177.179 99.7662 177.301 99.796 177.409 99.8012C177.501 99.8006 177.589 99.8283 177.665 99.8783C177.692 99.8958 177.727 99.9238 177.758 99.9265C178.141 99.8947 178.535 99.9709 178.899 99.7917C178.963 99.7602 178.998 99.7147 179.037 99.6669C179.153 99.5357 179.339 99.4957 179.457 99.3827C179.695 99.1591 179.919 98.9232 180.103 98.6435C180.332 98.2948 180.581 97.9436 180.904 97.6747C181.221 97.4165 181.464 97.0941 181.71 96.7846C181.836 96.6211 181.984 96.4726 182.116 96.3184C182.503 95.8406 182.946 95.4111 183.257 94.8727C183.534 94.4037 183.733 93.913 183.919 93.4064C184.021 93.1284 183.895 92.8989 183.756 92.7088C183.544 92.4222 183.351 92.0949 183.07 91.8669C182.802 91.65 182.476 91.4864 182.184 91.2973C181.98 91.1652 181.891 91.1269 181.658 91.1566C181.478 91.1801 181.302 91.1659 181.122 91.1818C180.716 91.2167 180.457 91.6755 180.257 91.9847C180.087 92.2461 179.962 92.5518 179.75 92.7824C179.595 92.9491 179.366 93.0069 179.202 93.1572C179.013 93.3277 178.918 93.5768 178.744 93.7613C178.528 93.9924 178.277 94.1897 178.069 94.4284C177.801 94.7363 177.574 95.0815 177.349 95.4231C177.2 95.6497 177.033 95.8694 176.913 96.1099C176.841 96.2531 176.776 96.3981 176.711 96.5401C176.567 96.856 176.359 97.1253 176.178 97.4197C176.074 97.5896 176.049 97.766 176.006 97.9555C175.965 98.1368 175.85 98.3931 175.935 98.5759C175.994 98.7031 176.164 98.8254 176.264 98.9211C176.392 99.0461 176.526 99.1622 176.655 99.2853C176.806 99.4272 176.972 99.5489 177.109 99.695Z" fill="#E2231A"/>
</mask>
<g mask="url(#mask1_1_16777)">
<rect x="181.297" y="81.2542" width="38" height="30" transform="rotate(33.3267 181.297 81.2542)" fill="#5F0F0B"/>
</g>
<mask id="mask2_1_16777" style="mask-type:alpha" maskUnits="userSpaceOnUse" x="527" y="16" width="31" height="23">
<path d="M548.944 37.9679C548.55 38.1029 548.127 38.123 547.734 38.2473C547.663 38.2695 547.45 38.1909 547.424 38.1923C547.003 38.1513 546.809 37.4239 546.737 37.0992C546.606 36.4901 546.483 35.8772 546.33 35.2666C546.246 34.938 546.162 34.6052 546.131 34.2713C546.09 33.8245 546.224 33.4215 546.553 33.1012C546.688 32.9691 546.869 32.942 547.044 32.9009C547.273 32.8458 547.497 32.7721 547.716 32.6823C547.971 32.578 548.226 32.4193 548.498 32.37C548.835 32.308 549.181 32.1943 549.523 32.1705C549.942 32.1405 550.317 32.0703 550.722 31.9304C551.158 31.7795 551.596 31.6128 552.049 31.5251C552.222 31.4912 552.389 31.491 552.557 31.4276C552.822 31.3277 553.079 31.2055 553.348 31.1196C553.664 31.017 553.989 31.0251 554.312 30.9535C554.686 30.8704 555.05 30.8158 555.429 30.7641C555.697 30.7286 556.003 30.6432 556.268 30.7407C556.597 30.863 556.728 31.3091 556.84 31.6056C556.937 31.8487 556.953 32.1164 557.067 32.3667C557.151 32.5478 557.239 32.7301 557.347 32.8949C557.536 33.1893 557.659 33.4964 557.723 33.8358C557.757 34.0063 557.785 34.1844 557.868 34.3398C557.983 34.5572 557.892 34.966 557.807 35.1802C557.707 35.4325 557.576 35.4809 557.316 35.5799C556.621 35.8426 555.873 35.9132 555.161 36.119C554.731 36.2448 554.354 36.4826 553.937 36.636C553.782 36.692 553.669 36.7563 553.505 36.771C553.256 36.7958 553.017 36.8424 552.777 36.9131C552.169 37.0871 551.524 37.1543 550.928 37.3559C550.716 37.4269 550.508 37.5165 550.297 37.5916C550.084 37.6671 549.873 37.6965 549.655 37.758C549.416 37.8262 549.177 37.8944 548.944 37.9679Z" fill="black"/>
<path d="M549.492 37.1649C549.334 37.2044 549.195 37.3112 549.02 37.3066C548.535 37.2948 548.079 37.4569 547.608 37.5071C547.566 37.4839 547.523 37.4673 547.49 37.4356C547.24 37.1874 547.081 36.5411 547.064 36.1978C547.036 35.6352 546.926 35.0869 546.767 34.547C546.697 34.3128 546.755 34.1047 546.9 33.927C547.096 33.684 547.323 33.4859 547.64 33.4265C547.747 33.4026 547.855 33.3679 547.959 33.3275C548.598 33.1096 549.23 32.8565 549.889 32.6776C549.926 32.6694 549.96 32.6554 549.99 32.6443C550.319 32.5127 550.654 32.4167 551.013 32.4391C551.09 32.4437 551.16 32.4173 551.231 32.3951C551.713 32.2228 552.219 32.117 552.698 31.9282C552.991 31.809 553.343 31.861 553.61 31.6455C553.656 31.6092 553.713 31.6226 553.768 31.6256C554.025 31.6381 554.286 31.6409 554.541 31.5952C554.941 31.5215 555.342 31.4021 555.757 31.5098C555.768 31.5137 555.779 31.5114 555.789 31.5091C555.949 31.4953 556.091 31.5505 556.178 31.6767C556.33 31.9033 556.546 32.0941 556.643 32.3527C556.744 32.6448 556.908 32.8949 557.07 33.152C557.243 33.4435 557.281 33.7606 557.265 34.083C557.257 34.2586 557.219 34.4298 557.24 34.6031C557.268 34.7812 557.187 34.8751 557.049 34.9645C556.756 35.1598 556.438 35.3107 556.117 35.4317C555.937 35.4979 555.773 35.6102 555.576 35.6322C555.017 35.6976 554.487 35.8999 553.949 36.0583C553.383 36.2165 552.808 36.3334 552.243 36.4957C551.729 36.6466 551.206 36.7802 550.686 36.8738C550.332 36.9415 550.028 37.1761 549.645 37.1093C549.597 37.1024 549.544 37.1534 549.492 37.1649Z" fill="#E2231A"/>
<path d="M554.952 21.1425C554.905 20.9726 554.836 20.8058 554.741 20.5858C554.546 20.1257 554.509 19.6955 554.458 19.2228C554.353 18.2413 553.82 15.9941 552.524 16.0517C551.912 16.0792 551.269 16.3931 550.661 16.5281C549.867 16.7044 548.937 16.7872 548.184 17.1018C548.025 17.1588 547.962 17.2532 547.964 17.3895C547.977 17.8576 547.781 18.2852 547.881 18.7556C547.922 18.9505 548.006 19.1337 548.039 19.3304C548.078 19.5648 548.038 19.808 548.092 20.0412C548.155 20.3138 548.191 20.5857 548.252 20.8587C548.411 21.5635 548.565 22.2693 548.722 22.9767C548.78 23.2373 548.828 23.5023 548.894 23.761C548.948 23.964 549.057 24.1046 549.121 24.2945C549.283 24.7773 549.155 25.3091 549.266 25.8055C549.335 26.1178 549.288 26.3972 549.324 26.7127C549.397 27.3562 549.678 27.9471 549.798 28.578C549.865 28.9365 549.902 29.2906 550.013 29.6415C550.153 30.0858 550.216 30.6252 550.798 30.6457C551.2 30.6605 551.552 30.3784 551.952 30.4004C552.341 30.4225 552.749 30.4621 553.133 30.3227C553.467 30.2031 553.774 29.9352 554.138 29.8935C554.462 29.8563 554.923 30.0166 555.184 29.7547C555.521 29.4172 555.626 28.7774 555.572 28.3185C555.516 27.8513 555.546 27.3607 555.486 26.8836C555.414 26.307 555.509 25.7739 555.508 25.2012C555.505 24.8264 555.495 24.4617 555.427 24.0928C555.359 23.7281 555.2 23.3857 555.134 23.0205C555.058 22.5969 555.039 22.1019 555.025 21.6775C555.02 21.4615 554.995 21.2999 554.952 21.1425Z" fill="black"/>
<path d="M548.069 26.3141C548.068 26.31 548.065 26.3063 548.064 26.3001C547.801 25.1474 547.464 22.5528 547.45 22.4712C547.367 22.0449 547.304 21.6161 547.17 21.2074C547.087 20.9503 546.998 20.6986 546.976 20.4323C546.973 20.3679 546.943 20.3049 546.93 20.2429C546.865 19.9492 546.719 19.6559 546.547 19.4098C546.39 19.182 546.34 19.0434 546.301 18.7591C546.189 17.9635 546.016 17.3595 545.2 17.085C544.612 16.8879 543.915 17.075 543.34 17.2309C542.877 17.3554 542.371 17.3938 541.92 17.5505C540.852 17.92 540.344 18.5166 540.44 19.6542C540.474 20.0591 540.664 20.4553 540.849 20.8114C541.061 21.22 541.114 21.7205 541.213 22.1694C541.32 22.6492 541.365 23.0473 541.356 23.5374C541.338 24.5876 541.734 25.5892 541.909 26.6137C541.967 26.9525 541.953 27.2898 542.028 27.627C542.098 27.9455 542.174 28.2652 542.242 28.5841C542.377 29.2097 542.345 30.0915 542.699 30.6422C542.943 31.0198 542.981 31.4433 543.074 31.8719C543.118 32.0684 543.221 32.2603 543.361 32.4028C543.485 32.5295 543.524 32.6662 543.704 32.6978C543.908 32.735 544.151 32.6289 544.344 32.5775C544.754 32.4691 545.17 32.3984 545.562 32.2356C545.823 32.1233 546.106 32.0604 546.381 31.9777C546.588 31.9144 546.801 31.8455 547.001 31.7469C547.278 31.6093 547.59 31.5467 547.857 31.3831C548.179 31.1989 548.311 30.9135 548.339 30.5513C548.366 30.2154 548.195 29.9235 548.193 29.6027C548.198 29.5432 548.174 29.4834 548.193 29.4356C548.352 28.9772 548.194 28.5088 548.258 28.0453C548.267 27.9674 548.236 27.8766 548.208 27.8024C548.153 27.6693 548.16 27.5374 548.145 27.3998C548.113 27.038 548.089 26.6766 548.069 26.3141Z" fill="black"/>
<path d="M545.163 31.6664C545.358 31.6187 545.556 31.5597 545.755 31.4894C545.981 31.4111 546.226 31.4022 546.457 31.3379C546.696 31.2718 546.904 31.1302 547.143 31.0662C547.248 31.0386 547.338 31.0621 547.437 30.9989C547.606 30.8919 547.663 30.6795 547.696 30.4943C547.768 30.0573 547.658 29.6195 547.678 29.1831C547.703 28.6805 547.591 28.2627 547.462 27.7899C547.358 27.4073 547.415 26.9302 547.41 26.5363C547.402 26.0519 547.321 25.5599 547.358 25.0741C547.372 24.8714 547.257 24.6843 547.222 24.488C547.172 24.1151 547.089 23.7428 547.002 23.378C546.906 22.9653 546.804 22.556 546.712 22.1423C546.617 21.6926 546.467 21.2547 546.362 20.8114C546.298 20.5219 546.2 20.2463 546.076 19.9808C546.021 19.8519 545.965 19.7234 545.931 19.5899C545.883 19.3943 545.794 19.2187 545.671 19.0746C545.517 18.8917 545.415 18.6756 545.238 18.511C545.137 18.4205 545.048 18.3143 544.991 18.1817C544.927 18.0114 544.789 17.9553 544.611 17.984C544.187 18.0519 543.756 18.1129 543.335 18.1912C542.927 18.26 542.522 18.3346 542.109 18.3504C542.055 18.3515 541.999 18.3639 541.95 18.3857C541.799 18.4408 541.648 18.4635 541.489 18.4773C541.174 18.4993 540.997 18.7058 541.047 19.0202C541.086 19.2438 541.111 19.4768 541.196 19.6904C541.143 19.7933 541.197 19.8898 541.213 19.9838C541.267 20.2973 541.449 20.5586 541.571 20.842C541.591 20.8852 541.701 21.0886 541.719 21.1672C541.775 21.4195 541.799 21.6746 541.766 21.9359C541.71 22.4366 541.746 22.9429 541.863 23.4205C542.006 24.0159 542.052 24.635 542.297 25.208C542.351 25.3369 542.347 25.4833 542.339 25.6152C542.325 25.9114 542.39 26.2051 542.34 26.4984C542.327 26.588 542.345 26.6861 542.369 26.7741C542.449 27.1145 542.467 27.462 542.502 27.8124C542.515 27.9223 542.524 28.0289 542.593 28.1284C542.618 28.1707 542.638 28.2314 542.638 28.2813C542.653 28.6404 542.748 28.9709 542.934 29.2725C543.12 29.5699 543.053 30.0251 543.219 30.3508C543.322 30.5514 543.469 30.7229 543.555 30.9359C543.688 31.2602 543.711 31.7281 544.101 31.7611C544.463 31.7913 544.815 31.7502 545.163 31.6664Z" fill="#E2231A"/>
<path d="M536.176 33.1449C535.925 33.0051 536.025 32.7009 535.959 32.4118C535.904 32.1744 535.749 32.0829 535.622 31.8811C535.319 31.4078 535.26 30.8285 535.057 30.3137C534.745 29.5256 534.668 28.7268 534.578 27.8937C534.528 27.3645 534.416 26.8423 534.292 26.3229C534.266 26.205 534.245 26.0904 534.243 25.9649C534.241 25.5161 534.261 25.0668 534.188 24.6228C534.176 24.5495 534.193 24.4764 534.191 24.4008C534.207 24.0502 534.227 23.7006 534.137 23.3626C533.999 22.8418 533.969 22.3059 533.898 21.7812C533.864 21.5176 533.827 21.2545 533.778 20.9941C533.747 20.8252 533.619 20.5519 533.643 20.386C533.672 20.1863 533.996 19.904 534.165 19.8318C534.618 19.6378 535.084 19.4193 535.568 19.3119C535.957 19.2256 536.314 19.2788 536.719 19.2345C537.096 19.1921 537.563 19.2621 537.937 19.3049C538.345 19.3532 538.796 19.4418 539.143 19.686C539.596 20.0044 539.667 20.8349 539.734 21.3409C539.772 21.6298 539.818 21.9235 539.897 22.2099C539.967 22.459 540.004 22.7113 539.973 22.9721C539.959 23.0988 539.962 23.2284 540.001 23.3564C540.074 23.568 540.083 23.7939 540.095 24.0127C540.103 24.1672 540.113 24.3278 540.167 24.4742C540.286 24.8058 540.318 25.1547 540.384 25.4982C540.434 25.7736 540.531 26.0275 540.597 26.295C540.699 26.7326 540.782 27.1743 540.86 27.6169C540.906 27.889 540.96 28.1634 540.995 28.4312C541.035 28.7956 541.054 29.1647 541.194 29.5134C541.216 29.5628 541.233 29.6177 541.226 29.6735C541.13 30.3459 541.626 31.0063 541.479 31.6747C541.385 32.0948 540.837 32.1275 540.51 32.2196C540.104 32.3337 539.765 32.5869 539.366 32.7058C539.224 32.7483 539.069 32.7565 538.927 32.8011C538.675 32.8787 538.469 33.0937 538.213 33.1527C537.969 33.209 537.7 33.1669 537.45 33.2158C537.061 33.2913 536.638 33.3135 536.253 33.1799C536.222 33.1693 536.198 33.1573 536.176 33.1449Z" fill="black"/>
<path d="M531.09 34.704C530.523 34.8493 530.043 34.9255 529.592 34.4874C529.423 34.3231 529.363 34.102 529.282 33.8855C529.234 33.7572 529.206 33.6311 529.144 33.506C528.98 33.1758 528.852 32.8547 528.822 32.4771C528.811 32.3277 528.81 32.1761 528.769 32.0398C528.647 31.6109 528.556 31.1819 528.43 30.7606C528.154 29.8583 528.094 28.9341 528.046 28.0029C528.017 27.5276 527.977 27.0547 527.826 26.5999C527.801 26.5077 527.776 26.4222 527.797 26.3241C527.901 25.9105 527.915 25.4863 527.876 25.0673C527.837 24.5985 528.042 24.3752 528.434 24.1861C528.721 24.0421 529.022 23.9319 529.329 23.8311C530.166 23.5695 531.008 23.5127 531.865 23.6198C532.088 23.6463 532.278 23.767 532.384 23.9538C532.641 24.4284 532.863 24.9196 533.01 25.4514C533.327 26.6159 533.392 27.8081 533.493 28.9988C533.523 29.3851 533.535 29.7838 533.604 30.1634C533.659 30.4574 533.587 30.8076 533.706 31.0827C533.815 31.3277 533.923 31.5706 533.941 31.8487C533.959 32.1529 533.923 32.4691 533.89 32.7716C533.864 33.0053 533.781 33.2493 533.775 33.4871C533.771 33.7009 533.829 33.8268 533.611 33.9598C533.384 34.0993 533.135 33.996 532.89 34.0244C532.659 34.0497 532.53 34.2041 532.33 34.2964C531.928 34.4811 531.521 34.5931 531.09 34.704Z" fill="black"/>
<path d="M552.165 29.9667C551.441 30.1274 550.667 29.5548 550.512 28.8577C550.415 28.4213 550.325 27.9964 550.273 27.5565C550.216 27.0636 550.296 26.5748 550.23 26.0816C550.105 25.1566 549.802 24.2603 549.554 23.3603C549.318 22.5013 549.074 21.6158 549.115 20.7343C549.13 20.4401 549.03 20.2257 548.916 19.9775C548.857 19.8453 548.794 19.7095 548.744 19.5514C548.514 18.8277 548.456 18.2957 548.575 17.9698C548.688 17.6603 548.96 17.4568 549.384 17.3626C549.647 17.3043 549.929 17.2938 550.177 17.2865C550.271 17.2829 550.36 17.2806 550.439 17.274C550.642 17.2593 550.854 17.2166 551.055 17.1741C551.576 17.0672 552.167 16.9446 552.706 17.3372C553.052 17.5901 553.232 17.9799 553.393 18.3239C553.439 18.4202 553.481 18.5149 553.529 18.602L553.567 18.6761C553.702 18.9325 553.841 19.1969 553.887 19.5122C553.912 19.6932 553.904 19.8709 553.894 20.0423C553.866 20.6019 554.08 21.1165 554.201 21.6584C554.306 22.1341 554.325 22.5597 554.345 23.0414C554.368 23.5658 554.458 24.0884 554.492 24.6126C554.521 25.0554 554.549 25.4875 554.648 25.9214C554.721 26.2523 554.822 26.5901 554.838 26.9252C554.852 27.1913 554.818 27.4505 554.856 27.7111C554.963 28.4341 554.819 29.1757 554.019 29.3533C553.967 29.3648 553.753 29.408 553.699 29.4199C553.633 29.4346 553.565 29.4518 553.5 29.4727C553.332 29.5274 553.17 29.596 552.997 29.6691C552.791 29.7561 552.578 29.8466 552.352 29.9121C552.286 29.9375 552.222 29.9538 552.165 29.9667Z" fill="#E2231A"/>
<path d="M537.004 32.3421C537.189 32.4899 537.38 32.5366 537.654 32.5213C538.012 32.5025 538.37 32.4905 538.686 32.2922C538.802 32.2187 538.907 32.1521 539.036 32.1082C539.258 32.035 539.467 32.0364 539.676 31.9314C539.992 31.7722 540.266 31.5986 540.529 31.3537C540.597 31.2907 540.609 31.2057 540.576 31.1262C540.505 30.9464 540.508 30.7723 540.528 30.5898C540.558 30.351 540.499 30.1079 540.452 29.8753C540.39 29.5483 540.42 29.2227 540.41 28.8929C540.394 28.5167 540.352 28.1419 540.227 27.7854C540.139 27.5554 540.137 27.3127 540.09 27.0801C540.001 26.6115 539.82 26.1657 539.765 25.6851C539.73 25.3413 539.64 25.0033 539.575 24.6618C539.547 24.5161 539.537 24.3729 539.549 24.2226C539.568 24.0555 539.528 23.891 539.486 23.7331C539.437 23.5334 539.418 23.3314 539.409 23.1337C539.397 22.9412 539.367 22.7589 539.311 22.5719C539.233 22.3395 539.223 22.0812 539.215 21.8399C539.209 21.5092 539.063 21.1727 538.93 20.8767C538.836 20.6676 538.742 20.3716 538.516 20.2828C538.288 20.1924 538.023 20.1535 537.786 20.0542C537.423 19.9047 537.158 19.892 536.768 19.9439C536.401 19.9927 536.02 20.0947 535.675 20.2233C535.312 20.3581 534.875 20.4616 534.578 20.7252C534.405 20.8784 534.433 21.0046 534.423 21.2325C534.398 21.7546 534.237 22.2418 534.446 22.7619C534.515 22.9354 534.572 23.1245 534.565 23.3192C534.532 23.4242 534.584 23.5212 534.601 23.6152C534.628 23.8087 534.62 24.0059 534.621 24.1945C534.567 24.8835 534.57 25.5708 534.696 26.2527C534.727 26.4129 534.763 26.5783 534.803 26.7387C534.864 26.964 534.913 27.1853 534.898 27.4208C534.893 27.4654 534.893 27.5132 534.902 27.5546C535.049 28.0797 535.006 28.6296 535.127 29.1561C535.206 29.5119 535.346 29.8389 535.472 30.1733C535.668 30.6941 535.943 31.3645 536.353 31.7445C536.514 31.8953 536.692 32.01 536.84 32.1769C536.896 32.2447 536.949 32.298 537.004 32.3421Z" fill="#E2231A"/>
<path d="M531.785 33.8213C531.885 33.8208 531.992 33.7538 532.071 33.6798C532.134 33.6136 532.216 33.5695 532.305 33.5498C532.336 33.5429 532.38 33.5374 532.404 33.5169C532.648 33.2196 532.977 32.9904 533.102 32.6045C533.124 32.5368 533.115 32.48 533.108 32.4186C533.095 32.2435 533.196 32.0822 533.197 31.9193C533.203 31.5925 533.189 31.2678 533.117 30.941C533.026 30.5335 532.947 30.1104 532.98 29.6908C533.016 29.2836 532.953 28.8851 532.903 28.4926C532.873 28.2888 532.87 28.079 532.851 27.8769C532.778 27.2659 532.778 26.6495 532.609 26.0513C532.466 25.5253 532.252 25.041 532.018 24.5547C531.889 24.2881 531.637 24.2182 531.404 24.1853C531.051 24.1378 530.682 24.0483 530.322 24.0912C529.98 24.1325 529.635 24.2524 529.297 24.3298C529.059 24.3846 528.97 24.4218 528.829 24.6093C528.72 24.755 528.588 24.8712 528.473 25.0116C528.216 25.3271 528.365 25.8322 528.447 26.1917C528.516 26.4952 528.649 26.7979 528.666 27.1109C528.677 27.3384 528.56 27.5425 528.553 27.7654C528.544 28.0191 528.657 28.2611 528.667 28.5148C528.683 28.8303 528.649 29.1481 528.676 29.4634C528.71 29.8704 528.799 30.2738 528.888 30.673C528.947 30.9377 528.988 31.2107 529.077 31.4644C529.13 31.6154 529.189 31.763 529.245 31.9089C529.371 32.2325 529.42 32.569 529.505 32.9038C529.554 33.0969 529.664 33.2375 529.769 33.4007C529.871 33.5561 529.975 33.8174 530.165 33.8836C530.297 33.9303 530.504 33.8931 530.641 33.8886C530.82 33.8836 530.997 33.8682 531.176 33.8611C531.382 33.8522 531.585 33.818 531.785 33.8213Z" fill="#E2231A"/>
</mask>
<g mask="url(#mask2_1_16777)">
<rect x="521.473" y="17.9724" width="38" height="30" transform="rotate(-12.5151 521.473 17.9724)" fill="#5F0F0B"/>
</g>
<mask id="mask3_1_16777" style="mask-type:alpha" maskUnits="userSpaceOnUse" x="660" y="77" width="31" height="28">
<path d="M674.147 101.096C673.749 100.976 673.393 100.746 673.001 100.618C672.93 100.594 672.803 100.407 672.781 100.393C672.463 100.114 672.729 99.4095 672.86 99.1037C673.109 98.5325 673.366 97.9628 673.598 97.3775C673.721 97.0616 673.846 96.7418 674.016 96.4526C674.243 96.0659 674.587 95.8166 675.04 95.7476C675.228 95.7193 675.39 95.8026 675.557 95.8714C675.775 95.9599 676 96.0309 676.23 96.0855C676.498 96.1492 676.798 96.1692 677.047 96.2871C677.358 96.4337 677.705 96.5429 677.997 96.7229C678.355 96.9425 678.7 97.1041 679.111 97.2266C679.553 97.3577 680.006 97.4777 680.426 97.6709C680.586 97.7439 680.722 97.8411 680.895 97.8876C681.168 97.9605 681.448 98.0111 681.718 98.0985C682.034 98.1991 682.293 98.3952 682.597 98.5251C682.95 98.6758 683.277 98.8432 683.615 99.0223C683.854 99.1494 684.152 99.2587 684.311 99.4922C684.507 99.7833 684.354 100.222 684.271 100.528C684.209 100.783 684.066 101.009 684.012 101.279C683.975 101.475 683.94 101.675 683.932 101.872C683.914 102.221 683.835 102.542 683.689 102.855C683.617 103.014 683.537 103.175 683.513 103.349C683.48 103.593 683.167 103.872 682.974 103.997C682.745 104.143 682.611 104.107 682.342 104.035C681.624 103.844 680.975 103.465 680.277 103.217C679.854 103.069 679.409 103.043 678.981 102.924C678.822 102.879 678.692 102.865 678.551 102.782C678.334 102.657 678.113 102.555 677.876 102.473C677.281 102.26 676.717 101.939 676.116 101.755C675.902 101.689 675.681 101.641 675.466 101.579C675.248 101.516 675.06 101.417 674.847 101.34C674.613 101.256 674.379 101.172 674.147 101.096Z" fill="black"/>
<path d="M675.061 100.763C674.909 100.703 674.734 100.709 674.595 100.603C674.208 100.311 673.742 100.177 673.331 99.9435C673.31 99.9001 673.285 99.8618 673.277 99.8167C673.218 99.469 673.466 98.8514 673.651 98.5622C673.957 98.0892 674.187 97.579 674.372 97.0477C674.452 96.817 674.621 96.6816 674.842 96.6219C675.143 96.5384 675.443 96.5099 675.735 96.6462C675.836 96.6895 675.944 96.7239 676.052 96.7516C676.698 96.9473 677.359 97.1099 677.999 97.3487C678.034 97.3637 678.07 97.372 678.101 97.3806C678.445 97.4654 678.772 97.5824 679.051 97.8097C679.111 97.8583 679.183 97.8777 679.254 97.901C679.746 98.0424 680.219 98.2513 680.718 98.3771C681.026 98.4508 681.282 98.6984 681.624 98.6788C681.683 98.6762 681.721 98.7204 681.764 98.7549C681.966 98.9146 682.176 99.0691 682.41 99.1804C682.778 99.3539 683.173 99.4906 683.448 99.8197C683.455 99.8297 683.464 99.8338 683.474 99.838C683.612 99.9199 683.696 100.048 683.692 100.201C683.684 100.474 683.748 100.755 683.676 101.021C683.588 101.318 683.576 101.616 683.557 101.919C683.528 102.257 683.374 102.537 683.174 102.79C683.064 102.928 682.934 103.045 682.85 103.198C682.769 103.359 682.648 103.388 682.484 103.38C682.132 103.368 681.785 103.305 681.455 103.217C681.269 103.165 681.071 103.161 680.898 103.064C680.406 102.792 679.857 102.647 679.328 102.462C678.776 102.261 678.24 102.021 677.686 101.823C677.181 101.646 676.678 101.45 676.201 101.223C675.874 101.072 675.49 101.085 675.217 100.807C675.183 100.774 675.11 100.784 675.061 100.763Z" fill="#E2231A"/>
<path d="M688.837 90.9242C688.898 90.7592 688.939 90.583 688.99 90.3493C689.1 89.8615 689.32 89.4904 689.555 89.0768C690.042 88.218 690.918 86.081 689.831 85.3725C689.318 85.0378 688.613 84.9187 688.04 84.6739C687.292 84.3543 686.488 83.8794 685.693 83.6964C685.531 83.6501 685.424 83.6897 685.346 83.8016C685.084 84.1894 684.675 84.4227 684.482 84.8633C684.402 85.0456 684.364 85.2435 684.276 85.4225C684.171 85.6357 683.997 85.8103 683.905 86.0313C683.797 86.2893 683.668 86.5315 683.558 86.7886C683.276 87.4538 682.99 88.1174 682.706 88.7837C682.601 89.0292 682.485 89.2724 682.388 89.5212C682.314 89.7174 682.321 89.8955 682.262 90.0869C682.112 90.5734 681.698 90.9313 681.498 91.3989C681.373 91.6931 681.172 91.8931 681.017 92.17C680.701 92.7357 680.585 93.3796 680.316 93.9624C680.161 94.2925 679.985 94.6021 679.87 94.9516C679.724 95.3941 679.462 95.8693 679.922 96.2251C680.241 96.4718 680.691 96.4477 681.003 96.6986C681.307 96.9433 681.615 97.2134 682.008 97.3237C682.349 97.421 682.755 97.3824 683.075 97.5607C683.36 97.7192 683.641 98.1182 684.005 98.0574C684.476 97.9798 684.935 97.5214 685.158 97.117C685.385 96.7047 685.696 96.3235 685.925 95.9007C686.203 95.3904 686.59 95.0122 686.923 94.5462C687.139 94.2399 687.344 93.9381 687.503 93.5983C687.66 93.2623 687.731 92.8917 687.89 92.5566C688.075 92.1677 688.348 91.7546 688.584 91.4016C688.707 91.2234 688.78 91.0776 688.837 90.9242Z" fill="black"/>
<path d="M680.228 91.1162C680.229 91.1123 680.229 91.1075 680.232 91.1017C680.69 90.0121 681.929 87.7072 681.965 87.6329C682.145 87.2377 682.344 86.8527 682.474 86.4425C682.556 86.1851 682.631 85.9291 682.768 85.6997C682.803 85.6454 682.816 85.5772 682.841 85.5188C682.959 85.2421 683.012 84.9191 683.016 84.6189C683.021 84.3424 683.061 84.2004 683.195 83.9466C683.568 83.2351 683.779 82.6434 683.276 81.9446C682.913 81.4414 682.238 81.1876 681.679 80.979C681.231 80.8103 680.797 80.5468 680.339 80.411C679.256 80.0886 678.495 80.2775 677.911 81.2579C677.702 81.6064 677.625 82.0391 677.568 82.4365C677.503 82.8922 677.254 83.3295 677.073 83.7523C676.88 84.2043 676.684 84.5539 676.392 84.9473C675.764 85.7899 675.502 86.8345 675.048 87.7692C674.897 88.0781 674.689 88.344 674.554 88.6616C674.425 88.9616 674.3 89.2653 674.17 89.5645C673.915 90.1512 673.375 90.849 673.342 91.503C673.32 91.9523 673.104 92.3184 672.93 92.7209C672.851 92.906 672.823 93.1221 672.853 93.3196C672.88 93.4946 672.832 93.6285 672.96 93.7594C673.104 93.9083 673.364 93.964 673.55 94.0344C673.947 94.1853 674.326 94.3705 674.739 94.4663C675.017 94.5275 675.284 94.6415 675.555 94.7344C675.761 94.8038 675.973 94.8717 676.193 94.9079C676.499 94.9579 676.789 95.0886 677.101 95.1117C677.47 95.1494 677.743 94.9944 677.977 94.7165C678.196 94.4595 678.227 94.1226 678.412 93.8609C678.45 93.8149 678.465 93.7523 678.509 93.725C678.906 93.445 679.05 92.9722 679.372 92.633C679.425 92.5748 679.453 92.4829 679.474 92.4067C679.506 92.2662 679.589 92.1634 679.657 92.0426C679.841 91.7297 680.033 91.4221 680.228 91.1162Z" fill="black"/>
<path d="M674.747 93.772C674.934 93.8472 675.129 93.9143 675.331 93.9734C675.561 94.0413 675.765 94.1771 675.99 94.2595C676.223 94.3452 676.474 94.351 676.706 94.4387C676.807 94.4773 676.867 94.5487 676.984 94.555C677.184 94.5667 677.354 94.4274 677.488 94.296C677.802 93.9829 677.968 93.563 678.238 93.2202C678.552 92.8265 678.704 92.4216 678.875 91.9624C679.013 91.5905 679.337 91.236 679.563 90.9131C679.839 90.515 680.06 90.0679 680.374 89.6951C680.503 89.5383 680.518 89.3191 680.604 89.1393C680.781 88.8069 680.931 88.4562 681.072 88.1089C681.235 87.7176 681.391 87.3257 681.557 86.936C681.742 86.5149 681.876 86.0722 682.049 85.6508C682.165 85.378 682.246 85.097 682.3 84.809C682.331 84.6723 682.36 84.5349 682.41 84.4066C682.485 84.2198 682.515 84.0253 682.499 83.8365C682.481 83.5983 682.524 83.3632 682.476 83.126C682.447 82.9938 682.437 82.8559 682.467 82.7145C682.514 82.5389 682.435 82.4127 682.273 82.3322C681.89 82.1407 681.504 81.9388 681.116 81.757C680.744 81.5752 680.372 81.4001 680.027 81.172C679.983 81.1415 679.93 81.119 679.877 81.1079C679.723 81.065 679.587 80.9953 679.449 80.9134C679.181 80.7481 678.916 80.8124 678.774 81.0972C678.675 81.3015 678.56 81.5058 678.504 81.7284C678.401 81.7811 678.388 81.891 678.347 81.977C678.209 82.2634 678.204 82.5817 678.137 82.8828C678.129 82.9298 678.1 83.1593 678.068 83.2334C677.967 83.4711 677.838 83.6924 677.658 83.8853C677.321 84.2596 677.055 84.6922 676.872 85.1484C676.641 85.7156 676.318 86.2456 676.183 86.8536C676.152 86.9903 676.063 87.1066 675.98 87.2094C675.795 87.4416 675.677 87.7183 675.466 87.9274C675.403 87.9929 675.36 88.0828 675.328 88.1682C675.195 88.4913 675.007 88.7845 674.831 89.0893C674.778 89.1864 674.723 89.278 674.721 89.3996C674.717 89.4483 674.698 89.5092 674.669 89.5499C674.471 89.8503 674.356 90.1742 674.332 90.5278C674.309 90.8776 673.99 91.209 673.935 91.5701C673.901 91.7933 673.921 92.018 673.867 92.2415C673.785 92.5824 673.532 92.9763 673.829 93.23C674.106 93.4659 674.415 93.6372 674.747 93.772Z" fill="#E2231A"/>
<path d="M666.583 89.7339C666.461 89.4745 666.719 89.2853 666.834 89.0117C666.928 88.7869 666.855 88.6222 666.869 88.3841C666.899 87.8232 667.189 87.318 667.324 86.7812C667.53 85.9592 667.933 85.2649 668.346 84.5359C668.613 84.0765 668.827 83.5872 669.029 83.0929C669.076 82.9819 669.126 82.8764 669.198 82.7734C669.458 82.4076 669.736 82.0539 669.935 81.6509C669.968 81.5844 670.024 81.5345 670.067 81.4722C670.284 81.1962 670.504 80.9239 670.628 80.5966C670.82 80.0934 671.108 79.6405 671.356 79.1728C671.481 78.9385 671.605 78.7033 671.717 78.4631C671.79 78.3077 671.845 78.0111 671.962 77.8903C672.102 77.7452 672.53 77.7044 672.708 77.744C673.19 77.8508 673.696 77.9449 674.152 78.1397C674.518 78.2962 674.777 78.5474 675.132 78.7473C675.463 78.9325 675.802 79.2615 676.081 79.5144C676.384 79.7914 676.699 80.1266 676.839 80.5273C677.021 81.0499 676.595 81.7664 676.355 82.2165C676.217 82.4734 676.083 82.7387 675.98 83.0173C675.892 83.2608 675.775 83.4871 675.598 83.6809C675.513 83.7762 675.44 83.8831 675.397 84.01C675.333 84.2245 675.209 84.4133 675.091 84.5979C675.007 84.7282 674.921 84.8643 674.88 85.0148C674.784 85.3538 674.606 85.6558 674.459 85.9731C674.339 86.2261 674.271 86.4894 674.168 86.7452C673.996 87.1599 673.806 87.5671 673.612 87.9726C673.49 88.2201 673.374 88.4747 673.247 88.713C673.067 89.0323 672.867 89.3433 672.778 89.7084C672.767 89.7612 672.748 89.8155 672.71 89.8567C672.24 90.3471 672.258 91.1728 671.749 91.6304C671.428 91.9173 670.964 91.6243 670.645 91.5086C670.248 91.3644 669.825 91.3727 669.431 91.2368C669.291 91.1882 669.16 91.1049 669.019 91.0583C668.769 90.9746 668.476 91.0291 668.234 90.9279C668.003 90.8316 667.808 90.6401 667.577 90.5344C667.217 90.3689 666.861 90.1406 666.625 89.8073C666.607 89.7809 666.594 89.757 666.583 89.7339Z" fill="black"/>
<path d="M661.54 88.0363C660.995 87.8241 660.561 87.6062 660.449 86.9873C660.408 86.7553 660.488 86.5407 660.549 86.3178C660.585 86.1856 660.635 86.0668 660.658 85.9288C660.716 85.5646 660.8 85.2293 660.996 84.9052C661.074 84.7772 661.161 84.6533 661.207 84.5186C661.359 84.0994 661.535 83.6978 661.678 83.282C661.979 82.3879 662.47 81.602 662.973 80.8172C663.226 80.4138 663.469 80.0063 663.612 79.5488C663.645 79.4594 663.675 79.3751 663.749 79.308C664.074 79.0322 664.333 78.6959 664.546 78.3329C664.788 77.9292 665.084 77.8669 665.513 77.9418C665.83 77.9921 666.139 78.078 666.447 78.1753C667.279 78.4501 667.997 78.895 668.631 79.4816C668.797 79.633 668.88 79.8416 668.858 80.0556C668.791 80.5912 668.685 81.1196 668.493 81.6369C668.072 82.768 667.43 83.7746 666.819 84.8013C666.617 85.1323 666.395 85.4636 666.23 85.8124C666.103 86.0829 665.84 86.3255 665.777 86.6188C665.723 86.8812 665.669 87.1416 665.522 87.3783C665.359 87.6358 665.145 87.8716 664.942 88.0983C664.785 88.2729 664.575 88.4231 664.432 88.613C664.304 88.7839 664.278 88.9203 664.023 88.9013C663.757 88.8821 663.615 88.6533 663.399 88.5334C663.197 88.4193 663.002 88.4698 662.785 88.4278C662.351 88.3437 661.955 88.1975 661.54 88.0363Z" fill="black"/>
<path d="M681.428 96.4704C680.746 96.179 680.451 95.2627 680.732 94.6061C680.907 94.195 681.082 93.7973 681.296 93.4095C681.537 92.9756 681.887 92.6252 682.121 92.186C682.558 91.3615 682.834 90.4565 683.158 89.5809C683.467 88.7452 683.784 87.8832 684.331 87.1908C684.515 86.9605 684.559 86.7282 684.611 86.4602C684.64 86.318 684.668 86.1711 684.719 86.0133C684.954 85.2911 685.218 84.8254 685.504 84.6298C685.777 84.4445 686.116 84.4375 686.515 84.6081C686.763 84.7139 686.998 84.8697 687.204 85.0083C687.283 85.0605 687.356 85.1102 687.424 85.1508C687.597 85.2571 687.794 85.3459 687.983 85.4286C688.468 85.6454 689.02 85.8904 689.229 86.5234C689.364 86.9311 689.283 87.3526 689.213 87.7261C689.193 87.8307 689.173 87.9325 689.161 88.031L689.149 88.1134C689.109 88.4005 689.068 88.6963 688.921 88.9794C688.836 89.1411 688.726 89.2806 688.618 89.4142C688.269 89.8528 688.144 90.3957 687.925 90.9061C687.734 91.3542 687.501 91.7109 687.236 92.114C686.95 92.5536 686.718 93.0306 686.44 93.4763C686.205 93.853 685.977 94.2207 685.804 94.6307C685.671 94.9424 685.556 95.2758 685.373 95.5573C685.229 95.7814 685.051 95.9724 684.93 96.2065C684.595 96.8559 684.046 97.3748 683.292 97.0526C683.244 97.0318 683.045 96.9422 682.994 96.9205C682.932 96.8939 682.866 96.8684 682.802 96.8476C682.633 96.7941 682.461 96.755 682.278 96.7138C682.06 96.6642 681.835 96.6141 681.612 96.5353C681.544 96.5176 681.483 96.4937 681.428 96.4704Z" fill="#E2231A"/>
<path d="M667.724 89.5661C667.788 89.7939 667.915 89.9429 668.147 90.0904C668.449 90.284 668.747 90.4825 669.12 90.5058C669.257 90.5137 669.38 90.5205 669.511 90.5602C669.734 90.6303 669.903 90.7531 670.134 90.7896C670.484 90.8446 670.808 90.8631 671.164 90.8171C671.256 90.8059 671.315 90.7435 671.335 90.6598C671.382 90.4728 671.486 90.3327 671.609 90.1963C671.772 90.0194 671.866 89.7879 671.963 89.5713C672.104 89.2696 672.318 89.0223 672.502 88.7484C672.708 88.4332 672.892 88.1042 672.999 87.7419C673.061 87.5037 673.201 87.3055 673.298 87.0889C673.499 86.6564 673.612 86.1883 673.847 85.766C674.019 85.4662 674.143 85.1389 674.289 84.8236C674.351 84.6889 674.427 84.5667 674.524 84.4517C674.637 84.3272 674.7 84.1697 674.758 84.0171C674.835 83.8265 674.938 83.6514 675.045 83.4855C675.148 83.3218 675.23 83.1565 675.293 82.9714C675.365 82.7373 675.508 82.5219 675.642 82.3211C675.83 82.0489 675.907 81.6902 675.971 81.3721C676.017 81.1473 676.113 80.852 675.981 80.6482C675.848 80.4417 675.656 80.2558 675.521 80.037C675.313 79.7039 675.105 79.5389 674.758 79.3537C674.431 79.1796 674.062 79.0404 673.707 78.9439C673.334 78.842 672.918 78.6713 672.523 78.7121C672.294 78.7363 672.243 78.8551 672.102 79.0344C671.777 79.444 671.362 79.746 671.229 80.2903C671.184 80.4715 671.12 80.6585 671.001 80.8127C670.913 80.8788 670.899 80.9878 670.857 81.0738C670.767 81.2473 670.645 81.4026 670.536 81.5563C670.091 82.0851 669.693 82.6452 669.397 83.2723C669.329 83.4207 669.263 83.5766 669.202 83.7302C669.12 83.9487 669.031 84.1571 668.881 84.3398C668.851 84.3729 668.823 84.4116 668.806 84.4506C668.619 84.9629 668.264 85.3848 668.056 85.8833C667.913 86.2184 667.836 86.5657 667.743 86.911C667.599 87.4484 667.431 88.1532 667.543 88.7009C667.586 88.9175 667.664 89.1141 667.686 89.3358C667.693 89.4237 667.705 89.498 667.724 89.5661Z" fill="#E2231A"/>
<path d="M662.622 87.7253C662.703 87.7831 662.829 87.7907 662.936 87.7767C663.026 87.7599 663.118 87.7715 663.202 87.8073C663.231 87.8198 663.27 87.8412 663.301 87.8383C663.673 87.7392 664.074 87.7446 664.4 87.5039C664.458 87.4615 664.484 87.4106 664.514 87.3566C664.606 87.2068 664.782 87.1346 664.877 87.0026C665.072 86.7403 665.251 86.4686 665.382 86.1608C665.546 85.777 665.729 85.3873 666 85.0654C666.266 84.7552 666.448 84.395 666.636 84.0468C666.73 83.8637 666.85 83.6913 666.952 83.5162C667.249 82.9773 667.608 82.4765 667.819 81.8915C668.01 81.3808 668.118 80.8626 668.212 80.3312C668.263 80.0396 668.099 79.8358 667.928 79.6733C667.669 79.4287 667.421 79.1408 667.104 78.9661C666.802 78.8001 666.452 78.6967 666.132 78.5621C665.907 78.4683 665.812 78.4465 665.589 78.5168C665.415 78.5718 665.24 78.589 665.065 78.6364C664.672 78.7426 664.499 79.2399 664.356 79.5797C664.235 79.867 664.166 80.19 663.998 80.4545C663.875 80.646 663.66 80.7434 663.525 80.9204C663.37 81.1215 663.32 81.3836 663.181 81.596C663.01 81.8616 662.797 82.1002 662.635 82.3719C662.425 82.7224 662.263 83.1023 662.102 83.4783C661.996 83.7277 661.87 83.9735 661.794 84.2315C661.749 84.3851 661.711 84.5392 661.672 84.6906C661.586 85.0271 661.429 85.3288 661.303 85.6505C661.231 85.8362 661.238 86.0142 661.228 86.2084C661.221 86.394 661.152 86.6667 661.269 86.8315C661.349 86.9463 661.538 87.0365 661.653 87.1132C661.801 87.2135 661.954 87.304 662.103 87.4023C662.276 87.5153 662.461 87.6058 662.622 87.7253Z" fill="#E2231A"/>
</mask>
<g mask="url(#mask3_1_16777)">
<rect x="663.479" y="68.8345" width="38" height="30" transform="rotate(23.1369 663.479 68.8345)" fill="#5F0F0B"/>
</g>
</svg>
