<svg width="40" height="25" viewBox="0 0 40 25" fill="none" xmlns="http://www.w3.org/2000/svg">
<g clip-path="url(#clip0_1_601)">
<path d="M14.5781 2.64062H25.3814V22.0523H14.5781V2.64062Z" fill="#FF5F00"/>
<path d="M15.2648 12.3467C15.2648 8.40265 17.1168 4.90436 19.9633 2.64075C17.8714 0.994558 15.2306 0 12.3498 0C5.52455 0 0.00292969 5.52162 0.00292969 12.3467C0.00292969 19.1716 5.52455 24.6933 12.3496 24.6933C15.2305 24.6933 17.8712 23.6988 19.9633 22.0524C17.1168 19.8232 15.2648 16.2907 15.2648 12.3467Z" fill="#EB001B"/>
<path d="M39.9574 12.3467C39.9574 19.1716 34.4358 24.6933 27.6108 24.6933C24.7299 24.6933 22.0891 23.6988 19.9971 22.0524C22.8779 19.789 24.6957 16.2907 24.6957 12.3467C24.6957 8.40265 22.8436 4.90436 19.9971 2.64075C22.089 0.994558 24.7299 0 27.6108 0C34.4358 0 39.9574 5.55599 39.9574 12.3467Z" fill="#F79E1B"/>
</g>
<defs>
<clipPath id="clip0_1_601">
<rect width="40" height="25" fill="white"/>
</clipPath>
</defs>
</svg>
