<svg width="50" height="23" viewBox="0 0 50 23" fill="none" xmlns="http://www.w3.org/2000/svg">
<path d="M18.9833 4.21231L12.4375 19.829H8.16667L4.94583 7.36439C4.75 6.59772 4.58125 6.31647 3.98542 5.99355C3.01458 5.46647 1.41042 4.97272 0 4.66439L0.0958333 4.21231H6.97083C7.4201 4.21186 7.85473 4.37202 8.19627 4.6639C8.53781 4.95577 8.76376 5.36013 8.83333 5.80397L10.5354 14.8415L14.7396 4.21231H18.9833ZM35.7187 14.7311C35.7354 10.6081 30.0187 10.3811 30.0583 8.53939C30.0708 7.97897 30.6042 7.38314 31.7708 7.23106C33.1381 7.1012 34.5151 7.34305 35.7562 7.93106L36.4646 4.61856C35.2562 4.16427 33.9764 3.92934 32.6854 3.9248C28.6917 3.9248 25.8812 6.0498 25.8562 9.08939C25.8312 11.3373 27.8625 12.5894 29.3937 13.3394C30.9687 14.104 31.4979 14.5956 31.4896 15.279C31.4792 16.329 30.2354 16.7894 29.0729 16.8081C27.0417 16.8394 25.8646 16.2602 24.9229 15.8227L24.1917 19.2436C25.1354 19.6769 26.8771 20.0561 28.6833 20.0727C32.9271 20.0727 35.7042 17.9769 35.7187 14.7311ZM46.2625 19.829H50L46.7396 4.21231H43.2896C42.921 4.20889 42.5598 4.3163 42.253 4.52061C41.9461 4.72493 41.7078 5.01671 41.5687 5.35814L35.5083 19.829H39.75L40.5937 17.4956H45.7771L46.2625 19.829ZM41.7562 14.2956L43.8812 8.43105L45.1062 14.2956H41.7562ZM24.7562 4.21231L21.4167 19.829H17.375L20.7187 4.21231H24.7562Z" fill="white"/>
</svg>
