<svg width="44" height="43" viewBox="0 0 44 43" fill="none" xmlns="http://www.w3.org/2000/svg">
<path d="M2.31484 22.2138C1.92736 20.84 2.05246 19.3158 2.05246 17.8962C2.05246 16.9147 2.05246 15.9333 2.05246 14.9518C2.05246 14.2122 1.99508 13.4488 2.10786 12.7158C2.21086 12.0462 2.36409 11.3925 2.44603 10.7188C2.52707 10.0525 2.50843 9.34108 2.688 8.69265C2.85941 8.07367 3.07503 7.45578 3.34102 6.8706C3.81879 5.81951 5.00784 5.03512 5.99686 4.52962C7.40244 3.81121 9.07906 3.09133 10.6642 2.92621C11.7001 2.81831 12.7461 2.82908 13.7836 2.7338C15.1366 2.60954 16.4675 2.3253 17.8184 2.19155C19.9096 1.9845 22.0516 1.92447 24.1445 2.11576C26.4204 2.32376 28.716 1.99916 30.9897 2.12742C32.3201 2.20247 33.6121 2.80611 34.7941 3.37808C35.871 3.89915 36.905 4.48615 37.7531 5.33424C38.8275 6.40865 39.7817 7.5656 40.2282 9.05415C40.5761 10.2139 40.5987 11.4528 40.7792 12.6458C40.9806 13.9771 41.2377 15.3104 41.3827 16.6485C41.6379 19.0047 41.5663 21.3678 41.5663 23.7356C41.5663 25.5294 41.4467 27.346 41.1873 29.123C40.9398 30.819 40.4865 32.4755 40.0154 34.1198C39.5298 35.8148 38.6577 37.6743 37.3158 38.8484" stroke="black" stroke-width="3" stroke-linecap="round"/>
<path d="M2 19.8525C2.01799 22.4249 2.16914 24.9689 2.51309 27.5139C2.70501 28.934 2.46407 30.3755 3.09906 31.709C3.41447 32.3714 3.66946 33.0545 3.95324 33.7293C4.34945 34.6714 5.06362 35.4662 5.74906 36.2073C6.54428 37.0672 7.26844 38.0052 8.23581 38.6824C9.02265 39.2332 9.76686 40.0052 10.6584 40.3674C11.5434 40.727 12.6025 40.8872 13.5504 40.9359C14.862 41.0034 16.1758 41.0001 17.4889 41.0001C20.5108 41.0001 23.5309 40.9667 26.5526 40.9476C27.5456 40.9413 28.448 40.6496 29.4183 40.5016C30.5411 40.3303 31.6763 40.1549 32.7884 39.9243C33.9639 39.6806 35.1312 39.1677 36.2605 38.7611C36.8971 38.5319 37.5289 38.2272 37.9514 37.6825C38.6474 36.785 39.1878 35.749 39.7297 34.7555" stroke="black" stroke-width="3" stroke-linecap="round"/>
<path d="M7.87728 10.8262C7.94159 10.1026 8.34647 9.69861 8.86847 9.19652C9.43175 8.65473 10.0491 8.16012 10.7926 7.89339C12.1824 7.39473 13.7332 7.16214 15.1947 7.00714C16.8404 6.83259 18.4912 6.78882 20.1448 6.78558C21.9009 6.78213 23.6658 6.75205 25.4157 6.92259C26.5168 7.02991 27.6465 7.18054 28.6691 7.62518C28.9196 7.73409 29.8401 8.19019 29.2464 8.54641C28.489 9.00081 27.2189 8.9482 26.3777 8.91374C24.6606 8.8434 23.029 8.30513 21.413 7.7622C18.7142 6.85548 15.9654 6.13984 13.0986 6.10631C11.5433 6.08812 9.15388 5.988 8.02304 7.3045C7.3322 8.10876 6.99006 9.06722 6.83069 10.1032C6.69826 10.964 6.67031 11.843 6.58872 12.7094C6.44995 14.183 6.31338 15.6587 6.37881 17.1407C6.41544 17.9702 6.42395 19.0873 7.03767 19.7411C7.69616 20.4427 7.89708 18.5818 7.93558 18.3068C8.14259 16.8282 8.2371 15.122 7.71985 13.6948C7.52089 13.1458 6.68154 11.4407 5.86281 12.2488C5.48686 12.6199 5.3664 13.2318 5.27684 13.724C5.0857 14.7743 5.02029 15.8591 5.02029 16.925C5.02029 19.5719 5.63163 22.2018 6.79862 24.5805C7.06199 25.1174 7.85679 26.6344 8.74603 26.2656C9.17685 26.0869 9.26101 25.4318 9.32034 25.0586C9.49237 23.9766 9.44093 22.8727 9.17458 21.811C8.94218 20.8846 8.57157 19.9951 8.17463 19.1289C7.83404 18.3857 7.48131 17.5761 6.97062 16.9279C6.25416 16.0185 5.94025 17.4397 5.87447 17.9745C5.59959 20.209 5.80114 22.5338 6.27095 24.7263C6.52183 25.8971 6.84405 27.0529 7.20093 28.1955C7.57202 29.3836 7.91655 30.7456 8.62359 31.7929C9.04502 32.4172 10.0558 32.9335 10.4194 31.9445C11.0832 30.1391 9.90637 28.0396 8.74603 26.7349C8.13324 26.0459 7.41372 25.382 6.61787 24.907C6.25062 24.6879 5.72017 24.426 5.31473 24.7204C4.93429 24.9968 4.86016 25.5874 4.86286 26.0148C4.8722 27.4901 5.48195 29.0003 6.05813 30.3295C6.85493 32.1675 7.97843 33.8925 9.4632 35.2505C10.1259 35.8566 10.856 36.4031 11.6759 36.7781C12.0338 36.9418 12.5981 37.1764 13.014 37.0346C13.9838 36.7042 12.9103 35.088 12.6059 34.7024C12.1601 34.1377 11.5944 33.6813 10.9908 33.2972C10.3366 32.8809 9.4729 32.3301 8.67898 32.2419C7.85499 32.1504 7.98539 33.515 8.1105 33.959C8.60847 35.7263 10.5294 37.0683 12.052 37.9092C13.1778 38.531 14.4071 38.8848 15.6844 39.0112C16.5841 39.1002 17.8429 39.155 18.4306 38.3174C19.0557 37.4265 19.1416 36.1157 18.623 35.1659C18.3759 34.7133 17.3614 33.3869 16.6815 33.8366C16.031 34.2667 16.794 35.6995 17.0867 36.0843C17.9411 37.2072 19.6072 38.4978 21.1302 38.1658C22.3512 37.8996 23.1767 36.4718 23.34 35.3205C23.5023 34.1758 23.0526 32.6074 22.0485 31.93C21.2677 31.4032 22.0469 33.2642 22.1126 33.3818C22.7557 34.5326 23.9507 36.3285 25.4332 36.4166C26.6578 36.4894 27.1345 35.1479 27.2931 34.1543C27.4813 32.9756 27.1225 31.6955 26.3194 30.8017C25.5404 29.9348 25.837 31.3961 25.9696 31.7696C26.4024 32.989 27.4405 34.4777 28.7566 34.8482C29.8186 35.1471 30.2129 33.9192 30.3892 33.1311C30.6346 32.0335 30.7111 30.399 29.742 29.5715C29.4379 29.3119 29.386 29.8225 29.3776 29.9855C29.3443 30.6289 29.5095 31.2836 29.7361 31.8804C30.2222 33.1606 31.3516 35.0588 32.9342 35.0989C34.202 35.131 34.6598 33.3956 34.8233 32.4431C34.9993 31.4176 35.0443 30.3519 34.9545 29.3149C34.8896 28.565 34.7396 27.6035 34.2548 26.9827C34.0241 26.6872 33.9466 27.0773 33.9254 27.248C33.8568 27.8013 33.9243 28.3824 34.0391 28.9243C34.1882 29.6282 34.4339 30.3139 34.7242 30.9708C35.0114 31.6209 35.3556 32.3297 35.9719 32.7317C36.8191 33.2842 37.1828 32.3593 37.3275 31.6559C37.6265 30.2028 37.7403 28.3677 37.2109 26.9477C36.8333 25.9348 36.8059 27.4107 36.8261 27.6999C36.8682 28.2998 36.9613 28.8961 37.0856 29.484C37.198 30.0162 37.3056 30.6718 37.6278 31.1283C37.8099 31.3862 37.9216 31.2158 37.9747 30.9708C38.0949 30.417 38.0861 29.8196 38.0972 29.2566C38.1204 28.0777 38.0523 26.8991 37.9718 25.7233C37.8629 24.1311 37.5709 22.5528 37.5783 20.9539C37.5846 19.5754 37.841 18.211 37.6774 16.8317C37.5825 16.0319 37.2052 15.3884 36.8844 14.6685C36.5125 13.8337 36.5291 12.9825 36.348 12.1031C36.1455 11.1194 36.0458 9.91336 35.5842 9.01577C35.4485 8.75192 35.3871 8.49978 35.3772 8.20241C35.3683 7.93558 35.4197 7.64587 35.1936 7.45609C34.5418 6.90908 33.6123 6.71741 32.8088 6.52611C31.7785 6.2808 30.7188 6.18182 29.6837 5.94597C28.5451 5.68654 27.4108 5.68359 26.2494 5.68359C23.9035 5.68359 21.4664 6.47133 19.2644 7.2287C18.3592 7.54006 17.4062 7.71587 16.5998 8.26654C15.4638 9.04237 14.5735 10.2103 13.7283 11.2751C12.3428 13.0204 11.3399 14.939 11.4922 17.2398C11.5441 18.0223 12.0336 18.0827 12.4893 17.4847C12.9921 16.8248 13.3474 16.0257 13.702 15.2837C14.2236 14.1922 14.7552 13.0742 15.081 11.9048C15.1472 11.6669 15.3855 10.9949 15.113 10.7562C14.8341 10.5119 14.3304 10.8696 14.1393 11.0244C13.5262 11.5212 13.1041 12.2568 12.7341 12.9368C12.1315 14.0445 11.566 15.2195 11.2357 16.441C10.8216 17.9724 10.6527 19.6468 10.6235 21.2279C10.5952 22.7554 10.7828 24.1994 11.4398 25.5892C11.8002 26.3517 12.3409 27.2658 13.1889 27.5833C14.0478 27.9048 14.8566 27.3489 15.3579 26.697C15.9956 25.8679 16.4029 24.8378 16.7573 23.8663C17.2416 22.5385 17.6067 21.1674 17.7951 19.7645C17.982 18.3728 18.0774 16.8925 17.7951 15.5052C17.7312 15.1911 17.2442 13.4403 16.524 13.9514C15.8379 14.4383 15.5608 15.8283 15.3812 16.546C14.9845 18.1312 14.812 19.768 14.6991 21.3941C14.5704 23.2454 14.5109 25.1236 14.6466 26.9769C14.7839 28.8516 15.0538 31.148 16.1975 32.7258C16.6507 33.351 17.2541 33.5298 17.8592 33.0261C18.677 32.3454 19.0098 31.1219 19.2411 30.1429C19.7665 27.9188 19.9551 25.6015 20.0836 23.3269C20.2138 21.0233 20.2301 18.7173 20.0165 16.4177C19.8891 15.0458 19.7672 13.4571 19.2848 12.1439C19.0826 11.5935 18.8647 11.9709 18.763 12.313C18.4744 13.2831 18.4551 14.3932 18.4219 15.3886C18.3253 18.2796 18.3966 21.2184 18.8067 24.0849C19.0186 25.5659 19.3503 27.0695 19.9699 28.4404C20.189 28.9251 20.6824 30.0366 21.3634 30.0933C22.086 30.1536 22.4901 28.9793 22.652 28.5045C23.2528 26.7426 23.3295 24.765 23.4158 22.9246C23.5773 19.4772 23.5455 16.0078 23.4741 12.5579C23.4713 12.4257 23.4682 12.2935 23.4624 12.1614C23.4534 11.9539 23.447 11.9893 23.4333 12.1876C23.3263 13.7308 23.3825 15.304 23.4391 16.8462C23.5163 18.9502 23.6627 21.0517 23.9813 23.1345C24.2138 24.6536 24.496 26.232 25.0658 27.6678C25.2977 28.252 25.7829 29.4211 26.5585 29.554C27.2396 29.6707 27.5054 28.5696 27.6109 28.1751C27.9473 26.9166 28.0619 25.5723 28.1386 24.2773C28.259 22.242 28.2229 20.1977 28.0948 18.164C27.9834 16.3954 27.8113 14.6221 27.4214 12.8902C27.2917 12.3143 26.8262 10.7768 26.5993 11.3218C26.2401 12.1845 26.2986 13.4037 26.3252 14.2954C26.3769 16.0254 26.6374 17.7467 26.9958 19.4379C27.3374 21.0502 27.7527 22.6874 28.3864 24.2132C28.6153 24.7646 29.4289 26.8636 30.3979 26.6329C30.9289 26.5064 31.0915 25.519 31.1588 25.1228C31.3941 23.7379 31.3305 22.2776 31.2754 20.8839C31.1387 17.4267 30.5564 14.0644 29.911 10.6746C29.8549 10.3795 29.7537 9.49581 29.7186 9.79416C29.6639 10.2591 29.7791 10.8853 29.8527 11.3276C30.0731 12.6518 30.4679 13.9337 30.9168 15.1962C31.4592 16.7214 32.0749 18.252 32.9138 19.642C33.0986 19.9482 34.1727 21.7091 34.5697 20.6653C34.8493 19.93 34.8408 19.0055 34.8554 18.2368C34.8846 16.6953 34.7029 15.1781 34.4181 13.6657C34.2321 12.6782 34.0036 11.6985 33.7709 10.7212C33.7117 10.4725 33.4991 9.90921 33.5085 9.60758C33.5156 9.38166 33.7251 10.0046 33.8234 10.2081C34.3572 11.3145 34.8316 12.4569 35.179 13.6365C35.7012 15.41 35.8515 17.2883 35.7183 19.1289C35.6493 20.0821 35.5392 21.1298 34.7446 21.741" stroke="black" stroke-width="6" stroke-linecap="round"/>
<path d="M23.8298 11.2988C23.1041 12.675 23.023 14.2408 22.8765 15.7709C22.6435 18.2023 22.4448 20.7246 22.7803 23.1582C23.0614 25.1976 23.8858 26.8262 25.2932 28.3066C26.7658 29.8555 28.802 30.9978 29.9694 32.8137" stroke="black" stroke-width="6" stroke-linecap="round"/>
<path d="M25.1941 30.7148C25.6679 32.4643 26.9721 34.0425 28.1327 35.3997C28.5701 35.9112 29.107 36.308 29.7011 36.6212C30.1385 36.8518 31.3069 37.4496 31.806 37.1168" stroke="black" stroke-width="6" stroke-linecap="round"/>
<path d="M21.2585 6.20914C22.8682 5.61254 24.4973 5.29667 26.1912 5.05469" stroke="black" stroke-width="6" stroke-linecap="round"/>
<path d="M23.5674 39.0592C25.4582 38.5349 27.2751 37.7243 29.0423 36.8786C29.5506 36.6353 30.0017 36.4031 30.3892 36.0156" stroke="black" stroke-width="6" stroke-linecap="round"/>
<path d="M36.6863 29.6123C36.4268 31.5466 35.4684 32.9451 34.2725 34.44" stroke="black" stroke-width="6" stroke-linecap="round"/>
<path d="M36.2663 32.3408C35.4449 33.4648 34.4524 34.2415 33.4326 35.1745" stroke="black" stroke-width="6" stroke-linecap="round"/>
<path d="M30.5972 8.93066C29.0129 11.8914 27.1587 14.697 25.3132 17.4986M20.3503 24.6961C18.6652 27.3723 17.523 30.4271 15.5972 32.9307" stroke="white" stroke-width="6" stroke-linecap="round"/>
<path d="M9.09033 9.51367C9.59222 9.68933 10.0008 10.1831 10.3619 10.5322C11.7024 11.8279 13.0244 13.148 14.2601 14.5445C15.8143 16.301 17.4005 18.0287 18.9514 19.7884C21.482 22.6596 24.3492 25.1975 27.1027 27.847C28.0061 28.7163 28.9137 29.5811 29.8126 30.455C30.4827 31.1066 31.2781 31.6377 32.0379 32.1803C32.4283 32.4592 32.7805 32.7504 33.115 33.0939C33.1579 33.138 33.4443 33.5446 33.3126 33.347" stroke="white" stroke-width="3" stroke-linecap="round"/>
<path d="M9.47925 9.12489C9.47925 8.76614 9.91093 8.44256 10.1212 8.20822C10.3783 7.92183 10.6245 7.55838 10.9792 7.39032C11.1571 7.30608 11.3006 7.1289 11.4792 7.06934" stroke="white" stroke-width="3" stroke-linecap="round"/>
<path d="M12.5 7C13.6667 8.41032 14.4523 9.14174 15.7622 10.415C16.5642 11.1945 17.2985 12.0235 18.0616 12.8393C19.2971 14.1599 20.4381 15.5431 21.7385 16.8057C22.2844 17.3358 22.923 17.7614 23.4471 18.3132C23.894 18.7837 24.2768 19.3075 24.7372 19.7666C25.5002 20.5274 26.2606 21.2771 27.0062 22.0543C27.8034 22.8852 28.753 23.6078 29.6331 24.3511C30.4727 25.0602 31.4101 25.6302 32.1855 26.4237C32.8096 27.0624 33.5907 27.54 34.1708 28.2162C34.698 28.8308 35.1665 29.4749 35.7922 29.9932" stroke="white" stroke-width="3" stroke-linecap="round"/>
<path d="M35.9791 29.8477C35.8522 30.7632 35.3999 32.1103 34.4236 32.4032" stroke="white" stroke-width="3" stroke-linecap="round"/>
</svg>
