<svg xmlns="http://www.w3.org/2000/svg" width="171" height="169" viewBox="0 0 171 169" version="1.1"><path d="M 40.400 24.826 C 35.165 28.620, 30.667 34.700, 30.667 37.982 C 30.667 40.035, 32.604 42.509, 38.966 48.580 C 45.712 55.018, 64.669 75.484, 73.348 85.699 C 75.164 87.836, 75.143 87.940, 72.192 91.687 C 70.540 93.784, 66.181 101.125, 62.505 108 C 58.830 114.875, 55.204 121.191, 54.449 122.037 C 47.320 130.016, 50.609 141.710, 60.504 143.567 C 68.298 145.029, 72.982 139.942, 85.143 116.807 C 88.556 110.313, 91.715 105, 92.162 105 C 92.609 105, 98.508 110.287, 105.270 116.750 C 112.032 123.213, 120.903 131.089, 124.985 134.253 C 132.835 140.339, 134.836 140.743, 138.160 136.913 C 139.073 135.861, 140.264 135, 140.807 135 C 142.729 135, 147.932 127.966, 149.033 123.879 C 150.178 119.627, 149.669 115, 148.058 115 C 147.560 115, 144.078 111.963, 140.319 108.250 C 136.561 104.537, 129.214 98.055, 123.993 93.845 C 118.772 89.634, 113.237 84.859, 111.694 83.232 L 108.888 80.274 117.301 67.387 C 135.208 39.954, 137.191 33.991, 130.600 27.400 C 127.749 24.549, 126.480 24, 122.735 24 C 116.624 24, 114.173 26.200, 107.364 37.800 C 104.232 43.135, 99.336 50.995, 96.485 55.266 L 91.301 63.032 80.274 51.266 C 54.926 24.219, 52.494 22, 48.202 22 C 45.507 22, 43.094 22.874, 40.400 24.826 M 45.534 35.945 C 45.213 36.465, 47.820 39.803, 51.329 43.364 C 54.837 46.924, 64.521 57.455, 72.849 66.766 C 88.136 83.858, 123.284 118.143, 130.299 122.805 C 133.727 125.084, 134.249 125.180, 135.645 123.783 C 137.042 122.387, 136.665 121.708, 131.779 116.823 C 128.802 113.845, 122.015 107.910, 116.697 103.632 C 111.378 99.355, 93.660 82.163, 77.323 65.428 C 60.986 48.692, 47.281 35, 46.869 35 C 46.456 35, 45.855 35.425, 45.534 35.945" stroke="none" fill="#f7f7f7" fill-rule="evenodd"/><path d="M 62 3.528 C 57.325 4.241, 51.007 4.864, 47.960 4.913 C 40.220 5.035, 31.877 7.346, 22.358 12.005 C 8.994 18.545, 5.275 24.791, 3.006 44.500 C 1.624 56.500, 2.120 99.130, 3.834 115.666 C 5.670 133.389, 14.325 148.129, 30.410 160.928 C 40.898 169.274, 39.225 169, 79.718 168.997 C 117.748 168.993, 126.639 168.217, 139.500 163.778 C 142.800 162.639, 146.729 161.779, 148.231 161.868 C 151.975 162.089, 157.885 156.570, 161.830 149.168 C 163.550 145.940, 166.317 138.027, 167.979 131.582 L 171 119.865 170.971 89.182 C 170.947 64.350, 170.585 56.169, 169.071 46.274 C 166.770 31.223, 164.592 26.474, 156.064 17.904 C 149.142 10.947, 138.896 5.121, 130 3.081 C 123.511 1.593, 72.481 1.929, 62 3.528 M 40.400 24.826 C 35.165 28.620, 30.667 34.700, 30.667 37.982 C 30.667 40.035, 32.604 42.509, 38.966 48.580 C 45.712 55.018, 64.669 75.484, 73.348 85.699 C 75.164 87.836, 75.143 87.940, 72.192 91.687 C 70.540 93.784, 66.181 101.125, 62.505 108 C 58.830 114.875, 55.204 121.191, 54.449 122.037 C 47.320 130.016, 50.609 141.710, 60.504 143.567 C 68.298 145.029, 72.982 139.942, 85.143 116.807 C 88.556 110.313, 91.715 105, 92.162 105 C 92.609 105, 98.508 110.287, 105.270 116.750 C 112.032 123.213, 120.903 131.089, 124.985 134.253 C 132.835 140.339, 134.836 140.743, 138.160 136.913 C 139.073 135.861, 140.264 135, 140.807 135 C 142.729 135, 147.932 127.966, 149.033 123.879 C 150.178 119.627, 149.669 115, 148.058 115 C 147.560 115, 144.078 111.963, 140.319 108.250 C 136.561 104.537, 129.214 98.055, 123.993 93.845 C 118.772 89.634, 113.237 84.859, 111.694 83.232 L 108.888 80.274 117.301 67.387 C 135.208 39.954, 137.191 33.991, 130.600 27.400 C 127.749 24.549, 126.480 24, 122.735 24 C 116.624 24, 114.173 26.200, 107.364 37.800 C 104.232 43.135, 99.336 50.995, 96.485 55.266 L 91.301 63.032 80.274 51.266 C 54.926 24.219, 52.494 22, 48.202 22 C 45.507 22, 43.094 22.874, 40.400 24.826 M 45.534 35.945 C 45.213 36.465, 47.820 39.803, 51.329 43.364 C 54.837 46.924, 64.521 57.455, 72.849 66.766 C 88.136 83.858, 123.284 118.143, 130.299 122.805 C 133.727 125.084, 134.249 125.180, 135.645 123.783 C 137.042 122.387, 136.665 121.708, 131.779 116.823 C 128.802 113.845, 122.015 107.910, 116.697 103.632 C 111.378 99.355, 93.660 82.163, 77.323 65.428 C 60.986 48.692, 47.281 35, 46.869 35 C 46.456 35, 45.855 35.425, 45.534 35.945 M 145.872 146.750 C 144.629 148.336, 144.664 148.371, 146.250 147.128 C 147.916 145.821, 148.445 145, 147.622 145 C 147.415 145, 146.627 145.787, 145.872 146.750" stroke="none" fill="#040404" fill-rule="evenodd"/></svg>