<svg width="38" height="43" viewBox="0 0 38 43" fill="none" xmlns="http://www.w3.org/2000/svg">
<path d="M2.55551 9.77781C1.12079 17.6035 1.35936 25.2811 3.34566 33.0371C4.28088 36.6888 5.84545 40.0599 10.0864 39.4074C17.718 38.2333 16.6672 21.8458 15.5432 16.7655C14.9447 14.0605 11.1103 2.56019 6.20986 5.82718C1.09394 9.2378 1.75183 20.1088 2.55551 25.3333" stroke="#E1251B" stroke-width="3" stroke-linecap="round"/>
<path d="M22.9998 8.66653C22.639 10.1545 22.6086 11.3832 22.6788 12.9628C22.9762 19.6545 23.4983 26.5244 24.7529 33.111C25.2954 35.9594 27.2739 39.8595 30.4072 40.6665C38.2574 42.6885 36.2531 23.3354 35.4442 19.5801C34.339 14.449 34.2711 3.35204 26.9751 2.49368C20.4891 1.73063 22.1109 13.5887 22.1109 17.5554" stroke="#E1251B" stroke-width="3" stroke-linecap="round"/>
<path d="M29.6665 22.8891C29.009 26.7604 29.0918 30.3022 30.6047 34.0002C31.4 35.9443 32.4789 36.0315 33.1726 34.099C34.4684 30.4892 33.8934 23.4473 30.1849 21.4076C28.4004 20.4261 29.2346 28.6729 29.4195 29.8027C30.1051 33.9927 33.5359 34.3688 33.6664 29.8027C33.6838 29.1925 33.1389 19.6633 30.4318 22.3706C29.1943 23.6082 29.9116 31.1953 31.8886 31.9014C33.148 32.3512 32.9843 24.9743 32.2343 24.0743C31.4335 23.1133 30.5553 32.3234 30.5553 33.5558" stroke="#E1251B" stroke-width="3" stroke-linecap="round"/>
<path d="M9.6667 22.0002C8.621 27.0107 8.68899 33.9815 12.2098 38.1731C14.0292 40.339 15.1355 35.2986 15.2469 34.4447C15.613 31.6377 15.4059 28.4256 14.2098 25.8274C13.9171 25.1915 11.7242 21.1765 10.5555 21.6546C8.74606 22.3948 10.1052 34.8055 11 36.2718C12.0502 37.993 13.8011 35.9217 14.2592 34.9138C15.5139 32.1535 15.6291 28.5176 15.2469 25.5558C15.1868 25.09 13.3443 19.0026 11.9876 21.4076C10.5065 24.0333 10.7861 29.2347 11.0987 32.1731C11.2006 33.1304 12.0368 34.741 13.1975 34.741C14.9053 34.741 14.8558 29.8831 14.9012 28.9632C15.0241 26.4743 14.949 23.5061 13.642 21.2842C12.123 18.702 11.5968 23.2895 11.5432 24.0743C11.3399 27.0495 10.0411 34.6145 12.7777 36.6669" stroke="#E1251B" stroke-width="3" stroke-linecap="round"/>
</svg>
