<svg width="49" height="37" viewBox="0 0 49 37" fill="none" xmlns="http://www.w3.org/2000/svg">
<path d="M17.1621 18.0772C18.5882 15.3676 20.4146 12.9025 22.6007 10.7798C25.5717 7.8949 25.4824 10.3798 25.7001 13.1522C26.0284 17.3328 27.1621 29.8391 27.1621 25.6449" stroke="#D4D4D4" stroke-width="3" stroke-linecap="round"/>
<path d="M35.9898 2.29287C26.4413 2.29287 17.8308 5.06151 9.27353 9.28667C3.64772 12.0644 1.71799 15.2761 2.27975 21.5258C3.73031 37.6635 25.9829 37.9736 36.7241 31.6668C46.3266 26.0286 52.1751 13.6482 40.4658 6.48916C33.6618 2.32921 24.6508 0.949103 16.9317 2.81742C9.25256 4.67608 5.8658 8.69644 2 14.8817" stroke="#D4D4D4" stroke-width="3" stroke-linecap="round"/>
</svg>
