<svg width="46" height="45" viewBox="0 0 46 45" fill="none" xmlns="http://www.w3.org/2000/svg">
<path d="M18.774 20.1288C18.4921 16.6027 20.5681 15.0241 24.1677 15.0001C27.4425 14.9782 26.9141 19.3593 26.5708 21.5445C25.6681 27.2917 20.1339 31.5839 15.3563 34.2328C13.8384 35.0744 14.3083 35.0716 15.8369 34.9273C19.6678 34.5657 23.4245 33.5719 27.2117 32.9239C27.9496 32.7976 33.5306 31.1617 32.2315 33.1109" stroke="#D4D4D4" stroke-width="3" stroke-linecap="round"/>
<path d="M20.6048 2C11.7318 5.95689 5.5577 13.8523 3.11736 23.3426C1.48762 29.6804 6.86315 34.9498 11.4141 38.5114C24.8201 49.003 39.5014 40.5646 43.9588 25.4098C47.3786 13.7824 31.5901 8.98838 22.7279 7.4753C10.3468 5.36142 3.98842 14.6967 2 25.6332" stroke="#D4D4D4" stroke-width="3" stroke-linecap="round"/>
</svg>
