<svg width="43" height="40" viewBox="0 0 43 40" fill="none" xmlns="http://www.w3.org/2000/svg">
<path d="M18.2168 12.6087C18.2168 11.4037 17.6913 9.69383 19.5218 10.2349C24.0537 11.5745 24.8177 14.6739 23.4663 18.8992C23.0387 20.236 21.4161 23.172 19.6404 23.172C18.6854 23.172 22.7628 20.8271 23.7332 20.7389C26.174 20.5169 26.7849 22.3446 26.7583 24.4775C26.7098 28.3585 24.0745 31.0609 20.3819 31.9845C15.93 33.098 12.2303 30.2339 18.7507 30.2339" stroke="#D4D4D4" stroke-width="3" stroke-linecap="round"/>
<path d="M20.6971 6.94041C16.2922 1.74899 9.12204 7.26182 6.37725 11.7533C3.86018 15.8722 1.21468 21.939 2.21793 26.9051C5.07753 41.0602 26.3811 40.6506 34.809 32.8469C43.4656 24.8315 42.2397 13.0936 34.3634 5.21727C30.5477 1.40153 23.7709 1.93741 18.8254 2.15722C11.9816 2.4614 7.61987 6.03024 3.58457 11.2185" stroke="#D4D4D4" stroke-width="3" stroke-linecap="round"/>
</svg>
