<svg width="45" height="66" viewBox="0 0 45 66" fill="none" xmlns="http://www.w3.org/2000/svg">
<path d="M3.42845 5.80237C1.26036 3.35154 1.58911 3.42011 4.21853 9.55545C9.53224 21.9542 15.2304 34.2518 21.2061 46.3456C21.4925 46.9251 31.3553 65.3995 32.9592 64.0246C35.0239 62.2548 22.5576 41.8324 21.7988 40.3703C15.3738 27.9895 10.0494 14.8458 3.13211 2.74064C0.870059 -1.21795 4.7259 11.7803 6.39136 16.0246C9.99761 25.2147 14.0685 40.5629 22.1445 47.2345C28.5033 52.4875 16.5323 31.7137 13.3049 24.1233C11.6267 20.1765 8.38173 14.6571 7.87285 10.2468C7.52542 7.23578 11.7705 14.8929 13.6013 17.3085C18.987 24.4147 24.6176 31.9145 31.2802 37.9011C36.551 42.6372 31.9685 33.0307 31.379 31.6789C28.3189 24.6607 20.8543 14.6693 20.4654 6.88878C20.3268 4.11579 24.0225 11.1583 25.6507 13.4073C28.4835 17.3205 31.4286 21.0879 34.7864 24.5678C35.2489 25.0471 42.3311 32.0725 39.774 26.8394C36.422 19.9794 31.9682 13.73 28.7123 6.79002C26.2763 1.59756 30.9931 8.45273 32.2679 9.75297C35.8139 13.3699 39.2438 17.0685 42.5395 20.9135" stroke="#E1251B" stroke-width="3" stroke-linecap="round"/>
</svg>
