<svg width="57" height="55" viewBox="0 0 57 55" fill="none" xmlns="http://www.w3.org/2000/svg">
<path d="M11.722 4.44424C5.46085 14.612 4.99996 27.47 7.87024 39.0121C10.5145 49.6453 18.4707 53.0576 28.6603 53.0368C42.5712 53.0086 55.9598 38.5079 55.0307 24.4442C54.2149 12.0967 39.63 0.168434 27.3764 2.76524C19.0469 4.53043 12.3161 10.7173 8.21586 17.9257C4.34096 24.7381 3.5392 31.668 1.94434 39.1109" stroke="#E1251B" stroke-width="3" stroke-linecap="round"/>
<path d="M14.833 23.5557C16.2653 27.4229 18.1776 30.6425 20.1664 34.2224" stroke="#E1251B" stroke-width="3" stroke-linecap="round"/>
<path d="M26.3887 18.2222C27.8856 22.129 29.9228 24.977 32.1664 28.4444" stroke="#E1251B" stroke-width="3" stroke-linecap="round"/>
<path d="M16.3333 42.7778C16.075 42.7778 20.4457 43.1193 20.7281 43.1235C28.8701 43.2469 40.7822 43.2924 42.4072 33.3952C42.6568 31.8753 41.3183 16.0149 39.4442 17.889" stroke="#E1251B" stroke-width="3" stroke-linecap="round"/>
</svg>
