<svg width="141" height="163" viewBox="0 0 141 163" fill="none" xmlns="http://www.w3.org/2000/svg">
<path d="M62.174 133.905L64.6592 143.156C64.6592 143.156 57.9377 146.239 45.4293 145.515C41.9992 146.764 40.6847 149.056 45.8195 151.05L75.3653 162.474C75.3653 162.474 82.4256 162.351 80.2793 156.775C78.1329 151.199 71.7555 131.711 71.7555 131.711L62.174 133.905Z" fill="#FFCC96"/>
<path d="M22.4208 18.1692C21.9074 21.1654 24.0948 40.5349 24.0948 40.5349L24.7726 17.7324L22.4208 18.1692Z" fill="#C4BBB7"/>
<path d="M96.999 48.9118L100.486 37.5235C100.486 37.5235 85.8513 37.4207 79.9463 52.3294C84.8398 50.9161 96.999 48.9118 96.999 48.9118Z" fill="#C4BBB7"/>
<path d="M71.5084 61.966L65.742 57.8546C65.4926 57.6786 65.2819 57.4531 65.1231 57.1922C64.9643 56.9313 64.8608 56.6405 64.8189 56.3379C64.777 56.0353 64.7977 55.7274 64.8797 55.4331C64.9616 55.1388 65.1031 54.8645 65.2953 54.6272L70.615 48.0285C70.8161 47.7792 71.0683 47.5761 71.3547 47.4329C71.6411 47.2897 71.9549 47.2098 72.2748 47.1986C72.5947 47.1874 72.9133 47.2452 73.209 47.368C73.5047 47.4907 73.7705 47.6757 73.9885 47.9103L79.1233 53.4607C79.5055 53.8739 79.7178 54.4162 79.7178 54.9793C79.7178 55.5423 79.5055 56.0847 79.1233 56.4979L74.4045 61.6371C74.0416 62.0308 73.5493 62.2807 73.0176 62.3411C72.4858 62.4015 71.9502 62.2683 71.5084 61.966Z" fill="#F28552"/>
<path d="M107.822 38.6965C107.822 38.6965 98.2407 36.8875 87.7451 43.6455C79.3805 51.0408 74.6514 61.9769 74.6514 61.9769L101.352 83.2428L118.415 41.7903L107.817 38.7068L107.822 38.6965Z" fill="#EAE4DE"/>
<path d="M29.0848 35.7408L16.0219 32.7498C16.0219 32.7498 8.67399 36.0543 6.46089 34.1168C4.24778 32.1794 4.65856 21.2072 4.65856 21.2072C4.65856 21.2072 -2.17077 8.53916 0.709859 2.04324C3.59049 -4.45267 5.73172 6.61712 5.73172 6.61712L19.9038 23.1961L26.7844 25.9815L29.0848 35.7408Z" fill="#FFB675"/>
<path d="M63.1228 137.426L76.1908 145.145L71.7287 131.711L62.1729 133.905L63.1228 137.426Z" fill="#F28552"/>
<path d="M29.7116 26.4492L24.4125 25.0205L19.3701 33.5155L29.0852 35.7408L29.7116 26.4492Z" fill="#F28552"/>
<path d="M59.6731 93.1253C59.6731 93.1253 48.3766 107.895 62.1738 133.905C83.4268 140.642 86.2407 142.05 86.2407 142.05L82.0404 121.699L74.559 93.2538L93.9583 92.1745L94.9852 81.3823C94.9852 81.3823 76.7926 63.2821 64.0069 43.8406C59.5551 37.0723 41.9272 21.367 24.7667 17.749C23.8989 40.6389 24.0889 40.5515 24.0889 40.5515C24.0889 40.5515 59.4164 67.7892 71.93 82.4821C69.2034 84.5069 59.6731 93.1253 59.6731 93.1253Z" fill="#EAE4DE"/>
<path d="M62.1117 106.132C62.5533 106.373 77.7729 116.102 77.7729 116.102L59.6727 93.1245C59.6727 93.1245 67.5289 84.6089 71.9346 82.4658C76.3659 86.5001 87.7396 92.1172 91.0926 91.4234C80.443 100.674 79.0001 105.813 79.0001 105.813L82.081 119.807L58.3428 119.293C58.3428 119.293 65.3415 115.737 72.7664 116.148C64.828 110.027 62.1117 106.132 62.1117 106.132Z" fill="#C4BBB7"/>
<path d="M65.1471 74.8294C65.1471 74.8294 49.3114 44.2924 42.8467 37.9609C46.097 47.895 57.3268 70.9544 65.1471 74.8294Z" fill="#C4BBB7"/>
<path d="M54.5128 65.9844C54.5128 65.9844 43.8068 41.8303 32.2432 37.5391C39.0365 46.2037 54.5128 65.9844 54.5128 65.9844Z" fill="#C4BBB7"/>
<path d="M84.9826 65.5527C84.2175 66.1694 79.1084 72.6654 79.1084 72.6654C79.1084 72.6654 87.5911 89.4036 101.065 85.8936C88.4692 70.8564 84.9826 65.5527 84.9826 65.5527Z" fill="#C4BBB7"/>
<path d="M64.8141 45.0273C63.9309 45.7468 59.135 83.8024 91.0941 91.4238C68.0799 88.1244 57.6818 64.4688 62.0618 42.0518C61.4405 45.2226 64.8141 45.0273 64.8141 45.0273Z" fill="#C4BBB7"/>
<path d="M91.3244 98.974L78.9443 69.4648L96.264 98.2905L91.3244 98.974Z" fill="black"/>
<path d="M77.3428 94.8253L78.6368 66.8477L82.0052 95.3546L77.3428 94.8253Z" fill="black"/>
<path d="M75.1533 58.6663C75.1533 58.6663 79.826 83.2213 97.1406 85.5185C87.3177 78.7091 79.4974 58.6406 79.4974 58.6406L75.1533 58.6663Z" fill="black"/>
<path d="M89.1826 43.4851C89.1826 43.4851 106.179 45.8491 112.926 49.2564C113.301 48.3069 113.77 47.3978 114.328 46.5429C114.328 46.5429 103.006 42.8889 102.862 42.8684C102.718 42.8478 117.886 44.4101 118.6 44.3741C119.314 44.3382 119.73 45.4534 118.831 46.4761C117.792 47.8698 116.83 49.3195 115.95 50.8187L113.547 61.0405C113.547 61.0405 111.226 52.2114 109.66 50.2482C108.094 48.2851 92.1043 44.3485 89.1826 43.4851Z" fill="#C4BBB7"/>
<path d="M95.2823 59.3711L84.874 66.1342C84.874 66.1342 103.703 73.0875 103.637 72.4862C103.637 72.2653 99.5596 60.219 99.5596 60.219L99.1128 65.204L95.2823 59.3711Z" fill="#C4BBB7"/>
<path d="M112.978 60.6711C111.951 64.8904 107.9 67.5319 103.889 66.5709C99.8791 65.6099 97.4554 61.4317 98.467 57.1919C99.4785 52.9521 103.545 50.3311 107.551 51.2921C111.556 52.2532 113.984 56.4519 112.978 60.6711Z" fill="#C4BBB7"/>
<path d="M88.1704 67.4135L81.8135 58.754L88.9714 52.8594L94.6299 62.0945L88.1704 67.4135Z" fill="#FFB675"/>
<path d="M81.5281 60.4291L76.6757 55.7422C76.4665 55.5396 76.3009 55.2963 76.1893 55.0272C76.0776 54.7581 76.0223 54.4689 76.0266 54.1776C76.0309 53.8862 76.0949 53.5989 76.2145 53.3332C76.334 53.0676 76.5068 52.8292 76.7219 52.633L82.6937 47.1752C82.9189 46.9688 83.1858 46.8132 83.4763 46.719C83.7669 46.6248 84.0742 46.5942 84.3776 46.6293C84.6809 46.6644 84.9733 46.7644 85.2347 46.9224C85.4961 47.0804 85.7205 47.2928 85.8927 47.5452L89.9646 53.5323C90.2674 53.9753 90.3917 54.5164 90.3127 55.0473C90.2336 55.5782 89.9571 56.0595 89.5384 56.3949L84.342 60.5576C83.9376 60.8825 83.4288 61.0487 82.9108 61.025C82.3928 61.0014 81.9012 60.7895 81.5281 60.4291Z" fill="#FFB675"/>
<path d="M94.7189 61.0146L85.2041 69.6741C85.2041 69.6741 90.8883 85.6055 102.442 86.4483C108.665 87.358 111.417 74.51 112.039 70.9178C112.66 67.3255 113.713 60.0792 113.713 60.0792L100.424 59.0977V69.0574L94.7446 61.0351L94.7189 61.0146Z" fill="#EAE4DE"/>
<path d="M99.1795 67.4486C98.6095 66.9347 108.299 78.2409 108.299 78.2409L108.417 72.3514C108.417 72.3514 102.579 70.6452 99.1795 67.4486Z" fill="#C4BBB7"/>
<path d="M113.548 61.0416C112.598 65.0141 108.865 67.522 105.209 66.6432C101.553 65.7644 99.3605 61.8381 100.31 57.8707C101.26 53.9032 104.998 51.3902 108.654 52.269C112.31 53.1478 114.498 57.0741 113.548 61.0416Z" fill="#EAE4DE"/>
<path d="M92.6491 54.8645C92.0946 56.6581 90.816 58.4619 89.1883 57.506C87.5605 56.5502 86.0817 53.4358 87.0162 51.8067C87.9507 50.1776 89.3731 48.348 91.0008 49.2834C92.6285 50.2187 93.3372 52.7112 92.6491 54.8645Z" fill="#FFB675"/>
<path d="M89.4126 46.5515L92.5907 50.936C92.761 51.171 92.8311 51.464 92.7855 51.7507C92.74 52.0375 92.5824 52.2943 92.3477 52.4648L90.6852 53.6719C90.4515 53.8416 90.16 53.9114 89.8749 53.866C89.5898 53.8206 89.3343 53.6637 89.1648 53.4298L85.9867 49.0454C85.8172 48.8115 85.7474 48.5198 85.7928 48.2344C85.8382 47.9491 85.9949 47.6934 86.2286 47.5238L87.8911 46.3166C88.1248 46.1469 88.4163 46.0771 88.7014 46.1225C88.9865 46.1679 89.2419 46.3248 89.4114 46.5587L89.4126 46.5515Z" fill="#FFB675"/>
<path d="M98.6566 38.0273L96.5205 42.1387C103.622 42.4418 110.655 43.6507 117.45 45.7361C117.852 43.8214 118.585 41.9917 119.617 40.3297L98.6566 38.0273Z" fill="#F7A468"/>
<path d="M105.63 10.5328C106.03 9.81329 111.237 4.17049 123.74 4.11396C109.727 2.23816 104.572 7.49039 103.581 12.0437L105.63 10.5328Z" fill="#4C4141"/>
<path d="M96.9775 39.8773C96.9775 39.8773 103.483 44.811 117.214 42.4058C119.17 38.8804 119.591 38.166 119.591 38.166L96.9775 39.8773Z" fill="#D16634"/>
<path d="M109.177 9.33113C108.941 9.39794 102.137 11.1607 98.9845 19.5375C98.471 20.8326 99.6983 21.7628 99.6983 21.7628L99.1848 23.027C99.1848 23.027 94.4505 24.43 94.2502 24.9285C94.05 25.427 93.5211 26.7581 95.5082 27.6112C94.014 30.8591 92.0576 40.86 102.183 41.7542C112.309 42.6484 121.732 38.7426 121.732 38.7426L132.874 15.4159C132.874 15.4159 126.199 4.49003 109.177 9.33113Z" fill="#FFCC96"/>
<path d="M112.663 10.3066C112.663 10.3066 106.291 18.5653 102.009 20.4668C100.278 22.7434 101.223 24.9841 105.089 25.2924C105.089 25.2924 95.4155 28.489 96.9662 36.2132C97.8699 40.7202 103.903 42.1232 107.164 41.8406C110.425 41.5579 122.363 39.271 122.363 39.271L134.004 22.8565C134.004 22.8565 126.363 9.79785 126.378 9.63854C126.394 9.47922 112.663 10.3066 112.663 10.3066Z" fill="#FFA96B"/>
<path d="M118.692 11.8754L114.615 19.0702C116.438 19.7023 121.901 20.8175 121.901 20.8175L115.513 29.5541L122.882 32.504C122.882 32.504 115.642 39.0565 117.234 42.4072C128.884 40.4646 140.279 38.5734 140.427 22.8783C140.874 12.2711 130.029 6.86466 120.987 5.67751C111.945 4.49036 105.388 8.76101 103.601 12.0295C108.624 11.6949 113.662 11.6435 118.692 11.8754Z" fill="#4C4141"/>
<path d="M106.913 22.4668C106.427 22.4668 105.943 22.5115 105.465 22.6005C105.002 22.6715 104.546 22.7868 104.104 22.9448C103.69 23.152 103.259 23.3239 102.815 23.4587C102.308 23.558 101.789 23.5788 101.275 23.5204C101.255 23.5167 101.237 23.5057 101.225 23.4895C101.213 23.4734 101.207 23.4532 101.208 23.433C101.208 23.433 101.208 23.433 101.208 23.4073C101.456 22.9077 101.858 22.5006 102.353 22.2459C102.838 22.0304 103.364 21.9268 103.894 21.9427C104.925 21.8348 105.967 21.974 106.934 22.3486C106.949 22.3564 106.961 22.3695 106.968 22.3856C106.975 22.4017 106.975 22.4196 106.97 22.436C106.963 22.4452 106.955 22.4528 106.945 22.4581C106.935 22.4635 106.924 22.4664 106.913 22.4668Z" fill="#4C4141"/>
<path d="M102.282 20.7959C102.582 20.3403 102.985 19.9618 103.458 19.691C103.856 19.4478 104.291 19.274 104.747 19.1771C105.206 19.0998 105.674 19.0998 106.133 19.1771C106.671 19.2518 107.185 19.4506 107.633 19.7578H107.674C107.679 19.7626 107.684 19.7686 107.687 19.7752C107.69 19.7819 107.691 19.7891 107.691 19.7964C107.691 19.8036 107.69 19.8108 107.687 19.8175C107.684 19.8241 107.679 19.83 107.674 19.8349C107.664 19.8389 107.653 19.8389 107.643 19.8349L104.978 20.4207L102.287 20.873C102.274 20.8747 102.26 20.8715 102.249 20.864C102.238 20.8564 102.229 20.845 102.226 20.8319C102.223 20.8183 102.223 20.8043 102.226 20.7908L102.282 20.7959Z" fill="#4C4141"/>
<path d="M134.38 24.3679C134.38 24.3679 127.869 14.6703 117.204 16.8184C124.87 18.5246 134.38 24.3679 134.38 24.3679Z" fill="#665757"/>
<path d="M134.334 22.0139C134.334 22.0139 129.138 12.455 119.849 11.6533C129.677 17.4349 134.334 22.0139 134.334 22.0139Z" fill="#665757"/>
<path d="M122.244 36.7742C119.676 38.8299 116.39 38.9738 114.921 37.1185C113.453 35.2633 114.695 32.853 117.268 30.8076C119.84 28.7622 122.767 27.8526 124.236 29.7078C125.704 31.5631 124.821 34.7288 122.244 36.7742Z" fill="#F7A468"/>
<path d="M120.89 35.5668C119.751 36.718 117.471 36.867 116.623 36.0293C116.446 35.8331 116.332 35.5881 116.295 35.326C116.258 35.0639 116.301 34.7969 116.418 34.5595L116.48 34.6314C116.752 34.904 117.121 35.0572 117.507 35.0572C117.892 35.0572 118.261 34.904 118.534 34.6314C118.806 34.3588 118.959 33.9891 118.959 33.6036C118.959 33.2181 118.806 32.8484 118.534 32.5758C118.413 32.4555 118.273 32.358 118.118 32.288C119.227 31.3527 120.654 31.1985 121.435 31.9745C122.215 32.7505 122.025 34.431 120.89 35.5668Z" fill="#F7845E"/>
<path d="M94.0255 25.5195C94.0255 25.5195 97.4197 27.457 98.041 28.0891C98.6623 28.7212 93.8099 28.2638 94.0255 25.5195Z" fill="#F7A468"/>
<path d="M97.6553 30.3701C97.6553 30.3701 103.257 32.0404 102.159 35.9975C101.116 34.574 97.6553 30.3701 97.6553 30.3701Z" fill="#C73931"/>
</svg>
