<svg width="158" height="133" viewBox="0 0 158 133" fill="none" xmlns="http://www.w3.org/2000/svg">
<path d="M109.37 117.809L96.79 105.936C96.3674 105.538 96.1013 105.001 96.04 104.423C95.9786 103.845 96.126 103.264 96.4554 102.785L98.4626 98.1345C98.786 97.657 99.2687 97.3102 99.8243 97.1563C100.38 97.0025 100.972 97.0516 101.495 97.2948L120.611 105.857C120.973 106.027 121.287 106.283 121.527 106.603C121.766 106.924 121.923 107.298 121.984 107.693C122.045 108.089 122.008 108.493 121.876 108.871C121.744 109.248 121.521 109.587 121.227 109.859L112.667 117.831C112.216 118.245 111.626 118.472 111.014 118.469C110.402 118.465 109.815 118.229 109.37 117.809Z" fill="#FFB675"/>
<path d="M87.4123 92.6387L87.2848 92.9735L84.0244 101.695L98.5157 107.11H98.5953C99.5777 107.479 100.666 107.442 101.621 107.007C102.576 106.573 103.319 105.776 103.688 104.793L104.293 103.156C104.661 102.172 104.625 101.082 104.19 100.126C103.756 99.1692 102.961 98.4241 101.978 98.0543L95.5208 95.6627L89.3823 93.3668L87.4123 92.6387Z" fill="#FFB675"/>
<path d="M87.2848 92.9746L84.0244 101.696L98.5157 107.112C99.2881 105.135 99.4185 102.965 98.8885 100.91C98.3585 98.855 97.195 97.0193 95.5633 95.6638L89.4248 93.3679H89.3186L87.2848 92.9746Z" fill="#F28552"/>
<path d="M144.204 130.4L136.605 114.132C136.351 113.587 136.299 112.969 136.46 112.389C136.621 111.809 136.983 111.306 137.481 110.97L142.165 107.818C142.661 107.485 143.258 107.338 143.852 107.406C144.445 107.473 144.995 107.749 145.404 108.185L154.745 117.092C155.971 118.394 158.217 120.568 156.481 122.885L148.372 131.58C148.028 131.802 147.64 131.948 147.235 132.008C146.83 132.069 146.416 132.043 146.022 131.931C145.628 131.819 145.262 131.625 144.948 131.361C144.635 131.097 144.381 130.77 144.204 130.4Z" fill="#FFCC96"/>
<path d="M132.49 97.9004L126.341 105.341L138.273 115.194C138.855 115.674 139.603 115.904 140.354 115.832C141.104 115.76 141.796 115.393 142.276 114.812L144.815 111.734C145.051 111.446 145.229 111.114 145.337 110.757C145.446 110.4 145.482 110.026 145.446 109.655C145.409 109.283 145.3 108.923 145.125 108.594C144.949 108.265 144.71 107.974 144.422 107.738L132.49 97.9004Z" fill="#FFB675"/>
<path d="M132.49 97.9004L126.341 105.341L136.011 113.313C137.836 110.332 138.962 106.976 139.303 103.497L132.49 97.9004Z" fill="#F28552"/>
<path d="M81.2256 80.6446C95.4461 90.5457 115.109 106.559 125.985 117.603C132.266 114.414 137.136 109.136 138.601 102.573C125.645 89.0789 102.848 71.3865 93.1521 66.1729L81.2256 80.6446Z" fill="#F7F7F7"/>
<path d="M126.02 105.761C126.02 105.761 108.12 89.8175 85.2119 82.1113C101.498 84.1681 126.312 99.0862 126.312 99.0862L126.02 105.761Z" fill="#DAD6D3"/>
<path d="M126.173 111.224C126.173 111.224 107.056 90.1678 85.9962 82.5254C85.4355 82.9151 84.8222 83.2229 84.1748 83.4395C84.1748 83.4395 106.684 95.9129 125.753 116.491L126.173 111.224Z" fill="#DAD6D3"/>
<path d="M82.8435 94.1855L79.4503 90.7576L80.7991 80.6598C80.7991 80.6598 67.9486 73.5913 58.9214 78.1885C54.1742 80.3143 61.9429 105.293 64.9325 105.856C70.4019 103.056 82.8435 94.1855 82.8435 94.1855Z" fill="#DAD6D3"/>
<path d="M68.7939 108.95L84.1933 112.101C86.4008 112.591 88.7084 112.324 90.7462 111.343C92.7839 110.363 94.4336 108.726 95.4305 106.695C96.4274 104.664 96.7138 102.356 96.2437 100.143C95.7736 97.9295 94.5743 95.9383 92.8381 94.4887C92.0387 93.826 91.1435 93.2884 90.1831 92.8943H90.1459C89.0107 92.4442 87.8037 92.2029 86.5828 92.1821C82.4675 91.3584 76.2493 90.0988 76.0316 90.0297C75.6918 89.9287 68.7939 108.95 68.7939 108.95Z" fill="#DAD6D3"/>
<path d="M82.9993 103.54C82.7657 103.821 86.2544 95.9396 79.4521 90.7578L83.2808 91.5338C83.2808 91.5338 88.8617 96.402 82.9993 103.54Z" fill="#CCC3BE"/>
<path d="M82.1365 103.444C83.8389 98.3194 81.0679 92.7836 75.9473 91.0798C70.8267 89.3759 65.2956 92.1492 63.5932 97.2742C61.8908 102.399 64.6618 107.935 69.7824 109.639C74.903 111.343 80.4341 108.569 82.1365 103.444Z" fill="#F7F7F7"/>
<path d="M58.0901 85.3416C54.5801 74.1065 62.1895 73.9949 62.1895 73.9949L90.2163 60.9209L101.161 68.17C101.161 68.17 97.1567 89.0831 58.0901 85.3416Z" fill="#CCC3BE"/>
<path d="M57.3309 86.097C55.5998 75.877 57.3309 71.7475 57.3309 71.7475L84.9435 58.4609L97.1568 65.9014C97.1568 65.9014 95.1177 89.222 57.3309 86.097Z" fill="#F7F7F7"/>
<path d="M126.675 70.2809L111.095 56.4629L104.771 64.1319L117.775 75.5318L126.675 70.2809Z" fill="#FFB675"/>
<path d="M116.712 75.1225C116.216 75.7248 115.908 76.461 115.83 77.238C115.751 78.015 115.904 78.7979 116.27 79.4878C116.636 80.1776 117.198 80.7433 117.885 81.1134C118.572 81.4836 119.354 81.6414 120.13 81.5671C120.907 81.4928 121.645 81.1896 122.249 80.6959C122.854 80.2021 123.299 79.5401 123.527 78.7934C123.756 78.0467 123.758 77.2489 123.534 76.5009C123.309 75.7528 122.868 75.0882 122.267 74.591C121.867 74.2609 121.407 74.0128 120.911 73.8608C120.416 73.7089 119.895 73.6561 119.38 73.7054C118.864 73.7548 118.363 73.9053 117.905 74.1485C117.447 74.3916 117.042 74.7226 116.712 75.1225Z" fill="#FFB675"/>
<path d="M87.4077 73.2035C86.8236 73.1185 70.4153 72.3851 58.4463 76.6527C67.3575 73.6343 76.5667 71.5817 85.9156 70.5303L87.4077 73.2035Z" fill="#CCC3BE"/>
<path d="M89.0367 63.7753C89.0367 63.7753 72.4373 76.7483 56.9424 71.7472C72.586 71.2158 75.9207 67.9526 85.6754 61.7451L89.0367 63.7753Z" fill="#CCC3BE"/>
<path d="M119.107 63.5097L110.314 68.9944L107.106 66.3477L114.031 59.3164L119.107 63.5097Z" fill="#F28552"/>
<path d="M67.0681 34.4765C67.6947 36.6024 68.9956 39.1481 71.3162 42.1987C72.0383 43.15 72.8402 44.1279 73.7004 45.1589C78.2916 50.393 83.1423 55.3933 88.2342 60.1409C96.8525 68.3095 104.855 75.0962 104.855 75.0962L116.569 60.8849C90.2361 36.8097 69.67 25.5586 69.67 25.5586C69.67 25.5586 65.098 27.8651 67.0681 34.4765Z" fill="#E9E3E3"/>
<path d="M92.3771 63.9885C99.2803 70.3341 104.877 75.096 104.877 75.096L113.554 64.5731C89.6584 39.015 70.5419 26.4141 70.5419 26.4141C70.5419 26.4141 66.0761 28.221 67.0957 34.4763C67.7223 36.6022 69.0232 39.1479 71.3438 42.1985C72.0659 43.1498 72.8678 44.1277 73.728 45.1587C78.3192 50.3928 83.1699 55.3931 88.2618 60.1407L89.4884 61.2993L92.3771 63.9885Z" fill="#E9E3E3"/>
<path d="M92.377 63.9876C92.3027 60.2354 90.1786 49.6381 84.0029 42.458C89.8441 52.6887 89.5839 59.9963 89.483 61.2984L92.377 63.9876Z" fill="#CCC3BE"/>
<path d="M73.7169 45.1736C78.3081 50.4077 83.1588 55.408 88.2507 60.1556C86.4905 49.8312 81.7311 40.2544 74.5665 32.6205C67.127 24.6751 69.9148 34.8579 73.7169 45.1736Z" fill="#CCC3BE"/>
<path d="M81.0986 34.9756C94.9049 48.9584 103.098 61.942 107.856 71.4764L112.274 66.1193C105.568 58.4078 92.08 41.6508 81.0986 34.9756Z" fill="#D9D2CE"/>
<path d="M83.4495 52.4656C83.4495 52.4656 84.6071 53.9484 80.7414 57.658C76.8756 61.3676 64.4021 71.407 55.2528 67.2669C46.1035 63.1268 47.4894 46.7684 10.5628 14.482C6.80326 7.19565 11.3647 2.57192 11.3647 2.57192C11.3647 2.57192 20.9229 -1.9402 53.3624 15.5396C74.3214 29.6074 83.4495 52.4656 83.4495 52.4656Z" fill="#F7F7F7"/>
<path d="M72.853 45.9453L67.1924 65.2534L74.0903 50.8454L72.853 45.9453Z" fill="#CCC3BE"/>
<path d="M72.1977 40.9227C72.1977 41.5552 67.7425 61.2512 67.7425 61.2512L65.7725 40.1309L72.1977 40.9227Z" fill="#CCC3BE"/>
<path d="M25.4111 29.8525C25.4111 29.8525 43.3487 48.7566 53.6769 66.0664C53.7725 66.2205 53.8521 66.3693 53.9477 66.5234C55.5001 67.0206 57.103 67.3432 58.7268 67.4854C63.5059 67.8733 66.7823 66.2789 69.3789 65.2585L69.2833 65.1788C67.6053 63.7811 43.9859 44.0372 37.6563 38.1274C31.093 31.989 30.015 25.8027 30.015 25.8027L25.4111 29.8525Z" fill="#CCC3BE"/>
<path d="M45.2485 13.4302C45.3919 13.8288 36.4178 22.1887 39.5933 31.6169C35.7434 23.9744 39.0251 14.9449 41.096 12.6064L45.2485 13.4302Z" fill="#CCC3BE"/>
<path d="M31.0368 24.5481L24.0381 5.63867L28.9818 7.5732L31.0368 24.5481Z" fill="#CCC3BE"/>
<path d="M28.7412 20.2753C28.0827 20.1955 24.8276 9.56628 19.098 3.40663C13.5914 3.25251 10.1982 4.26228 10.1982 4.26228L28.7412 20.2753Z" fill="#CCC3BE"/>
<path d="M56.9702 70.1003C56.2905 70.4564 30.0479 67.4058 30.0479 67.4058L35.889 62.4473L57.5224 69.4573L56.9702 70.1003Z" fill="black"/>
<path d="M57.8176 69.0266C57.8176 69.0266 31.0015 57.0527 26.6048 55.0598C26.3817 54.9641 26.5569 54.2838 26.4561 54.2413L32.0158 50.8027L58.6778 67.9849L57.8176 69.0266Z" fill="black"/>
<path d="M54.5889 67.1398L56.9412 71.7317C56.9412 71.7317 67.7633 73.172 79.2013 64.1371C81.2799 62.4923 83.2016 60.658 84.9415 58.6577L83.2369 54.6133C83.2369 54.6133 77.7941 61.4798 69.2395 65.1788L69.1279 65.2266C65.8398 66.6726 62.2954 67.4442 58.7042 67.4959C57.3249 67.4927 55.9483 67.3736 54.5889 67.1398Z" fill="black"/>
<path d="M67.8595 62.6271L65.0292 26.8012C65.0292 26.8012 46.6402 17.5856 45.9924 17.6016C45.3446 17.6175 35.9616 24.4415 39.6203 31.6163C47.1925 41.3792 60.9032 57.3869 66.0806 63.3871C66.2251 63.5408 66.4134 63.6464 66.6199 63.6896C66.8264 63.7328 67.0411 63.7115 67.2351 63.6287C67.4291 63.5458 67.593 63.4053 67.7047 63.2262C67.8163 63.0471 67.8704 62.8379 67.8595 62.6271Z" fill="white"/>
<path d="M1.19213 15.3593L10.3733 29.3581L24.4717 13.3876L15.1046 4.35274C13.9773 3.26825 12.4959 2.62881 10.9341 2.55261C9.37233 2.47641 7.83578 2.9686 6.60842 3.9382L2.75859 6.99943C0.119461 9.06682 -0.480557 12.8083 1.19213 15.3593Z" fill="#F0F2F1"/>
<path d="M9.15337 29.6067L11.6193 31.6426C12.5129 32.3804 13.8349 32.2535 14.572 31.3591L26.2062 17.2438C26.9434 16.3494 26.8165 15.0263 25.9229 14.2885L23.457 12.2526C22.5634 11.5148 21.2414 11.6418 20.5043 12.5361L8.87008 26.6515C8.13292 27.5458 8.25976 28.8689 9.15337 29.6067Z" fill="#F0F2F1"/>
<path d="M9.98155 29.3372L12.0378 31.035C12.8545 31.7092 14.0628 31.5932 14.7365 30.7759L25.8942 17.2386C26.5679 16.4212 26.452 15.212 25.6353 14.5377L23.579 12.84C22.7623 12.1657 21.5541 12.2817 20.8804 13.0991L9.72264 26.6363C9.04893 27.4537 9.16486 28.663 9.98155 29.3372Z" fill="#CCC3BE"/>
<path d="M60.5168 31.8877L64.34 56.2765L45.5635 33.4555L60.5168 31.8877Z" fill="#D96A36"/>
<path d="M23.0231 27.0138L15.0723 20.4494L21.0905 13.1478C21.3029 12.8901 21.6088 12.7274 21.9411 12.6955C22.2733 12.6636 22.6046 12.7651 22.8621 12.9777L29.8257 18.727C30.0832 18.9396 30.2457 19.2458 30.2776 19.5784C30.3095 19.9109 30.2081 20.2425 29.9957 20.5002L24.775 26.8342C24.5645 27.0875 24.2632 27.2482 23.9357 27.2817C23.6082 27.3153 23.2806 27.2191 23.0231 27.0138Z" fill="#FFCC96"/>
<path d="M20.6893 29.2781L26.5305 35.8045C26.7523 36.0762 27.0284 36.2985 27.3412 36.457C27.654 36.6154 27.9965 36.7066 28.3466 36.7246C28.6968 36.7427 29.0468 36.6871 29.3742 36.5616C29.7016 36.4361 29.9991 36.2433 30.2475 35.9958L37.1507 28.3002C37.3577 28.0433 37.5108 27.7473 37.6008 27.4299C37.6909 27.1124 37.7161 26.7801 37.675 26.4527C37.6339 26.1252 37.5272 25.8095 37.3614 25.5243C37.1956 25.239 36.974 24.9902 36.7099 24.7926L30.5131 19.6639C30.0576 19.2601 29.4701 19.0371 28.8616 19.0371C28.2531 19.0371 27.6657 19.2601 27.2102 19.6639L20.6575 25.9724C20.2365 26.4215 20.0049 27.0159 20.0109 27.6316C20.0168 28.2474 20.2598 28.8372 20.6893 29.2781Z" fill="#FFB675"/>
<path d="M117.667 75.9992L122.887 83.5779C123.112 83.796 123.381 83.9638 123.676 84.0704C123.971 84.177 124.285 84.2199 124.597 84.1963C124.91 84.1727 125.214 84.0831 125.489 83.9335C125.764 83.7839 126.005 83.5775 126.195 83.3281L131.272 77.1684C131.663 76.7253 131.864 76.1449 131.829 75.5543C131.794 74.9636 131.527 74.4108 131.086 74.0169L124.639 68.7022C124.201 68.365 123.653 68.2037 123.102 68.2499C122.551 68.2961 122.037 68.5465 121.66 68.952L117.805 72.8583C117.383 73.2634 117.132 73.816 117.107 74.401C117.081 74.9861 117.282 75.5586 117.667 75.9992Z" fill="#FFB675"/>
<path d="M20.7707 27.7635L25.6613 33.3704C25.8651 33.6022 26.1159 33.7878 26.397 33.9149C26.6781 34.0421 26.983 34.1078 27.2915 34.1078C27.6 34.1078 27.9049 34.0421 28.186 33.9149C28.4671 33.7878 28.7179 33.6022 28.9217 33.3704L35.331 26.1744C35.5266 25.956 35.676 25.7002 35.7702 25.4224C35.8644 25.1446 35.9014 24.8507 35.8791 24.5582C35.8568 24.2657 35.7755 23.9808 35.6403 23.7206C35.505 23.4604 35.3185 23.2303 35.0921 23.0441L29.8298 18.702C29.4151 18.3587 28.8879 18.1816 28.3503 18.2052C27.8126 18.2288 27.3028 18.4513 26.9198 18.8296L20.8875 24.7607C20.4866 25.1505 20.2509 25.6797 20.2292 26.2387C20.2074 26.7977 20.4013 27.3436 20.7707 27.7635Z" fill="#FFCC96"/>
<path d="M46.961 26.6792C47.4488 30.9826 48.7672 35.1503 50.8428 38.9506C50.8428 38.9506 50.8428 38.9506 50.8693 38.9825C51.7246 40.9681 53.0408 42.7208 54.7085 44.0952C55.3255 44.6032 55.9866 45.055 56.6839 45.4451C59.6859 47.0479 63.1501 47.5594 66.4867 46.8927C69.8232 46.226 72.8256 44.4222 74.9825 41.7887C76.9669 39.4046 78.157 36.4594 78.3863 33.365C79.0023 31.4039 80.9193 24.7393 81.0892 19.4566C81.1047 19.2088 81.1047 18.9603 81.0892 18.7125C80.8868 17.2523 80.3802 15.8509 79.6024 14.599C76.241 8.78482 67.798 2.50824 59.4239 5.1815C48.4585 8.66258 46.2601 19.7383 46.961 26.6792Z" fill="#FFCC96"/>
<path d="M62.9751 20.0145L56.6826 45.445C59.301 46.8896 62.3036 47.4831 65.2741 47.1431C68.2446 46.8032 71.0358 45.5466 73.2608 43.5477C75.815 34.8211 79.1019 23.9367 81.0454 18.7124C81.141 18.452 81.2313 18.2075 81.3269 17.979C82.2349 15.6618 81.3268 14.7265 79.5586 14.5989C74.668 14.2535 62.9751 20.0145 62.9751 20.0145Z" fill="#FFA96B"/>
<path d="M62.013 36.6386C60.951 37.4145 60.5527 38.6688 61.1156 39.4394C61.6785 40.21 62.9954 40.1994 64.0574 39.4394C65.1194 38.6794 65.5177 37.4092 64.9548 36.6386C64.3919 35.868 63.075 35.8573 62.013 36.6386Z" fill="#544848"/>
<path d="M74.1703 36.4419C73.2622 37.3932 73.0074 38.6315 73.6074 39.2002C74.2074 39.7688 75.4287 39.4712 76.3368 38.5199C77.2448 37.5686 77.4944 36.3303 76.8944 35.7616C76.2943 35.193 75.073 35.4906 74.1703 36.4419Z" fill="#544848"/>
<path d="M62.3754 33.6953C62.4071 33.7178 62.4409 33.7374 62.4763 33.7537L65.5349 35.4013C65.6753 35.501 65.8353 35.5697 66.0043 35.603C66.1732 35.6362 66.3473 35.6331 66.515 35.5939C66.6826 35.5548 66.8401 35.4804 66.9769 35.3758C67.1137 35.2712 67.2268 35.1386 67.3086 34.987C67.3904 34.8354 67.4391 34.6681 67.4515 34.4962C67.4639 34.3243 67.4396 34.1518 67.3804 33.9899C67.3211 33.8281 67.2282 33.6808 67.1078 33.5576C66.9874 33.4344 66.8422 33.3382 66.6819 33.2754L63.6232 31.6332C63.3479 31.4676 63.0181 31.4182 62.7064 31.4959C62.3947 31.5737 62.1266 31.7722 61.9612 32.0477C61.7957 32.3233 61.7464 32.6534 61.824 32.9653C61.9017 33.2773 62.1 33.5456 62.3754 33.7112V33.6953Z" fill="#544848"/>
<path d="M73.6215 34.9331C73.7928 35.0477 73.9905 35.1166 74.1958 35.1334C74.4012 35.1501 74.6074 35.1141 74.795 35.0288L78.7776 33.2378C78.9336 33.1797 79.076 33.0903 79.1961 32.975C79.3161 32.8596 79.4113 32.7208 79.4756 32.5672C79.5399 32.4136 79.572 32.2484 79.5699 32.0818C79.5679 31.9153 79.5317 31.7509 79.4636 31.5989C79.3955 31.447 79.2969 31.3106 79.174 31.1983C79.0512 31.0859 78.9065 31.0001 78.7491 30.9459C78.5918 30.8918 78.425 30.8706 78.259 30.8836C78.0931 30.8966 77.9317 30.9436 77.7846 31.0216L73.7914 32.8126C73.5939 32.9028 73.424 33.0441 73.2991 33.2219C73.1743 33.3997 73.0991 33.6076 73.0813 33.8241C73.0634 34.0407 73.1036 34.2581 73.1976 34.4539C73.2916 34.6498 73.4361 34.817 73.6162 34.9384L73.6215 34.9331Z" fill="#544848"/>
<path d="M60.8877 46.1102C63.9038 46.9393 70.2972 44.9091 71.1681 43.4529C70.576 43.2803 69.9728 43.1489 69.3626 43.0596C65.8473 42.5282 63.5746 43.5911 62.2789 44.6062C61.7311 45.0224 61.2602 45.5315 60.8877 46.1102Z" fill="#C11A1A"/>
<path d="M62.374 44.6853C64.7339 44.6886 67.0679 44.1943 69.2241 43.2344C65.8256 42.687 63.6166 43.7074 62.374 44.6853Z" fill="white"/>
<path d="M81.8575 22.1989C81.8575 22.1989 71.8851 29.7829 59.024 22.2627L58.2009 28.6987L53.5067 24.8297L52.8111 32.605L44.8459 25.5206C44.8459 25.5206 44.1609 17.8941 47.2833 11.474C50.4056 5.05395 60.7391 -0.521086 70.8177 3.81034C79.2714 7.44023 84.4382 18.1226 81.8575 22.1989Z" fill="#544848"/>
<path d="M42.918 30.6384C44.134 33.3702 46.7147 34.8902 48.6848 34.0026C50.6549 33.1151 51.2655 30.2026 50.0495 27.4656C48.8335 24.7286 46.2581 23.2139 44.288 24.0961C42.318 24.9784 41.702 27.9014 42.918 30.6384Z" fill="#FFB675"/>
<path d="M44.5218 30.2344C44.9573 31.6428 46.7308 32.7269 47.7663 32.4081C47.9909 32.324 48.1855 32.175 48.3254 31.9801C48.4653 31.7852 48.5443 31.5531 48.5522 31.3133L48.4726 31.3398C48.3068 31.3927 48.1321 31.4122 47.9587 31.3972C47.7853 31.3821 47.6167 31.3328 47.4624 31.2522C47.3082 31.1715 47.1715 31.061 47.0602 30.9271C46.9488 30.7932 46.8652 30.6385 46.8139 30.4721C46.7627 30.3056 46.7449 30.1306 46.7617 29.9572C46.7784 29.7839 46.8293 29.6155 46.9115 29.462C46.9936 29.3084 47.1054 29.1727 47.2403 29.0626C47.3751 28.9525 47.5305 28.8703 47.6973 28.8207C47.8445 28.7729 47.9994 28.7531 48.1539 28.7622C47.6548 27.5452 46.5609 26.8171 45.6104 27.1094C44.6599 27.4017 44.0917 28.826 44.5218 30.2344Z" fill="#FF8861"/>
<path d="M119.99 76.4247C119.635 76.857 119.415 77.3852 119.359 77.9424C119.303 78.4996 119.413 79.061 119.676 79.5554C119.939 80.0499 120.342 80.4554 120.835 80.7205C121.328 80.9857 121.888 81.0987 122.445 81.0453C123.002 80.9918 123.531 80.7743 123.964 80.4202C124.398 80.0662 124.717 79.5915 124.881 79.056C125.045 78.5206 125.047 77.9485 124.886 77.4121C124.725 76.8756 124.409 76.3988 123.978 76.0421C123.692 75.8041 123.361 75.6252 123.005 75.5157C122.649 75.4061 122.275 75.368 121.905 75.4035C121.534 75.4391 121.174 75.5476 120.846 75.7229C120.517 75.8981 120.226 76.1366 119.99 76.4247Z" fill="#F28552"/>
<path d="M121.523 81.6053L124.001 83.6514L128.336 78.3914L125.858 76.3453L121.523 81.6053Z" fill="#FFB675"/>
<path d="M116.687 80.1151L120.62 83.3617C121.043 83.711 121.669 83.6509 122.018 83.2275L123.491 81.44C123.84 81.0166 123.78 80.3902 123.357 80.0409L119.424 76.7943C119.001 76.445 118.376 76.5051 118.027 76.9285L116.553 78.716C116.204 79.1394 116.264 79.7658 116.687 80.1151Z" fill="#FFCC96"/>
<path d="M45.7646 19.0641C45.7646 19.0641 59.5232 15.2056 72.4108 25.4097C70.2814 25.4585 68.1513 25.3466 66.0387 25.0749C66.0387 25.0749 59.6984 20.1164 45.7646 19.0641Z" fill="#B07156"/>
<path d="M74.1843 23.2513C74.1843 23.2513 62.0879 9.32167 49.0303 12.5689L50.2781 16.0341C50.2781 16.0341 65.1305 17.7507 74.1843 23.2513Z" fill="#7D6464"/>
<path d="M77.2852 23.6135C77.2852 23.6135 75.416 9.10985 60.3937 6.85645L55.4287 7.34008C55.4287 7.34008 68.481 11.9 77.2852 23.6135Z" fill="#7D6464"/>
<path d="M78.7349 22.1089C78.7349 22.1089 78.8146 11.9526 64.1587 5.3784C62.2098 1.1267 62.6187 0 62.6187 0C62.6187 0 81.5652 4.16667 78.7349 22.1089Z" fill="#7D6464"/>
<path d="M10.793 20.9556C11.1382 21.147 8.56805 26.6104 8.56805 26.6104L0.215249 14.1689C0.215249 14.1689 -1.37779 9.1678 4.12349 5.88867C1.3994 11.2511 2.99774 16.6242 10.793 20.9556Z" fill="#CCC3BE"/>
<path d="M64.4405 65.5564L42.1221 49.4531L46.1259 56.0698L64.4405 65.5564Z" fill="#E9E3E3"/>
<path d="M79.7718 23.0017C79.9789 22.821 79.4904 7.13754 62.6201 0C69.6879 4.34205 77.6159 9.56633 78.5823 23.9477C79.9576 23.2674 79.9789 22.821 79.9789 22.821L79.7718 23.0017Z" fill="#CF7659"/>
<path d="M74.1415 25.2765C74.1415 25.2765 66.7657 15.1309 52.2744 12.0963C58.1474 11.7402 69.7022 16.1247 76.0372 24.8514L74.1415 25.2765Z" fill="#CF7659"/>
</svg>
